<svg xmlns="http://www.w3.org/2000/svg" width="53" height="40" fill="none" xmlns:v="https://vecta.io/nano"><g clip-path="url(#A)" fill="#fff"><path d="M1.453 35.161h18.2a2.61 2.61 0 0 0 .13.625c.064.191.148.378.25.557a2.79 2.79 0 0 0 .266.384c.152.181.332.349.553.479a1.7 1.7 0 0 0 .365.159 1.48 1.48 0 0 0 .422.061h8.732a1.51 1.51 0 0 0 .495-.085 1.7 1.7 0 0 0 .365-.181 2.16 2.16 0 0 0 .489-.444c.204-.249.358-.526.468-.817a2.89 2.89 0 0 0 .129-.444c.02-.097.033-.196.041-.294h18.2v1.073c0 .321-.065.623-.181.9-.175.414-.469.769-.838 1.017a2.29 2.29 0 0 1-1.292.394H3.765c-.321 0-.623-.065-.9-.181-.414-.175-.769-.469-1.017-.838a2.29 2.29 0 0 1-.394-1.292V35.16v.001zm29.461-.122a1.18 1.18 0 0 1-.06.288 1.46 1.46 0 0 1-.13.288 1.33 1.33 0 0 1-.125.181c-.065.078-.128.13-.17.154-.021.012-.035.018-.044.02l-8.744.002c-.028-.008-.046-.017-.07-.032a.76.76 0 0 1-.158-.149 1.5 1.5 0 0 1-.231-.408c-.028-.075-.05-.15-.063-.218l-.018-.128h9.813l-.001.002zM3.791 30.896H48.06v2.69H3.757v-2.691c.011 0 .023.002.034.002v-.001zm-2.132 8.46c.6.406 1.328.644 2.106.644H48.25c.518 0 1.015-.105 1.466-.296.676-.286 1.25-.763 1.656-1.364s.644-1.328.644-2.106v-1.8a.73.73 0 0 0-.727-.727h-1.776V5.342c0-.44-.09-.863-.252-1.247a3.21 3.21 0 0 0-1.16-1.41 3.19 3.19 0 0 0-1.792-.547H37.09c-.402 0-.726.326-.726.727s.326.726.726.726h9.218a1.74 1.74 0 0 1 .681.137c.313.132.583.356.771.636s.299.614.299.979v24.101H3.791c-.011 0-.023.001-.034.002V5.342a1.74 1.74 0 0 1 .137-.681c.132-.313.356-.583.636-.771s.614-.299.979-.299h9.418c.402 0 .727-.326.727-.726a.73.73 0 0 0-.727-.727h-9.42a3.19 3.19 0 0 0-1.247.252 3.21 3.21 0 0 0-1.41 1.16 3.19 3.19 0 0 0-.547 1.792v28.366H.727a.73.73 0 0 0-.514.213.73.73 0 0 0-.213.513v1.8c0 .518.105 1.015.296 1.466a3.77 3.77 0 0 0 1.364 1.656h-.001zM19.8 9.885c.511-1.208 1.366-2.239 2.442-2.965a6.71 6.71 0 0 1 3.767-1.151 6.69 6.69 0 0 1 2.622.53 6.77 6.77 0 0 1 2.965 2.442 6.71 6.71 0 0 1 1.151 3.767 6.69 6.69 0 0 1-.53 2.622 6.77 6.77 0 0 1-2.442 2.965 6.71 6.71 0 0 1-3.766 1.151c-.932 0-1.816-.188-2.623-.53-1.208-.511-2.239-1.366-2.965-2.442a6.71 6.71 0 0 1-1.151-3.766c0-.932.188-1.816.529-2.623zm1.628 9.413a8.16 8.16 0 0 0 7.768.755 8.22 8.22 0 0 0 3.603-2.966 8.15 8.15 0 0 0 1.399-4.579c0-1.129-.229-2.209-.644-3.189-.622-1.471-1.66-2.72-2.967-3.603a8.16 8.16 0 0 0-4.579-1.399c-1.129 0-2.209.229-3.189.644a8.21 8.21 0 0 0-3.603 2.967 8.16 8.16 0 0 0-1.399 4.58 8.16 8.16 0 0 0 .644 3.188 8.22 8.22 0 0 0 2.967 3.603v-.001zM16.926 5.766l2.567.121a.73.73 0 0 0 .515-.181 9.05 9.05 0 0 1 2.86-1.71v-.002a.73.73 0 0 0 .394-.346l1.133-2.193h3.226l1.133 2.193a.73.73 0 0 0 .394.349 9.05 9.05 0 0 1 2.86 1.71c.141.125.327.19.515.181l2.566-.121 1.614 2.794-1.315 2.049-.026.016c-.255.147-.395.431-.358.722a9.1 9.1 0 0 1 .074 1.161 9.07 9.07 0 0 1-.175 1.777c-.061.305.077.616.348.773l.135.078 1.315 2.049-1.614 2.794-2.432-.114-.344-.199a.73.73 0 0 0-.805.053c-.694.532-1.468.964-2.3 1.277a.74.74 0 0 0-.258.166.73.73 0 0 0-.213.514v.451l-1.117 2.164h-3.226l-1.117-2.164v-.451c0-.306-.189-.574-.471-.68a9.02 9.02 0 0 1-2.3-1.277c-.231-.177-.548-.202-.805-.053l-.343.199-2.432.114-1.614-2.794 1.315-2.049.135-.078a.73.73 0 0 0 .349-.772 9.09 9.09 0 0 1-.175-1.778 9.08 9.08 0 0 1 .074-1.161c.037-.291-.103-.575-.358-.722l-.026-.016-1.315-2.049 1.614-2.794h.004zm-3.075 3.206l1.649 2.571.026.035-.042.929a10.57 10.57 0 0 0 .117 1.571.63.63 0 0 0-.101.124l-1.649 2.571a.73.73 0 0 0-.018.756l2.056 3.561c.135.235.392.376.664.362l3.05-.144a.73.73 0 0 0 .329-.097l.088-.051c.564.391 1.167.728 1.804 1.004v.139a.73.73 0 0 0 .081.333l1.401 2.713a.73.73 0 0 0 .646.393h4.111a.73.73 0 0 0 .646-.393l1.401-2.713a.73.73 0 0 0 .081-.333v-.139a10.45 10.45 0 0 0 1.804-1.004l.088.051c.1.057.214.092.329.097l3.05.144a.73.73 0 0 0 .664-.362l2.056-3.561a.73.73 0 0 0-.018-.756l-1.65-2.571a.71.71 0 0 0-.102-.124 10.57 10.57 0 0 0 .117-1.571l-.042-.929.026-.036 1.65-2.571a.73.73 0 0 0 .018-.756l-2.056-3.561c-.135-.235-.392-.376-.664-.362l-2.721.128c-.841-.701-1.793-1.273-2.825-1.686L28.708.391a.73.73 0 0 0-.646-.393H23.95a.73.73 0 0 0-.646.393l-1.209 2.342c-1.032.413-1.984.985-2.825 1.686l-2.721-.128a.73.73 0 0 0-.664.362L13.83 8.214a.73.73 0 0 0 .018.756l.003.001zm-.043 16.886l-.369-.018-.008-.004c-.257-.149-.574-.124-.805.053-.187.143-.395.259-.619.343-.283.107-.47.378-.47.68v.027l-.169.329h-.446l-.17-.329v-.027c0-.276-.155-.526-.402-.65a.57.57 0 0 0-.069-.03 2.42 2.42 0 0 1-.619-.344.73.73 0 0 0-.805-.053l-.008.004-.369.018-.223-.386.205-.319c.227-.165.34-.448.284-.728a2.41 2.41 0 0 1-.047-.48c0-.107.006-.211.02-.313a.72.72 0 0 0-.248-.643l-.215-.335.223-.386.532.025c.188.009.375-.056.515-.181.225-.199.485-.356.771-.461v-.002a.73.73 0 0 0 .394-.346l.23-.444h.446l.23.444c.084.162.223.285.394.348.285.105.546.262.771.461.141.125.327.19.515.181l.532-.025.223.386-.215.335a.73.73 0 0 0-.248.644 2.38 2.38 0 0 1 .02.313 2.52 2.52 0 0 1-.047.48c-.056.279.055.563.284.729l.205.319-.223.386.002-.001zm1.703-3.549l-.666-1.153c-.135-.235-.392-.376-.664-.362l-.698.033a3.92 3.92 0 0 0-.718-.427l-.311-.602a.73.73 0 0 0-.646-.393h-1.332a.73.73 0 0 0-.646.393l-.311.602a3.87 3.87 0 0 0-.718.427l-.698-.033a.73.73 0 0 0-.664.362l-.666 1.153c-.135.235-.129.527.018.755l.457.712-.005.168.019.383-.47.732a.73.73 0 0 0-.018.756l.666 1.153c.135.235.392.375.664.362l.987-.047c.011 0 .022-.002.033-.003l.236.132.017.036.454.879a.73.73 0 0 0 .646.393h1.332a.73.73 0 0 0 .646-.393l.454-.879c.006-.011.01-.025.017-.037l.236-.132.033.003.987.047a.73.73 0 0 0 .664-.362l.666-1.153a.73.73 0 0 0-.018-.756l-.47-.732.019-.383-.005-.168.457-.711a.73.73 0 0 0 .018-.755v.001zm28.817 3.549l-.369-.018-.008-.004c-.257-.149-.574-.124-.805.053a2.45 2.45 0 0 1-.619.343c-.283.107-.47.378-.47.68v.027l-.169.329h-.446l-.17-.329v-.027c0-.276-.155-.526-.402-.65a.57.57 0 0 0-.069-.03 2.42 2.42 0 0 1-.619-.344.73.73 0 0 0-.805-.053l-.008.004-.369.018-.223-.386.205-.319c.227-.165.34-.448.284-.728-.031-.154-.047-.314-.047-.48a2.38 2.38 0 0 1 .02-.313.72.72 0 0 0-.248-.643l-.215-.335.223-.386.532.025c.188.009.374-.056.515-.181.225-.199.485-.356.771-.461v-.002a.73.73 0 0 0 .394-.346l.23-.444h.446l.23.444c.084.162.223.285.394.348.285.105.546.262.771.461a.73.73 0 0 0 .515.181l.532-.025.223.386-.215.335a.73.73 0 0 0-.248.644c.014.102.02.206.02.313a2.52 2.52 0 0 1-.047.48c-.056.279.055.563.284.729l.205.319-.223.386.002-.001zm1.703-3.549l-.666-1.153c-.135-.235-.392-.376-.664-.362l-.698.033a3.92 3.92 0 0 0-.718-.427l-.311-.602a.73.73 0 0 0-.646-.393h-1.332a.73.73 0 0 0-.646.393l-.311.602c-.255.116-.495.26-.718.427l-.698-.033a.73.73 0 0 0-.664.362l-.666 1.153a.73.73 0 0 0 .018.755l.457.712-.005.168.019.383-.47.732a.73.73 0 0 0-.018.756l.666 1.153c.135.235.392.375.664.362l.987-.047c.011 0 .022-.002.033-.003l.236.132.017.036.454.879a.73.73 0 0 0 .646.393h1.332a.73.73 0 0 0 .646-.393l.454-.879c.006-.011.01-.025.017-.037l.236-.132.033.003.987.047a.73.73 0 0 0 .664-.362l.666-1.153a.73.73 0 0 0-.018-.756l-.47-.732a3.88 3.88 0 0 0 .019-.383l-.005-.168.457-.711a.73.73 0 0 0 .018-.755v.001zM22.878 11.44l.436 1h-.857l.42-1h.001zm-2.029 3.201a.45.45 0 0 0 .308.121c.085 0 .167-.03.248-.091a.56.56 0 0 0 .18-.226l.473-1.112h1.639l.496 1.135a.57.57 0 0 0 .161.222c.062.048.152.072.266.072a.44.44 0 0 0 .319-.128c.087-.085.131-.19.131-.315 0-.04-.008-.082-.026-.128s-.034-.08-.049-.105l-1.683-3.848c-.041-.091-.093-.165-.158-.226s-.155-.091-.271-.091a.39.39 0 0 0-.259.086c-.068.057-.122.129-.161.214L20.766 14.1a.47.47 0 0 0-.053.226.4.4 0 0 0 .135.315h.002zm5.464-3.764h.725a.56.56 0 0 1 .419.173.57.57 0 0 1 .171.413.57.57 0 0 1-.171.424c-.114.112-.253.17-.419.17h-.725v-1.18zm-.44 3.886c.293 0 .44-.15.44-.45v-1.361h.717a1.43 1.43 0 0 0 .573-.117 1.52 1.52 0 0 0 .795-.788c.078-.178.117-.369.117-.575a1.4 1.4 0 0 0-.117-.571 1.51 1.51 0 0 0-.792-.792 1.42 1.42 0 0 0-.571-.116H25.96c-.356 0-.534.176-.534.526v3.795c0 .301.149.45.447.45h-.001zm3.205-.895c-.311 0-.466.149-.466.447s.155.447.466.447h1.639c.301 0 .45-.147.45-.44a.4.4 0 0 0-.45-.455h-.368v-2.984h.368c.301 0 .45-.15.45-.45s-.151-.443-.45-.443h-1.639c-.311 0-.466.146-.466.436 0 .306.155.459.466.459h.383v2.984h-.383v-.001zm-17.421 9.557c-.137-.137-.322-.213-.515-.213a.72.72 0 0 0-.514.215l-.004.004a.73.73 0 0 0 0 1.025l.004.004c.135.135.322.213.513.214a.73.73 0 0 0 .514-.212l.004-.004a.73.73 0 0 0 .214-.514c0-.194-.076-.378-.213-.515l-.004-.004h.001zm30.592 0c-.137-.137-.322-.213-.515-.213a.72.72 0 0 0-.514.215l-.004.004a.73.73 0 0 0 0 1.025l.004.004a.74.74 0 0 0 .513.214.73.73 0 0 0 .514-.212l.004-.004c.137-.137.213-.32.213-.514s-.076-.378-.213-.515l-.004-.004h.002z"/></g><defs><clipPath id="A"><path fill="#fff" d="M0 0h52.016v40H0z"/></clipPath></defs></svg>