<svg xmlns="http://www.w3.org/2000/svg" width="40" height="40" fill="none" xmlns:v="https://vecta.io/nano"><g clip-path="url(#A)" fill="#fff"><path d="M19.557 6.878l-10.892 6.29c-.196.111-.313.32-.313.545v12.578a.63.63 0 0 0 .313.545l10.892 6.291c.098.055.206.085.313.085a.62.62 0 0 0 .313-.085l10.892-6.291c.196-.111.313-.32.313-.545V13.713a.63.63 0 0 0-.313-.545l-10.892-6.29c-.196-.111-.434-.111-.629 0h.003zm10.579 19.048l-10.263 5.925L9.61 25.925v-11.85L19.872 8.15l10.263 5.925v11.851zM24.853 6.483c.013.039.033.072.052.108a.51.51 0 0 0 .065.098.57.57 0 0 0 .098.085c.02.016.036.039.059.052l8.782 5.071v2.534a.63.63 0 0 0 .629.629h4.575a.63.63 0 0 0 .629-.629.63.63 0 0 0-.629-.629h-3.946v-2.27a.63.63 0 0 0-.313-.545l-8.782-5.071V.629A.63.63 0 0 0 25.443 0a.63.63 0 0 0-.629.629V6.28c0 .026.013.049.016.075.007.046.01.085.026.127h-.003zm-9.966 27.031c-.013-.036-.033-.069-.052-.104a.69.69 0 0 0-.069-.101.57.57 0 0 0-.095-.082c-.023-.016-.036-.039-.062-.055L5.827 28.1v-2.534a.63.63 0 0 0-.629-.629H.629a.63.63 0 0 0-.629.629.63.63 0 0 0 .629.629h3.946v2.27a.63.63 0 0 0 .313.545l8.782 5.071v5.289a.63.63 0 0 0 .63.63.63.63 0 0 0 .629-.629V33.72c0-.026-.013-.049-.016-.075-.007-.046-.01-.088-.026-.13zM19.87 4.565a.63.63 0 0 0 .629-.629V.629A.63.63 0 0 0 19.87 0a.63.63 0 0 0-.629.629v3.307a.63.63 0 0 0 .629.629zM39.11 24.94h-4.572a.63.63 0 0 0-.629.629v2.534l-8.782 5.071c-.026.013-.039.036-.062.055-.033.026-.065.049-.095.082s-.049.065-.069.101a.52.52 0 0 0-.052.104c-.016.042-.02.085-.026.13 0 .026-.016.049-.016.075v5.651a.63.63 0 0 0 .629.629.63.63 0 0 0 .629-.629v-5.289l8.782-5.071c.196-.111.313-.32.313-.545v-2.27h3.946a.63.63 0 0 0 .629-.629.63.63 0 0 0-.629-.629h.003zm0-5.569h-4.575a.63.63 0 0 0-.629.629.63.63 0 0 0 .629.629h4.575a.63.63 0 0 0 .629-.629.63.63 0 0 0-.629-.629z"/><path d="M.629 15.06h4.575a.63.63 0 0 0 .629-.629v-2.534l8.782-5.071c.023-.013.036-.036.059-.052a.57.57 0 0 0 .098-.085c.029-.033.046-.065.065-.098a.57.57 0 0 0 .052-.108c.013-.04.02-.085.026-.127 0-.026.016-.049.016-.075V.629A.63.63 0 0 0 14.303 0a.63.63 0 0 0-.629.629v5.289L4.892 10.99c-.196.111-.313.32-.313.545v2.27H.629a.63.63 0 0 0-.629.629.63.63 0 0 0 .629.629v-.003zm0 5.569h4.575a.63.63 0 0 0 .63-.629.63.63 0 0 0-.629-.629H.629A.63.63 0 0 0 0 20a.63.63 0 0 0 .629.629zM19.87 35.435a.63.63 0 0 0-.629.629v3.307a.63.63 0 0 0 .629.629.63.63 0 0 0 .629-.629v-3.307a.63.63 0 0 0-.629-.629zm-4.308-17.529a4.08 4.08 0 0 0 2.054 3.538v3.952c0 .985.799 1.784 1.784 1.784h.502c.985 0 1.784-.799 1.784-1.784v-3.952a4.09 4.09 0 0 0 2.054-3.538c0-2.253-1.833-4.089-4.086-4.089a4.1 4.1 0 0 0-4.089 4.089h-.003zm6.917 0a2.83 2.83 0 0 1-1.679 2.58.63.63 0 0 0-.372.574v4.337c0 .29-.235.525-.525.525H19.4c-.29 0-.525-.235-.525-.525V21.06a.63.63 0 0 0-.375-.574c-1.021-.453-1.679-1.467-1.679-2.58a2.83 2.83 0 0 1 2.831-2.83 2.83 2.83 0 0 1 2.827 2.83z"/></g><defs><clipPath id="A"><path fill="#fff" d="M0 0h39.739v40H0z"/></clipPath></defs></svg>