<svg xmlns="http://www.w3.org/2000/svg" width="235" height="211" fill="none" xmlns:v="https://vecta.io/nano"><g clip-path="url(#A)" fill="#fff"><path d="M100.083 172.384l3.2.079c3.339 0 6.699-.258 10.018-.774.676-.099 1.292.278 1.769.754.577.595 1.391.953 2.266.953.199 0 .398 0 .576-.06 1.75-.317 2.903-2.004 2.584-3.75-.318-1.706-1.967-2.897-3.756-2.579-1.113.198-1.968.952-2.366 1.904-.238.576-.695 1.092-1.331 1.191-4.274.655-8.587.873-12.9.674-35.401-1.726-62.811-31.885-61.082-67.222s31.942-62.699 67.343-60.973c34.725 1.687 61.737 30.754 61.121 65.219 0 .635-.457 1.17-1.014 1.508-.894.535-1.51 1.488-1.57 2.599-.04.853.259 1.687.835 2.321a3.2 3.2 0 0 0 2.226 1.052h.159c1.71 0 3.141-1.349 3.22-3.056a3.18 3.18 0 0 0-1.332-2.758c-.536-.376-.934-.972-.914-1.627.636-35.337-27.052-65.119-62.652-66.865a65.37 65.37 0 0 0-29.537 5.437c-.596.258-1.292.04-1.57-.536l-.596-1.329c-.258-.595-.099-1.27.238-1.825.557-.873.696-2.024.219-3.036-.517-1.151-1.67-1.885-2.942-1.885a3.31 3.31 0 0 0-1.312.278c-1.61.734-2.345 2.639-1.61 4.246.437.972 1.332 1.647 2.365 1.845.656.119 1.332.417 1.59 1.032l.596 1.349a1.18 1.18 0 0 1-.497 1.528C53.073 58.455 38.662 79.11 37.47 103.475c-.994 20.278 7.394 38.89 21.328 51.667.457.417.517 1.131.099 1.608l-1.988 2.301c-.437.496-1.133.615-1.789.536-.119 0-.238-.02-.378-.02-.934 0-1.829.397-2.445 1.111-1.173 1.349-1.014 3.373.318 4.544.577.496 1.332.793 2.107.793a3.22 3.22 0 0 0 3.22-3.452c0-.218-.06-.436-.119-.635-.179-.615-.139-1.329.278-1.805l1.988-2.302c.417-.476 1.133-.516 1.63-.119a65.59 65.59 0 0 0 38.342 14.702l.02-.019zm16.955-3.81s.199-.02.298-.02a1.62 1.62 0 0 1 1.59 1.33c.159.873-.417 1.726-1.292 1.885-.099 0-.199.019-.298.019-.775 0-1.451-.555-1.59-1.329-.159-.873.417-1.726 1.292-1.885zm51.242-58.115c.895.039 1.591.813 1.531 1.686-.04.873-.755 1.548-1.61 1.548h-.08c-.437-.02-.834-.219-1.113-.536-.298-.317-.437-.734-.417-1.171.04-.853.755-1.527 1.689-1.527zM73.011 42.482a1.56 1.56 0 0 1-.656.139c-.636 0-1.212-.377-1.491-.952-.358-.813 0-1.766.815-2.143a1.56 1.56 0 0 1 .656-.139c.636 0 1.212.377 1.491.952.358.814 0 1.766-.815 2.143zm-17.034 121.35c-.557.655-1.63.734-2.286.159-.676-.576-.755-1.607-.159-2.282.298-.357.755-.556 1.232-.556a1.58 1.58 0 0 1 1.053.397 1.67 1.67 0 0 1 .556 1.111c.02.437-.099.853-.398 1.171zm88.351-73.593c.517 1.151 1.67 1.885 2.942 1.885a3.11 3.11 0 0 0 1.332-.298c.775-.357 1.371-.992 1.689-1.806.299-.813.279-1.686-.079-2.46-.437-.972-1.332-1.647-2.365-1.825-.656-.119-1.332-.377-1.63-.972-3.837-7.599-9.561-13.968-16.717-18.591-.556-.357-.815-1.012-.835-1.667 0-.218-.039-.437-.099-.655a3.2 3.2 0 0 0-1.471-1.964c-.497-.298-1.053-.437-1.63-.437-1.133 0-2.206.615-2.783 1.587-.894 1.528-.397 3.512 1.133 4.405a3.16 3.16 0 0 0 1.63.456c.477 0 .954-.099 1.372-.317.596-.278 1.292-.377 1.848 0a46.24 46.24 0 0 1 11.449 10.516c.398.496.299 1.23-.218 1.607l-1.352.952c-.537.397-1.272.318-1.888.099-.358-.139-.736-.198-1.113-.198a3.07 3.07 0 0 0-1.849.595 3.18 3.18 0 0 0-1.312 2.083c-.139.853.04 1.706.537 2.401.596.853 1.59 1.349 2.624 1.349a3.17 3.17 0 0 0 1.868-.595c.915-.655 1.392-1.687 1.352-2.738-.02-.655.179-1.309.715-1.687l1.372-.972c.497-.357 1.192-.258 1.53.258a48.15 48.15 0 0 1 2.406 4.167c.298.615.079 1.31-.259 1.905-.497.873-.576 1.945-.139 2.917h-.06zm-17.491-24.742c-.438.734-1.471 1.012-2.227.575a1.62 1.62 0 0 1-.576-2.222c.298-.496.835-.794 1.391-.794.279 0 .577.079.815.218a1.55 1.55 0 0 1 .736.992 1.66 1.66 0 0 1-.179 1.23h.04zm9.62 19.584c-.696.496-1.769.318-2.266-.377-.258-.357-.338-.774-.278-1.21a1.61 1.61 0 0 1 .656-1.052c.278-.198.596-.298.934-.298a1.64 1.64 0 0 1 1.332.675c.517.734.338 1.746-.378 2.262zm10.137 2.361a1.57 1.57 0 0 1 .656-.139c.636 0 1.213.377 1.471.952.179.397.199.833.04 1.23s-.457.734-.835.913c-.795.357-1.789 0-2.147-.794-.377-.814 0-1.766.795-2.143l.02-.02zm28.126 78.057l-.656-.04c-.676.02-1.392-.099-1.869-.575l-10.037-10.02c-.497-.496-.577-1.23-.477-1.905a4.2 4.2 0 0 0-.06-1.408c-.139-.655-.06-1.37.417-1.846l35.52-35.456c.457-.457 1.173-.536 1.809-.397.219.04.437.079.656.079a3.16 3.16 0 0 0 2.246-.932c1.232-1.231 1.232-3.254 0-4.485-1.193-1.21-3.299-1.19-4.492 0-.736.735-1.034 1.747-.875 2.719.1.674.06 1.409-.437 1.885l-35.44 35.377c-.477.476-1.213.436-1.829.179a3.86 3.86 0 0 0-1.511-.298c-.218 0-.437 0-.636.059-.656.119-1.351-.019-1.809-.496l-1.709-1.706c-.477-.476-.596-1.171-.497-1.806a3.4 3.4 0 0 0 .06-.634c0-.239-.02-.457-.06-.675-.119-.675-.099-1.389.298-1.945 6.44-9.305 10.137-20.119 10.694-31.488.795-16.171-4.77-31.687-15.683-43.691-10.892-12.004-25.84-19.048-42.039-19.841S74.54 50.915 62.535 61.808C50.51 72.681 43.453 87.602 42.658 103.772c-1.352 27.441 16.22 52.421 42.179 60.715.656.218 1.113.814 1.371 1.449a4.09 4.09 0 0 0 .855 1.269c.755.774 1.789 1.191 2.862 1.191s2.107-.417 2.862-1.191c1.57-1.567 1.57-4.146 0-5.714-.775-.754-1.789-1.19-2.862-1.19-.815 0-1.59.238-2.246.674-.556.377-1.232.655-1.868.457-24.588-7.858-41.225-31.528-39.952-57.521a57.1 57.1 0 0 1 18.823-39.762c11.389-10.318 26.138-15.576 41.463-14.822 15.345.754 29.497 7.421 39.833 18.79s15.603 26.072 14.848 41.39a57.19 57.19 0 0 1-9.879 29.484c-.378.555-1.053.774-1.729.754h-.159a3.99 3.99 0 0 0-2.863 1.19c-.775.754-1.192 1.786-1.192 2.858a3.97 3.97 0 0 0 1.192 2.857c.776.773 1.789 1.19 2.863 1.19.377 0 .735-.059 1.093-.159.636-.178 1.332-.099 1.809.358l1.51 1.508c.477.476.517 1.23.338 1.884-.338 1.35 0 2.818 1.054 3.87.775.754 1.789 1.19 2.862 1.19.378 0 .735-.059 1.093-.159.636-.178 1.332-.099 1.809.357l9.919 9.901c.497.496.576 1.23.556 1.925-.02.853.278 1.706.934 2.361a3.2 3.2 0 0 0 2.246.933 3.2 3.2 0 0 0 2.247-.933c.795-.794 1.033-1.905.854-2.956-.338-1.746-1.968-2.322-2.584-2.401l-.079-.02zm24.568-54.981c.039-.119.099-.238.178-.317.14-.139.338-.218.557-.218s.398.079.557.218a.78.78 0 0 1 0 1.091c-.1.1-.199.159-.318.179-.259.059-.497-.099-.676-.298-.179-.178-.358-.416-.279-.674l-.019.019zM89.269 163.713c.159-.158.378-.238.596-.238s.437.08.596.238a.85.85 0 0 1 0 1.211.87.87 0 0 1-1.193 0 .85.85 0 0 1 0-1.211zm60.346-19.345c-.318.317-.874.317-1.212 0a.86.86 0 0 1-.259-.595c0-.219.08-.437.259-.596.159-.158.377-.257.596-.257s.437.079.596.257a.84.84 0 0 1 .239.596.84.84 0 0 1-.239.595h.02zm8.667 8.651c-.318.317-.875.317-1.213 0a.85.85 0 0 1 0-1.211c.159-.158.378-.257.596-.257s.438.079.597.257a.85.85 0 0 1 0 1.211h.02zm16.478 16.131c-.299.297-.815.297-1.094 0a.78.78 0 0 1 0-1.091c.139-.139.338-.219.557-.219s.397.08.556.219c.299.297.299.793 0 1.091h-.019zM81.935 41.291c1.193 1.012 2.981 1.032 4.174 0 .398-.337.696-.754.895-1.23.258-.635.636-1.27 1.292-1.409 6.062-1.329 12.244-1.865 18.406-1.567 32.062 1.567 59.134 25.199 65.137 56.528.119.675-.279 1.29-.756 1.786-.715.694-1.073 1.726-.914 2.778.258 1.567 1.59 2.698 3.18 2.698.179 0 .338 0 .517-.04a3.23 3.23 0 0 0 2.664-3.69 3.19 3.19 0 0 0-1.869-2.421c-.596-.258-1.113-.734-1.232-1.369-2.922-15.298-10.853-29.385-22.521-39.802a71.73 71.73 0 0 0-44.126-18.075c-6.321-.298-12.642.238-18.844 1.587-.636.139-1.252-.159-1.729-.615-.576-.536-1.352-.853-2.186-.853-.258 0-.517.04-.775.099-.835.198-1.531.734-1.988 1.468a3.18 3.18 0 0 0-.358 2.441 3.11 3.11 0 0 0 1.034 1.667v.02zm91.155 54.782s.179-.02.258-.02a1.62 1.62 0 0 1 1.59 1.369c.14.873-.457 1.706-1.351 1.865a1.62 1.62 0 0 1-1.849-1.349c-.139-.873.457-1.706 1.352-1.845v-.02zM82.65 38.017c.219-.377.576-.635.994-.734.119-.04.258-.04.397-.04.755 0 1.391.496 1.57 1.23.219.873-.318 1.746-1.173 1.964-.139.04-.258.04-.398.04-.755 0-1.391-.496-1.57-1.23-.099-.417-.04-.853.179-1.23zm18.943 21.826c.695-.02 1.252.476 1.649 1.032.577.813 1.511 1.349 2.584 1.349h.02c1.769 0 3.201-1.428 3.22-3.194 0-.853-.318-1.667-.934-2.282-.596-.615-1.411-.952-2.286-.952a3.22 3.22 0 0 0-2.683 1.448c-.378.556-.954.972-1.63.992-25.025.873-45.279 20.615-46.512 45.833-.338 6.826.835 13.711 3.339 20.08.239.615.099 1.309-.258 1.885-.576.873-.715 2.024-.239 3.055.517 1.151 1.67 1.905 2.942 1.905.457 0 .895-.099 1.312-.278 1.63-.714 2.345-2.619 1.63-4.246-.417-.932-1.272-1.607-2.246-1.825-.676-.159-1.391-.437-1.63-1.091-2.425-6.151-3.558-12.798-3.22-19.405 1.193-24.365 20.752-43.453 44.942-44.306zm4.273-2.44a1.59 1.59 0 0 1 1.133.476c.298.317.477.714.477 1.151 0 .714-.477 1.329-1.133 1.528-.278.079-.477.317-.477.595 0-.278-.218-.516-.497-.615-.656-.198-1.133-.833-1.133-1.548a1.62 1.62 0 0 1 1.63-1.607v.02zm-45.716 68.89c.219-.099.437-.139.656-.139.636 0 1.232.377 1.491.952.358.814 0 1.766-.815 2.143-.219.099-.437.139-.656.139-.636 0-1.232-.377-1.491-.952-.358-.814 0-1.766.815-2.143zm81.773-54.644c9.362 10.298 14.132 23.631 13.456 37.5-.258 5.159-1.272 10.219-3.021 15.06-.238.635-.874.992-1.53 1.131-1.014.238-1.869.932-2.266 1.924-.656 1.647.139 3.532 1.789 4.187a3.11 3.11 0 0 0 1.192.238 3.25 3.25 0 0 0 3.002-2.004c.318-.794.318-1.667-.02-2.46-.08-.199-.199-.397-.318-.576-.358-.516-.597-1.17-.378-1.766 1.829-5.039 2.902-10.297 3.16-15.654.696-14.306-4.233-28.036-13.874-38.671a53.41 53.41 0 0 0-37.189-17.54c-29.617-1.448-54.86 21.429-56.311 50.972-1.053 21.449 10.535 41.072 29.636 50.596.596.298.914.913 1.014 1.567.04.219.08.417.159.635.298.814.894 1.449 1.689 1.806.417.198.875.298 1.332.298 1.252 0 2.425-.735 2.942-1.885.735-1.607 0-3.532-1.61-4.266-.417-.199-.875-.278-1.332-.278-.616 0-1.193.179-1.709.496-.537.337-1.232.496-1.789.218-18.525-9.246-29.756-28.294-28.742-49.087 1.411-28.671 25.919-50.874 54.641-49.465 13.914.675 26.735 6.726 36.077 17.024zm11.131 57.461a1.63 1.63 0 0 1-2.107.893c-.835-.338-1.232-1.27-.895-2.104.239-.615.835-1.012 1.511-1.012a1.53 1.53 0 0 1 .596.119c.398.159.716.477.875.873a1.48 1.48 0 0 1 0 1.231h.02zm-71.1 25.893c.258-.576.835-.953 1.471-.953.239 0 .457.04.656.139.815.377 1.173 1.33.815 2.143-.358.794-1.352 1.171-2.147.794-.398-.179-.696-.496-.835-.913-.159-.397-.139-.853.04-1.23v.02zm116.996-2.897c-.06-.119-.04-.238.059-.317l.636-.635s.219-.139.358-.139h5.128c.12 0 .239.099.279.218.377 1.032 1.292 1.826 2.425 1.984h.059.696.04a3.04 3.04 0 0 0 2.623-2.996 3.02 3.02 0 0 0-3.021-3.016c-1.292 0-2.405.834-2.842 1.985-.04.119-.139.238-.279.238h-5.565c-.258 0-.517.099-.716.297l-.954.953s-.218.099-.318.059c-.397-.198-.854-.317-1.312-.317-.815 0-1.57.317-2.126.873-1.173 1.17-1.173 3.095 0 4.266.576.575 1.331.873 2.126.873a3 3 0 0 0 1.392-.338c.099-.059.218-.099.318-.178.139-.08.278-.218.417-.377l.338-.357c.08-.119.139-.258.199-.377.437-.834.437-1.846.04-2.699zm-2.028 2.004c-.179.179-.437.278-.695.278a1.03 1.03 0 0 1-.696-.278c-.378-.377-.378-.992 0-1.389.179-.198.417-.297.696-.297a.96.96 0 0 1 .695.277c.378.377.378.993 0 1.389v.02zm10.296-3.889c0-.535.438-.972.974-.972s.974.437.974.972-.437.973-.974.973-.974-.437-.974-.973zM74.501 169.725c-.06-.119-.119-.258-.219-.377a2.85 2.85 0 0 0-.338-.358l-.417-.377-.318-.178c-.417-.218-.894-.337-1.391-.337a2.99 2.99 0 0 0-2.127.873 3.03 3.03 0 0 0 0 4.266 2.98 2.98 0 0 0 3.439.555c.099-.059.239-.02.318.06l3.856 3.849c.179.178.437.297.716.297h9.839c.139 0 .239.12.278.239.417 1.15 1.53 1.984 2.842 1.984A3.02 3.02 0 0 0 94 177.205a3.04 3.04 0 0 0-2.624-2.996h-.04-.696c0 .02-.04 0-.06 0-1.133.158-2.047.932-2.425 1.984-.04.119-.139.218-.278.218h-9.382a.57.57 0 0 1-.358-.139L74.6 172.74s-.099-.218-.06-.317a3 3 0 0 0-.04-2.698zm-1.988 2.083c-.179.179-.437.278-.696.278s-.497-.099-.696-.278c-.378-.397-.378-1.012 0-1.389.179-.179.437-.278.696-.278s.517.099.696.278c.378.377.378 1.012 0 1.389zm18.446 4.425c.537 0 .974.436.974.972s-.437.972-.974.972-.974-.436-.974-.972.437-.972.974-.972zm-59.73-31.905a3.04 3.04 0 0 0 3.001-2.619v-.04-.695-.059c-.159-1.131-.934-2.044-1.988-2.421-.119-.039-.219-.139-.219-.278v-9.365c0-.139.06-.258.139-.357l2.226-2.222c.079-.079.238-.04.278.079a71.19 71.19 0 0 0 10.137 21.211c.378.535.358 1.23.139 1.845-.358.992-.239 2.123.437 3.036.596.813 1.57 1.289 2.584 1.289a3.25 3.25 0 0 0 1.928-.635c.696-.515 1.133-1.269 1.272-2.123.119-.853-.079-1.706-.596-2.381a3.24 3.24 0 0 0-2.584-1.289h-.159c-.636.039-1.312-.139-1.689-.675-8.845-12.619-13.298-27.937-12.542-43.333.994-20.298 10.674-38.909 26.615-51.41.537-.417 1.272-.436 1.908-.218a3.29 3.29 0 0 0 1.073.179 3.15 3.15 0 0 0 1.908-.635c.696-.516 1.153-1.25 1.272-2.103a3.24 3.24 0 0 0-3.2-3.711 3.15 3.15 0 0 0-1.908.635c-.914.675-1.352 1.726-1.292 2.778.04.655-.139 1.31-.656 1.706a70.91 70.91 0 0 0-27.351 52.679c-.338 7.024.378 14.028 2.067 20.774.04.179 0 .397-.119.536l-3.18 3.175a1.02 1.02 0 0 0-.298.714v9.821c0 .139-.119.239-.239.278a3.02 3.02 0 0 0-1.988 2.838c0 1.666 1.352 3.015 3.021 3.015v-.019zm15.742 4.881c.278-.199.616-.318.954-.318.517 0 .994.238 1.312.655.258.337.358.774.298 1.19a1.63 1.63 0 0 1-.636 1.072c-.696.516-1.749.357-2.266-.337-.537-.715-.378-1.727.338-2.262zM62.197 47.343c.278-.198.616-.317.954-.317a1.64 1.64 0 0 1 1.312.655c.258.337.358.774.298 1.21-.06.417-.298.794-.636 1.052-.696.516-1.749.357-2.266-.337-.537-.714-.378-1.726.338-2.262zm-30.968 92.996c.537 0 .974.437.974.973s-.437.972-.974.972-.974-.437-.974-.972.437-.973.974-.973zm130.929 47.243a3.02 3.02 0 0 0 3.021 3.016c1.292 0 2.405-.834 2.842-1.984.04-.12.139-.239.279-.239h22.202a1.23 1.23 0 0 0 .736-.258l2.941-2.46s.239-.079.358 0a3.1 3.1 0 0 0 1.531.417c.715 0 1.391-.258 1.948-.714.616-.516.993-1.25 1.073-2.044a2.95 2.95 0 0 0-.696-2.203 3.03 3.03 0 0 0-2.306-1.071c-.397 0-.795.079-1.172.238-.12.04-.239.079-.358.139s-.239.179-.417.317c-.14.12-.279.219-.358.338-.1.119-.159.238-.239.357-.497.813-.596 1.805-.258 2.679.04.119 0 .238-.08.317l-2.663 2.222a.62.62 0 0 1-.358.139h-21.845c-.119 0-.238-.099-.278-.218-.378-1.032-1.292-1.826-2.425-1.964h-.06-.695-.04a3.04 3.04 0 0 0-2.624 2.996l-.059-.02zm33.254-5.298c.218-.198.457-.218.636-.218.298 0 .556.119.755.337.338.417.298 1.032-.119 1.369a.9.9 0 0 1-.616.238.95.95 0 0 1-.756-.357c-.338-.417-.298-1.032.12-1.389l-.02.02zm-31.207 5.298c0-.536.437-.972.974-.972s.974.436.974.972-.437.972-.974.972-.974-.437-.974-.972zm30.351-47.242a1.01 1.01 0 0 0-.715.297l-2.624 2.619s-.218.139-.358.139h-9.203c-.258 0-.516.099-.715.298l-4.115 4.107s-.218.099-.318.06c-.397-.199-.854-.318-1.312-.318-.497 0-.974.119-1.391.337-.139.08-.278.119-.398.219l-.337.317-.06.06-.278.297c-.1.139-.159.278-.239.417-.556 1.131-.377 2.54.557 3.472.576.576 1.331.873 2.127.873a3.02 3.02 0 0 0 2.126-.873c.915-.913 1.113-2.282.597-3.393-.06-.119-.06-.278.039-.357l3.797-3.79s.219-.138.358-.138h9.203a1.01 1.01 0 0 0 .715-.298l2.624-2.619s.219-.139.358-.139h9.521c.139 0 .238.099.278.238.417 1.151 1.531 1.984 2.842 1.984a3.02 3.02 0 0 0 3.022-3.016 3.04 3.04 0 0 0-2.624-2.996h-.04-.695-.02c-1.133.139-2.068.933-2.445 1.984-.04.119-.139.219-.278.219h-9.979-.02zm12.105.793c0-.535.438-.972.974-.972s.974.437.974.972-.437.973-.974.973-.974-.437-.974-.973zm-30.471 9.425c0 .258-.099.516-.278.694s-.437.278-.696.278a.99.99 0 0 1-.695-.278c-.378-.377-.378-.992 0-1.388a.99.99 0 0 1 .695-.278c.259 0 .517.099.696.278a.99.99 0 0 1 .278.694z" fill-opacity=".8"/><path d="M219.483 92.145a3.04 3.04 0 0 0-2.624-2.996h-.04-.695c-1.153.139-2.087.933-2.465 1.984-.04.119-.139.218-.278.218h-9.959c-.119 0-.198-.099-.198-.198v-1.012c0-.139.119-.238.238-.278a3.02 3.02 0 0 0-1.033-5.853 3.04 3.04 0 0 0-3.002 2.619v.04.694c.139 1.151.934 2.083 1.988 2.46.119.04.218.139.218.278v1.012c0 .119-.099.198-.198.198h-12.741c-.12 0-.239-.099-.279-.218-.377-1.032-1.292-1.825-2.425-1.964h-.059-.696-.04a3.04 3.04 0 0 0-2.623 2.996c0 1.667 1.351 3.016 3.021 3.016 1.312 0 2.405-.833 2.842-1.984.04-.119.139-.238.278-.238h24.688c.139 0 .238.119.278.238.417 1.151 1.53 1.984 2.842 1.984 1.67 0 3.021-1.349 3.021-3.016l-.059.02zm-32.956 0c0 .536-.437.972-.974.972s-.974-.436-.974-.972.437-.972.974-.972.974.436.974.972zm15.862-4.147c-.537 0-.974-.436-.974-.972s.437-.972.974-.972.974.437.974.972-.438.972-.974.972zm15.047 4.147c0 .536-.438.972-.974.972s-.974-.436-.974-.972.437-.972.974-.972.974.437.974.972zM168.618 43.95a3.02 3.02 0 0 0-3.022-3.016c-1.292 0-2.405.833-2.842 1.984-.04.119-.139.238-.278.238h-1.491a1.01 1.01 0 0 0-.716.298l-2.345 2.341s-.219.139-.358.139h-5.883a.57.57 0 0 1-.358-.139l-.696-.694s-.099-.238-.04-.357a3.01 3.01 0 0 0-.596-3.393 2.98 2.98 0 0 0-2.127-.873 3.03 3.03 0 0 0-2.703 4.345c.06.119.119.258.199.357.079.139.218.278.377.417.179.178.279.278.398.357s.238.119.358.179a2.98 2.98 0 0 0 1.371.337 2.91 2.91 0 0 0 1.312-.318c.099-.059.239-.02.318.059l1.014 1.012c.179.178.437.298.715.298h6.798a1.01 1.01 0 0 0 .716-.298l2.345-2.341s.219-.139.358-.139h1.054c.119 0 .238.099.278.218.378 1.032 1.292 1.825 2.425 1.984h.059.696.04a3.04 3.04 0 0 0 2.624-2.996zm-20.036.198c-.179.179-.437.278-.696.278s-.517-.099-.696-.278c-.377-.377-.377-.992 0-1.389a1 1 0 0 1 .696-.278c.258 0 .517.099.696.278.377.377.377.992 0 1.389zm18.008-.198c0 .536-.437.972-.974.972s-.974-.437-.974-.972.438-.972.974-.972.974.436.974.972zM45.54 164.962c1.173-1.17 1.173-3.095 0-4.265-.914-.913-2.286-1.112-3.419-.596-.119.06-.278.06-.358-.039l-1.054-1.052a1.02 1.02 0 0 0-.716-.298h-3.319c-.139 0-.258-.059-.358-.138l-4.154-4.147s-.139-.219-.139-.357v-.973c0-.139.099-.238.239-.278 1.153-.416 1.988-1.527 1.988-2.817a2.92 2.92 0 0 0-.894-2.123 3 3 0 0 0-2.127-.893 3.02 3.02 0 0 0-2.862 2.064c-.04.139-.099.258-.119.396-.04.159-.04.358-.04.576l.02.536c.02.138.079.258.119.396a2.93 2.93 0 0 0 .735 1.211c.318.337.716.555 1.153.714.119.04.179.139.179.258v1.429a1.01 1.01 0 0 0 .298.714l4.81 4.801a1.02 1.02 0 0 0 .716.298h3.319c.139 0 .258.06.358.139l.736.734s.099.238.04.337c-.477.992-.378 2.203.318 3.096 0 0 .04.039.02.039v.02l.497.496h.04c1.193.913 2.882.814 3.975-.258v-.02zm-14.311-14.008c-.258 0-.497-.099-.696-.277-.179-.179-.278-.437-.278-.695 0-.536.437-.972.974-.972.258 0 .497.099.696.298a.99.99 0 0 1 .278.694c0 .536-.437.972-.974.972v-.02zm12.88 12.56c-.378.377-.994.377-1.391 0-.378-.377-.378-.992 0-1.389.378-.377.994-.377 1.391 0 .378.377.378.992 0 1.389zM219.284 77.58a3.04 3.04 0 0 0-2.624-2.996h-.039-.696-.02c-1.133.139-2.067.933-2.445 1.984-.039.119-.139.218-.278.218h-11.548a.57.57 0 0 1-.358-.139l-4.055-4.048c-.199-.178-.437-.298-.716-.298H187.7a1.01 1.01 0 0 0-.716.298l-2.544 2.54s-.219.139-.358.139h-7.772c-.119 0-.198-.099-.198-.198v-1.27c0-.258-.1-.516-.299-.714l-3.538-3.532s-.099-.218-.059-.317c.397-.853.397-1.845-.04-2.698-.06-.119-.119-.258-.199-.357s-.199-.218-.358-.397c-.178-.178-.278-.278-.397-.357s-.239-.119-.358-.198a3 3 0 0 0-1.391-.337c-.815 0-1.57.317-2.127.873-1.173 1.171-1.173 3.095 0 4.266a2.98 2.98 0 0 0 2.127.873c.457 0 .914-.119 1.312-.317.099-.06.238-.02.318.059l3.22 3.214s.139.218.139.357v10c0 .238.179.417.417.417h7.494c.139 0 .238.099.278.238.418 1.151 1.531 1.984 2.843 1.984a3.02 3.02 0 0 0 3.021-3.016 3.04 3.04 0 0 0-2.624-2.996h-.04-.695-.02c-1.133.139-2.067.933-2.445 1.984-.04.119-.139.218-.278.218h-6.103c-.119 0-.198-.099-.198-.199v-5.794c0-.119.099-.198.198-.198h8.21a1.01 1.01 0 0 0 .715-.298l2.544-2.54s.219-.139.358-.139h7.891c.139 0 .259.06.358.139l4.055 4.048c.179.178.437.298.715.298h11.986c.139 0 .239.099.279.238.417 1.151 1.53 1.984 2.842 1.984 1.67 0 3.021-1.349 3.021-3.016zm-34.725 6.31c0-.536.438-.972.974-.972s.974.436.974.972-.437.972-.974.972-.974-.436-.974-.972zm-14.351-15.258c-.179.178-.437.278-.695.278a1.03 1.03 0 0 1-.696-.278c-.378-.397-.378-1.012 0-1.389.179-.179.437-.278.696-.278a.99.99 0 0 1 .695.278c.378.377.378 1.012 0 1.389zm47.029 8.948c0 .536-.437.972-.974.972s-.974-.437-.974-.972.437-.972.974-.972.974.437.974.972zm-9.184 93.255c.239 0 .418-.178.418-.416v-7.361c0-.12.099-.199.198-.199h12.821c.258 0 .517-.099.716-.297l2.464-2.461s.219-.099.318-.059c.398.198.855.317 1.312.317a2.99 2.99 0 0 0 2.127-.873c1.173-1.171 1.173-3.095 0-4.266a3 3 0 0 0-2.127-.893 3.05 3.05 0 0 0-1.391.338 1.43 1.43 0 0 0-.378.218c-.119.079-.218.198-.358.337l-.357.377c-.08.119-.139.238-.199.377-.437.834-.437 1.845 0 2.699.06.099.02.238-.06.317l-2.146 2.143s-.219.139-.358.139h-13.755c-.239 0-.417.178-.417.416v7.362c0 .119-.1.198-.199.198h-14.073a1.01 1.01 0 0 0-.716.298l-4.194 4.186s-.218.139-.357.139h-5.467c-.119 0-.238-.099-.278-.218-.377-1.032-1.292-1.826-2.425-1.984h-.059-.696-.04a3.04 3.04 0 0 0-2.624 2.996 3.02 3.02 0 0 0 3.022 3.016c1.292 0 2.405-.834 2.842-1.984.04-.12.139-.239.278-.239h5.904a1.01 1.01 0 0 0 .715-.297l4.194-4.187s.219-.139.358-.139h15.007-.02zm-28.324 3.83c0 .535-.438.972-.974.972s-.974-.437-.974-.972.437-.972.974-.972.974.436.974.972zm45.597-17.342a.99.99 0 0 1 .974-.972c.259 0 .517.099.696.278a.97.97 0 0 1 0 1.369v.02a.95.95 0 0 1-.676.278 1 1 0 0 1-.696-.278c-.178-.179-.278-.437-.278-.695h-.02zm-9.341-21.726a2.99 2.99 0 0 0 .556-3.472c-.079-.139-.139-.298-.238-.417-.08-.099-.179-.198-.279-.297l-.059-.06c-.179-.178-.298-.278-.398-.357-.119-.079-.238-.139-.358-.198a2.97 2.97 0 0 0-1.371-.338c-.477 0-.914.119-1.312.318-.099.059-.238.02-.318-.06l-3.101-3.095s-.139-.218-.139-.357v-18.532c0-.258-.099-.516-.298-.714l-7.056-7.044a1.03 1.03 0 0 0-.716-.298h-9.342c-.119 0-.239-.099-.278-.218-.378-1.032-1.292-1.825-2.425-1.984h-.06-.696-.039a3.04 3.04 0 0 0-2.624 2.996 3.02 3.02 0 0 0 3.021 3.016c1.292 0 2.405-.833 2.843-1.984.039-.119.139-.238.278-.238h8.885a.57.57 0 0 1 .358.139l6.4 6.389s.139.218.139.357v18.532c0 .258.099.515.298.714l3.419 3.413s.099.238.04.357a3.01 3.01 0 0 0 .596 3.393c.577.575 1.332.873 2.147.873s1.57-.318 2.127-.873v.039zm-26.536-34.127c0 .536-.437.972-.974.972s-.974-.436-.974-.972.437-.972.974-.972.974.436.974.972zm25.105 32.679a1 1 0 0 1-.696.278c-.259 0-.517-.1-.696-.278a.99.99 0 0 1-.278-.695.99.99 0 0 1 .278-.694c.179-.179.437-.278.696-.278s.517.099.696.278c.377.377.377 1.012 0 1.389zm7.393-18.413a3.04 3.04 0 0 0-3.001 2.619v.04.694c.139 1.151.934 2.083 1.987 2.46.12.04.219.139.219.278v6.846a1.01 1.01 0 0 0 .298.714l3.817 3.809s.139.219.139.357v9.385c0 .139-.06.258-.139.358l-4.83 4.821s-.219.099-.318.06a2.97 2.97 0 0 0-1.312-.318 3.01 3.01 0 0 0-1.392.337c-.139.06-.278.12-.397.199-.08.059-.179.159-.358.337l-.378.417a3.18 3.18 0 0 0-.198.357 3.03 3.03 0 0 0 .576 3.472c.576.576 1.332.893 2.127.893s1.57-.317 2.127-.893a3.01 3.01 0 0 0 .596-3.393c-.06-.119-.06-.277.04-.357l5.148-5.159c.179-.178.298-.436.298-.714v-4.226c0-.119.099-.198.199-.198h1.391c.139 0 .239.099.278.238.418 1.15 1.531 1.984 2.843 1.984a3.02 3.02 0 0 0 3.021-3.016 3.04 3.04 0 0 0-2.624-2.996h-.039-.696-.02c-1.133.139-2.067.932-2.445 1.984-.04.119-.139.218-.278.218h-1.411c-.12 0-.199-.099-.199-.198v-4.068c0-.258-.1-.516-.298-.714l-3.817-3.81s-.139-.218-.139-.357v-6.369c0-.139.1-.238.239-.278 1.153-.416 1.987-1.527 1.987-2.837 0-1.667-1.351-3.016-3.021-3.016l-.02.04zm8.806 22.46c0-.535.437-.972.974-.972s.974.437.974.972-.438.973-.974.973-.974-.437-.974-.973zm-11.271 13.413a.99.99 0 0 1-.695.278c-.259 0-.497-.099-.696-.278-.179-.178-.278-.436-.278-.694s.099-.516.278-.695.437-.278.696-.278.517.1.695.278c.378.377.378 1.012 0 1.389zm2.465-33.81c.537 0 .974.437.974.973s-.437.972-.974.972-.974-.437-.974-.972.438-.973.974-.973zm-37.229-57.598c1.152-.139 2.087-.933 2.464-1.984.04-.119.139-.218.279-.218h3.498a.57.57 0 0 1 .358.139l1.55 1.548s.139.218.139.357v7.222c0 .238.179.417.418.417h5.386c.239 0 .418-.179.418-.417V52.502c0-.119.099-.198.198-.198h2.922c.12 0 .199.099.199.198v5.377a1.01 1.01 0 0 0 .298.714l2.048 2.044c.179.178.437.298.715.298h1.332c.119 0 .238.099.278.218.378 1.032 1.292 1.825 2.425 1.984h.06.696.039c1.471-.198 2.624-1.468 2.624-2.976a3.02 3.02 0 0 0-3.021-3.016c-1.292 0-2.405.833-2.843 1.984-.039.119-.139.238-.278.238h-.855a.57.57 0 0 1-.357-.139l-1.392-1.389s-.139-.218-.139-.357v-6.31c0-.238-.179-.417-.417-.417h-5.705c-.239 0-.417.179-.417.417v14.762a.2.2 0 0 1-.199.198h-2.604a.2.2 0 0 1-.199-.198v-6.29c0-.258-.099-.516-.298-.714l-2.186-2.182c-.179-.179-.438-.298-.716-.298H187.5c-.139 0-.238-.099-.278-.238-.417-1.151-1.53-1.984-2.842-1.984a3.02 3.02 0 0 0-3.022 3.016 3.04 3.04 0 0 0 2.624 2.996h.04.696v-.04zm24.349-.079c0-.536.437-.972.974-.972s.974.437.974.972-.438.972-.974.972-.974-.437-.974-.972zm-24.707-1.944c-.537 0-.974-.437-.974-.972s.437-.972.974-.972.974.437.974.972-.437.972-.974.972zm-75.612 119.9a3.04 3.04 0 0 0-4.273 0 2.97 2.97 0 0 0-.875 2.123c0 .456.12.913.318 1.309.06.1.02.238-.059.318l-3.22 3.214s-.219.139-.358.139h-6.062c-.139 0-.239-.119-.278-.238-.417-1.151-1.531-1.984-2.842-1.984-1.67 0-3.021 1.349-3.021 3.016a3.04 3.04 0 0 0 2.624 2.996h.04.696c1.153-.139 2.087-.933 2.465-1.984.04-.119.139-.219.278-.219h6.539a1.01 1.01 0 0 0 .716-.297l3.538-3.532s.219-.099.318-.06c.855.417 1.848.397 2.703-.039.119-.06.259-.119.378-.199s.238-.198.377-.337c.179-.179.279-.278.358-.397s.12-.238.179-.357c.119-.238.219-.496.278-.754a3.18 3.18 0 0 0 0-1.23 2.91 2.91 0 0 0-.834-1.528l.019.04zm-16.676 7.916c0 .536-.437.973-.974.973s-.974-.437-.974-.973.437-.972.974-.972.974.437.974.972zm15.245-6.488c.179.179.279.437.279.695a.99.99 0 0 1-.279.694 1 1 0 0 1-1.391 0c-.179-.178-.278-.436-.278-.694s.099-.516.278-.695a1 1 0 0 1 1.391 0zm28.226-148.611c-.835 1.032-.875 2.48-.179 3.532.079.139.159.258.258.377a.62.62 0 0 0 .159.159l.398.317.179.139c.119.079.258.099.377.159.358.139.756.218 1.133.218.915 0 1.769-.417 2.346-1.111a3.28 3.28 0 0 0 .497-.893c.04-.119.139-.218.278-.218h15.663a1.01 1.01 0 0 0 .716-.298l2.882-2.877s.218-.139.358-.139h5.883a.48.48 0 0 1 .358.139l4.114 3.611s.159.218.159.337v5.814c0 .258.1.516.299.714l4.651 4.643a1.02 1.02 0 0 0 .715.298h3.956s.179.06.139.139c-.159.337-.278.694-.318 1.091-.04.476.04.952.199 1.369.039.119.079.238.139.357.099.179.278.397.576.754l.398.456s.139.06.199 0c.039-.04.099-.02.139 0 .417.198.874.317 1.331.317a3.02 3.02 0 0 0 1.948-.714 3.01 3.01 0 0 0 .358-4.246c-.576-.675-1.411-1.072-2.306-1.072a3.09 3.09 0 0 0-1.113.218c-.079.04-.179 0-.238-.06-.119-.139-.298-.238-.497-.238h-4.472a.57.57 0 0 1-.358-.139l-4.015-4.008s-.139-.218-.139-.357V33.81a.95.95 0 0 0-.318-.694l-4.811-4.206a1.09 1.09 0 0 0-.735-.278h-6.738a1.01 1.01 0 0 0-.716.298l-2.882 2.877s-.219.139-.358.139h-15.206c-.119 0-.238-.099-.278-.218-.179-.496-.497-.972-.934-1.329a3.03 3.03 0 0 0-1.908-.675c-.915 0-1.769.417-2.346 1.111l.06.059zm47.406 15.655a.95.95 0 0 1 .636-.238 1 1 0 0 1 .756.337c.159.198.258.456.238.714a1.01 1.01 0 0 1-.338.675c-.218.198-.477.238-.636.238-.298 0-.556-.119-.755-.337-.358-.417-.298-1.032.119-1.389h-.02zm-45.816-14.385c.179-.238.457-.357.755-.357.219 0 .438.079.617.218.417.337.477.952.139 1.369-.179.238-.458.357-.756.357-.218 0-.437-.079-.616-.218-.199-.159-.338-.397-.358-.655s.04-.516.219-.714zm42.914 88.055c.059.119.059.278-.04.357l-7.692 7.679s-.219.139-.358.139h-3.18c-.14 0-.239-.099-.279-.238-.417-1.151-1.53-1.984-2.842-1.984-1.67 0-3.021 1.349-3.021 3.016a3.04 3.04 0 0 0 2.623 2.996h.04.696.02c1.133-.139 2.067-.933 2.445-1.985.039-.119.139-.218.278-.218h3.637a1.01 1.01 0 0 0 .716-.297l8.01-7.997s.219-.099.318-.059c.398.198.855.317 1.312.317s.954-.119 1.391-.337c.12-.059.259-.119.358-.198s.219-.179.398-.357c.159-.159.338-.338.417-.536a3.03 3.03 0 0 0-.417-3.73c-.577-.576-1.332-.873-2.127-.873s-1.57.317-2.127.873a3.01 3.01 0 0 0-.596 3.393l.02.039zm2.027-1.964c.179-.179.437-.278.696-.278s.517.099.696.278c.377.377.377.992 0 1.389a1 1 0 0 1-.696.278c-.259 0-.517-.1-.696-.278-.378-.377-.378-.992 0-1.389zm-15.424 10.933c0 .535-.438.972-.974.972s-.974-.437-.974-.972.437-.973.974-.973.974.437.974.973zm-28.026 55.04h.159c.119 0 .219.04.298.139l2.683 2.956c.179.199.438.298.696.298h7.414a1.01 1.01 0 0 0 .716-.298l4.949-4.94s.219-.139.358-.139h25.065c.139 0 .238.119.278.238.417 1.151 1.53 1.984 2.842 1.984a3.02 3.02 0 0 0 3.022-3.016 3.04 3.04 0 0 0-2.624-2.996h-.04-.696-.02c-1.133.139-2.067.933-2.444 1.984-.04.12-.14.219-.279.219h-25.522a1.01 1.01 0 0 0-.715.297l-4.949 4.941s-.219.139-.358.139h-3.697-.02-.04-2.723c-.139 0-.259-.06-.338-.159l-1.968-2.163s-.059-.218.02-.297c.497-.457.855-1.092.934-1.806v-.04-.694-.04a3.04 3.04 0 0 0-3.001-2.619c-1.67 0-3.021 1.349-3.021 3.016s1.351 3.016 3.021 3.016v-.02zm45.458-3.77c.537 0 .974.437.974.973s-.437.972-.974.972-.974-.437-.974-.972.438-.973.974-.973zm-45.458-.218c.537 0 .974.437.974.972s-.437.973-.974.973-.974-.437-.974-.973.437-.972.974-.972zm47.227-141.49h.02c1.133-.139 2.067-.933 2.444-1.984.04-.119.14-.218.279-.218h4.353c.119 0 .238.099.278.218.378 1.032 1.292 1.825 2.425 1.984h.06.695.04a3.04 3.04 0 0 0 2.624-2.996 3.02 3.02 0 0 0-3.021-3.016c-1.312 0-2.406.833-2.843 1.984-.04.119-.159.238-.278.238h-4.333c-.139 0-.239-.099-.279-.238-.417-1.151-1.53-1.984-2.842-1.984-1.67 0-3.021 1.349-3.021 3.016a3.04 3.04 0 0 0 2.624 2.996h.039.696.04zm9.242-3.016c0-.536.438-.972.974-.972s.974.437.974.972-.437.972-.974.972-.974-.436-.974-.972zm-9.6.972c-.537 0-.974-.436-.974-.972s.437-.972.974-.972.974.437.974.972-.437.972-.974.972zM12.406 178.991a3.64 3.64 0 0 0 .934-.139h.04l.576-.258s.537-.277.815-.694l.219-.357a2.87 2.87 0 0 0 .437-1.409 3.35 3.35 0 0 0-.238-1.329.31.31 0 0 1 .079-.318l.099-.099a.95.95 0 0 0 .318-.694v-7.262c0-.139.06-.258.159-.338l2.167-1.964s.219-.06.298.02c.457.496 1.093.853 1.809.932h.04.696.04a3.04 3.04 0 0 0 2.624-2.996 3.021 3.021 0 1 0-6.043 0v.159a.36.36 0 0 1-.139.298l-2.962 2.678a.93.93 0 0 0-.298.695v7.44.04h-.06a2.95 2.95 0 0 0-1.57-.456 3.04 3.04 0 0 0-2.027.773 3.01 3.01 0 0 0-.994 2.084 3.02 3.02 0 0 0 .775 2.182 3.03 3.03 0 0 0 2.246.992l-.04.02zm8.07-17.857c.537 0 .974.436.974.972s-.437.972-.974.972-.974-.436-.974-.972.437-.972.974-.972zm-8.746 14.127c.179-.159.417-.258.656-.258a1.04 1.04 0 0 1 .736.318c.358.396.338 1.011-.079 1.388-.179.159-.417.258-.656.258a1.04 1.04 0 0 1-.735-.317c-.358-.397-.338-1.012.06-1.389h.02zm7.096-25.377a3.05 3.05 0 0 0 3.796.396c.199-.099.358-.277.477-.396l.179-.179s.099-.099.139-.159c.099-.119.159-.258.219-.397a2.98 2.98 0 0 0 .338-1.388 2.96 2.96 0 0 0-.318-1.31c-.06-.099-.02-.238.06-.317l.08-.08a1.02 1.02 0 0 0 .298-.714v-9.841a1.01 1.01 0 0 0-.298-.715l-4.035-4.028c-.179-.178-.437-.297-.716-.297h-6.301a.2.2 0 0 1-.199-.199v-13.69c0-.258-.099-.516-.298-.714l-3.24-3.235s-.099-.218-.06-.317a2.96 2.96 0 0 0 .318-1.31c0-.813-.318-1.567-.875-2.123-.576-.575-1.332-.873-2.147-.873s-1.57.318-2.127.873a2.99 2.99 0 0 0-.894 2.123c0 .496.119.973.338 1.389.06.1.099.219.179.318.079.139.219.278.378.416.159.159.278.298.417.377l.318.179c.835.437 1.849.437 2.703.02.099-.06.239-.02.318.059l2.902 2.897s.139.218.139.357v19.028c0 .119-.099.238-.219.278-1.034.377-1.829 1.29-1.988 2.421v.059.695.039a3.04 3.04 0 0 0 3.001 2.619c1.67 0 3.021-1.349 3.021-3.015 0-1.31-.835-2.401-1.988-2.838-.119-.039-.239-.139-.239-.278v-3.769a.2.2 0 0 1 .199-.199h5.864c.139 0 .258.06.358.139l3.399 3.393s.139.218.139.357v9.107s0 .04-.02.06c0 .02-.06 0-.079 0-1.153-.615-2.604-.457-3.558.516a2.97 2.97 0 0 0-.875 2.123 3.02 3.02 0 0 0 .875 2.123l.02.02zm-7.096-11.707c.537 0 .974.437.974.972s-.437.973-.974.973-.974-.437-.974-.973.437-.972.974-.972zm-6.182-26.468c-.179-.179-.278-.437-.278-.695a.99.99 0 0 1 .278-.694 1 1 0 0 1 1.391 0 .99.99 0 0 1 .278.694c0 .258-.099.496-.278.695-.378.377-.994.377-1.391 0zm14.729 36.726a.99.99 0 0 1-.278-.694c0-.258.099-.496.278-.695.378-.377.994-.377 1.391 0 .179.179.278.437.278.695a.99.99 0 0 1-.278.694 1 1 0 0 1-1.391 0zM195.551 7.779a3.04 3.04 0 0 0-2.624-2.996h-.04-.695-.02c-1.133.139-2.067.933-2.445 1.984-.04.119-.139.218-.278.218h-14.292c-.139 0-.258-.06-.358-.139l-3.1-3.095c-.179-.179-.438-.298-.716-.298h-14.629c-.12 0-.199-.099-.199-.198V1.013c0-.139.119-.238.238-.278a3.02 3.02 0 0 0 1.988-2.837c0-1.667-1.351-3.016-3.021-3.016a3.04 3.04 0 0 0-3.002 2.619v.04.694c.14 1.151.935 2.083 1.988 2.46.119.04.219.139.219.278v2.242a.2.2 0 0 1-.199.198h-31.584a1.01 1.01 0 0 0-.716.298l-6.957 6.944s-.218.159-.358.159H94.775c-.119 0-.239-.099-.278-.218-.378-1.052-1.292-1.825-2.425-1.984h-.06-.696-.04a3.04 3.04 0 0 0-2.624 2.996 3.02 3.02 0 0 0 3.021 3.016c1.312 0 2.405-.833 2.842-1.984.04-.119.159-.238.278-.238h20.433a1.01 1.01 0 0 0 .716-.298l6.957-6.945s.219-.139.358-.139h47.327a.57.57 0 0 1 .357.139l3.101 3.095a1.02 1.02 0 0 0 .716.298h14.728c.14 0 .239.119.279.238.417 1.151 1.53 1.984 2.842 1.984 1.67 0 3.021-1.349 3.021-3.016l-.079.02zM92.589 11.628c0 .536-.437.972-.974.972s-.974-.436-.974-.972.437-.972.974-.972.974.437.974.972zM155.32-1.13c-.537 0-.974-.437-.974-.972s.437-.972.974-.972.974.437.974.972-.437.972-.974.972zm38.184 8.909c0 .536-.438.972-.974.972s-.974-.437-.974-.972.437-.972.974-.972.974.437.974.972zm-22.521 8.274c-.139 0-.258-.06-.358-.139l-1.371-1.369s-.1-.218-.06-.317c.418-.853.398-1.865-.04-2.698-.059-.119-.119-.258-.218-.377-.08-.119-.199-.238-.338-.357-.179-.178-.278-.278-.398-.357s-.238-.119-.357-.179a3.01 3.01 0 0 0-1.392-.337c-.815 0-1.57.317-2.127.873a3.03 3.03 0 0 0 0 4.266 3 3 0 0 0 2.127.893 2.98 2.98 0 0 0 1.312-.317c.099-.059.239-.02.318.06l1.69 1.687c.179.178.437.298.715.298h13.994s.099.02.139.059.039.119 0 .159c-.577 1.131-.418 2.56.536 3.512a2.98 2.98 0 0 0 2.127.873 3.03 3.03 0 0 0 2.127-.873c.934-.933 1.133-2.341.557-3.472-.08-.139-.14-.298-.239-.417l-.258-.298-.06-.059c-.179-.179-.278-.278-.398-.357s-.238-.119-.357-.198a3.01 3.01 0 0 0-1.392-.337c-.497 0-.914.119-1.312.317-.099.059-.238.02-.318-.059l-.159-.139a1.02 1.02 0 0 0-.715-.298h-13.874l.099-.04zm15.663 2.5c.179-.178.437-.278.696-.278s.517.099.695.278c.378.377.378.992 0 1.389a.99.99 0 0 1-.695.278c-.258 0-.497-.099-.676-.278-.378-.397-.378-1.012 0-1.389h-.02zm-19.459-4.96a1 1 0 0 1-.696.278 1.03 1.03 0 0 1-.696-.278c-.377-.397-.377-1.012 0-1.389.179-.179.438-.278.696-.278s.517.099.696.278c.377.377.377.992 0 1.389zm-135.501 160c.06.119.06.278-.04.358l-.159.158a1.02 1.02 0 0 0-.298.715v9.841c0 .139-.06.258-.139.357l-2.942 2.937s-.219.138-.358.138h-8.01a1.01 1.01 0 0 0-.716.298l-3.896 3.889a1.02 1.02 0 0 0-.298.714v3.473c0 .138-.099.238-.239.277a3.02 3.02 0 0 0 1.034 5.854 3.04 3.04 0 0 0 3.001-2.62v-.039-.695c-.02 0 0-.039 0-.059-.159-1.131-.934-2.044-1.988-2.421-.119-.039-.219-.139-.219-.278v-3.015c0-.139.06-.258.139-.358l3.24-3.234s.219-.139.358-.139h8.01a1.01 1.01 0 0 0 .716-.297l3.578-3.572a1.02 1.02 0 0 0 .298-.714v-9.96s.02-.1.06-.139.099-.04.139 0c.437.218.895.357 1.411.357s.954-.119 1.391-.337c.119-.06.258-.12.358-.199s.219-.198.398-.357l.06-.06.278-.297c.099-.139.159-.278.239-.417.557-1.131.378-2.54-.556-3.472a2.98 2.98 0 0 0-2.127-.873c-.795 0-1.57.317-2.127.873a3.01 3.01 0 0 0-.596 3.393v-.08zM16.64 199.546c0 .536-.437.972-.974.972s-.974-.436-.974-.972.437-.972.974-.972.974.436.974.972zm17.074-27.917c.179-.178.437-.278.696-.278s.517.1.696.278c.378.377.378 1.012 0 1.389-.179.179-.437.278-.696.278s-.497-.099-.696-.278c-.378-.377-.378-1.012 0-1.389z" fill-opacity=".8"/><path d="M118.349 182.502h10.098c.119 0 .198.099.198.198v2.619a.2.2 0 0 1-.198.199h-1.63a1.01 1.01 0 0 0-.716.297l-2.186 2.183c-.179.178-.298.436-.298.714v5.536c0 .139-.1.238-.239.278a3.02 3.02 0 0 0 1.034 5.853 3.04 3.04 0 0 0 3.001-2.619v-.04-.694-.02c-.139-1.131-.934-2.064-1.988-2.441-.119-.039-.218-.139-.218-.277v-5.08c0-.139.059-.258.139-.357l1.55-1.548s.219-.138.358-.138h2.564a.42.42 0 0 0 .418-.417v-5.377c0-.238-.179-.417-.418-.417h-10.097c-.12 0-.199-.099-.199-.198v-2.917c0-.119.099-.198.199-.198h5.386a1.01 1.01 0 0 0 .716-.298l2.027-2.044c.179-.178.298-.436.298-.714v-1.329c0-.119.1-.238.219-.278.04 0 .08-.04.119-.04.06-.02.1-.039.159-.079l.239-.119c.04-.02.06-.04.099-.06.1-.059.199-.119.279-.198.357-.298.636-.655.834-1.072.08-.198.159-.456.358-.456h1.054c.139 0 .258.06.357.139l2.346 2.341a1.02 1.02 0 0 0 .715.298h6.798a1.01 1.01 0 0 0 .716-.298l1.014-1.012s.218-.099.318-.059c.397.198.854.317 1.312.317a3.19 3.19 0 0 0 1.391-.337c.119-.06.258-.119.358-.198a4.63 4.63 0 0 0 .397-.358c.159-.158.279-.277.378-.416.079-.119.139-.238.199-.357.556-1.131.357-2.54-.577-3.473a2.98 2.98 0 0 0-2.127-.873c-.795 0-1.57.318-2.126.873a3.01 3.01 0 0 0-.597 3.393c.06.119.06.278-.039.357l-.696.695s-.219.139-.358.139h-5.883c-.14 0-.259-.06-.358-.139l-2.346-2.341a1.02 1.02 0 0 0-.715-.298h-1.491c-.139 0-.239-.119-.278-.238 0-.02-.02-.06-.04-.08-.04-.079-.06-.158-.099-.218l-.14-.258c-.02-.039-.039-.059-.059-.099-.537-.794-1.451-1.329-2.485-1.329-1.57 0-2.862 1.19-3.001 2.718v.317.06a1.69 1.69 0 0 0 .02.317c0 .06 0 .1.019.159 0 .099.04.199.08.298l.06.198c0 .04.039.08.039.119a2.32 2.32 0 0 0 .199.377s0 .02.02.04c.358.575.894 1.032 1.531 1.25.119.04.238.139.238.278v.853c0 .139-.06.258-.139.357l-1.391 1.389s-.219.139-.358.139h-6.321c-.239 0-.417.178-.417.416v5.695c0 .238.178.417.417.417l-.04-.02zm7.076 14.861c0 .536-.437.972-.974.972s-.974-.436-.974-.972.438-.972.974-.972.974.436.974.972zm18.983-28.433c.179-.178.437-.278.695-.278a1 1 0 0 1 .696.278c.378.377.378 1.012 0 1.389-.179.179-.437.278-.696.278a.99.99 0 0 1-.695-.278c-.378-.377-.378-.992 0-1.389zm-17.015 2.163c-.537 0-.974-.437-.974-.972v-.199c.1-.436.497-.773.954-.773.537 0 .974.436.974.972v.178c-.099.437-.497.774-.954.774v.02zm-86.902 13.731h.04.696c0-.02.04 0 .06 0a3.02 3.02 0 0 0 2.425-1.984c.04-.119.139-.219.278-.219h1.053c.139 0 .258.06.358.139l2.346 2.342c.179.178.437.297.715.297h6.798a1.01 1.01 0 0 0 .716-.297l1.014-1.012s.219-.1.318-.06a2.97 2.97 0 0 0 1.312.318c.258 0 .497-.04.736-.1.258-.059.517-.138.735-.258.119-.059.258-.119.358-.198s.219-.179.398-.357c.139-.139.239-.238.318-.357s.139-.238.219-.377c.437-.834.437-1.845.04-2.699-.06-.099-.04-.238.06-.317l3.061-3.056s.219-.079.298 0l16.279 16.25a1.02 1.02 0 0 0 .716.298h15.901a.2.2 0 0 1 .199.198v.814c0 .119-.099.238-.219.278a3.04 3.04 0 0 0-1.988 2.44v.02.695.039a3.04 3.04 0 0 0 3.001 2.619 3.02 3.02 0 0 0 3.021-3.016c0-1.309-.835-2.4-1.988-2.837-.119-.04-.239-.159-.239-.278v-.793a.2.2 0 0 1 .199-.199h3.797c.119 0 .238.099.278.218.378 1.052 1.312 1.826 2.445 1.985h.02.696.039a3.04 3.04 0 0 0 2.624-2.996 3.02 3.02 0 0 0-3.021-3.016c-1.312 0-2.405.833-2.843 1.984-.039.119-.159.238-.278.238H82.233c-.139 0-.258-.06-.358-.139L64.92 174.506a.41.41 0 0 0-.576 0l-4.055 4.048s-.219.099-.318.059a2.98 2.98 0 0 0-1.312-.317 3.27 3.27 0 0 0-.636.06c-.596.099-1.153.396-1.59.833a3.01 3.01 0 0 0-.596 3.393c.06.119.06.278-.04.357l-.696.694s-.219.139-.358.139H48.86a.57.57 0 0 1-.358-.139l-2.346-2.341a1.02 1.02 0 0 0-.715-.298H43.95c-.139 0-.239-.119-.278-.238-.417-1.15-1.53-1.984-2.842-1.984-1.67 0-3.021 1.349-3.021 3.016a3.04 3.04 0 0 0 2.624 2.996l.06.04zm66.131 6.587c.536 0 .974.437.974.972s-.438.973-.974.973-.974-.437-.974-.973.437-.972.974-.972zm-7.911 4.921c.537 0 .974.436.974.972s-.437.972-.974.972-.974-.436-.974-.972.437-.972.974-.972zM58.6 180.379a1 1 0 0 1 .696.278c.378.377.378 1.012 0 1.389-.119.119-.278.218-.457.258H58.7c-.258 0-.517-.099-.696-.278a.97.97 0 0 1 0-1.369l.04-.04a1.06 1.06 0 0 1 .417-.218h.139v-.02zm-17.71.477c.537 0 .974.436.974.972s-.437.972-.974.972-.974-.437-.974-.972.437-.972.974-.972zm-21.507-9.247a3.04 3.04 0 0 0 2.624 2.996h.04.696a3.06 3.06 0 0 0 2.505-2.083.13.13 0 0 1 .119-.119c.119 0 .238-.04.318-.139l3.399-3.393a1.02 1.02 0 0 0 .298-.714v-3.294c0-.119.099-.238.219-.277 1.053-.377 1.829-1.31 1.988-2.441v-.02-.694-.04a3.04 3.04 0 0 0-3.001-2.619c-1.67 0-3.021 1.349-3.021 3.016 0 1.309.835 2.401 1.988 2.837.119.04.239.139.239.278v2.818c0 .138-.06.257-.139.357l-2.306 2.301s-.199.04-.239-.059c-.497-1.012-1.531-1.707-2.723-1.707a3.02 3.02 0 0 0-3.021 3.016l.02-.02zm8.249-9.821c0-.536.437-.972.974-.972s.974.436.974.972-.437.972-.974.972-.974-.436-.974-.972zm-4.254 9.821c0 .536-.437.973-.974.973s-.974-.437-.974-.973.437-.972.974-.972.974.437.974.972zm135.083 1.092a3.04 3.04 0 0 0 3.001-2.619v-.04-.694-.02a3.06 3.06 0 0 0-2.087-2.48c-.06 0-.1-.06-.1-.119 0-.119-.039-.238-.139-.318l-6.857-6.805a1.02 1.02 0 0 0-.716-.298h-3.299c-.12 0-.239-.099-.279-.218-.377-1.052-1.311-1.825-2.444-1.984h-.02-.696-.04a3.04 3.04 0 0 0-2.624 2.996 3.02 3.02 0 0 0 3.022 3.016c1.312 0 2.405-.834 2.842-1.984.04-.119.139-.238.278-.238h2.823c.139 0 .258.059.358.138l5.764 5.695s.04.198-.06.238c-1.013.476-1.729 1.528-1.729 2.718a3.02 3.02 0 0 0 3.021 3.016h-.019zm-13.298-11.627c-.537 0-.974-.436-.974-.972s.437-.972.974-.972.974.436.974.972-.437.972-.974.972zm13.298 7.639c.536 0 .973.437.973.972s-.437.973-.973.973-.974-.437-.974-.973.437-.972.974-.972zM65.675 8.236l-.219.218a1.85 1.85 0 0 0-.338.377 2.26 2.26 0 0 0-.199.377 3.05 3.05 0 0 0-.04 2.659c.04.079-.04.159-.119.159H46.455c-.119 0-.239-.06-.298-.179-.139-.238-.298-.476-.497-.675a3 3 0 0 0-2.127-.893c-.378 0-.735.079-1.093.198h-.04-.04l-.557.317s-.099.059-.417.377l-.119.119-.219.238-.219.417a3.06 3.06 0 0 0 .556 3.492 3 3 0 0 0 2.127.893c.795 0 1.57-.317 2.127-.893a2.87 2.87 0 0 0 .835-1.627c0-.119.119-.198.238-.198h18.565c.258 0 .517-.099.696-.278.079-.079.219-.099.318-.06a2.98 2.98 0 0 0 1.312.317c.815 0 1.57-.317 2.127-.873a3.03 3.03 0 0 0 0-4.266 2.98 2.98 0 0 0-2.127-.873c-.676 0-1.312.218-1.849.615l-.08.04zm1.173 1.687c.179-.179.437-.278.696-.278a1.03 1.03 0 0 1 .696.278.97.97 0 0 1 0 1.369c-.179.179-.417.278-.676.278s-.517-.099-.696-.278c-.378-.377-.378-1.012 0-1.389l-.02.02zm-22.401 3.413a.93.93 0 0 1-.298.694c-.179.178-.437.278-.696.278s-.517-.099-.696-.278c-.378-.377-.378-1.012 0-1.389.179-.178.437-.278.696-.278a1.03 1.03 0 0 1 .696.278 1.01 1.01 0 0 1 .298.695zm-30.193 92.995a.93.93 0 0 0 .298.695l7.355 7.123s.099.238.04.357c-.497 1.131-.298 2.48.636 3.393a3 3 0 0 0 2.107.853 3.03 3.03 0 0 0 2.167-.913c.934-.952 1.093-2.381.517-3.492-.079-.139-.139-.278-.238-.417-.079-.099-.159-.178-.219-.238l-.159-.158c-.139-.139-.238-.238-.338-.298-.119-.079-.238-.119-.358-.179-.417-.198-.875-.317-1.352-.317s-.934.119-1.352.317a.27.27 0 0 1-.318-.039l-6.997-6.806s-.159-.218-.159-.357v-22.58c0-.139.06-.258.159-.337l7.553-6.667c.199-.179.318-.417.318-.694v-8.115c0-.119.099-.238.219-.278 1.034-.377 1.829-1.29 1.988-2.421v-.059-.694-.04a3.04 3.04 0 0 0-3.001-2.619c-1.67 0-3.021 1.349-3.021 3.016 0 1.31.835 2.401 1.988 2.837.119.04.238.159.238.278v7.599c0 .139-.06.258-.159.337l-7.553 6.667c-.199.179-.318.417-.318.695v23.572l-.04-.02zm7.832-41.984c0-.536.437-.972.974-.972s.974.437.974.972-.437.972-.974.972-.974-.437-.974-.972zm1.888 50.714c.179-.198.437-.297.696-.297s.497.099.676.278a.97.97 0 0 1 .298.694c0 .258-.099.516-.278.695-.179.198-.437.297-.696.297a1.02 1.02 0 0 1-.676-.258c-.378-.397-.378-1.012 0-1.389l-.02-.02zm51.401-97.262c.06.119.04.238-.06.337l-1.053 1.052s-.219.139-.358.139H45.878a1.01 1.01 0 0 0-.715.298l-6.023 6.012a1.02 1.02 0 0 0-.298.714v9.226a.57.57 0 0 1-.139.357l-4.095 4.087s-.219.139-.358.139H20.137a1.01 1.01 0 0 0-.716.298l-5.188 5.179a1.02 1.02 0 0 0-.298.714v11.607c0 .119-.099.238-.219.278-1.034.377-1.829 1.29-1.988 2.421v.059.695.04c.199 1.488 1.471 2.619 3.001 2.619a3.02 3.02 0 0 0 3.021-3.016c0-1.29-.835-2.401-1.988-2.837-.119-.04-.239-.139-.239-.278V46.788a.57.57 0 0 1 .139-.357l4.532-4.544s.219-.139.358-.139h14.113a1.01 1.01 0 0 0 .715-.298l4.751-4.742a1.02 1.02 0 0 0 .298-.714v-9.226a.57.57 0 0 1 .139-.357l5.387-5.377s.219-.139.358-.139h28.026a1.01 1.01 0 0 0 .716-.298l1.372-1.389s.219-.099.318-.059a2.98 2.98 0 0 0 1.312.318c.815 0 1.57-.318 2.127-.873a3.03 3.03 0 0 0 0-4.266 3 3 0 0 0-2.127-.893c-.378 0-.736.079-1.073.198-.04 0-.06.02-.08 0s-.06-.04-.099 0l-.517.357c-.219.159-.517.377-.676.675-.079.119-.139.258-.199.377-.457.853-.477 1.865-.06 2.738l.02.02zm1.729-1.31c0-.258.099-.496.278-.694.179-.179.437-.278.696-.278s.517.099.696.278a.97.97 0 0 1 0 1.369.89.89 0 0 1-.676.298c-.258 0-.517-.099-.696-.278a.99.99 0 0 1-.278-.695h-.02zm-61.38 44.564c0 .536-.437.972-.974.972s-.974-.437-.974-.972.437-.972.974-.972.974.436.974.972zm17.671 17.58c-.04-.119 0-.238.08-.317l.318-.258c.199-.159.318-.417.318-.675V73.93c0-.139.119-.238.239-.278 1.153-.417 1.988-1.528 1.988-2.818a3.02 3.02 0 0 0-3.021-3.016 3.04 3.04 0 0 0-3.001 2.619v.04.694c.139 1.151.934 2.083 1.988 2.46.119.04.219.139.219.278v2.996s-.04.179-.099.238c-.06.04-.139.079-.199.02-.477-.298-1.034-.476-1.61-.476l-.417.02c-.08 0-.139-.059-.159-.139 0-.139-.179-.198-.278-.099l-1.292 1.091s-.119.099-.159.159c-.099.119-.179.258-.258.377a3.02 3.02 0 0 0 .258 3.532 3.03 3.03 0 0 0 2.306 1.071 3.02 3.02 0 0 0 1.948-.714 2.95 2.95 0 0 0 1.053-2.044c.04-.456-.04-.913-.199-1.329l-.02.02zm-2.166 1.825c-.219.198-.457.238-.636.238-.298 0-.556-.119-.755-.337-.159-.198-.238-.456-.238-.714a1.01 1.01 0 0 1 .338-.675.95.95 0 0 1 .636-.238c.298 0 .576.119.755.357.338.417.298 1.032-.099 1.369zm2.087-8.671c-.537 0-.974-.437-.974-.972s.437-.972.974-.972.974.436.974.972-.437.972-.974.972zm-.457-84.365a3.02 3.02 0 0 0-3.021-3.016 3.04 3.04 0 0 0-3.001 2.619v.04.694c.139 1.151.934 2.083 1.988 2.46.119.04.219.139.219.278v6.726a.57.57 0 0 1-.139.357l-4.194 4.187a1.02 1.02 0 0 0-.298.714V21.35c0 .119-.099.238-.219.278-1.034.377-1.829 1.29-1.968 2.421v.059.695.04a3.04 3.04 0 0 0 3.001 2.619 3.02 3.02 0 0 0 3.021-3.016c0-1.309-.835-2.401-1.988-2.837-.119-.04-.239-.159-.239-.278V2.918a.57.57 0 0 1 .139-.357l4.174-4.167a1.02 1.02 0 0 0 .298-.714v-7.163c0-.139.099-.238.239-.278a3.02 3.02 0 0 0 1.988-2.837v.02zM26.2 24.446c0 .536-.437.972-.974.972s-.974-.437-.974-.972.437-.972.974-.972.974.436.974.972zm4.631-37.024c0 .536-.437.972-.974.972s-.974-.436-.974-.972.437-.972.974-.972.974.437.974.972zm29.697 42.42c-1.153.139-2.087.933-2.465 1.984-.04.119-.159.218-.278.218h-8.428a.42.42 0 0 0-.417.417v8.314a.57.57 0 0 1-.139.357l-6.182 6.171s-.219.139-.358.139H22.066c-.238 0-.417.178-.417.417v.873c0 .119-.099.238-.219.278-1.034.377-1.829 1.29-1.988 2.421v.059.694.04c.199 1.488 1.471 2.619 3.001 2.619 1.67 0 3.021-1.349 3.021-3.016a3.02 3.02 0 0 0-1.67-2.698c-.04-.02-.04-.099 0-.099h8.746a.2.2 0 0 1 .199.198v2.242c0 .139-.099.238-.239.278a3.02 3.02 0 0 0 1.033 5.853 3.04 3.04 0 0 0 3.001-2.619v-.04-.694c-.139-1.151-.934-2.083-1.988-2.46-.119-.04-.219-.139-.219-.278v-2.242c0-.119.099-.198.199-.198h8.169a1.01 1.01 0 0 0 .715-.298l6.818-6.806a1.02 1.02 0 0 0 .298-.714V33.87a.2.2 0 0 1 .199-.199h7.017c.139 0 .239.099.278.238.417 1.151 1.531 1.984 2.842 1.984 1.67 0 3.021-1.349 3.021-3.016a3.04 3.04 0 0 0-2.624-2.996h-.04-.696v-.04zm-37.11 21.984c0 .536-.437.972-.974.972s-.974-.437-.974-.972.437-.972.974-.972.974.436.974.972zm11.091 2.778c0 .536-.437.972-.974.972s-.974-.437-.974-.972.437-.972.974-.972.974.437.974.972zm26.357-22.718c.537 0 .974.437.974.972s-.437.972-.974.972-.974-.436-.974-.972.437-.972.974-.972zM21.151 1.887a3.02 3.02 0 0 0-3.021-3.016 3.04 3.04 0 0 0-3.001 2.619v.04.694c.139 1.151.934 2.083 1.988 2.46.119.04.219.159.219.278v25.794a.57.57 0 0 1-.139.357L4.375 43.911a1.02 1.02 0 0 0-.298.714V92.74c0 .119-.099.238-.219.278-1.034.377-1.829 1.29-1.988 2.421v.06.694.04a3.04 3.04 0 0 0 3.001 2.619 3.02 3.02 0 0 0 3.021-3.016c0-1.31-.835-2.401-1.988-2.837-.119-.04-.239-.139-.239-.278v-47.64c0-.139.06-.258.159-.357l12.821-12.798c.199-.179.298-.437.298-.714V4.962c0-.139.099-.238.238-.278a3.02 3.02 0 0 0 1.988-2.837l-.02.04zM5.846 95.856c0 .536-.437.972-.974.972s-.974-.436-.974-.972.437-.972.974-.972.974.436.974.972zM19.104 1.887c0 .536-.437.972-.974.972s-.974-.437-.974-.972.437-.972.974-.972.974.437.974.972zm77.182 1.627c1.193-1.151 1.232-3.075.079-4.266-.576-.595-1.352-.913-2.167-.913a2.99 2.99 0 0 0-1.55.437c-.199.079-.378.258-.537.417l-.338.357a3.66 3.66 0 0 0-.219.377c-.457.833-.477 1.845-.08 2.698.06.099.02.238-.06.317l-.378.357s-.219.139-.358.139H75.574a.5.5 0 0 1-.358-.159l-8.527-8.829a.41.41 0 0 0-.576 0l-3.101 3.095s-.219.099-.318.06c-.398-.198-.855-.317-1.312-.317-.497 0-.974.119-1.391.337-.139.079-.278.119-.398.218-.06.06-.159.139-.338.337l-.06.06-.278.298c-.099.119-.159.278-.239.417-.557 1.131-.378 2.54.556 3.472a2.98 2.98 0 0 0 2.127.873 3.03 3.03 0 0 0 2.127-.873 3.01 3.01 0 0 0 .596-3.393c-.06-.119-.06-.278.04-.357l2.107-2.103s.219-.079.298 0L74.4 4.705c.179.198.437.298.696.298h16.021a1.01 1.01 0 0 0 .716-.298l.676-.655s.219-.099.318-.04a2.91 2.91 0 0 0 1.371.317 3 3 0 0 0 2.107-.853l-.02.04zm-34.248-2.5c-.179.179-.437.278-.696.278a1.03 1.03 0 0 1-.696-.278c-.378-.377-.378-1.012 0-1.389.179-.179.437-.278.696-.278s.517.099.696.278c.378.377.378 1.012 0 1.389zm32.836 1.012h-.02c-.179.198-.418.278-.676.278s-.517-.099-.696-.298a.99.99 0 0 1-.278-.694.93.93 0 0 1 .298-.694c.179-.179.418-.278.676-.278s.517.099.696.298c.378.377.358.992 0 1.369v.02zM83.962 25.537s-.219.139-.358.139H59.275c-.139 0-.239-.099-.278-.238-.417-1.151-1.53-1.984-2.842-1.984a3.02 3.02 0 0 0-3.021 3.016 3.04 3.04 0 0 0 2.624 2.996h.04.696c1.153-.139 2.087-.933 2.465-1.984.04-.119.139-.218.278-.218h24.786a1.01 1.01 0 0 0 .716-.298l7.355-7.341s.219-.139.358-.139h8.945c.119 0 .239.099.278.218.378 1.032 1.292 1.825 2.425 1.984h.06.696.039a3.04 3.04 0 0 0 2.624-2.996 3.02 3.02 0 0 0-3.021-3.016c-1.312 0-2.405.833-2.843 1.984-.039.119-.159.238-.278.238h-9.382a1.01 1.01 0 0 0-.716.298l-7.354 7.341h.04zm19.599-6.845c0-.536.437-.972.974-.972s.974.436.974.972-.438.972-.974.972-.974-.437-.974-.972zM57.148 26.49c0 .536-.437.972-.974.972s-.974-.436-.974-.972.437-.972.974-.972.974.437.974.972zM1.911 178.495c.576.576 1.332.873 2.127.873s1.57-.317 2.127-.873c1.014-1.012 1.153-2.559.417-3.73-.08-.198-.258-.377-.417-.536-.179-.178-.278-.278-.398-.357s-.239-.119-.358-.198a2.97 2.97 0 0 0-1.372-.338c-.478 0-.974.139-1.411.358-.04.019-.099.019-.139 0-.04-.04-.06-.1-.06-.139V156.65c0-.139.06-.258.139-.357l3.26-3.254a1.02 1.02 0 0 0 .298-.715v-25.952c0-.119.099-.238.219-.278 1.053-.377 1.829-1.31 1.988-2.441v-.019-.695-.039a3.04 3.04 0 0 0-3.001-2.62 3.02 3.02 0 0 0-3.021 3.016c0 1.31.835 2.401 1.988 2.838.119.039.239.139.239.277v25.477c0 .139-.06.258-.139.357l-3.26 3.254a1.02 1.02 0 0 0-.298.714v17.679c0 .258.099.516.298.714l.139.159s.079.238.04.357c-.517 1.111-.338 2.48.596 3.393v-.02zm1.451-2.817c.179-.179.437-.278.696-.278s.497.099.696.278c.378.377.378 1.012 0 1.389-.179.178-.437.277-.696.277s-.517-.099-.696-.277c-.378-.377-.378-.993 0-1.389zm1.014-52.382c0-.535.437-.972.974-.972s.974.437.974.972-.437.973-.974.973-.974-.437-.974-.973zM121.549-2.082a3.04 3.04 0 0 0-2.623-2.996h-.04-.696c-1.153.159-2.087.933-2.464 1.984-.04.119-.14.218-.279.218h-1.948a1.01 1.01 0 0 0-.715.298l-3.856 3.849s-.219.099-.318.06c-.398-.198-.855-.317-1.312-.317a3.01 3.01 0 0 0-1.392.337c-.119.06-.278.119-.377.198-.08.06-.159.159-.358.337l-.378.417c-.079.119-.139.238-.199.357a3.03 3.03 0 0 0 .577 3.472 2.98 2.98 0 0 0 2.127.873 3.03 3.03 0 0 0 2.127-.873 3.01 3.01 0 0 0 .596-3.393c-.06-.119-.06-.278.04-.357l3.538-3.532s.218-.139.357-.139h1.471c.14 0 .239.119.279.238.417 1.151 1.53 1.984 2.842 1.984 1.67 0 3.021-1.349 3.021-3.016h-.02zm-13.575 6.786c-.179.179-.438.278-.696.278a1.03 1.03 0 0 1-.696-.278c-.377-.377-.377-1.012 0-1.389.179-.179.437-.278.696-.278s.517.099.696.278c.377.377.377.992 0 1.389zm11.528-6.786c0 .536-.437.972-.974.972s-.974-.437-.974-.972.437-.972.974-.972.974.437.974.972zM131.348 8.91h-.039a3.04 3.04 0 0 0-2.624 2.996 3.02 3.02 0 0 0 3.021 3.016c1.312 0 2.405-.833 2.843-1.984.039-.119.139-.238.278-.238h17.829a.57.57 0 0 1 .358.139l2.604 2.599s.099.238.04.377a3.01 3.01 0 0 0 .596 3.393c.577.575 1.332.873 2.147.873s1.57-.317 2.127-.873a3.02 3.02 0 0 0 .556-3.492 2.53 2.53 0 0 0-.218-.397c-.06-.079-.12-.159-.159-.179l-.358-.357s-.1-.099-.159-.139c-.12-.099-.259-.159-.398-.218a3 3 0 0 0-1.391-.337 2.98 2.98 0 0 0-1.312.317c-.099.059-.239.02-.318-.059l-2.922-2.917a1.02 1.02 0 0 0-.716-.298h-18.286c-.12 0-.239-.099-.279-.218-.377-1.052-1.292-1.825-2.425-1.984h-.059-.696l-.04-.02zm26.317 7.5c.179-.179.438-.278.696-.278s.517.099.696.278c.377.377.377 1.012 0 1.389-.179.179-.438.278-.696.278a.95.95 0 0 1-.676-.278c-.377-.397-.377-1.012 0-1.389h-.02zm-25.959-5.456c.537 0 .974.436.974.972s-.437.972-.974.972-.974-.437-.974-.972.438-.972.974-.972zm-15.544 10c.06.119.06.278-.039.357l-7.693 7.679s-.218.139-.357.139h-3.181c-.139 0-.238-.099-.278-.238-.417-1.151-1.531-1.984-2.842-1.984a3.02 3.02 0 0 0-3.022 3.016 3.04 3.04 0 0 0 2.624 2.996h.04.695.02c1.133-.139 2.068-.933 2.445-1.984.04-.119.139-.218.279-.218h3.637a1.01 1.01 0 0 0 .716-.298l8.01-7.996s.219-.099.318-.06a2.98 2.98 0 0 0 1.312.317 3.19 3.19 0 0 0 1.391-.337c.119-.059.259-.119.358-.198s.219-.179.398-.357c.159-.159.337-.337.417-.536.735-1.171.576-2.718-.417-3.73a3 3 0 0 0-2.127-.893c-.795 0-1.571.317-2.127.893a3.01 3.01 0 0 0-.596 3.393l.019.04zm2.028-1.964c.179-.179.437-.278.696-.278a.99.99 0 0 1 .695.278c.378.377.378.992 0 1.389-.179.179-.437.278-.695.278s-.517-.099-.696-.278c-.378-.377-.378-.992 0-1.389zm-15.425 10.953c0 .536-.437.972-.974.972s-.973-.437-.973-.972.437-.972.973-.972.974.436.974.972zm39.775-12.72c-1.153.139-2.088.932-2.465 1.984-.04.119-.139.218-.278.218h-4.354c-.119 0-.238-.099-.278-.218-.377-1.032-1.292-1.825-2.425-1.984h-.059-.696-.04a3.04 3.04 0 0 0-2.624 2.996 3.02 3.02 0 0 0 3.022 3.016c1.292 0 2.405-.833 2.842-1.984.04-.119.139-.238.278-.238h4.334c.139 0 .238.099.278.238.417 1.151 1.53 1.984 2.842 1.984 1.67 0 3.021-1.349 3.021-3.016a3.04 3.04 0 0 0-2.623-2.996h-.04-.696-.039zm-9.243 3.016c0 .536-.437.972-.974.972s-.974-.437-.974-.972.437-.972.974-.972.974.437.974.972zm9.6-.972c.537 0 .974.437.974.972s-.437.972-.974.972-.974-.437-.974-.972.438-.972.974-.972zm58.1 111.211h-.02c-1.133.139-2.067.933-2.445 1.984-.039.119-.139.219-.278.219h-4.353c-.119 0-.239-.1-.278-.219-.378-1.031-1.292-1.825-2.425-1.984h-.06-.696-.039a3.04 3.04 0 0 0-2.624 2.996 3.02 3.02 0 0 0 3.021 3.016c1.312 0 2.405-.833 2.843-1.984.039-.119.159-.238.278-.238h4.333c.139 0 .239.119.278.238.418 1.151 1.531 1.984 2.843 1.984a3.02 3.02 0 0 0 3.021-3.016 3.04 3.04 0 0 0-2.624-2.996h-.04-.695-.04zm-9.243 3.016c0 .536-.437.972-.974.972s-.974-.436-.974-.972.438-.972.974-.972.974.436.974.972zm9.601-.972c.537 0 .974.436.974.972s-.437.972-.974.972-.974-.436-.974-.972.437-.972.974-.972z" fill-opacity=".8"/></g><defs><clipPath id="A"><path fill="#fff" transform="matrix(-1 0 0 -1 234.748 210.933)" d="M0 0h233.911v210H0z"/></clipPath></defs></svg>