<svg xmlns="http://www.w3.org/2000/svg" width="40" height="40" fill="none" xmlns:v="https://vecta.io/nano"><g clip-path="url(#A)" fill="#fff"><path d="M21.105 32.5H.626c-.345 0-.626-.281-.626-.626V.626C0 .281.281 0 .626 0h31.25c.345 0 .626.281.626.626v20.625h-1.25V1.25H1.25V31.25h19.856v1.25z"/><path d="M30 23.75c-1.379 0-2.499-1.122-2.499-2.499s1.122-2.499 2.499-2.499 2.499 1.122 2.499 2.499S31.377 23.75 30 23.75zm0-3.749a1.25 1.25 0 1 0 0 2.5 1.25 1.25 0 1 0 0-2.5zm.001 8.75a1.88 1.88 0 0 1-1.875-1.876A1.88 1.88 0 0 1 30.001 25a1.88 1.88 0 0 1 1.876 1.875 1.88 1.88 0 0 1-1.876 1.876zm0-2.499c-.345 0-.626.281-.626.626s.281.626.626.626.626-.281.626-.626-.281-.626-.626-.626zm0 7.498a1.88 1.88 0 0 1-1.875-1.876 1.88 1.88 0 0 1 1.875-1.876 1.88 1.88 0 0 1 1.876 1.876 1.88 1.88 0 0 1-1.876 1.876zm0-2.499c-.345 0-.626.281-.626.626s.281.626.626.626.626-.281.626-.626-.281-.626-.626-.626zM22.5 28.125c-1.379 0-2.499-1.122-2.499-2.499s1.122-2.499 2.499-2.499 2.5 1.122 2.5 2.499-1.123 2.499-2.499 2.499zm0-3.749a1.25 1.25 0 1 0 0 2.5 1.25 1.25 0 1 0 0-2.5zm0 11.249c-1.379 0-2.499-1.123-2.499-2.499s1.122-2.499 2.499-2.499 2.5 1.122 2.5 2.499-1.123 2.499-2.499 2.499zm0-3.749a1.25 1.25 0 1 0 0 2.5 1.25 1.25 0 1 0 0-2.5zm15.001-3.751c-1.379 0-2.499-1.122-2.499-2.499s1.123-2.499 2.499-2.499S40 24.249 40 25.626s-1.123 2.499-2.499 2.499zm0-3.749c-.688 0-1.25.561-1.25 1.25a1.25 1.25 0 1 0 2.5 0 1.25 1.25 0 0 0-1.25-1.25zm0 11.249c-1.379 0-2.499-1.123-2.499-2.499s1.123-2.499 2.499-2.499S40 31.749 40 33.126s-1.123 2.499-2.499 2.499zm0-3.749c-.688 0-1.25.561-1.25 1.25a1.25 1.25 0 1 0 2.5 0 1.25 1.25 0 0 0-1.25-1.25zM30 40c-1.379 0-2.499-1.123-2.499-2.499s1.122-2.499 2.499-2.499 2.499 1.123 2.499 2.499S31.377 40 30 40zm0-3.749a1.25 1.25 0 1 0 0 2.5 1.25 1.25 0 1 0 0-2.5z"/><path d="M28.067 21.655l-4.264 2.488.63 1.079 4.264-2.487-.63-1.08zm-4.943 5.844h-1.25v3.749h1.25v-3.749zm1.311 6.03l-.63 1.079 4.263 2.488.63-1.079-4.263-2.488zm13.69-6.03h-1.25v3.749h1.25v-3.749zm-2.558 6.032l-4.264 2.487.63 1.079 4.264-2.487-.63-1.079zm-3.633-11.876l-.63 1.079 4.263 2.488.63-1.079-4.263-2.488zm3.614 3.661l-4.419.737.206 1.233 4.419-.737-.206-1.233zm-11.095-.003l-.206 1.233 4.419.737.206-1.233-4.419-.737zm4.211 6.154l-4.419.737.206 1.233 4.419-.737-.206-1.233zm2.67-.005l-.206 1.233 4.419.737.206-1.233-4.419-.737zm-.71-8.338h-1.25v2.499h1.25v-2.499zm0 10.002h-1.25v2.499h1.25v-2.499zm0-5.001h-1.25v2.499h1.25v-2.499z"/><path d="M31.357 27.192l-.8.96 5.107 4.25.8-.961-5.107-4.25zm-2.712.002l-5.107 4.25.799.961 5.107-4.25-.799-.96z"/><path d="M35.663 26.344l-5.107 4.25.799.961 5.107-4.25-.8-.961zm-16.288 3.031c-.166 0-.325-.067-.442-.184-.127-.127-.256-.279-.394-.44-.519-.616-1.054-1.252-2.289-1.252s-1.773.636-2.289 1.252l-.394.44c-.234.234-.65.234-.884 0-.25-.25-1.229-1.066-3.309-1.066-2.671 0-4.912.979-5.338 1.177-.236.119-.531.083-.725-.113a.62.62 0 0 1-.184-.444.61.61 0 0 1 .085-.311c.246-.541 1.165-2.723 1.165-5.308 0-2.079-.816-3.059-1.066-3.309a.63.63 0 0 1-.184-.442.63.63 0 0 1 .184-.442 7.56 7.56 0 0 1 .44-.394c.616-.519 1.252-1.054 1.252-2.289s-.636-1.771-1.252-2.289l-.44-.394a.63.63 0 0 1-.184-.442.63.63 0 0 1 .184-.442c.25-.25 1.066-1.23 1.066-3.309 0-2.671-.979-4.912-1.177-5.338a.65.65 0 0 1-.069-.287.62.62 0 0 1 .182-.44c.206-.206.517-.24.755-.101.541.246 2.723 1.165 5.308 1.165 2.079 0 3.059-.816 3.309-1.066.234-.234.65-.234.884 0a7.56 7.56 0 0 1 .394.44c.519.616 1.054 1.252 2.289 1.252s1.771-.636 2.289-1.252l.394-.44c.234-.234.65-.234.884 0 .25.25 1.23 1.066 3.309 1.066 2.671 0 4.912-.979 5.338-1.177.234-.119.529-.083.725.113a.62.62 0 0 1 .184.444.61.61 0 0 1-.085.311c-.246.541-1.165 2.723-1.165 5.308 0 2.079.816 3.059 1.066 3.309a.63.63 0 0 1 .184.442.63.63 0 0 1-.184.442c-.127.127-.279.256-.44.394-.616.519-1.252 1.054-1.252 2.289s.636 1.771 1.252 2.289l.44.394a.63.63 0 0 1 .184.442.63.63 0 0 1-.184.442c-.222.224-.957 1.092-1.056 2.915l-1.248-.067c.067-1.264.424-2.403.995-3.222-.674-.569-1.633-1.431-1.633-3.194s.961-2.625 1.635-3.194c-.46-.66-1.009-1.837-1.009-3.68s.396-3.412.763-4.514c-1.104.369-2.707.763-4.514.763s-3.02-.549-3.68-1.009c-.569.674-1.431 1.635-3.196 1.635s-2.625-.961-3.196-1.635c-.66.46-1.837 1.009-3.68 1.009s-3.412-.396-4.514-.763c.369 1.104.763 2.707.763 4.514s-.549 3.02-1.009 3.68c.674.569 1.635 1.431 1.635 3.194s-.961 2.624-1.635 3.196c.46.66 1.009 1.837 1.009 3.68s-.396 3.412-.763 4.514c1.104-.37 2.707-.763 4.514-.763s3.02.549 3.68 1.009c.569-.674 1.431-1.635 3.196-1.635s2.625.959 3.194 1.633c.775-.541 1.835-.89 3.008-.981l.097 1.246c-1.698.131-2.52.832-2.732 1.044a.63.63 0 0 1-.442.184h.002z"/><path d="M20.734 24.741l-8.233-8.233-7.058 7.058-.884-.884 7.5-7.5c.244-.244.64-.244.884 0l8.675 8.675-.884.884z"/><path d="M15.442 18.568l-.884-.884 7.5-7.5c.244-.244.64-.244.884 0l4.544 4.545-.884.884L22.5 11.51l-7.058 7.058zM10 13.75a3.13 3.13 0 0 1-3.125-3.125A3.13 3.13 0 0 1 10 7.5a3.13 3.13 0 0 1 3.125 3.125A3.13 3.13 0 0 1 10 13.75zm0-5.001a1.88 1.88 0 0 0-1.876 1.876A1.88 1.88 0 0 0 10 12.501a1.88 1.88 0 0 0 1.876-1.876A1.88 1.88 0 0 0 10 8.75zm14.337 17.596l-.799.961 5.107 4.25.799-.961-5.107-4.25z"/></g><defs><clipPath id="A"><path fill="#fff" d="M0 0h40v40H0z"/></clipPath></defs></svg>