<svg width="20" height="15" viewBox="0 0 20 15" fill="none" xmlns="http://www.w3.org/2000/svg">
<g clip-path="url(#clip0_3140_12921)">
<path d="M13.1245 13.3205C13.5973 13.9583 14.1661 14.667 14.1661 14.667C17.6605 14.5489 19.005 12.1316 19.005 12.1316C18.9533 8.75361 18.1702 5.43077 16.7296 2.41502C15.4516 1.37565 13.9002 0.769354 12.2897 0.68274L12.0681 0.950457C14.7571 1.8166 16.0056 3.06857 16.0056 3.06857C14.5281 2.2103 12.9176 1.66699 11.248 1.47014C10.1842 1.34416 9.11304 1.35991 8.05662 1.50164C7.96796 1.50164 7.87193 1.51739 7.78328 1.53313C6.54955 1.68274 5.33799 2.0292 4.2003 2.5725C3.60191 2.86384 3.26208 3.05282 3.26208 3.05282C3.26208 3.05282 4.5623 1.73786 7.42128 0.871717L7.25876 0.666992C5.64827 0.745732 4.09688 1.35203 2.81883 2.39928C1.37825 5.43077 0.59517 8.75361 0.543457 12.1316C0.543457 12.1316 1.87322 14.5568 5.36754 14.667C5.36754 14.667 5.95116 13.919 6.43135 13.2812C4.42193 12.6512 3.66101 11.3205 3.66101 11.3205C3.66101 11.3205 3.82354 11.4386 4.10427 11.604C4.11904 11.6276 4.1412 11.6434 4.16337 11.6512C4.21508 11.6827 4.2594 11.6985 4.30373 11.7379C4.67311 11.9505 5.06465 12.1394 5.45619 12.3048C6.20972 12.6197 6.98542 12.856 7.78328 13.0213C9.1352 13.289 10.5241 13.289 11.876 13.0213C12.6591 12.8717 13.42 12.6355 14.1514 12.3048C14.7941 12.0528 15.3999 11.7221 15.9687 11.3205C15.9687 11.3205 15.1856 12.7142 13.1171 13.3284L13.1245 13.3205ZM7.26615 10.9977C6.38702 10.9977 5.66304 10.1394 5.66304 9.09219C5.55962 8.14731 6.18756 7.29691 7.07407 7.18668C7.96058 7.07644 8.75843 7.74573 8.86186 8.69061C8.87664 8.82447 8.87664 8.9662 8.86186 9.10006C8.91357 10.1001 8.19698 10.9505 7.26615 11.0056C7.26615 11.0056 7.26615 11.0056 7.25876 11.0056L7.26615 10.9977ZM12.9915 10.9977C12.1124 10.9977 11.4032 10.1552 11.4032 9.10006C11.4992 8.15518 12.2971 7.47802 13.1836 7.58038C14.0701 7.68274 14.7054 8.53313 14.6094 9.47802C14.5207 10.352 13.8263 11.0056 13.0063 11.0056H12.9989L12.9915 10.9977Z" fill="#000001"/>
</g>
<defs>
<clipPath id="clip0_3140_12921">
<rect width="18.4615" height="14" fill="white" transform="translate(0.543457 0.666992)"/>
</clipPath>
</defs>
</svg>
