<svg width="21" height="15" viewBox="0 0 21 15" fill="none" xmlns="http://www.w3.org/2000/svg">
<g clip-path="url(#clip0_3140_12966)">
<path d="M17.4724 0.666992H2.9002C1.5959 0.666992 0.543457 1.87235 0.543457 3.36617V12.9678C0.543457 14.4513 1.5959 15.667 2.9002 15.667H17.4724C18.7677 15.667 19.8292 14.4616 19.8292 12.9678V3.36617C19.8292 1.88265 18.7767 0.666992 17.4724 0.666992ZM16.321 2.42867L10.1863 6.95133L4.05159 2.42867H16.321ZM17.4724 13.9053H2.9002C2.45044 13.9053 2.08164 13.4829 2.08164 12.9678V3.41768L9.70957 9.04268C9.70957 9.04268 9.72756 9.05298 9.74555 9.06328C9.75454 9.06328 9.76354 9.07359 9.78153 9.08389C9.8445 9.11479 9.89847 9.1457 9.96143 9.16631C9.96143 9.16631 9.97043 9.16631 9.97942 9.16631C10.0514 9.18691 10.1144 9.19721 10.1863 9.19721C10.2583 9.19721 10.3212 9.18691 10.3932 9.16631C10.3932 9.16631 10.4022 9.16631 10.4112 9.16631C10.4742 9.1457 10.5371 9.11479 10.5911 9.08389C10.6001 9.08389 10.6181 9.07359 10.6271 9.06328C10.6361 9.06328 10.6451 9.05298 10.6631 9.04268L18.291 3.41768V12.9678C18.291 13.4829 17.9222 13.9053 17.4724 13.9053Z" fill="#000001"/>
</g>
<defs>
<clipPath id="clip0_3140_12966">
<rect width="20.6296" height="14" fill="white" transform="translate(0.0151367 0.666992)"/>
</clipPath>
</defs>
</svg>
