<svg xmlns="http://www.w3.org/2000/svg" width="24" height="19" fill="none" xmlns:v="https://vecta.io/nano"><path d="M20.968.565H3.481C1.916.565.653 2.012.653 3.804v11.522c0 1.78 1.263 3.239 2.828 3.239h17.487c1.554 0 2.828-1.446 2.828-3.239V3.804c0-1.78-1.263-3.239-2.828-3.239zm-1.382 2.114l-7.362 5.427-7.362-5.427h14.723zm1.382 13.772H3.481c-.54 0-.982-.507-.982-1.125V3.866l9.154 6.75.043.025c.011 0 .022.012.043.025.076.037.14.074.216.099h.022c.086.025.162.037.248.037s.162-.012.248-.037h.022c.076-.025.151-.062.216-.099.011 0 .032-.012.043-.025.011 0 .022-.012.043-.025l9.154-6.75v11.46c0 .618-.443 1.125-.982 1.125z" fill="url(#A)"/><defs><linearGradient id="A" x1="18.265" y1="13.911" x2="2.246" y2="11.597" gradientUnits="userSpaceOnUse"><stop stop-color="#fff"/><stop offset=".966" stop-color="#f27507"/></linearGradient></defs></svg>