<svg xmlns="http://www.w3.org/2000/svg" width="38" height="36" viewBox="0 0 38 36" fill="none">
<g clip-path="url(#clip0_4073_9581)">
<path d="M0.75 4.67454C0.75 2.52073 2.52364 0.75 4.69062 0.75H31.4226C33.5888 0.75 35.3614 2.5204 35.3614 4.67454V31.3241C35.3614 33.4785 33.5885 35.25 31.4226 35.25H4.69062C2.52392 35.25 0.75 33.4782 0.75 31.3241V4.67454Z" fill="white" stroke="url(#paint0_linear_4073_9581)" stroke-width="1.5"/>
<path d="M6.72319 2.58496C6.4149 2.58496 6.1678 2.833 6.1678 3.14021C6.1678 3.44741 6.4149 3.69545 6.72319 3.69545H7.96824C8.27653 3.69545 8.52499 3.44741 8.52499 3.14021C8.52499 2.833 8.27607 2.58496 7.96824 2.58496H6.72319ZM10.2647 2.58496C9.95639 2.58496 9.70747 2.833 9.70747 3.14021C9.70747 3.44741 9.95639 3.69545 10.2647 3.69545H11.5097C11.818 3.69545 12.0651 3.44741 12.0651 3.14021C12.0651 2.833 11.818 2.58496 11.5097 2.58496H10.2647ZM13.8062 2.58496C13.4979 2.58496 13.2494 2.833 13.2494 3.14021C13.2494 3.44741 13.4983 3.69545 13.8062 3.69545H15.0494C15.3577 3.69545 15.6066 3.44741 15.6066 3.14021C15.6066 2.833 15.3577 2.58496 15.0494 2.58496H13.8062ZM17.3458 2.58496C17.0375 2.58496 16.7905 2.833 16.7905 3.14021C16.7905 3.44741 17.0375 3.69545 17.3458 3.69545H18.5909C18.8992 3.69545 19.1481 3.44741 19.1481 3.14021C19.1481 2.833 18.8992 2.58496 18.5909 2.58496H17.3458ZM20.8873 2.58496C20.579 2.58496 20.3301 2.833 20.3301 3.14021C20.3301 3.44741 20.579 3.69545 20.8873 3.69545H22.1324C22.4407 3.69545 22.6878 3.44741 22.6878 3.14021C22.6878 2.833 22.4407 2.58496 22.1324 2.58496H20.8873ZM24.427 2.58496C24.1187 2.58496 23.8716 2.833 23.8716 3.14021C23.8716 3.44741 24.1187 3.69545 24.427 3.69545H25.672C25.9803 3.69545 26.2292 3.44741 26.2292 3.14021C26.2292 2.833 25.9803 2.58496 25.672 2.58496H24.427ZM27.9685 2.58496C27.6602 2.58496 27.4113 2.833 27.4113 3.14021C27.4113 3.44741 27.6602 3.69545 27.9685 3.69545H29.2135C29.5218 3.69545 29.7707 3.44741 29.7707 3.14021C29.7707 2.833 29.5218 2.58496 29.2135 2.58496H27.9685ZM4.59208 3.17525C4.43908 3.17434 4.28059 3.23851 4.1422 3.34274C3.62336 3.73186 3.41874 4.07684 3.30319 4.25844C3.13785 4.51786 3.11045 4.83462 3.33836 5.0417C3.45208 5.14547 3.59458 5.19325 3.73663 5.18688C3.87867 5.18051 4.01523 5.10132 4.16276 4.90016C4.41259 4.55927 4.68708 4.28848 4.96158 4.09095C5.21141 3.91118 5.15386 3.51477 4.92641 3.30769C4.82684 3.21712 4.71175 3.17616 4.59254 3.17525H4.59208ZM31.3442 3.17525C31.225 3.17571 31.1099 3.21712 31.0103 3.30769C30.7829 3.51477 30.7253 3.91118 30.9751 4.09095C31.2496 4.28848 31.526 4.55927 31.7758 4.90016C31.9233 5.10132 32.058 5.18097 32.2001 5.18688C32.3421 5.19325 32.4865 5.14501 32.6002 5.0417C32.8276 4.83416 32.8007 4.51786 32.6354 4.25844C32.5198 4.07684 32.3152 3.73186 31.7959 3.34274C31.6575 3.23897 31.4972 3.17434 31.3442 3.17525ZM33.0099 6.21136C32.7016 6.21136 32.4527 6.4594 32.4527 6.7666V8.00772C32.4527 8.31492 32.7016 8.56296 33.0099 8.56296C33.3182 8.56296 33.5653 8.31492 33.5653 8.00772V6.7666C33.5653 6.4594 33.3182 6.21136 33.0099 6.21136ZM3.1036 6.21318C2.7953 6.21318 2.54639 6.4594 2.54639 6.7666V8.00772C2.54639 8.31492 2.7953 8.56296 3.1036 8.56296C3.41189 8.56296 3.66081 8.31492 3.66081 8.00772V6.7666C3.66081 6.4594 3.41189 6.21318 3.1036 6.21318ZM3.1036 9.74218C2.7953 9.74218 2.54639 9.99022 2.54639 10.2974V11.5385C2.54639 11.8457 2.7953 12.092 3.1036 12.092C3.41189 12.092 3.66081 11.8457 3.66081 11.5385V10.2974C3.66081 9.99022 3.41189 9.74218 3.1036 9.74218ZM33.0099 9.74218C32.7016 9.74218 32.4527 9.99022 32.4527 10.2974V11.5367C32.4527 11.8439 32.7016 12.092 33.0099 12.092C33.3182 12.092 33.5653 11.8439 33.5653 11.5367V10.2974C33.5653 9.99022 33.3182 9.74218 33.0099 9.74218ZM3.1036 13.2721C2.7953 13.2721 2.54639 13.5183 2.54639 13.8255V15.0666C2.54639 15.3738 2.7953 15.6219 3.1036 15.6219C3.41189 15.6219 3.66081 15.3738 3.66081 15.0666V13.8255C3.66081 13.5183 3.41189 13.2721 3.1036 13.2721ZM33.0099 13.2721C32.7016 13.2721 32.4527 13.5183 32.4527 13.8255V15.0666C32.4527 15.3738 32.7016 15.6219 33.0099 15.6219C33.3182 15.6219 33.5653 15.3738 33.5653 15.0666V13.8255C33.5653 13.5183 33.3182 13.2721 33.0099 13.2721ZM3.1036 16.8011C2.7953 16.8011 2.54639 17.0491 2.54639 17.3563V18.5975C2.54639 18.9047 2.7953 19.1527 3.1036 19.1527C3.41189 19.1527 3.66081 18.9047 3.66081 18.5975V17.3563C3.66081 17.0491 3.41189 16.8011 3.1036 16.8011ZM33.0099 16.8011C32.7016 16.8011 32.4527 17.0491 32.4527 17.3563V18.5975C32.4527 18.9047 32.7016 19.1509 33.0099 19.1509C33.3182 19.1509 33.5653 18.9047 33.5653 18.5975V17.3563C33.5653 17.0491 33.3182 16.8011 33.0099 16.8011ZM3.1036 20.3315C2.7953 20.3315 2.54639 20.5795 2.54639 20.8867V22.126C2.54639 22.4332 2.7953 22.6812 3.1036 22.6812C3.41189 22.6812 3.66081 22.4332 3.66081 22.126V20.8867C3.66081 20.5795 3.41189 20.3315 3.1036 20.3315ZM33.0099 20.3315C32.7016 20.3315 32.4527 20.5795 32.4527 20.8867V22.126C32.4527 22.4332 32.7016 22.6812 33.0099 22.6812C33.3182 22.6812 33.5653 22.4332 33.5653 22.126V20.8867C33.5653 20.5795 33.3182 20.3315 33.0099 20.3315ZM3.1036 23.8623C2.7953 23.8623 2.54639 24.1085 2.54639 24.4157V25.6568C2.54639 25.964 2.7953 26.2121 3.1036 26.2121C3.41189 26.2121 3.66081 25.964 3.66081 25.6568V24.4157C3.66081 24.1085 3.41189 23.8623 3.1036 23.8623ZM33.0099 23.8623C32.7016 23.8623 32.4527 24.1085 32.4527 24.4157V25.6568C32.4527 25.964 32.7016 26.2121 33.0099 26.2121C33.3182 26.2121 33.5653 25.964 33.5653 25.6568V24.4157C33.5653 24.1085 33.3182 23.8623 33.0099 23.8623ZM3.1036 27.3913C2.7953 27.3913 2.54639 27.6393 2.54639 27.9465V29.1876C2.54639 29.4948 2.7953 29.7411 3.1036 29.7411C3.41189 29.7411 3.66081 29.4948 3.66081 29.1876V27.9465C3.66081 27.6393 3.41189 27.3913 3.1036 27.3913ZM33.0099 27.3913C32.7016 27.3913 32.4527 27.6393 32.4527 27.9465V29.1876C32.4527 29.4948 32.7016 29.7411 33.0099 29.7411C33.3182 29.7411 33.5653 29.4948 33.5653 29.1876V27.9465C33.5653 27.6393 33.3182 27.3913 33.0099 27.3913ZM3.68319 30.7674C3.55896 30.7733 3.4361 30.8202 3.33653 30.9107C3.10908 31.1183 3.13603 31.4364 3.30136 31.6958C3.41692 31.8774 3.62199 32.2224 4.14083 32.6115C4.38701 32.7963 4.69896 32.8536 4.92687 32.6466C5.15432 32.4395 5.21187 32.0412 4.96204 31.8615C4.68754 31.6639 4.41122 31.395 4.16139 31.0541C4.01386 30.8529 3.87913 30.7737 3.73708 30.7674C3.71927 30.7669 3.70146 30.7669 3.68365 30.7674H3.68319ZM32.1983 30.7674C32.0562 30.7737 31.9215 30.8529 31.774 31.0541C31.5241 31.395 31.2478 31.6639 30.9733 31.8615C30.7235 32.0417 30.7829 32.4395 31.0103 32.6466C31.2378 32.8541 31.5479 32.7963 31.7941 32.6115C32.3129 32.2224 32.5175 31.8774 32.6335 31.6958C32.7989 31.4364 32.8258 31.1178 32.5984 30.9107C32.4846 30.807 32.3403 30.761 32.1983 30.7674ZM6.72273 32.3066C6.41444 32.3066 6.16735 32.5546 6.16735 32.8618C6.16735 33.169 6.41444 33.4153 6.72273 33.4153H7.96778C8.27607 33.4153 8.52454 33.169 8.52454 32.8618C8.52454 32.5546 8.27562 32.3066 7.96778 32.3066H6.72273ZM10.2642 32.3066C9.95593 32.3066 9.70747 32.5546 9.70747 32.8618C9.70747 33.169 9.95639 33.4153 10.2642 33.4153H11.5093C11.8176 33.4153 12.0647 33.169 12.0647 32.8618C12.0647 32.5546 11.8176 32.3066 11.5093 32.3066H10.2642ZM13.8057 32.3066C13.4974 32.3066 13.2485 32.5546 13.2485 32.8618C13.2485 33.169 13.4974 33.4153 13.8057 33.4153H15.0489C15.3572 33.4153 15.6061 33.169 15.6061 32.8618C15.6061 32.5546 15.3572 32.3066 15.0489 32.3066H13.8057ZM17.3454 32.3066C17.0371 32.3066 16.79 32.5546 16.79 32.8618C16.79 33.169 17.0371 33.4153 17.3454 33.4153H18.5904C18.8987 33.4153 19.1476 33.169 19.1476 32.8618C19.1476 32.5546 18.8987 32.3066 18.5904 32.3066H17.3454ZM20.8869 32.3066C20.5786 32.3066 20.3297 32.5546 20.3297 32.8618C20.3297 33.169 20.5786 33.4153 20.8869 33.4153H22.1319C22.4402 33.4153 22.6873 33.169 22.6873 32.8618C22.6873 32.5546 22.4402 32.3066 22.1319 32.3066H20.8869ZM24.4265 32.3066C24.1182 32.3066 23.8711 32.5546 23.8711 32.8618C23.8711 33.169 24.1182 33.4153 24.4265 33.4153H25.6716C25.9799 33.4153 26.2288 33.169 26.2288 32.8618C26.2288 32.5546 25.9799 32.3066 25.6716 32.3066H24.4265ZM27.968 32.3066C27.6597 32.3066 27.4108 32.5546 27.4108 32.8618C27.4108 33.169 27.6597 33.4153 27.968 33.4153H29.2131C29.5214 33.4153 29.7703 33.169 29.7703 32.8618C29.7703 32.5546 29.5214 32.3066 29.2131 32.3066H27.968Z" fill="url(#paint1_linear_4073_9581)"/>
<path d="M36.5686 13.5972C36.701 13.5972 36.8353 13.6054 36.9696 13.6172C37.3519 13.6522 37.677 14.0063 37.6784 14.3891V21.6114C37.6784 21.9946 37.3523 22.3505 36.9696 22.3855C36.8357 22.3974 36.7015 22.4033 36.5686 22.4033H30.5196C28.0862 22.4033 26.103 20.4262 26.103 18.0005C26.103 15.5747 28.0862 13.5976 30.5196 13.5976H36.5686V13.5972Z" fill="white"/>
<path d="M30.6103 15.647C29.3077 15.647 28.2499 16.6983 28.249 17.9968V17.999C28.249 19.2989 29.3068 20.3529 30.6103 20.3529C31.9138 20.3529 32.9698 19.2984 32.9698 17.999C32.9698 16.6997 31.9143 15.647 30.6103 15.647Z" fill="url(#paint2_linear_4073_9581)"/>
<path d="M30.5194 13.2773C27.912 13.2773 25.7822 15.4005 25.7822 18.0001C25.7822 20.5998 27.912 22.7229 30.5194 22.7229H36.5693C36.7109 22.7229 36.8538 22.7184 36.9977 22.7056C37.5609 22.6542 37.9998 22.1759 37.9998 21.612V14.3897C37.9975 13.8271 37.5599 13.352 36.9977 13.301C36.8579 13.2887 36.715 13.2783 36.5693 13.2783H30.5194V13.2773ZM30.5194 13.9168H36.5693C36.6885 13.9168 36.8118 13.9254 36.9402 13.9368C37.1416 13.9555 37.3562 14.1867 37.3585 14.3887V21.611C37.3585 21.814 37.1429 22.0498 36.9402 22.068C36.8159 22.0789 36.6926 22.083 36.5693 22.083H30.5194C28.2604 22.083 26.4235 20.2521 26.4235 17.9997C26.4235 15.7473 28.26 13.9163 30.5194 13.9163V13.9168Z" fill="url(#paint3_linear_4073_9581)"/>
<path d="M15.011 7.81934L8.80078 16.9054L15.011 14.1655L21.2184 16.9054L15.011 7.81934ZM15.011 15.509L8.80078 18.2166L15.011 21.7087L21.2184 18.2166L15.011 15.509ZM8.80078 19.5045L15.011 28.1805L21.2184 19.5045L15.011 23.0727L8.80078 19.5045Z" fill="url(#paint4_linear_4073_9581)"/>
</g>
<defs>
<linearGradient id="paint0_linear_4073_9581" x1="37.0174" y1="-22.0909" x2="87.2996" y2="48.0167" gradientUnits="userSpaceOnUse">
<stop offset="0.112333" stop-color="#F98218"/>
<stop offset="0.518947" stop-color="#0057FF"/>
</linearGradient>
<linearGradient id="paint1_linear_4073_9581" x1="34.3435" y1="-16.3336" x2="77.3634" y2="43.8289" gradientUnits="userSpaceOnUse">
<stop offset="0.112333" stop-color="#F98218"/>
<stop offset="0.518947" stop-color="#0057FF"/>
</linearGradient>
<linearGradient id="paint2_linear_4073_9581" x1="33.0882" y1="12.7592" x2="39.661" y2="21.9241" gradientUnits="userSpaceOnUse">
<stop offset="0.112333" stop-color="#F98218"/>
<stop offset="0.518947" stop-color="#0057FF"/>
</linearGradient>
<linearGradient id="paint3_linear_4073_9581" x1="38.3063" y1="7.4812" x2="50.1396" y2="28.7562" gradientUnits="userSpaceOnUse">
<stop offset="0.112333" stop-color="#F98218"/>
<stop offset="0.518947" stop-color="#0057FF"/>
</linearGradient>
<linearGradient id="paint4_linear_4073_9581" x1="21.5299" y1="-4.67501" x2="51.1492" y2="20.4333" gradientUnits="userSpaceOnUse">
<stop offset="0.112333" stop-color="#F98218"/>
<stop offset="0.518947" stop-color="#0057FF"/>
</linearGradient>
<clipPath id="clip0_4073_9581">
<rect width="38" height="36" fill="white"/>
</clipPath>
</defs>
</svg>