<svg width="96" height="26" viewBox="0 0 96 26" fill="none" xmlns="http://www.w3.org/2000/svg">
<g clip-path="url(#clip0_3007_2394)">
<path d="M28.0794 0.170943C28.0794 0.170943 21.8722 1.88091 19.521 2.54779C17.1698 3.21468 15.7163 8.24197 15.6992 8.28472L8.80806 10.217C8.80806 10.217 6.30296 10.7129 6.30296 13.3035C6.30296 15.7573 8.80806 14.8339 8.80806 14.8339C8.80806 14.8339 10.005 14.5175 12.3477 13.8507C14.6903 13.1838 15.6907 8.32747 15.6907 8.28472L28.0623 4.83914C28.0623 4.83914 30.5673 4.30051 30.5673 1.70991C30.5759 -0.752437 28.0623 0.170943 28.0623 0.170943H28.0794ZM3.33617 25.829C3.33617 25.829 10.0136 23.948 12.3562 23.2811C14.6989 22.6142 15.6907 17.7579 15.7078 17.7152L22.5904 15.7829C22.5904 15.7829 25.0955 15.287 25.0955 12.6964C25.0955 10.1058 22.5733 11.1147 22.5733 11.1147C22.5733 11.1147 21.3763 11.4311 19.0336 12.0979C16.691 12.7648 15.7249 17.6724 15.7078 17.7152L3.33617 21.1607C3.33617 21.1607 0.831076 21.6908 0.831076 24.29C0.822527 26.7523 3.33617 25.829 3.33617 25.829Z" fill="url(#paint0_linear_3007_2394)"/>
<path d="M35.6201 8.59261H40.9125V9.34499H36.4495V12.4742H40.6047V13.2266H36.4495V17.416H35.6287V8.59261H35.6201ZM44.0673 8.59261H46.8631C47.0854 8.60116 47.2992 8.62681 47.5129 8.66955C47.7523 8.7123 47.9917 8.7807 48.2226 8.8662C48.4619 8.96025 48.6842 9.09704 48.8723 9.26804C49.069 9.45614 49.2314 9.67843 49.3511 9.92638C49.6162 10.5762 49.5991 11.3114 49.3169 11.9527C49.1801 12.2092 48.992 12.44 48.7612 12.6196C48.5389 12.7906 48.2995 12.9188 48.0345 12.9958C47.7865 13.0727 47.53 13.1326 47.2735 13.1753L49.847 17.416H48.9065L46.4271 13.2266H44.8881V17.416H44.0673V8.59261ZM44.8881 12.4913H46.6323C46.9914 12.4999 47.3505 12.4486 47.6839 12.3289C47.9148 12.2434 48.1285 12.1066 48.308 11.927C48.4534 11.7902 48.556 11.6107 48.6244 11.4226C48.6757 11.2601 48.7013 11.0892 48.7099 10.9182C48.7099 10.7472 48.6757 10.5847 48.6244 10.4223C48.5645 10.2256 48.4534 10.0546 48.308 9.90928C48.1285 9.73828 47.9148 9.60148 47.6839 9.51599C47.3419 9.39629 46.9914 9.34499 46.6323 9.35354H44.8881V12.4999V12.4913ZM55.678 8.60116H56.5244L60.2436 17.4246H59.3031L58.3455 15.0819H53.6517L52.6514 17.4246H51.7878L55.678 8.60116ZM56.0627 9.49889L54.0022 14.3295H58.0719L56.0627 9.49889ZM70.3067 16.0309C69.9305 16.561 69.4261 16.9885 68.8362 17.2621C68.2633 17.5186 67.6477 17.6469 67.0236 17.6383C66.3909 17.6383 65.7582 17.5272 65.1683 17.2878C64.6297 17.074 64.1338 16.7406 63.7319 16.3302C63.3215 15.9113 63.0052 15.4068 62.7914 14.8596C62.3383 13.6626 62.3383 12.3374 62.7914 11.1319C63.0052 10.5847 63.3215 10.0888 63.7319 9.66988C64.1423 9.25094 64.6297 8.9175 65.1683 8.70375C65.7582 8.46436 66.3909 8.34466 67.0236 8.35321C67.5964 8.35321 68.1693 8.45581 68.6994 8.66955C69.238 8.9004 69.7168 9.26804 70.0673 9.72973L69.3919 10.294C69.1354 9.89218 68.7678 9.57583 68.3403 9.37919C67.9299 9.19109 67.4767 9.09705 67.0236 9.0885C66.485 9.0885 65.9549 9.19109 65.459 9.40484C65.0144 9.59293 64.6126 9.87508 64.2791 10.2256C63.9457 10.5847 63.6977 11.0037 63.5353 11.4568C63.1847 12.4486 63.1847 13.5344 63.5353 14.5262C63.6977 14.9879 63.9542 15.4154 64.2791 15.7745C64.6126 16.125 65.0144 16.4071 65.459 16.5952C65.9549 16.809 66.485 16.9116 67.0236 16.9116C67.2544 16.9116 67.4938 16.8859 67.7247 16.8346C67.9641 16.7748 68.2035 16.6893 68.4258 16.5781C68.6566 16.4584 68.8789 16.3216 69.0841 16.1506C69.2979 15.9711 69.486 15.7574 69.6313 15.518L70.3067 16.0138V16.0309ZM75.2827 9.32789H72.2732V8.59261H79.1301V9.34499H76.1121V17.4331H75.2913V9.33644L75.2827 9.32789ZM83.8496 8.59261H84.6961L88.4153 17.4246H87.4748L86.5172 15.0819H81.8575L80.8572 17.4246H79.9937L83.8496 8.59261ZM84.2344 9.49034L82.1739 14.3295H86.2436L84.2344 9.49034ZM91.1939 8.59261H92.0147V16.6807H96.1443V17.4246H91.2025V8.59261H91.1939Z" fill="url(#paint1_linear_3007_2394)"/>
</g>
<defs>
<linearGradient id="paint0_linear_3007_2394" x1="0.831076" y1="13.0042" x2="30.593" y2="13.0042" gradientUnits="userSpaceOnUse">
<stop stop-color="#4E4FA1"/>
<stop offset="1" stop-color="#DB6B3D"/>
</linearGradient>
<linearGradient id="paint1_linear_3007_2394" x1="35.6201" y1="13.0043" x2="96.1528" y2="13.0043" gradientUnits="userSpaceOnUse">
<stop stop-color="#4E4FA1"/>
<stop offset="1" stop-color="#DB6B3D"/>
</linearGradient>
<clipPath id="clip0_3007_2394">
<rect width="95" height="26" fill="white" transform="translate(0.910156)"/>
</clipPath>
</defs>
</svg>
