<svg width="16" height="16" viewBox="0 0 16 16" fill="none" xmlns="http://www.w3.org/2000/svg">
<path fill-rule="evenodd" clip-rule="evenodd" d="M7.64773 0.0517578C3.42754 0.0517578 0.0151367 3.48916 0.0151367 7.74217C0.0151367 11.1421 2.20101 14.0186 5.23374 15.0373C5.61342 15.1138 5.75247 14.8717 5.75247 14.6685C5.75247 14.4904 5.73997 13.8795 5.73997 13.242C3.6166 13.6998 3.17442 12.3248 3.17442 12.3248C2.83381 11.4342 2.32757 11.2046 2.32757 11.2046C1.63228 10.7343 2.37757 10.7343 2.37757 10.7343C3.14786 10.7858 3.55254 11.5233 3.55254 11.5233C4.23533 12.6952 5.33374 12.3639 5.77747 12.1592C5.83997 11.6624 6.04309 11.3186 6.25715 11.128C4.56345 10.9499 2.78225 10.2874 2.78225 7.33436C2.78225 6.49376 3.08536 5.80628 3.56504 5.27192C3.48848 5.0813 3.22442 4.29226 3.6416 3.23448C3.6416 3.23448 4.28533 3.03136 5.73997 4.02352C6.36183 3.85478 7.004 3.76884 7.64773 3.76884C8.29147 3.76884 8.94926 3.8579 9.55549 4.02352C11.0086 3.0298 11.6539 3.23448 11.6539 3.23448C12.071 4.2907 11.8054 5.0813 11.7304 5.27192C12.2226 5.80628 12.5132 6.49376 12.5132 7.33436C12.5132 10.289 10.732 10.9374 9.02582 11.128C9.30394 11.3702 9.54456 11.828 9.54456 12.5545C9.54456 13.5858 9.53206 14.4139 9.53206 14.6685C9.53206 14.8717 9.67111 15.1138 10.0508 15.0373C13.0835 14.0186 15.2694 11.1421 15.2694 7.74217C15.2819 3.48916 11.857 0.0517578 7.6493 0.0517578L7.64773 0.0517578Z" fill="#000001"/>
</svg>
