<svg xmlns="http://www.w3.org/2000/svg" width="17" height="16" fill="none" xmlns:v="https://vecta.io/nano"><path fill-rule="evenodd" d="M8.141 0C3.64 0 0 3.667 0 8.203c0 3.627 2.332 6.695 5.567 7.781.405.082.553-.177.553-.393l-.013-1.522c-2.265.488-2.737-.978-2.737-.978-.363-.95-.903-1.195-.903-1.195-.742-.502.053-.502.053-.502.822.055 1.253.842 1.253.842.728 1.25 1.9.897 2.373.678.067-.53.283-.897.512-1.1-1.807-.19-3.707-.897-3.707-4.047a3.21 3.21 0 0 1 .835-2.2c-.082-.203-.363-1.045.082-2.173 0 0 .687-.217 2.238.842.663-.18 1.348-.272 2.035-.272a7.82 7.82 0 0 1 2.035.272c1.55-1.06 2.238-.842 2.238-.842.445 1.127.162 1.97.082 2.173a3.15 3.15 0 0 1 .835 2.2c0 3.152-1.9 3.843-3.72 4.047.297.258.553.747.553 1.522l-.013 2.255c0 .217.148.475.553.393 3.235-1.087 5.567-4.155 5.567-7.781C16.285 3.667 12.631 0 8.143 0h-.002z" fill="#f27507"/></svg>