<svg xmlns="http://www.w3.org/2000/svg" width="36" height="40" fill="none" xmlns:v="https://vecta.io/nano"><g clip-path="url(#A)" fill="#fff"><path d="M3.241 30.487l-1.469-.848L18.131 1.306l1.469.848L3.241 30.487z"/><path d="M1.436 27.375h32.717v1.696H1.436v-1.696z"/><path d="M18.448 37.776L2.083 28.327l.848-1.469 16.365 9.448-.848 1.469v.001zm14.216-24.625L16.299 3.702l.848-1.469 16.365 9.448-.848 1.469v.001z"/><path d="M2.936 13.144l-.848-1.468 16.365-9.449.848 1.468-16.365 9.449z"/><path d="M32.362 30.487L16.004 2.154l1.469-.848 16.358 28.333-1.468.848h-.001zM2.733 10.551h1.696v18.897H2.733V10.551z"/><path d="M31.17 10.551h1.696v18.897H31.17V10.551z"/><path d="M18.159 37.059l-.741-1.282 14.233-8.218.741 1.282-14.233 8.218z"/><path d="M35.114 30a3.57 3.57 0 0 1-4.872 1.307 3.57 3.57 0 0 1-1.307-4.872 3.57 3.57 0 0 1 4.872-1.307c1.716.991 2.298 3.166 1.307 4.872zM6.656 13.565a3.57 3.57 0 0 1-4.872 1.307A3.57 3.57 0 0 1 .476 10a3.57 3.57 0 0 1 4.872-1.307c1.706.99 2.288 3.166 1.307 4.872M.486 30c-.981-1.706-.398-3.882 1.307-4.872 1.706-.981 3.882-.398 4.872 1.307.981 1.706.398 3.882-1.307 4.872-1.716.981-3.892.398-4.872-1.307zm28.458-16.435c-.981-1.706-.398-3.882 1.307-4.872 1.706-.981 3.882-.398 4.872 1.307.981 1.706.398 3.882-1.307 4.872a3.57 3.57 0 0 1-4.872-1.307zM17.8 40a3.56 3.56 0 1 1 0-7.13 3.56 3.56 0 1 1 0 7.13zm0-32.87a3.56 3.56 0 0 1-3.565-3.565 3.56 3.56 0 1 1 7.13 0A3.56 3.56 0 0 1 17.8 7.13z"/></g><defs><clipPath id="A"><path fill="#fff" d="M0 0h35.599v40H0z"/></clipPath></defs></svg>