<svg width="26" height="25" viewBox="0 0 26 25" fill="none" xmlns="http://www.w3.org/2000/svg">
<g clip-path="url(#clip0_3007_2397)">
<path d="M23.9036 0V5H22.237V0H20.5703V5H18.9036V0H17.237V5H8.90365V0H7.23698V6.66667H23.9036V8.33333H5.57031V0H3.90365V8.33333H2.23698V0H0.570312V18.3333H2.23698V13.3333H3.90365V18.3333H5.57031V13.3333H7.23698V18.3333H8.90365V13.3333H17.237V18.3333H18.9036V11.6667H2.23698V10H20.5703V18.3333H22.237V10H23.9036V18.3333H25.5703V0H23.9036Z" fill="#3EF2D0"/>
<path d="M3.42448 22.375V23.3229H1.28906V22.375H0.570312V25H1.28906V24.0521H3.4349V25H4.15365V22.375H3.4349H3.42448Z" fill="#3EF2D0"/>
<path d="M16.9971 24.0521H16.2783V25H16.9971V24.0521Z" fill="#3EF2D0"/>
<path d="M16.9974 22.375H16.2786V23.3229H14.1328V22.375H13.4141V25H14.1328V24.0521H16.2786L16.9974 23.3333V22.375Z" fill="#3EF2D0"/>
<path d="M7.94531 22.375H4.85156V25H5.57031V24.0521H7.71615V25H8.4349V22.375H7.95573H7.94531ZM5.57031 23.3333V23.0938H7.71615V23.3333H5.57031Z" fill="#3EF2D0"/>
<path d="M12.7165 23.0938V22.375H9.14355V25H12.7165V24.2812H9.86231V23.0938H12.7165Z" fill="#3EF2D0"/>
<path d="M21.2887 23.0938V22.375H17.7158V25H21.2887V24.2812H18.4346V24.0417H21.2887V23.3229H18.4346V23.0833H21.2887V23.0938Z" fill="#3EF2D0"/>
<path d="M24.8519 22.375V24.0417L22.7061 22.375H21.9873V25H22.7061V23.3333L24.8519 25H25.5706V22.375H24.8519Z" fill="#3EF2D0"/>
</g>
<defs>
<clipPath id="clip0_3007_2397">
<rect width="25" height="25" fill="white" transform="translate(0.0898438)"/>
</clipPath>
</defs>
</svg>
