<svg width="16" height="16" viewBox="0 0 16 16" fill="none" xmlns="http://www.w3.org/2000/svg">
<g clip-path="url(#clip0_3140_12956)">
<path fill-rule="evenodd" clip-rule="evenodd" d="M8.04332 0.666992C6.00738 0.666992 5.75093 0.67746 4.95016 0.714096C4.14939 0.750733 3.60508 0.876343 3.1288 1.06476C2.63683 1.25841 2.21813 1.51486 1.79943 1.92833C1.38072 2.34703 1.12427 2.76574 0.935853 3.25771C0.752671 3.73398 0.621826 4.2783 0.58519 5.07906C0.548553 5.87983 0.538086 6.13629 0.538086 8.17223C0.538086 10.2082 0.548553 10.4646 0.58519 11.2654C0.621826 12.0662 0.747437 12.6105 0.935853 13.0867C1.1295 13.5787 1.38596 13.9974 1.79943 14.4161C2.21813 14.8348 2.63683 15.0913 3.1288 15.2797C3.60508 15.4629 4.14939 15.5937 4.95016 15.6304C5.75093 15.667 6.00738 15.6775 8.04332 15.6775C10.0793 15.6775 10.3357 15.667 11.1365 15.6304C11.9372 15.5937 12.4816 15.4681 12.9578 15.2797C13.4498 15.086 13.8685 14.8296 14.2872 14.4161C14.7059 14.0027 14.9624 13.5787 15.1508 13.0867C15.334 12.6105 15.4648 12.0662 15.5014 11.2654C15.5381 10.4646 15.5486 10.2082 15.5486 8.17223C15.5486 6.13629 15.5381 5.87983 15.5014 5.07906C15.4648 4.2783 15.3392 3.73398 15.1508 3.25771C14.9571 2.76574 14.7007 2.34703 14.2872 1.92833C13.8685 1.50963 13.4498 1.25318 12.9578 1.06476C12.4816 0.881577 11.9372 0.750733 11.1365 0.714096C10.3357 0.67746 10.0793 0.666992 8.04332 0.666992Z" fill="#E7E7E1"/>
<path fill-rule="evenodd" clip-rule="evenodd" d="M8.04338 2.01758C10.0479 2.01758 10.2834 2.02281 11.0737 2.05945C11.8065 2.09085 12.2042 2.21646 12.4659 2.3159C12.8166 2.45198 13.0678 2.61423 13.3295 2.87592C13.5912 3.13761 13.7534 3.38883 13.8895 3.73949C13.9942 4.00118 14.1146 4.39895 14.146 5.13167C14.1826 5.92197 14.1878 6.15749 14.1878 8.16203C14.1878 10.1666 14.1826 10.4021 14.146 11.1924C14.1146 11.9251 13.9889 12.3229 13.8895 12.5846C13.7534 12.9352 13.5912 13.1865 13.3295 13.4481C13.0678 13.7098 12.8166 13.8721 12.4659 14.0082C12.2042 14.1128 11.8065 14.2332 11.0737 14.2646C10.2834 14.3012 10.0479 14.3065 8.04338 14.3065C6.03884 14.3065 5.80332 14.3012 5.01302 14.2646C4.28029 14.2332 3.88253 14.1076 3.62084 14.0082C3.27017 13.8721 3.01895 13.7098 2.75726 13.4481C2.49558 13.1865 2.33333 12.9352 2.19725 12.5846C2.09258 12.3229 1.9722 11.9251 1.9408 11.1924C1.90416 10.4021 1.89893 10.1666 1.89893 8.16203C1.89893 6.15749 1.90416 5.92197 1.9408 5.13167C1.9722 4.39895 2.09781 4.00118 2.19725 3.73949C2.33333 3.38883 2.49558 3.13761 2.75726 2.87592C3.01895 2.61423 3.27017 2.45198 3.62084 2.3159C3.88253 2.21123 4.28029 2.09085 5.01302 2.05945C5.80332 2.02281 6.03884 2.01758 8.04338 2.01758Z" fill="black"/>
<path fill-rule="evenodd" clip-rule="evenodd" d="M8.04346 4.31445C5.91855 4.31445 4.19141 6.03637 4.19141 8.16651C4.19141 10.2967 5.91332 12.0186 8.04346 12.0186C10.1736 12.0186 11.8955 10.2967 11.8955 8.16651C11.8955 6.03637 10.1736 4.31445 8.04346 4.31445Z" fill="#E7E7E1"/>
<path d="M8.04325 10.6685C9.42492 10.6685 10.545 9.54846 10.545 8.16678C10.545 6.78511 9.42492 5.66504 8.04325 5.66504C6.66157 5.66504 5.5415 6.78511 5.5415 8.16678C5.5415 9.54846 6.66157 10.6685 8.04325 10.6685Z" fill="black"/>
<path fill-rule="evenodd" clip-rule="evenodd" d="M12.9474 4.1629C12.9474 4.66011 12.5444 5.06311 12.0472 5.06311C11.55 5.06311 11.147 4.66011 11.147 4.1629C11.147 3.6657 11.55 3.2627 12.0472 3.2627C12.5444 3.2627 12.9474 3.6657 12.9474 4.1629Z" fill="#E7E7E1"/>
</g>
<defs>
<clipPath id="clip0_3140_12956">
<rect width="15" height="15" fill="white" transform="translate(0.543457 0.666992)"/>
</clipPath>
</defs>
</svg>
