<svg width="16" height="16" viewBox="0 0 16 16" fill="none" xmlns="http://www.w3.org/2000/svg">
<g clip-path="url(#clip0_3140_12940)">
<path d="M3.76618 5.64844H0.543457V15.6666H3.76618V5.64844Z" fill="#000001"/>
<path d="M2.26618 4.12608H2.24346C1.21164 4.12608 0.543457 3.3579 0.543457 2.39426C0.543457 1.43063 1.22982 0.666992 2.28437 0.666992C3.33891 0.666992 3.98437 1.41245 4.00709 2.39426C4.00709 3.35336 3.33891 4.12154 2.26618 4.12154V4.12608Z" fill="#000001"/>
<path d="M15.5434 15.667H12.3206V10.1897C12.3206 8.87608 11.8525 7.98063 10.6843 7.98063C9.79336 7.98063 9.26609 8.58517 9.02972 9.17154C8.94336 9.38063 8.91609 9.67154 8.91609 9.96245V15.6715H5.69336V5.64881H8.91609V7.04426C9.38427 6.37608 10.1161 5.41699 11.8206 5.41699C13.9343 5.41699 15.5343 6.81245 15.5343 9.81699V15.6715L15.5434 15.667Z" fill="#000001"/>
</g>
<defs>
<clipPath id="clip0_3140_12940">
<rect width="15" height="15" fill="white" transform="translate(0.543457 0.666992)"/>
</clipPath>
</defs>
</svg>
