<svg xmlns="http://www.w3.org/2000/svg" width="21" height="20" fill="none" xmlns:v="https://vecta.io/nano"><g stroke-width="2" stroke-linejoin="round"><path d="M10.248 0.999999C5.27748 0.999999 1.24805 5.02944 1.24805 10C1.24805 14.9706 5.27748 19 10.248 19C15.2186 19 19.248 14.9706 19.248 10C19.248 5.02944 15.2186 0.999998 10.248 0.999999Z" stroke="url(#A)"/><path d="M6.71875 9.60483V13.5004M9.73053 8.04661V13.5004M14.2482 13.5004C14.2482 13.5004 14.2482 11.0072 14.2482 9.60483C14.2482 7.2675 11.0858 7.50123 9.73049 9.29319" stroke="url(#B)" stroke-miterlimit="10" stroke-linecap="round"/><path d="M6.74805 7.5C7.02419 7.5 7.24805 7.27614 7.24805 7C7.24805 6.72386 7.02419 6.5 6.74805 6.5C6.4719 6.5 6.24805 6.72386 6.24805 7C6.24805 7.27614 6.4719 7.5 6.74805 7.5Z" fill="url(#C)" stroke="url(#C)"/></g><defs><linearGradient id="A" x1="13.572" y1="15.517" x2="1.781" y2="10.523" gradientUnits="userSpaceOnUse"><stop stop-color="#fff"/><stop offset="1" stop-color="#f27507"/></linearGradient><linearGradient id="B" x1="9.093" y1="8.984" x2="13.486" y2="11.485" gradientUnits="userSpaceOnUse"><stop stop-color="#fff"/><stop offset="1" stop-color="#f27507"/></linearGradient><linearGradient id="C" x1="6.563" y1="6.694" x2="7.218" y2="6.971" gradientUnits="userSpaceOnUse"><stop stop-color="#fff"/><stop offset="1" stop-color="#f27507"/></linearGradient></defs></svg>