<svg width="150" height="34" viewBox="0 0 150 34" fill="none" xmlns="http://www.w3.org/2000/svg">
<g clip-path="url(#clip0_3007_4152)">
<path d="M14.3806 33.5275C14.1845 33.5275 14.0638 33.37 14.0261 33.175C13.9884 33.0175 14.0261 32.86 14.0638 32.7475C14.1015 32.6275 14.1845 32.5525 14.2599 32.47C14.3354 32.3875 14.4184 32.35 14.5391 32.3125C14.6145 32.275 14.6975 32.2375 14.7352 32.155C14.8106 32.08 14.8106 31.96 14.8106 31.84V31.8025C14.8106 31.6075 14.8483 31.4125 14.969 31.255C14.8483 30.9025 14.8936 30.55 14.8936 30.1975C14.8936 29.92 14.8936 29.5675 14.8182 29.215C14.7427 28.8625 14.7804 28.5475 14.7804 28.2325V27.3325C14.7804 27.295 14.7804 27.2125 14.8182 27.175C14.7804 27.1375 14.7804 27.1 14.8182 27.0175C14.7804 26.9425 14.7427 26.86 14.8182 26.785V26.6275C14.8182 26.59 14.8559 26.59 14.8559 26.59V26.47C14.8182 26.395 14.8182 26.3125 14.8182 26.275C14.7804 26.2375 14.7804 26.2 14.7427 26.2C14.705 26.1625 14.705 26.125 14.6673 26.125L14.5466 25.8925C14.5466 25.8175 14.5089 25.735 14.5089 25.66V25.4275C14.5089 25.39 14.4712 25.3525 14.4712 25.3075C14.4334 25.1875 14.3957 25.1125 14.3957 24.9925V24.715C14.3957 24.64 14.3957 24.595 14.4334 24.52C14.4334 24.4825 14.4712 24.445 14.5089 24.4C14.5089 24.3625 14.5466 24.3625 14.5466 24.325C14.5466 24.2875 14.5843 24.25 14.5843 24.205C14.5843 24.16 14.5843 24.1675 14.622 24.13C14.6598 24.055 14.6975 24.01 14.7427 23.9725L14.8182 23.8975L14.8559 23.86C14.8936 23.8225 14.8936 23.74 14.8936 23.7025C14.8182 23.665 14.7352 23.5825 14.6975 23.5075C14.622 23.3875 14.622 23.23 14.6597 23.1175C14.6975 23.0425 14.6975 22.9975 14.7352 22.9225V22.69C14.7729 22.5325 14.8936 22.495 14.969 22.4125C14.969 22.3375 15.0067 22.2175 15.0067 22.135V22.0975C15.0067 22.0225 15.0445 21.94 15.0822 21.865C15.1199 21.8275 15.1199 21.79 15.1576 21.7075C15.1199 21.6325 15.1199 21.55 15.1199 21.43H15.0822C15.0445 21.43 14.9615 21.43 14.9238 21.3925C14.8483 21.355 14.7276 21.3175 14.6899 21.235C14.6522 21.1975 14.6145 21.16 14.6145 21.115C14.5768 21.0775 14.5768 21.04 14.5768 20.995V21.07C14.5391 21.3025 14.5013 21.58 14.3429 21.775C14.3429 21.8125 14.3806 21.85 14.3806 21.9325C14.3806 21.97 14.3806 22.0075 14.3429 22.0525C14.3429 22.09 14.3806 22.1275 14.4184 22.1275C14.4561 22.1275 14.4938 22.165 14.5391 22.2025C14.6145 22.2775 14.6145 22.36 14.5391 22.435C14.5013 22.51 14.4184 22.555 14.3052 22.555C14.2298 22.555 14.1468 22.5175 14.1091 22.48H14.0714V22.555C14.0714 22.555 14.0714 22.5925 14.1091 22.63H14.2298C14.2675 22.63 14.3052 22.63 14.3505 22.6675C14.3957 22.705 14.4712 22.705 14.4712 22.7875C14.5089 22.8625 14.4712 22.9075 14.4334 22.9825C14.3128 23.1775 14.1166 23.2975 13.7621 23.335H13.6866C13.566 23.335 13.4905 23.335 13.3698 23.215C13.2944 23.14 13.2114 23.0575 13.136 22.9375C13.0605 22.8175 13.0153 22.66 13.0153 22.51C13.0153 22.435 13.0153 22.315 13.053 22.2325C13.0153 22.2325 13.0153 22.195 13.0153 22.1575C12.9776 22.0825 12.9776 22 12.9776 21.925C12.9776 21.8875 12.9776 21.7675 13.053 21.6925C13.053 21.6175 13.0153 21.5725 13.0153 21.4975V21.1825C12.9776 21.1075 12.9776 21.025 12.9776 20.9875C12.9776 20.9125 12.9776 20.8675 13.0153 20.7925C13.053 20.515 13.0907 20.245 13.136 19.9675V19.8475C13.136 19.7725 13.1737 19.7275 13.1737 19.6525C13.136 19.5775 13.1737 19.495 13.1737 19.42C13.2114 19.345 13.2114 19.3 13.2491 19.2625V19.1875C13.2491 19.15 13.2491 19.0675 13.2868 19.03V18.9925C13.2868 18.8725 13.3246 18.7975 13.3623 18.715C13.4 18.6775 13.4 18.64 13.4 18.595C13.4377 18.5575 13.4377 18.475 13.4377 18.4V18.325C13.4377 18.25 13.4377 18.1675 13.4754 18.0925C13.5131 18.0175 13.5131 17.935 13.5509 17.86C13.5509 17.8225 13.5509 17.74 13.5131 17.7025C13.5131 17.665 13.4754 17.5825 13.4754 17.545C13.4754 17.47 13.4754 17.3875 13.5131 17.3125C13.5131 17.275 13.5509 17.2375 13.5509 17.1925V16.96C13.5509 16.84 13.5509 16.765 13.5886 16.645V16.6075C13.5886 16.4125 13.7093 16.255 13.8224 16.135C13.8601 16.06 13.9431 15.9775 13.9808 15.9025C14.0186 15.7825 14.0563 15.67 14.1015 15.55C14.1393 15.43 14.177 15.2725 14.2222 15.16V15.085C14.2222 15.0475 14.2222 15.01 14.2599 14.965C14.2977 14.89 14.3354 14.845 14.3806 14.8075L14.4561 14.7325V14.6575C14.4184 14.62 14.4184 14.5825 14.4184 14.5C14.3806 14.425 14.3806 14.38 14.4184 14.3425C14.3806 14.2675 14.4184 14.2225 14.4184 14.185C14.4184 14.1475 14.4184 14.11 14.4561 14.065C14.4561 14.0275 14.4561 13.99 14.4938 13.945C14.4938 13.9075 14.4938 13.87 14.5315 13.87C14.5315 13.8325 14.5315 13.795 14.5692 13.795C14.5692 13.7575 14.6069 13.72 14.6447 13.675C14.6447 13.6375 14.6824 13.6 14.7201 13.6C14.7201 13.5625 14.7578 13.525 14.7955 13.48C14.7955 13.4425 14.8332 13.405 14.871 13.405C14.871 13.3675 14.9087 13.3675 14.9464 13.33C14.9841 13.2925 15.0218 13.255 15.0671 13.255C15.1048 13.2175 15.1425 13.2175 15.1878 13.2175C15.2255 13.18 15.2632 13.18 15.3085 13.18H15.5046C15.5423 13.18 15.58 13.18 15.6253 13.2175C15.6505 13.2175 15.6756 13.23 15.7007 13.255C15.7007 13.2175 15.663 13.18 15.663 13.135C15.5876 13.0975 15.5423 13.06 15.5046 12.94C15.4669 12.865 15.4669 12.625 15.4669 12.5125V12.475C15.4669 12.4 15.4669 12.28 15.5046 12.1975C15.5423 12.16 15.58 12.0775 15.663 12.0775C15.7007 12.0025 15.7385 11.9575 15.7837 11.92C15.8214 11.53 15.9421 11.1775 16.176 10.9C16.4928 10.51 17.0435 10.2325 17.5941 10.2325C17.7903 10.2325 17.9864 10.27 18.1825 10.3075C18.5371 10.4275 18.8162 10.6225 19.0123 10.8925C19.2084 11.125 19.3291 11.44 19.3669 11.7925C19.4046 11.7925 19.4046 11.83 19.4423 11.8675C19.6384 11.905 19.6761 12.1 19.6761 12.295C19.6761 12.5275 19.6384 12.685 19.5177 12.7225C19.48 12.7975 19.4423 12.88 19.3593 12.88C19.3216 13 19.2839 13.1125 19.2009 13.195C19.2386 13.2325 19.2763 13.315 19.2763 13.39C19.2763 13.4275 19.2763 13.465 19.2386 13.51C19.3141 13.585 19.314 13.6675 19.314 13.7425H19.3895C19.4649 13.7425 19.5102 13.7425 19.5856 13.78C19.7063 13.8175 19.8195 13.855 19.9779 13.9375H20.0156C20.174 14.0125 20.4456 14.17 20.4456 14.365C20.604 14.44 20.7247 14.56 20.8378 14.68V14.7175C20.8755 14.7925 20.9133 14.875 20.9585 14.95V14.9875C21.034 15.1075 21.1169 15.265 21.1169 15.3775C21.1169 15.4525 21.1546 15.535 21.1546 15.655C21.1546 15.73 21.1546 15.8125 21.1924 15.8875C21.2301 16.0075 21.2678 16.12 21.3885 16.24L21.4262 16.2775C21.5016 16.3975 21.6223 16.555 21.6223 16.705V16.78C21.6223 16.8175 21.6223 16.855 21.6601 16.855V17.0125C21.6601 17.05 21.6601 17.0875 21.6978 17.0875V17.1625C21.7355 17.3575 21.6978 17.5525 21.6223 17.7475C21.6223 17.785 21.6601 17.8225 21.6601 17.8225C21.7355 17.98 21.7808 18.1375 21.7808 18.295V18.37C21.7808 18.49 21.8185 18.565 21.8562 18.685V18.7225C21.8939 18.7975 21.9316 18.9175 21.9316 19C21.9316 19.12 21.9316 19.195 21.8939 19.2775C21.9316 19.3525 21.9316 19.435 21.8939 19.555C21.9316 19.5925 21.9316 19.675 21.9693 19.7125V19.7875C22.09 19.825 22.1278 19.945 22.1278 20.02C22.1655 20.095 22.1655 20.1775 22.1655 20.2525V20.4475C22.1655 20.485 22.2032 20.5225 22.2032 20.605C22.2409 20.68 22.2786 20.7625 22.2409 20.8825C22.2409 20.9575 22.1655 21.0775 22.0825 21.115V21.31C22.0825 21.3475 22.0448 21.385 22.0448 21.43C22.0825 21.505 22.0448 21.55 22.0448 21.6625C22.0448 21.7 22.0071 21.7375 22.0071 21.7375C22.0071 21.8125 22.0071 21.9325 22.0448 22.015C22.0825 22.1725 22.1202 22.33 22.0448 22.4875C22.0071 22.72 21.8486 22.915 21.6525 22.9975C21.5771 23.035 21.4941 23.0725 21.4187 23.0725H21.1848C21.0264 23.0725 20.9057 22.9975 20.9057 22.84C20.9057 22.6825 21.0264 22.5625 21.1396 22.4875C21.1647 22.4875 21.1899 22.475 21.215 22.45C21.215 22.4125 21.2527 22.375 21.2527 22.33V22.2925C21.215 22.3675 21.132 22.4125 21.0566 22.45C20.9811 22.4875 20.9359 22.4875 20.8605 22.4875C20.785 22.4875 20.7398 22.45 20.702 22.4125C20.5813 22.2925 20.702 22.0975 20.7398 22.0225C20.7398 21.985 20.7775 21.9475 20.8152 21.9025C20.8152 21.865 20.8529 21.8275 20.8906 21.8275C20.8906 21.8025 20.9032 21.7775 20.9283 21.7525V21.6775C20.8529 21.6025 20.7699 21.4825 20.8077 21.3625L20.7322 21.2875C20.6945 21.2125 20.6568 21.13 20.6568 21.055V20.74C20.6568 20.74 20.6568 20.7025 20.6191 20.665C20.5813 20.59 20.5813 20.5075 20.5436 20.4325V20.3575C20.5436 20.2825 20.5436 20.2 20.5059 20.1625C20.5059 20.125 20.4682 20.0875 20.4682 20.0425C20.4682 20.1175 20.4305 20.2 20.3928 20.2375C20.4305 20.275 20.4682 20.3575 20.4682 20.47V20.86C20.4682 20.98 20.4305 21.0925 20.3928 21.2125C20.5512 21.37 20.5512 21.565 20.5512 21.76V22.15C20.5512 22.27 20.5889 22.3825 20.6266 22.5025C20.6643 22.735 20.702 22.975 20.702 23.245C20.8982 23.32 21.0189 23.44 21.0943 23.5975C21.132 23.6725 21.132 23.7925 21.1697 23.875V24.9325C21.132 25.21 21.0113 25.3225 20.8529 25.405V25.6C20.8529 25.6375 20.8152 25.675 20.7775 25.72V25.84C20.8152 25.8775 20.8152 25.915 20.8152 25.96C20.8152 26.005 20.8152 26.035 20.7775 26.035C20.8152 26.11 20.8529 26.1925 20.8152 26.2675V26.305V26.425C20.8152 26.45 20.8026 26.475 20.7775 26.5C20.8982 26.62 20.8529 26.815 20.8529 26.9725V27.6775C20.8529 27.835 20.8529 28.03 20.8152 28.1875C20.8152 28.2625 20.7775 28.3825 20.7775 28.465C20.7775 28.66 20.7775 28.8925 20.8152 29.095V29.6425C20.7775 29.7625 20.7775 29.875 20.7775 29.9575V30.3475C20.7775 30.385 20.7775 30.4675 20.7398 30.505C20.7398 30.58 20.702 30.625 20.702 30.7C20.702 30.82 20.7398 30.9325 20.7398 31.0525C20.7775 31.1725 20.8152 31.285 20.8152 31.4425C20.8152 31.5625 20.8152 31.72 20.7775 31.795C20.9359 31.915 20.9736 32.11 21.0113 32.2675C21.049 32.4625 20.9736 32.62 20.8529 32.695C20.6945 32.77 20.4984 32.815 20.34 32.815H20.3022C20.0684 32.8525 19.8723 32.8525 19.7139 32.8525C19.5554 32.8525 19.4347 32.8525 19.3216 32.815C19.0877 32.7775 18.9293 32.6575 18.8916 32.4625C18.8539 32.3425 18.8539 32.185 18.8916 32.035C18.8539 31.96 18.8539 31.8775 18.8916 31.8025V31.7275V31.0225C18.8916 30.985 18.8916 30.9475 18.9293 30.9025C18.8086 30.7825 18.8086 30.625 18.7709 30.475V30.79C18.7332 30.595 18.6955 30.3625 18.6502 30.1225V30.085C18.5748 29.6575 18.4918 29.2225 18.5748 28.795V28.675C18.5748 28.555 18.6125 28.4425 18.5748 28.36C18.5748 28.3225 18.5371 28.285 18.5371 28.285C18.5371 28.285 18.4994 28.2475 18.4994 28.21C18.4616 28.135 18.4616 28.0525 18.4616 27.9775V27.745C18.4616 27.67 18.4239 27.55 18.4239 27.4675C18.3862 27.3475 18.4239 27.235 18.4616 27.1525C18.4616 27.115 18.4239 27.0775 18.4239 27.0325C18.3862 26.995 18.3485 26.9575 18.3862 26.8375C18.3485 26.8 18.3108 26.7175 18.3485 26.6425C18.3108 26.5675 18.2731 26.5225 18.3108 26.4475C18.2353 26.41 18.1901 26.3275 18.1524 26.2525C18.1146 26.1775 18.1146 26.095 18.0769 26.0575C18.0392 25.9375 18.0015 25.8625 17.9562 25.7425C17.8808 25.5475 17.8355 25.3525 17.7978 25.1575V25.0825C17.7978 25.0075 17.7978 24.925 17.7601 24.8875C17.7601 24.85 17.7224 24.8125 17.6847 24.7675L17.647 24.73C17.6092 24.8875 17.6092 25.045 17.6092 25.2025V25.3225C17.6092 25.4425 17.6092 25.555 17.5715 25.6375C17.5715 25.7125 17.5338 25.795 17.5338 25.8325C17.5338 25.87 17.4961 25.9075 17.4961 25.9525V25.99C17.4206 26.065 17.4206 26.1475 17.4206 26.2675V26.3425V26.5375C17.4206 26.6125 17.3829 26.695 17.3829 26.77C17.3829 26.8075 17.3452 26.845 17.3075 26.89V26.965C17.3075 27.0025 17.2698 27.04 17.2698 27.04V27.115C17.2698 27.19 17.2321 27.235 17.1943 27.2725C17.2321 27.31 17.2321 27.3475 17.1943 27.43C17.1943 27.4675 17.1566 27.505 17.1189 27.55C17.1189 27.5875 17.1189 27.625 17.0812 27.67C17.1566 27.79 17.1189 27.985 17.1189 28.0975C17.0812 28.2925 17.0812 28.4875 17.0435 28.645C17.0058 28.8025 17.0058 28.9975 16.968 29.1925C16.968 29.35 16.968 29.545 16.9303 29.74C16.9303 29.815 16.8926 29.8975 16.8926 29.9725C16.8926 30.0475 16.8549 30.1675 16.8549 30.2875V31.5025C16.8549 31.5775 16.8549 31.735 16.7342 31.8175C16.8096 32.05 16.8549 32.3275 16.7719 32.68C16.8473 32.8375 16.8473 32.995 16.8096 33.2275C16.8096 33.3025 16.7719 33.385 16.6889 33.46C16.606 33.535 16.5305 33.535 16.4098 33.58L14.3656 33.5425L14.3806 33.5275ZM14.9313 19.7875C14.9313 19.8625 14.9313 19.945 14.8936 19.9825C14.8936 20.0075 14.881 20.0325 14.8559 20.0575C14.8936 20.0575 14.9313 20.02 14.9313 20.02L14.969 19.9825C14.969 19.9075 14.9313 19.7875 14.9313 19.705C14.9565 19.73 14.9565 19.755 14.9313 19.78V19.7875ZM14.3806 33.49C14.1845 33.49 14.0638 33.37 14.0261 33.175C13.9884 33.0175 14.0261 32.8975 14.0638 32.7475C14.1015 32.6725 14.1845 32.5525 14.2599 32.47C14.3354 32.3875 14.4184 32.35 14.5391 32.3125C14.6145 32.275 14.6975 32.2375 14.7352 32.155C14.8106 32.08 14.8106 31.96 14.8106 31.84V31.8025C14.8106 31.6075 14.8483 31.4125 14.969 31.255C14.8483 30.9025 14.8483 30.55 14.8936 30.1975C14.8936 29.92 14.8936 29.5675 14.8182 29.215C14.7427 28.8625 14.7804 28.5475 14.7804 28.2325V27.3325C14.7804 27.295 14.8182 27.2125 14.8182 27.175C14.7804 27.1375 14.7804 27.1 14.8182 27.0175C14.7427 26.9425 14.7427 26.86 14.8182 26.785C14.8182 26.7475 14.7804 26.665 14.8182 26.6275C14.8182 26.59 14.8559 26.59 14.8559 26.59V26.47C14.8182 26.395 14.8182 26.3125 14.7804 26.275C14.7427 26.2375 14.7427 26.2 14.705 26.155C14.6673 26.1175 14.6673 26.08 14.6296 26.08C14.5919 26.005 14.5541 25.96 14.5089 25.8475C14.5089 25.7725 14.4712 25.7275 14.4712 25.615V25.3825C14.4712 25.345 14.4334 25.3075 14.4334 25.2625C14.3957 25.1425 14.358 25.0675 14.358 24.9475V24.67C14.358 24.595 14.358 24.55 14.3957 24.475C14.3957 24.4375 14.4334 24.4 14.4712 24.355C14.4712 24.3175 14.5089 24.3175 14.5089 24.28C14.5089 24.2425 14.5466 24.205 14.5466 24.16C14.5466 24.115 14.5466 24.1225 14.5843 24.085C14.622 24.01 14.6598 23.965 14.705 23.9275C14.7302 23.9025 14.7553 23.89 14.7804 23.89C14.8182 23.89 14.8182 23.8525 14.8559 23.8525C14.8936 23.815 14.9313 23.7325 14.9313 23.6575C14.8559 23.62 14.7729 23.5375 14.6975 23.4625C14.622 23.3425 14.622 23.185 14.6597 23.0725C14.6975 22.9975 14.6975 22.915 14.7352 22.8775V22.645C14.7729 22.4875 14.8559 22.45 14.969 22.4125C14.969 22.2925 15.0067 22.2175 15.0067 22.135V22.0975C15.0067 22.0225 15.0445 21.94 15.0822 21.9025C15.1199 21.865 15.1576 21.7825 15.1576 21.745C15.1199 21.67 15.1199 21.5875 15.1199 21.4675H15.0445C15.0067 21.4675 14.9238 21.4675 14.8861 21.43C14.8106 21.3925 14.7276 21.355 14.6899 21.2725C14.6522 21.235 14.6145 21.1975 14.6145 21.1525C14.5768 21.0775 14.5391 21.0325 14.5391 20.9575V21.115C14.5013 21.3475 14.4636 21.625 14.3052 21.82C14.3052 21.8575 14.3429 21.895 14.3429 21.9775C14.3429 22.015 14.3429 22.0525 14.3052 22.0975C14.3429 22.135 14.3429 22.1725 14.3806 22.1725C14.4184 22.1725 14.4561 22.21 14.5013 22.2475C14.5391 22.3225 14.5768 22.405 14.5013 22.48C14.4636 22.555 14.3806 22.555 14.3052 22.555C14.2298 22.555 14.1468 22.5175 14.1091 22.48H14.0714V22.6C14.0714 22.6375 14.0714 22.675 14.1468 22.675C14.1845 22.675 14.2222 22.6375 14.2675 22.6375C14.3128 22.6375 14.3429 22.6375 14.3882 22.675C14.4259 22.675 14.5089 22.7125 14.5089 22.795C14.5466 22.87 14.5089 22.915 14.4712 22.99C14.3505 23.185 14.1543 23.305 13.8375 23.305H13.7621C13.6414 23.305 13.566 23.305 13.483 23.23C13.4075 23.155 13.3246 23.0725 13.2868 22.9525C13.2114 22.8325 13.1661 22.675 13.1661 22.525C13.1661 22.45 13.1662 22.33 13.2039 22.2475C13.1662 22.2475 13.1662 22.21 13.1284 22.1725C13.0907 22.0975 13.0907 22.015 13.0907 21.94C13.0907 21.865 13.1284 21.745 13.1661 21.7075C13.1661 21.6325 13.1284 21.55 13.1284 21.5125V21.1975C13.0907 21.1225 13.0907 21.04 13.0907 21.0025C13.0907 20.965 13.0907 20.8825 13.1284 20.8075C13.1662 20.53 13.2039 20.26 13.2491 19.9825V19.8625C13.2491 19.7875 13.2868 19.705 13.2868 19.6675C13.2491 19.5925 13.2868 19.51 13.2868 19.435C13.3246 19.36 13.3246 19.315 13.3623 19.2775V19.2025C13.3623 19.165 13.3623 19.0825 13.4 19.045V19.0075C13.4 18.8875 13.4377 18.8125 13.4754 18.73C13.5131 18.6925 13.5131 18.655 13.5131 18.61C13.5509 18.5725 13.5509 18.49 13.5509 18.415V18.34C13.5509 18.265 13.5509 18.1825 13.5886 18.1075C13.6263 18.0325 13.6263 17.95 13.664 17.875C13.664 17.8375 13.664 17.755 13.6263 17.7175C13.6263 17.68 13.5886 17.5975 13.5886 17.56C13.5886 17.485 13.5886 17.4025 13.6263 17.3275C13.6263 17.29 13.664 17.2525 13.664 17.2075V16.975C13.664 16.855 13.664 16.78 13.7017 16.66V16.6225C13.7017 16.4275 13.8224 16.27 13.9356 16.15C13.9733 16.075 14.0563 15.9925 14.094 15.9175C14.1317 15.7975 14.1694 15.685 14.2147 15.565C14.2524 15.445 14.2901 15.2875 14.3354 15.175V15.1C14.3354 15.0625 14.3354 15.025 14.3731 14.98C14.4108 14.905 14.4485 14.86 14.4938 14.8225L14.5692 14.7475C14.5692 14.71 14.5315 14.71 14.5692 14.6725C14.5692 14.635 14.5315 14.5975 14.5315 14.5525C14.4938 14.4775 14.4938 14.4325 14.5315 14.395C14.4938 14.32 14.5315 14.275 14.5315 14.275C14.5315 14.2375 14.5315 14.2 14.5692 14.155C14.5692 14.1175 14.5692 14.08 14.6069 14.035C14.6069 13.9975 14.6069 13.96 14.6447 13.96C14.6447 13.9225 14.6447 13.885 14.6824 13.885C14.6824 13.8475 14.7201 13.81 14.7578 13.765C14.7578 13.7275 14.7955 13.69 14.8332 13.69C14.8332 13.6525 14.871 13.615 14.9087 13.57C14.9087 13.5325 14.9464 13.495 14.9841 13.495C14.9841 13.4575 15.0218 13.4575 15.0596 13.42C15.0973 13.3825 15.135 13.345 15.1802 13.345C15.218 13.3075 15.2557 13.3075 15.3009 13.3075C15.3387 13.27 15.3764 13.27 15.4216 13.27H15.6178C15.6555 13.27 15.6932 13.27 15.7385 13.3075C15.7762 13.3075 15.8139 13.345 15.8592 13.345C15.8214 13.27 15.7837 13.225 15.7837 13.15C15.7083 13.1125 15.663 13.075 15.6253 12.955C15.4292 12.88 15.4292 12.64 15.4292 12.565V12.5275C15.4292 12.4525 15.4292 12.3325 15.4669 12.25C15.5046 12.2125 15.5423 12.175 15.6253 12.13C15.663 12.055 15.7007 12.01 15.746 11.9725C15.746 11.5825 15.9044 11.23 16.1383 10.9525C16.4551 10.5625 17.0058 10.3225 17.5564 10.3225C17.7526 10.3225 17.9487 10.36 18.1448 10.3975C18.4994 10.5175 18.7785 10.7125 18.9746 10.9825C19.1707 11.215 19.2914 11.53 19.3291 11.8825C19.3543 11.9075 19.3794 11.9325 19.4046 11.9575C19.6007 11.995 19.6007 12.19 19.6384 12.3475C19.6384 12.58 19.6007 12.7375 19.48 12.775C19.4423 12.85 19.4046 12.9325 19.3216 12.9325C19.2839 13.0525 19.2462 13.165 19.1632 13.2475C19.2009 13.285 19.2839 13.3675 19.2386 13.4425C19.2386 13.48 19.2386 13.5175 19.2009 13.5625C19.2763 13.6375 19.3216 13.72 19.2763 13.84H19.3518C19.4272 13.84 19.4725 13.84 19.5479 13.8775C19.6686 13.915 19.7817 13.9525 19.9402 14.035H19.9779C20.1363 14.11 20.4078 14.2675 20.4078 14.4625C20.5663 14.5375 20.7247 14.6575 20.8001 14.7775C20.8378 14.8525 20.8755 14.935 20.9208 15.01V15.0475C20.9962 15.1675 21.0792 15.325 21.0792 15.4375C21.0792 15.5125 21.1169 15.595 21.1169 15.715C21.1169 15.79 21.1169 15.8725 21.1546 15.9475C21.1924 16.105 21.2301 16.18 21.3508 16.3L21.3885 16.3375C21.4639 16.4575 21.5846 16.615 21.5846 16.765V16.84C21.5846 16.8775 21.5846 16.915 21.6223 16.96V17.1175C21.6223 17.155 21.6223 17.1925 21.6601 17.1925V17.2675C21.6978 17.4625 21.6601 17.6575 21.5846 17.8525C21.5846 17.89 21.6223 17.9275 21.6223 17.9275C21.6978 18.085 21.6978 18.2425 21.743 18.4V18.475C21.743 18.595 21.7808 18.67 21.8185 18.79V18.8275C21.8562 18.9025 21.8939 19.0225 21.8939 19.105C21.8939 19.225 21.8939 19.3 21.8562 19.3825C21.8939 19.4575 21.8939 19.54 21.8562 19.66C21.8939 19.6975 21.8939 19.78 21.9316 19.8175V19.8925C22.0523 19.93 22.09 20.05 22.09 20.125C22.1278 20.2 22.1278 20.2825 22.1278 20.3575V20.5525C22.1278 20.59 22.1655 20.6725 22.1655 20.71C22.2032 20.785 22.2409 20.8675 22.2032 20.9425C22.2032 21.0175 22.1278 21.1375 22.0448 21.175V21.37C22.0448 21.4075 22.0071 21.445 22.0071 21.49C22.0448 21.5275 22.0448 21.61 22.0071 21.7225C22.0071 21.76 21.9693 21.7975 21.9693 21.7975C21.9693 21.8725 21.9693 21.9925 22.0071 22.075C22.0448 22.2325 22.0825 22.39 22.0071 22.5475C21.9693 22.78 21.8109 22.9375 21.6148 23.0575C21.5394 23.095 21.4564 23.1325 21.381 23.1325H21.1848C21.0264 23.1325 20.951 23.0575 20.9057 22.9375C20.9057 22.78 21.0264 22.66 21.1396 22.6225C21.1773 22.6225 21.215 22.6225 21.215 22.585C21.215 22.5475 21.2527 22.51 21.2527 22.465V22.39C21.215 22.465 21.132 22.51 21.0566 22.585C20.9811 22.6225 20.9359 22.6225 20.8605 22.6225C20.785 22.6225 20.7398 22.585 20.702 22.5475C20.6266 22.4275 20.702 22.27 20.7398 22.1575C20.7398 22.12 20.7775 22.0825 20.8152 22.0375C20.8529 22 20.8529 21.9625 20.8906 21.9625C20.8906 21.925 20.8906 21.8875 20.9283 21.8875V21.8125C20.8529 21.7375 20.7699 21.58 20.8077 21.4975L20.7322 21.4225C20.6945 21.3475 20.6568 21.3025 20.6568 21.2275V20.9125C20.6568 20.9125 20.6568 20.875 20.6191 20.8375C20.5813 20.7625 20.5813 20.68 20.5436 20.605V20.53C20.5436 20.455 20.5436 20.3725 20.5059 20.335C20.5059 20.2975 20.4682 20.215 20.4305 20.1775C20.4305 20.2525 20.3928 20.3725 20.355 20.455C20.3928 20.4925 20.4305 20.575 20.4305 20.6875V21.0775C20.4305 21.1975 20.3928 21.31 20.355 21.4675C20.5135 21.5875 20.5135 21.82 20.5135 22.015V22.405C20.5135 22.525 20.5512 22.6825 20.5889 22.795C20.6266 23.0275 20.6643 23.2675 20.6643 23.5375C20.8605 23.6125 20.9811 23.7325 21.0566 23.89C21.0943 23.965 21.0943 24.085 21.132 24.1675V25.2625C21.0943 25.54 20.9736 25.6525 20.8152 25.735V25.93C20.8152 25.9675 20.7775 26.005 20.7398 26.05V26.2075C20.7775 26.245 20.7775 26.2825 20.7775 26.3275C20.7775 26.3725 20.7775 26.4025 20.7398 26.4025C20.7775 26.4775 20.8152 26.56 20.7775 26.635V26.6725V26.7925C20.7775 26.83 20.7398 26.83 20.7398 26.8675C20.8605 26.9875 20.8152 27.1825 20.8152 27.34V28.0825C20.8152 28.24 20.8152 28.435 20.7775 28.5925C20.7775 28.6675 20.7398 28.7875 20.7398 28.87C20.7398 29.065 20.7398 29.2975 20.7775 29.5V30.0475C20.7398 30.1675 20.7398 30.28 20.7398 30.4V30.79C20.7398 30.8275 20.7398 30.91 20.702 30.9475C20.702 31.0225 20.6643 31.0675 20.6643 31.1425C20.6643 31.2625 20.702 31.375 20.702 31.495C20.7398 31.615 20.7775 31.7275 20.7775 31.8475C20.7775 31.9675 20.7775 32.125 20.7398 32.2C20.8982 32.32 20.9359 32.515 20.9736 32.6725C21.0113 32.8675 20.9359 33.025 20.8152 33.1C20.6568 33.175 20.4984 33.22 20.3022 33.22H20.2645C20.0307 33.2575 19.8345 33.2575 19.6761 33.2575C19.5177 33.2575 19.397 33.2575 19.2839 33.22C19.05 33.1825 18.9293 33.0625 18.8916 32.8675C18.8539 32.7475 18.8539 32.59 18.8916 32.44C18.8539 32.365 18.8539 32.2825 18.8916 32.2075V32.1325V31.4275C18.8916 31.39 18.8916 31.3525 18.9293 31.3075C18.8086 31.1875 18.8086 31.03 18.7709 30.88V30.8425C18.7332 30.6475 18.6955 30.415 18.6502 30.175V30.1375C18.5748 29.71 18.4918 29.275 18.5748 28.8475V28.7275C18.6125 28.6075 18.6125 28.495 18.5748 28.4125C18.5748 28.375 18.5371 28.3375 18.5371 28.3375C18.5371 28.3 18.4994 28.3 18.4994 28.2625C18.4616 28.1875 18.4616 28.105 18.4616 28.03V27.7975C18.4616 27.7225 18.4239 27.6025 18.4239 27.52C18.3862 27.4 18.4239 27.2875 18.4994 27.205C18.4616 27.1675 18.4616 27.13 18.4616 27.0475C18.4239 27.01 18.3862 26.9725 18.4239 26.8525C18.3862 26.815 18.3862 26.7325 18.4239 26.6575C18.3862 26.5825 18.3485 26.5 18.3862 26.4625C18.3108 26.425 18.2655 26.3425 18.2278 26.2675C18.1901 26.1925 18.1901 26.1475 18.1524 26.0725C18.1146 25.9525 18.0769 25.8775 18.0317 25.7575C17.9562 25.5625 17.911 25.3675 17.8733 25.1725V25.0975C17.8733 25.0225 17.8733 24.94 17.8355 24.9025C17.8355 24.865 17.7978 24.8275 17.7601 24.7825L17.7224 24.745C17.647 24.9025 17.647 25.06 17.647 25.255V25.375C17.647 25.495 17.6469 25.6075 17.6092 25.69C17.6092 25.765 17.5715 25.8475 17.5715 25.885C17.5715 25.9225 17.5715 25.96 17.5338 26.005V26.0425C17.4961 26.1175 17.4961 26.2375 17.4961 26.32V26.5975C17.4961 26.6725 17.4584 26.755 17.4584 26.83C17.4584 26.8675 17.4206 26.905 17.3829 26.95V27.025C17.3829 27.05 17.3704 27.075 17.3452 27.1V27.22C17.3452 27.295 17.3075 27.34 17.2698 27.3775C17.3075 27.415 17.3075 27.4525 17.2698 27.535C17.2698 27.5725 17.2321 27.61 17.1943 27.655C17.1943 27.6925 17.1943 27.73 17.1566 27.8125C17.2321 27.9325 17.1943 28.1275 17.1943 28.24C17.1566 28.435 17.1566 28.63 17.1189 28.7875C17.0812 28.945 17.0812 29.14 17.0435 29.335C17.0435 29.4925 17.0435 29.6875 17.0058 29.8825C17.0058 29.9575 16.968 30.04 16.968 30.115C16.968 30.19 16.9303 30.31 16.9303 30.43V30.94V30.82V31.45C16.9303 31.525 16.9303 31.7275 16.8096 31.765C16.8851 31.96 16.9303 32.2375 16.8473 32.6275V32.665C16.9228 32.8225 16.9228 32.98 16.8851 33.2125C16.8851 33.2875 16.8473 33.37 16.7644 33.445C16.6814 33.52 16.606 33.52 16.5305 33.52H14.3656L14.3806 33.49ZM14.9313 19.7875C14.9313 19.8625 14.9313 19.945 14.8936 19.9825C14.8936 20.02 14.8559 20.1025 14.8559 20.14C14.8936 20.1025 14.9313 20.065 15.0143 20.02L15.052 19.9825C15.0143 19.825 15.0143 19.6675 15.0143 19.51C15.0143 19.535 15.0017 19.56 14.9766 19.585C14.9766 19.66 14.9766 19.705 14.9389 19.78L14.9313 19.7875ZM15.3236 14.11C15.3236 14.135 15.3236 14.135 15.3236 14.11C15.399 14.11 15.399 14.0725 15.4443 14.035C15.482 13.9975 15.5197 13.9975 15.565 13.96C15.565 13.96 15.5272 13.9975 15.4895 13.9975H15.4518C15.4141 14.0725 15.3764 14.1175 15.3311 14.1175C15.3311 14.1425 15.3311 14.1425 15.3311 14.1175L15.3236 14.11ZM14.3806 33.49C14.2222 33.49 14.1015 33.37 14.0638 33.175C14.0261 33.0175 14.0638 32.8975 14.1015 32.785C14.1393 32.71 14.2222 32.59 14.2977 32.5075C14.3731 32.425 14.4561 32.3875 14.5768 32.35C14.6522 32.3125 14.7352 32.275 14.8106 32.1925C14.8861 32.1175 14.8861 31.9975 14.8861 31.8775V31.84C14.8861 31.645 14.9238 31.45 15.0445 31.2925C14.9238 30.94 14.9238 30.5875 14.969 30.235C14.969 29.9575 14.969 29.605 14.8936 29.2525C14.8182 28.9 14.8559 28.585 14.8559 28.27V27.37C14.8559 27.295 14.8936 27.25 14.9313 27.2125C14.8936 27.175 14.8936 27.0925 14.9313 27.055C14.8559 26.98 14.8559 26.8975 14.8936 26.86C14.8936 26.8225 14.8559 26.785 14.8936 26.74C14.8936 26.7025 14.9313 26.7025 14.9313 26.7025V26.5825C14.8936 26.5075 14.8936 26.425 14.8559 26.3875C14.8182 26.35 14.7804 26.3125 14.7804 26.2675C14.7427 26.23 14.7427 26.1925 14.705 26.1925C14.6673 26.1175 14.6296 26.0725 14.5843 25.9975C14.5843 25.9225 14.5466 25.8775 14.5466 25.765V25.4875C14.5466 25.4125 14.5089 25.4125 14.5089 25.3675C14.4712 25.2925 14.4334 25.1725 14.4334 25.0525V24.775C14.4334 24.7 14.4334 24.655 14.4712 24.58C14.4712 24.5425 14.5089 24.505 14.5466 24.46C14.5466 24.4225 14.5843 24.4225 14.5843 24.385C14.5843 24.3475 14.622 24.31 14.622 24.265C14.622 24.22 14.622 24.2275 14.6597 24.19C14.6975 24.115 14.7352 24.07 14.7352 24.0325C14.7352 24.0325 14.7729 23.995 14.8106 23.995C14.8483 23.995 14.8483 23.9575 14.8861 23.9575C14.9238 23.8825 14.9615 23.8 14.9615 23.725C14.8861 23.6875 14.8031 23.65 14.7276 23.53C14.6522 23.41 14.6522 23.2975 14.6899 23.14C14.7276 23.065 14.7654 22.9825 14.7654 22.9075V22.675C14.8031 22.5175 14.8861 22.48 14.9992 22.4425C14.9992 22.3225 15.0369 22.2475 15.0369 22.165V22.1275C15.0369 22.0525 15.0746 21.97 15.1124 21.9325C15.1501 21.895 15.1878 21.8125 15.1878 21.775C15.1501 21.7 15.1501 21.6175 15.1501 21.4975V21.46H15.0746C15.0369 21.46 14.9992 21.46 14.9162 21.4225C14.8408 21.385 14.7578 21.3475 14.7201 21.3025C14.6824 21.265 14.6447 21.2275 14.6447 21.1825C14.5692 21.1075 14.5692 20.9875 14.5692 20.8675C14.5692 20.9425 14.5315 20.9875 14.5315 21.0625V21.1825C14.4938 21.415 14.4561 21.6925 14.2977 21.8875C14.3354 21.925 14.3354 21.9625 14.3354 22.045C14.3354 22.0825 14.3354 22.12 14.2977 22.165C14.2977 22.2025 14.3354 22.24 14.3731 22.285C14.4108 22.285 14.4485 22.3225 14.4485 22.36C14.4863 22.3975 14.4863 22.48 14.4485 22.555C14.4108 22.5925 14.3278 22.63 14.2524 22.63C14.177 22.63 14.094 22.5925 14.0563 22.555H13.9356V22.675C13.9356 22.75 13.9733 22.75 14.0563 22.795C14.094 22.795 14.1317 22.7575 14.177 22.7575C14.2222 22.7575 14.2524 22.7575 14.2977 22.795C14.3354 22.795 14.3731 22.8325 14.4184 22.915C14.4184 22.99 14.4184 23.035 14.3806 23.0725C14.2599 23.2675 14.0638 23.3875 13.747 23.3875H13.6716C13.5509 23.3875 13.4754 23.3875 13.3925 23.3125C13.317 23.2375 13.234 23.1925 13.1963 23.08C13.1209 22.96 13.0756 22.8025 13.0756 22.6525C13.0756 22.5775 13.0756 22.4575 13.1133 22.375C13.0882 22.375 13.0631 22.35 13.0379 22.3C13.0002 22.225 13.0002 22.1425 13.0002 22.0675C13.0002 21.9925 13.0379 21.8725 13.0756 21.8725C13.0379 21.7975 13.0379 21.715 13.0379 21.6775V21.3625C13.0002 21.325 13.0002 21.2425 13.0002 21.1675V21.01C13.0002 20.9725 13.0002 20.89 13.0379 20.8525C13.0756 20.575 13.1133 20.305 13.1586 20.0275V19.9075C13.1586 19.8325 13.1963 19.7875 13.1963 19.7125C13.1586 19.6375 13.1586 19.5925 13.1963 19.48C13.234 19.405 13.234 19.36 13.2718 19.3225V19.2025C13.2718 19.165 13.2718 19.0825 13.3095 19.0825V19.045C13.3095 18.925 13.3472 18.85 13.3849 18.8125C13.4226 18.775 13.4226 18.7375 13.4603 18.6925C13.4981 18.6175 13.4981 18.5725 13.4981 18.4975V18.4225C13.4981 18.3475 13.4981 18.265 13.5358 18.19C13.5735 18.115 13.5735 18.0325 13.6112 17.9575C13.6112 17.8825 13.6112 17.8375 13.5735 17.7625C13.5735 17.725 13.5358 17.6425 13.5358 17.605C13.5358 17.53 13.5358 17.4475 13.5735 17.3725C13.5735 17.335 13.6112 17.2975 13.6112 17.2525V17.02C13.6112 16.9 13.6112 16.825 13.6489 16.705V16.6675C13.6489 16.4725 13.7696 16.3525 13.8451 16.195C13.8828 16.12 13.9658 16.0375 14.0035 15.9625C14.0412 15.8425 14.0789 15.73 14.1242 15.61C14.1619 15.49 14.1996 15.3325 14.2449 15.22V15.1C14.2449 15.0625 14.2449 15.025 14.2826 15.025C14.3203 14.95 14.358 14.905 14.4033 14.8675L14.524 14.7475V14.6725C14.4863 14.635 14.4863 14.5975 14.4863 14.5525C14.4485 14.4775 14.4485 14.4325 14.4863 14.395C14.4485 14.32 14.4863 14.275 14.4863 14.275V14.155C14.4863 14.1175 14.4863 14.08 14.524 14.035C14.524 13.9975 14.524 13.96 14.5617 13.96C14.5617 13.9225 14.5617 13.885 14.5994 13.885C14.5994 13.8475 14.6371 13.81 14.6748 13.765C14.6748 13.69 14.7126 13.69 14.7503 13.69C14.7503 13.615 14.788 13.615 14.8257 13.57C14.8257 13.495 14.8634 13.495 14.9011 13.495C14.9011 13.4575 14.9389 13.4575 14.9766 13.42C15.0143 13.3825 15.052 13.345 15.0973 13.345C15.135 13.3075 15.1727 13.3075 15.218 13.3075C15.2557 13.27 15.2934 13.27 15.3387 13.27H15.5348C15.5725 13.27 15.6102 13.27 15.6555 13.3075C15.6932 13.3075 15.7309 13.345 15.7762 13.345H15.8139C15.8893 13.27 15.8516 13.1875 15.8516 13.1125C15.7762 13.075 15.7309 13.0375 15.6932 12.9175C15.4971 12.8425 15.4971 12.64 15.4971 12.5275V12.49C15.4971 12.415 15.4971 12.295 15.5348 12.2575C15.5725 12.22 15.6102 12.1825 15.6932 12.1375C15.7309 12.0625 15.7686 12.0175 15.8139 11.98C15.8139 11.59 15.9723 11.2375 16.2062 10.96C16.523 10.57 17.0736 10.33 17.5866 10.33C17.7827 10.33 17.9789 10.3675 18.175 10.405C18.4918 10.525 18.8086 10.72 19.0048 10.99C19.2009 11.2225 19.3216 11.5375 19.3593 11.89C19.397 11.9275 19.4347 11.9275 19.4347 11.965C19.5932 12.0025 19.6309 12.1975 19.6686 12.355C19.6686 12.5875 19.6309 12.745 19.5102 12.745C19.4725 12.82 19.4347 12.9025 19.3518 12.9025C19.3141 13.0225 19.2763 13.135 19.1934 13.255C19.2311 13.2925 19.314 13.375 19.314 13.45C19.314 13.4875 19.3141 13.525 19.2386 13.57C19.3141 13.645 19.3593 13.765 19.314 13.8475H19.4347C19.5102 13.8475 19.5554 13.8475 19.6309 13.885C19.7516 13.9225 19.8647 13.96 20.0231 14.0425H20.0608C20.2193 14.1175 20.4531 14.275 20.4531 14.47C20.6115 14.545 20.7699 14.665 20.8454 14.785C20.8831 14.86 20.9208 14.9425 20.9661 15.0175V15.055C21.0415 15.175 21.1245 15.3325 21.1622 15.445C21.1622 15.52 21.1999 15.6025 21.1999 15.7225C21.1999 15.7975 21.1999 15.88 21.2376 15.955C21.2753 16.1125 21.3131 16.1875 21.4338 16.3075L21.4715 16.345C21.5469 16.465 21.6299 16.6225 21.6676 16.7725C21.6676 16.7975 21.655 16.81 21.6299 16.81C21.6299 16.8475 21.6676 16.885 21.6676 16.93V17.0875C21.6676 17.125 21.6676 17.1625 21.7053 17.2075V17.2825C21.743 17.4775 21.7053 17.6725 21.5846 17.8675C21.5846 17.905 21.6223 17.9425 21.6223 17.9875C21.6978 18.145 21.6978 18.3025 21.743 18.46V18.535C21.743 18.655 21.7808 18.73 21.8185 18.85V18.8875C21.8562 18.9625 21.8939 19.0825 21.8939 19.165C21.8939 19.285 21.8939 19.36 21.8562 19.4425C21.8939 19.5175 21.8939 19.6 21.8562 19.72C21.8939 19.7575 21.8939 19.84 21.9316 19.8775C21.9316 19.915 21.9316 19.9525 21.9693 19.9975C22.09 19.9975 22.09 20.1175 22.1278 20.23C22.1655 20.305 22.1655 20.3875 22.1655 20.4625V20.6575C22.1655 20.695 22.2032 20.7775 22.2032 20.815C22.2409 20.89 22.2409 20.9725 22.2409 21.0475C22.2409 21.1225 22.1655 21.2425 22.0825 21.2425V21.4375C22.0825 21.475 22.0448 21.5125 22.0448 21.5575C22.0825 21.595 22.0825 21.6775 22.0448 21.79C22.0448 21.8275 22.0071 21.865 21.9693 21.865C21.9693 21.985 21.9693 22.06 22.0071 22.18C22.0448 22.3375 22.0825 22.495 22.0071 22.6525C21.9693 22.8475 21.8109 23.0425 21.6148 23.1625C21.5394 23.2 21.4564 23.2 21.381 23.2375H21.2225C21.0641 23.2375 20.9887 23.1625 20.9887 23.0425C20.9887 22.885 21.1094 22.765 21.1848 22.7275C21.2225 22.7275 21.2603 22.69 21.3055 22.69C21.3055 22.6525 21.3432 22.615 21.3432 22.57C21.3432 22.525 21.3432 22.495 21.3055 22.45C21.2678 22.525 21.1848 22.6075 21.1094 22.645C21.034 22.6825 20.9887 22.6825 20.9133 22.6825C20.8378 22.6825 20.7926 22.6825 20.7548 22.6075C20.6794 22.4875 20.7548 22.33 20.7926 22.255C20.7926 22.2175 20.8303 22.18 20.868 22.135C20.868 22.0975 20.9057 22.06 20.9434 22.06C20.9434 22.0225 20.9811 21.985 20.9811 21.985V21.91C20.9057 21.835 20.8227 21.715 20.8605 21.595C20.8227 21.5575 20.785 21.52 20.785 21.475C20.7473 21.4 20.7096 21.355 20.7096 21.28V20.965C20.7096 20.965 20.7096 20.9275 20.6719 20.89C20.6342 20.815 20.6342 20.7325 20.5964 20.6575V20.5825C20.5964 20.5075 20.5964 20.425 20.5587 20.3875C20.5587 20.35 20.521 20.2675 20.4833 20.23C20.4833 20.1925 20.4456 20.1925 20.4456 20.155V20.23C20.4456 20.305 20.4078 20.425 20.3701 20.545C20.4078 20.5825 20.4456 20.665 20.4456 20.7775V21.1675C20.4456 21.2875 20.4078 21.4 20.3249 21.5575C20.4833 21.6775 20.4833 21.91 20.4833 22.105V22.495C20.4833 22.615 20.521 22.7725 20.5587 22.885C20.5964 23.1175 20.6342 23.3575 20.6342 23.665C20.8303 23.74 20.951 23.86 21.0264 24.0175C21.0641 24.0925 21.0641 24.2125 21.1018 24.295V25.3525C21.0641 25.63 20.9434 25.7425 20.785 25.825V26.02C20.785 26.0575 20.7473 26.095 20.7096 26.14V26.2975C20.7473 26.335 20.7473 26.3725 20.7473 26.4175C20.7473 26.4625 20.7473 26.4925 20.7096 26.4925C20.7473 26.53 20.785 26.6125 20.7473 26.6875V26.8825C20.7473 26.92 20.7096 26.92 20.7096 26.9575C20.8303 27.0775 20.8303 27.2725 20.785 27.43V28.1725C20.785 28.33 20.785 28.525 20.7473 28.6825C20.7473 28.7575 20.7096 28.8775 20.7096 28.96C20.7096 29.155 20.7096 29.3875 20.7473 29.59V30.1375C20.7096 30.2575 20.7096 30.37 20.7096 30.49V30.8425C20.7096 30.88 20.7096 30.9625 20.6719 31C20.6719 31.075 20.6342 31.12 20.6342 31.195C20.6342 31.315 20.6719 31.4275 20.6719 31.5475C20.7096 31.6675 20.7473 31.78 20.7473 31.9C20.7473 32.02 20.7473 32.1775 20.7096 32.29C20.868 32.41 20.9057 32.605 20.9434 32.7175C20.9811 32.9125 20.9057 33.0325 20.785 33.1075C20.6266 33.1825 20.4682 33.2275 20.3098 33.2275H20.2721C20.0382 33.265 19.8421 33.265 19.6837 33.265C19.5253 33.265 19.4046 33.265 19.2914 33.2275C19.0953 33.19 18.9369 33.07 18.8992 32.9125C18.8614 32.7925 18.8614 32.635 18.8992 32.485C18.8614 32.41 18.8614 32.3275 18.8992 32.2525V32.1775V31.4725C18.8992 31.435 18.8992 31.3975 18.9369 31.3525C18.8162 31.2325 18.8162 31.075 18.7785 30.925V30.805C18.7407 30.61 18.703 30.3775 18.6578 30.1375V30.1C18.5823 29.6725 18.4994 29.2375 18.5823 28.81V28.69C18.6201 28.57 18.6201 28.4575 18.5823 28.375C18.5823 28.3375 18.5446 28.3 18.5446 28.3C18.5446 28.2625 18.5069 28.2625 18.5069 28.225C18.4692 28.15 18.4692 28.0675 18.4692 28.03V27.7975C18.4692 27.7225 18.4315 27.6025 18.4315 27.52C18.3938 27.4 18.4315 27.2875 18.5069 27.205C18.4692 27.1675 18.4692 27.085 18.4692 27.0475C18.4315 27.01 18.3938 26.9725 18.4315 26.8525L18.3938 26.815C18.356 26.7775 18.356 26.695 18.3938 26.6575C18.3183 26.5825 18.3183 26.5 18.356 26.425C18.2806 26.3875 18.2353 26.305 18.1976 26.23C18.1599 26.155 18.1599 26.11 18.1222 26.035C18.0845 25.915 18.0468 25.84 18.0015 25.72C17.9261 25.525 17.8808 25.33 17.8431 25.135V25.06C17.8431 24.985 17.8431 24.9025 17.8054 24.865C17.8054 24.8275 17.7676 24.79 17.7299 24.745C17.6922 24.7075 17.6545 24.7075 17.6545 24.67C17.5791 24.8275 17.5791 25.0225 17.5791 25.18V25.3C17.5791 25.42 17.5791 25.495 17.5413 25.615C17.5413 25.69 17.5036 25.735 17.5036 25.81C17.5036 25.8475 17.5036 25.885 17.4659 25.93V25.9675C17.4659 26.125 17.4282 26.2 17.4282 26.2825V26.56C17.4282 26.635 17.3905 26.7175 17.3905 26.7925C17.3905 26.8675 17.3528 26.8675 17.315 26.9125V26.9875C17.315 27.0125 17.3025 27.0375 17.2773 27.0625V27.1V27.175C17.2773 27.25 17.2396 27.295 17.2019 27.3325C17.2019 27.37 17.2396 27.4075 17.2019 27.4525C17.2019 27.49 17.1642 27.5275 17.1265 27.5725C17.1265 27.61 17.1265 27.6475 17.0887 27.73C17.1642 27.85 17.1265 28.045 17.1265 28.1575C17.0887 28.3525 17.0887 28.5475 17.051 28.705C17.0133 28.8625 17.0133 29.0575 16.9756 29.2525C16.9756 29.41 16.9756 29.605 16.9379 29.8C16.9379 29.875 16.9002 29.9575 16.9002 30.0325C16.9002 30.1075 16.8624 30.2275 16.8624 30.3475V31.5625C16.8624 31.6375 16.8624 31.84 16.7417 31.8775V31.915C16.8172 32.11 16.8624 32.3875 16.7795 32.7775V32.815C16.8549 32.9725 16.8549 33.13 16.8172 33.325C16.8172 33.4 16.7795 33.4825 16.6965 33.5575C16.6135 33.6325 16.5381 33.6325 16.4626 33.6325L14.3731 33.5125L14.3806 33.49ZM14.8936 19.7875C14.8936 19.8625 14.8936 19.945 14.8559 19.9825C14.8182 20.0575 14.8182 20.14 14.7804 20.215H14.8182C14.8559 20.14 14.8936 20.095 14.9766 20.095C14.9766 20.0575 15.0143 20.0575 15.052 20.0575C15.0143 19.8625 14.9766 19.63 15.0143 19.4275C15.0143 19.465 14.9766 19.465 14.9766 19.5025C14.9766 19.54 14.9766 19.6225 14.9389 19.66C14.9766 19.66 14.9389 19.6975 14.9011 19.78L14.8936 19.7875ZM15.2481 14.1925C15.2859 14.1925 15.3236 14.1925 15.3236 14.155C15.3613 14.1175 15.399 14.1175 15.4443 14.08C15.5197 14.0425 15.565 14.005 15.6404 13.96H15.565L15.5272 13.9975H15.4518C15.4518 13.9975 15.4141 14.035 15.3764 14.035C15.3764 14.035 15.3764 14.0725 15.3387 14.0725C15.3135 14.1225 15.2884 14.1625 15.2632 14.1925C15.2381 14.2225 15.2381 14.2225 15.2632 14.1925H15.2481ZM22.1806 20.65V20.455C22.1806 20.4175 22.1806 20.2975 22.1428 20.26C22.1051 20.185 22.1051 20.0275 21.9844 20.0275C21.9844 19.99 21.9844 19.9525 21.9467 19.9075C21.9467 19.87 21.909 19.7875 21.8713 19.75C21.909 19.675 21.909 19.555 21.8713 19.4725C21.909 19.3975 21.9467 19.315 21.909 19.195C21.909 19.075 21.8713 19 21.8336 18.88C21.7958 18.76 21.7581 18.685 21.7581 18.565C21.7581 18.37 21.7581 18.175 21.6374 18.0175C21.5997 17.98 21.5997 17.9425 21.5997 17.8975C21.7204 17.74 21.7581 17.545 21.7204 17.35C21.7204 17.3125 21.6827 17.23 21.6827 17.1925V16.9975C21.6827 16.96 21.6827 16.9225 21.645 16.8775C21.645 16.8775 21.6827 16.8775 21.6827 16.84C21.645 16.6825 21.562 16.525 21.4866 16.4125C21.4111 16.3 21.2904 16.18 21.2527 15.985C21.215 15.8275 21.2527 15.67 21.215 15.5125C21.1773 15.355 21.1396 15.235 21.0189 15.1225V15.085C20.9811 15.01 20.9434 14.9275 20.8982 14.8525C20.7775 14.7325 20.6643 14.62 20.5059 14.5375C20.5436 14.3425 20.2268 14.185 20.0759 14.11C19.9552 14.035 19.8421 13.99 19.6837 13.9525C19.6082 13.9525 19.563 13.915 19.4875 13.915C19.4498 13.915 19.4121 13.915 19.3669 13.9525C19.4423 13.8325 19.4046 13.72 19.2914 13.6375C19.4121 13.5175 19.3291 13.405 19.2537 13.3225C19.3291 13.2025 19.4121 13.09 19.4498 12.97C19.5253 12.9325 19.5705 12.895 19.6082 12.8125C19.7667 12.775 19.7667 12.535 19.7667 12.4225C19.7667 12.265 19.7289 12.07 19.5705 12.0325C19.5328 11.995 19.5328 11.9575 19.4951 11.9575C19.4574 11.6425 19.3367 11.3275 19.1406 11.0575C18.9444 10.78 18.6653 10.585 18.3108 10.4725C17.6017 10.24 16.8172 10.435 16.3419 11.02C16.1081 11.335 15.9497 11.6875 15.9497 12.04C15.8742 12.0775 15.829 12.115 15.829 12.1975C15.7535 12.1975 15.7083 12.235 15.6706 12.3175C15.6329 12.3925 15.6329 12.5125 15.6329 12.595C15.6329 12.7525 15.6329 12.9475 15.829 12.985C15.8667 13.06 15.9044 13.1425 15.9874 13.18C16.0251 13.3 16.0628 13.4125 16.1458 13.495C16.1081 13.4575 16.0704 13.4575 16.0251 13.42C15.9874 13.3825 15.9497 13.3825 15.9044 13.3825H15.8667C15.829 13.345 15.746 13.345 15.7083 13.345C15.6706 13.345 15.6329 13.3075 15.5876 13.345C15.5499 13.345 15.5122 13.345 15.4292 13.3825C15.3915 13.3825 15.3537 13.3825 15.3085 13.42C15.2708 13.42 15.2331 13.42 15.1878 13.495C15.1501 13.495 15.1124 13.5325 15.1124 13.57C15.0746 13.57 15.0369 13.6075 15.0369 13.645C14.9992 13.645 14.9615 13.6825 14.9615 13.765C14.9238 13.765 14.8861 13.8025 14.8861 13.84C14.8483 13.84 14.8483 13.915 14.8483 13.915C14.8232 13.94 14.8106 13.965 14.8106 13.99C14.7729 13.99 14.7729 14.0275 14.7729 14.065C14.7352 14.1025 14.7352 14.14 14.7352 14.185C14.6975 14.2225 14.6975 14.26 14.7352 14.305C14.6975 14.3425 14.6975 14.38 14.7352 14.425C14.6975 14.4625 14.7352 14.5 14.7352 14.5825C14.6975 14.62 14.7352 14.6575 14.7352 14.7025L14.7729 14.74V14.815C14.7729 14.815 14.7729 14.8525 14.8106 14.8525L14.6899 14.9725C14.6522 15.01 14.5692 15.0925 14.5315 15.1675C14.5315 15.205 14.4938 15.205 14.5315 15.2425C14.5315 15.28 14.5692 15.3175 14.5315 15.3625C14.4108 15.595 14.4108 15.835 14.2977 16.0675C14.1845 16.3 13.9431 16.4575 13.9431 16.7725C13.9054 16.9675 13.9054 17.125 13.9054 17.32C13.9054 17.44 13.83 17.5525 13.83 17.6725C13.83 17.7925 13.9054 17.905 13.9054 18.025C13.8677 18.1 13.83 18.1825 13.83 18.2575C13.7923 18.3325 13.7923 18.415 13.7923 18.49C13.7923 18.565 13.7923 18.6475 13.7545 18.7225C13.7168 18.8425 13.5961 18.9175 13.5961 19.075V19.15C13.5584 19.1875 13.5584 19.225 13.5584 19.27V19.39C13.5207 19.39 13.483 19.465 13.483 19.5475C13.4453 19.6225 13.4453 19.705 13.483 19.7425C13.483 19.8175 13.4453 19.8625 13.4453 19.9375V20.0575C13.4075 20.335 13.3246 20.605 13.3246 20.92C13.2868 20.9575 13.2868 21.04 13.2868 21.115C13.2868 21.19 13.2868 21.235 13.3246 21.31C13.2868 21.385 13.3246 21.5425 13.3246 21.625C13.3246 21.7075 13.3246 21.7825 13.3623 21.8575C13.2868 21.8575 13.2416 21.9775 13.2416 22.0525C13.2416 22.1275 13.2416 22.21 13.2793 22.285C13.2793 22.3225 13.317 22.3225 13.3547 22.3225C13.1586 22.3225 13.1586 22.4425 13.1586 22.5175C13.1586 22.675 13.1963 22.795 13.2793 22.9075C13.317 23.0275 13.4 23.1025 13.5131 23.185C13.6263 23.2675 13.7093 23.26 13.83 23.26C14.0638 23.26 14.3052 23.185 14.4184 22.945C14.4561 22.9075 14.4561 22.87 14.4561 22.7875C14.4561 22.75 14.3806 22.7125 14.3354 22.7125C14.2599 22.675 14.177 22.675 14.1393 22.7125C14.0638 22.7125 14.0186 22.675 14.0186 22.5925V22.435H14.1393C14.2147 22.555 14.4184 22.555 14.4938 22.435C14.5315 22.3975 14.5315 22.315 14.4938 22.2775L14.4184 22.2025C14.3429 22.165 14.3429 22.1275 14.2977 22.0825C14.2977 22.045 14.3354 22.0075 14.3354 21.9625C14.3354 21.9175 14.3354 21.8425 14.2977 21.805C14.4561 21.5725 14.5315 21.22 14.5768 20.98C14.6145 20.86 14.6145 20.7475 14.6522 20.6275V20.7475C14.6522 20.8675 14.6522 20.98 14.7276 21.0625C14.7654 21.1 14.7654 21.1375 14.8031 21.1825C14.8408 21.2575 14.9238 21.3025 14.9992 21.3025C15.0746 21.34 15.1953 21.3775 15.2331 21.3025V21.3775C15.2331 21.4525 15.2331 21.5725 15.2708 21.655C15.2331 21.73 15.2331 21.775 15.1953 21.85C15.1576 21.925 15.1576 22.0075 15.1199 22.0825C15.1199 22.1575 15.0822 22.2775 15.0822 22.36C14.9615 22.3975 14.8861 22.435 14.8483 22.5925V22.7875C14.8483 22.8625 14.8106 22.945 14.7729 23.02C14.7352 23.14 14.7352 23.2525 14.8106 23.3725C14.8483 23.4475 14.9313 23.5675 15.0445 23.5675C15.0445 23.6425 15.0445 23.7625 14.969 23.8C14.9313 23.8375 14.8936 23.875 14.8483 23.875C14.8031 23.875 14.7276 24.07 14.7276 24.1075C14.6899 24.1825 14.6899 24.265 14.6522 24.3025C14.6145 24.3775 14.5768 24.4225 14.5315 24.4975C14.4863 24.5725 14.4938 24.6175 14.4938 24.6925V24.925C14.4938 25.0825 14.5692 25.2025 14.6145 25.3525C14.6522 25.4275 14.6145 25.51 14.6145 25.585C14.6145 25.66 14.6145 25.7425 14.6522 25.8175C14.6899 25.8925 14.7276 25.975 14.7729 26.0125C14.8106 26.0875 14.8936 26.1325 14.9313 26.2075C14.9313 26.2825 14.969 26.365 15.0067 26.44V26.5975C14.9313 26.635 14.9313 26.7175 14.969 26.755V26.7925C14.9313 26.8675 14.9313 26.95 15.0067 26.9875C14.969 27.0625 15.0067 27.1075 15.0445 27.145C15.0067 27.1825 15.0067 27.265 14.969 27.3025V28.2025C14.969 28.5175 14.969 28.87 15.0067 29.185C15.0445 29.5 15.0822 29.8525 15.0822 30.1675C15.0822 30.52 15.0822 30.8725 15.2029 31.225C15.0822 31.3825 15.0822 31.615 15.0445 31.81C15.0445 31.93 15.0067 32.0425 14.969 32.1625C14.9313 32.2375 14.8106 32.2825 14.7352 32.32C14.6597 32.3575 14.5391 32.395 14.4561 32.4775C14.3806 32.5525 14.2977 32.635 14.2599 32.71C14.2222 32.83 14.1845 32.9875 14.2222 33.1C14.2599 33.2575 14.3429 33.3775 14.5013 33.415H16.5909C16.6663 33.415 16.7493 33.3775 16.8247 33.34C16.9002 33.3025 16.9002 33.22 16.9454 33.145C16.9831 32.9875 16.9831 32.7925 16.9077 32.635V32.5975C16.9454 32.32 16.9831 32.0125 16.87 31.7725C16.87 31.7725 16.87 31.735 16.8323 31.735C16.953 31.6975 16.953 31.5025 16.953 31.42V30.205C16.953 30.0475 17.0284 29.8525 17.0284 29.695C17.0284 29.5375 17.0661 29.3425 17.0661 29.185C17.0661 28.99 17.1038 28.8325 17.1415 28.6375C17.1793 28.4425 17.217 28.285 17.217 28.09C17.217 27.97 17.2547 27.775 17.1793 27.6625C17.217 27.5875 17.2547 27.5425 17.217 27.505C17.2924 27.4675 17.3377 27.3475 17.2924 27.2725C17.2924 27.2725 17.2924 27.235 17.2547 27.235C17.3301 27.1975 17.3754 27.0775 17.3301 27.0025L17.3678 26.965C17.3678 26.9275 17.4056 26.9275 17.4056 26.9275V26.8525C17.4433 26.815 17.481 26.7775 17.481 26.7325C17.481 26.6575 17.5187 26.575 17.5187 26.5V26.2225C17.5187 26.1025 17.5564 25.99 17.5941 25.9075C17.6319 25.7875 17.6319 25.675 17.6696 25.5925C17.7073 25.4725 17.7073 25.3975 17.7073 25.2775C17.7073 25.045 17.7073 24.85 17.7827 24.61C17.8204 24.61 17.8582 24.6475 17.9034 24.685C17.9411 24.7225 17.9411 24.76 17.9789 24.805C18.0166 24.88 18.0166 25 18.0166 25.12C18.0543 25.315 18.092 25.51 18.175 25.6675C18.2127 25.7875 18.2504 25.8625 18.2957 25.9825C18.2957 26.0575 18.3334 26.14 18.3711 26.215C18.4088 26.29 18.4918 26.3725 18.5672 26.41C18.5295 26.485 18.5295 26.5675 18.605 26.6425C18.5673 26.68 18.5673 26.7625 18.605 26.8L18.6427 26.8375C18.605 26.9125 18.605 26.995 18.6804 27.0325C18.6427 27.07 18.6804 27.1525 18.7181 27.19C18.6427 27.265 18.6427 27.385 18.6427 27.505C18.6427 27.58 18.6804 27.6625 18.6804 27.7825V28.015C18.6804 28.09 18.6804 28.135 18.7181 28.21C18.7558 28.285 18.7936 28.33 18.7936 28.3675C18.8313 28.4875 18.7936 28.6825 18.7558 28.795C18.6804 29.2225 18.7936 29.695 18.8765 30.1225C18.9142 30.355 18.952 30.55 18.9972 30.79C19.0349 30.9475 19.0349 31.105 19.1556 31.2625C19.1179 31.3 19.1179 31.3375 19.1179 31.3825V31.54C19.1179 31.615 19.0802 31.66 19.0802 31.735V32.0875C19.0802 32.2075 19.0425 32.32 19.0802 32.4025C19.0425 32.5225 19.0802 32.68 19.0802 32.83C19.1179 33.025 19.2763 33.1075 19.4347 33.145C19.7516 33.1825 20.1061 33.1825 20.4229 33.145C20.5813 33.1075 20.7775 33.1075 20.9359 33.025C21.0566 32.95 21.0943 32.7925 21.0943 32.635C21.0943 32.4775 21.0189 32.32 20.8605 32.2075C20.8982 32.0875 20.8982 31.93 20.8982 31.8175C20.8982 31.585 20.7775 31.345 20.7775 31.1125C20.7775 30.9925 20.8152 30.88 20.8152 30.76V30.4075C20.8152 30.2875 20.8152 30.13 20.8529 30.0175C20.8906 29.905 20.8906 29.785 20.8529 29.665C20.8152 29.3875 20.7775 29.155 20.8152 28.885C20.8529 28.6075 20.8906 28.375 20.8906 28.105C20.8906 27.8725 20.8529 27.6325 20.8906 27.4375C20.8906 27.28 20.9283 27.085 20.8152 26.965C20.8403 26.94 20.8655 26.915 20.8906 26.89V26.77C20.8906 26.77 20.8906 26.7325 20.9283 26.7325C20.9661 26.6575 20.9283 26.575 20.8906 26.5375C20.8906 26.5 20.9283 26.5 20.9283 26.4625C20.9283 26.425 20.9283 26.3875 20.8906 26.3425C20.8906 26.305 20.8906 26.2675 20.9283 26.2675V26.1925C20.9661 26.155 21.0038 26.1175 21.0038 26.0725V25.84C21.1999 25.765 21.2829 25.5625 21.3206 25.4125C21.3583 25.18 21.3206 24.94 21.3583 24.7075C21.3583 24.67 21.396 24.5875 21.3583 24.55V24.43C21.3583 24.31 21.3206 24.1975 21.2829 24.0775C21.2075 23.8825 21.0868 23.8 20.8906 23.725C20.8906 23.4475 20.8906 23.215 20.8152 22.945C20.7775 22.825 20.7398 22.7125 20.7398 22.555V22.165C20.7398 21.97 20.7398 21.7375 20.5813 21.6175C20.6568 21.4975 20.6568 21.385 20.6568 21.265V20.875C20.6568 20.8 20.6191 20.68 20.5813 20.6425C20.6568 20.5675 20.6568 20.4475 20.6568 20.3275V20.2075C20.6945 20.3275 20.7775 20.4025 20.8152 20.5225C20.8529 20.5975 20.8529 20.7175 20.8529 20.8375C20.8529 20.9575 20.8906 21.0325 20.9283 21.1525C20.9661 21.2725 20.9283 21.3475 20.9283 21.4675C20.9283 21.5425 20.9661 21.5875 21.0038 21.6625L21.1245 21.7825C21.049 21.8575 21.1622 22.015 21.2452 22.0975C21.2075 22.1725 21.2452 22.2175 21.2075 22.2925C21.1697 22.3675 21.132 22.4125 21.0868 22.4875C21.0415 22.5625 20.9283 22.765 21.0113 22.84C21.0943 22.915 21.2075 22.8775 21.3281 22.84C21.4036 22.8025 21.4866 22.72 21.5243 22.6075C21.562 22.645 21.5997 22.7275 21.562 22.765C21.562 22.8025 21.5243 22.885 21.5243 22.9225C21.4866 22.9225 21.4488 22.9225 21.4036 22.96C21.2829 22.9975 21.2075 23.1175 21.2075 23.2375C21.2075 23.3575 21.3281 23.395 21.4413 23.395H21.6374C21.7129 23.395 21.7958 23.395 21.8336 23.32C22.0297 23.2 22.1504 23.0425 22.2258 22.81C22.3012 22.5325 22.1881 22.3 22.1881 22.0675L22.2635 21.9925C22.3012 21.9175 22.3012 21.835 22.2635 21.7975C22.1881 21.4825 22.1881 21.445 22.1881 21.4075V21.2125C22.2635 21.175 22.3465 21.0925 22.3465 21.0175C22.3842 20.8975 22.2711 20.74 22.2711 20.6275L22.1956 20.665L22.1806 20.65ZM15.5272 13.9525H15.7234C15.6027 13.99 15.4895 14.11 15.3688 14.185C15.3311 14.2225 15.2934 14.2225 15.2481 14.26V14.185L15.2859 14.1475L15.3236 14.11C15.3487 14.11 15.3739 14.0975 15.399 14.0725V14.035H15.4367L15.4744 13.9975C15.4744 13.96 15.5122 13.96 15.5122 13.96L15.5272 13.9525ZM14.8559 19.9825C14.8936 19.9075 14.8936 19.825 14.8936 19.75C14.9313 19.7125 14.969 19.63 14.969 19.5925C15.0067 19.555 15.0067 19.4725 14.969 19.435C15.0067 19.3975 15.0445 19.36 15.0445 19.315C15.0067 19.5475 15.0067 19.7875 15.0822 20.02C15.0445 20.02 15.0067 20.0575 15.0067 20.095C14.9313 20.095 14.8861 20.17 14.8483 20.215C14.8106 20.215 14.7729 20.2525 14.7276 20.29C14.7654 20.215 14.8031 20.095 14.8483 19.975L14.8559 19.9825ZM3.00514 25.855C-2.67506 15.205 3.7444 3.655 16.1081 2.485C19.4574 2.17 14.4561 2.1325 13.8224 2.2075C8.58729 2.755 4.61189 5.5375 1.81328 9.76C9.05498 -1.79 25.3639 -1.4375 30.9159 10.8925C32.2133 13.75 30.6367 9.25 30.4029 8.74C28.0418 3.9325 23.7119 1.15 18.4315 0.25C32.1756 2.485 37.8407 16.9675 27.9965 26.9125C25.7486 29.185 29.4524 26.0875 29.8899 25.66C34.3406 21.0025 34.8158 14.9725 32.6433 9.22C33.9408 10.945 34.2953 16.27 33.9031 18.535C32.3642 27.775 23.8627 32.785 14.5315 31.06C11.2652 30.475 15.8667 31.7275 16.7342 31.84C24.8886 32.9725 31.542 28.3975 34.3783 21.115C29.5731 35.17 10.36 36.7 3.90281 22.9525C3.11829 21.2725 4.53646 24.8725 4.57418 24.985C8.11959 32.2675 16.4249 34.81 24.1418 32.695C9.37935 37.09 -2.90891 23.425 4.09894 10.39C5.47939 7.8025 3.7444 10.4275 3.38986 11.095C-0.464838 17.8675 1.26261 24.955 6.58073 30.4375C5.04187 28.9525 4.09894 27.7375 2.9976 25.855H3.00514ZM8.51939 7.105C10.0583 6.1675 12.7362 4.8325 14.622 5.1475C14.2675 5.425 11.2727 6.3625 9.89984 7.225C3.11829 11.3275 1.85854 19.5475 6.22619 25.8925C3.7444 21.82 3.03532 17.0425 5.59254 12.82C6.92773 10.63 5.27572 14.8525 5.16256 15.2875C3.31442 23.4325 9.84704 30.7525 18.3108 30.91C19.9251 30.9475 16.8549 30.715 16.3797 30.6325C13.3849 30.0475 10.5938 28.5175 8.78341 26.0875C7.40297 24.205 11.1068 27.415 11.3029 27.535C18.3937 32.275 27.5666 29.1025 31.0667 21.7C31.7758 20.215 30.2822 22.99 29.9277 23.4625C28.5925 25.2625 26.2238 27.34 23.9457 27.85C22.2107 28.24 26.0352 26.05 26.3898 25.735C32.8847 20.5675 32.5301 10.8175 26.2691 5.53C28.9093 8.3125 30.682 11.3275 30.3275 15.2425C30.1691 17.08 29.6561 13.285 29.5429 12.9325C27.4911 5.2225 19.2612 1.3075 11.5443 3.8875C9.41706 4.5925 13.0379 3.535 13.7923 3.415C17.8883 2.83 22.0221 4 24.9339 6.94C26.6689 8.7025 22.8896 5.92 22.0599 5.53C14.8106 2.2825 6.5053 5.5375 3.58599 12.82C4.88346 10.435 6.18847 8.6725 8.51185 7.105H8.51939ZM76.5235 14.6125C76.267 13.945 75.9275 13.4125 75.5126 13.0225C75.2788 12.8125 75.0299 12.6475 74.7658 12.535C74.5018 12.4225 74.2227 12.37 73.9285 12.37H62.8623C62.5757 12.37 62.3041 12.4225 62.0401 12.535C61.776 12.6475 61.5271 12.805 61.2933 13.0225C60.8708 13.4125 60.5314 13.945 60.2824 14.6125C60.0184 15.2725 59.8902 15.9925 59.8902 16.7875V17.56C60.0939 17.3125 60.3428 17.0725 60.6294 16.855C61.3536 16.315 62.1457 16.06 62.719 16.135C62.7567 15.76 62.8698 15.445 63.0584 15.1825C63.2696 14.8675 63.5261 14.7175 63.8279 14.7175H66.8226C67.0187 14.7175 67.2073 14.665 67.3959 14.5525C67.5769 14.455 67.7354 14.305 67.8787 14.1175C68.1653 13.735 68.4897 13.435 68.8442 13.2175C69.2063 12.9925 69.5835 12.8725 69.9682 12.85H72.3142C72.3897 12.865 72.4651 12.865 72.5405 12.865C72.7517 12.8875 72.9328 12.9625 73.0912 13.0825C73.2421 13.2025 73.3703 13.36 73.4759 13.5475C73.672 13.915 73.7626 14.35 73.755 14.8525C73.755 15.355 73.6419 15.7825 73.4382 16.1425C73.325 16.345 73.1893 16.5025 73.0233 16.6075C72.8573 16.7275 72.6612 16.795 72.4349 16.795H64.7029C64.2955 16.795 63.8958 16.84 63.511 16.9375C63.2998 16.99 63.0886 17.0575 62.8774 17.14C62.289 17.365 61.776 17.695 61.3234 18.13C60.8633 18.55 60.5087 19.0825 60.2598 19.735C60.2598 19.735 60.2598 19.7425 60.2598 19.75C60.0109 20.395 59.8902 21.04 59.8902 21.67H76.9233V16.7875H76.9082C76.9082 15.9925 76.7799 15.2725 76.5159 14.6125H76.5235ZM73.4457 20.4775C73.3326 20.68 73.1968 20.8375 73.0308 20.9425C72.8649 21.0625 72.6688 21.13 72.4425 21.13H64.3785C64.1522 21.13 63.9561 21.07 63.7901 20.9425C63.6166 20.83 63.4809 20.6725 63.3753 20.4775C63.164 20.1175 63.0584 19.69 63.0584 19.1875C63.0509 18.685 63.1414 18.25 63.3375 17.8825C63.4356 17.695 63.5638 17.5375 63.7223 17.4175C63.8807 17.2975 64.0617 17.2225 64.2729 17.2H64.4992C64.5671 17.1925 64.635 17.185 64.7104 17.185H72.2162C72.269 17.185 72.3218 17.185 72.3746 17.2H72.5405C72.7517 17.2225 72.9328 17.2975 73.0912 17.4175C73.2421 17.5375 73.3703 17.695 73.4759 17.8825C73.672 18.25 73.7626 18.685 73.755 19.1875C73.755 19.69 73.6419 20.1175 73.4382 20.4775H73.4457ZM93.6169 15.895C94.077 15.46 94.4316 14.9125 94.673 14.26C94.9294 13.615 95.0577 12.97 95.0577 12.34H78.0246V16.7725C78.0246 17.41 78.1453 18.0475 78.3942 18.6925C78.6432 19.3525 78.9977 19.9 79.4654 20.35C79.8803 20.74 80.348 21.0475 80.8609 21.2725C81.3814 21.505 81.9246 21.64 82.5054 21.67H83.0712V21.205H82.6186C82.5431 21.205 82.4677 21.205 82.3923 21.19C81.9698 21.16 81.6605 20.935 81.4569 20.5225C81.2532 20.1175 81.1627 19.6825 81.1778 19.2025V17.23H85.0174C84.957 17.23 84.9118 17.23 84.874 17.245C85.2814 17.245 85.6736 17.3575 86.0433 17.5825C86.4129 17.8075 86.7448 18.115 87.0466 18.505C87.1823 18.6925 87.3407 18.8425 87.5218 18.955C87.7104 19.0525 87.9065 19.105 88.1102 19.105H91.0974C91.3991 19.105 91.6556 19.2625 91.8744 19.57C92.0931 19.87 92.2063 20.245 92.2213 20.6875V21.1075C92.5155 21.22 92.7946 21.355 93.0511 21.5275C93.3076 21.7 93.5641 21.8875 93.7979 22.0975C94.0921 22.375 94.3411 22.6825 94.5523 23.02C94.7559 23.3575 94.9144 23.7025 95.035 24.07V21.175C95.035 20.0125 94.771 19.015 94.243 18.1825C93.7149 17.335 93.0738 16.87 92.3043 16.78C92.5382 16.6675 92.7645 16.54 92.9908 16.3975C93.2095 16.255 93.4132 16.09 93.6093 15.91L93.6169 15.895ZM91.633 15.9625C91.5349 16.165 91.4067 16.33 91.2407 16.465C91.0823 16.6 90.8937 16.675 90.6749 16.6975C90.5995 16.6975 90.5241 16.6975 90.4486 16.7125H81.1853V14.6575C81.2004 14.1925 81.3211 13.7575 81.5474 13.3675C81.7661 12.9775 82.083 12.7825 82.5054 12.7825H90.5618C90.7805 12.7825 90.9691 12.835 91.1275 12.9475C91.2935 13.06 91.4293 13.195 91.5424 13.3675C91.7612 13.7275 91.8743 14.155 91.8894 14.6575C91.9045 15.16 91.8215 15.595 91.633 15.9625ZM58.4192 12.3325H58.7436V17.245C58.7436 17.6725 58.7059 18.0775 58.6229 18.4675C58.5475 18.8725 58.4418 19.24 58.2985 19.57C58.0345 20.1925 57.68 20.7025 57.2424 21.0925C56.7898 21.475 56.2995 21.6625 55.7639 21.6625H41.7256V17.23C41.7256 16.75 41.7709 16.2925 41.8614 15.8575C41.9444 15.4225 42.065 15.0175 42.2235 14.635C42.5177 13.945 42.9099 13.39 43.4078 12.9625C43.9056 12.5425 44.4488 12.3325 45.0447 12.3475H46.2139C46.2894 12.34 46.4025 12.3325 46.5534 12.3325H46.7797V12.7975H46.5534C46.478 12.7975 46.4025 12.7975 46.3271 12.8125H46.1008C45.6859 12.8575 45.3766 13.0825 45.1805 13.495C44.9768 13.8925 44.8788 14.3275 44.8863 14.8V19.33C44.9014 19.795 45.0221 20.23 45.2484 20.62C45.4671 21.0025 45.784 21.19 46.1913 21.19H47.3832V17.245C47.3832 16.765 47.4284 16.3075 47.519 15.8725C47.6019 15.43 47.7226 15.0175 47.881 14.65C48.1752 13.945 48.5675 13.3825 49.0654 12.9625C49.5632 12.5425 50.1064 12.3325 50.7023 12.3475H51.864V12.3325H52.4297V12.7975H52.2185C52.1431 12.7975 52.0676 12.7975 51.9922 12.8125H51.7659C51.351 12.8575 51.0417 13.0825 50.8456 13.495C50.6419 13.8925 50.5514 14.3275 50.5665 14.8V19.315C50.5665 19.435 50.5816 19.5625 50.5967 19.6825C50.6118 19.8175 50.6344 19.9375 50.6721 20.05C50.6721 20.0275 50.6872 20.0125 50.7023 19.9975C50.7174 19.975 50.7325 19.9525 50.7475 19.93C50.8909 19.7425 51.0568 19.5925 51.2454 19.48C51.434 19.3675 51.6301 19.315 51.8338 19.315H54.821C55.1227 19.315 55.3792 19.1575 55.598 18.85C55.8167 18.535 55.9299 18.16 55.945 17.71V17.305C56.2392 17.1925 56.5183 17.0575 56.7747 16.885C57.0388 16.72 57.2877 16.525 57.5215 16.3C57.8082 16.03 58.027 15.6775 58.1854 15.2275C58.3513 14.7925 58.4343 14.3275 58.4343 13.825V12.3175L58.4192 12.3325ZM130.195 16.975C129.614 17.41 128.988 17.6575 128.468 17.7025V17.7325C128.452 18.175 128.339 18.55 128.121 18.85C127.902 19.165 127.645 19.315 127.344 19.315H124.356C124.153 19.315 123.964 19.3675 123.783 19.48C123.602 19.5775 123.444 19.7275 123.3 19.915C123.014 20.2975 122.689 20.5975 122.335 20.815C121.973 21.04 121.595 21.16 121.211 21.1825H118.865C118.789 21.175 118.714 21.1675 118.638 21.1675C118.427 21.145 118.246 21.07 118.088 20.95C117.929 20.83 117.801 20.6725 117.703 20.485C117.507 20.1175 117.416 19.6825 117.424 19.18C117.424 18.6775 117.537 18.25 117.748 17.89C117.854 17.6875 117.99 17.53 118.163 17.425C118.329 17.305 118.525 17.2375 118.752 17.2375H126.484C126.785 17.2375 127.08 17.2075 127.366 17.1625C127.691 17.1025 128 17.0125 128.309 16.8925C128.898 16.6675 129.41 16.3375 129.863 15.9025C130.323 15.4675 130.678 14.9275 130.919 14.2825C130.934 14.245 130.949 14.2 130.964 14.1625C131.191 13.5475 131.304 12.94 131.304 12.34H120.464C119.031 12.3475 117.952 12.355 117.228 12.355C116.692 12.355 116.209 12.55 115.764 12.94C115.319 13.3225 114.972 13.8175 114.716 14.4475C114.573 14.785 114.467 15.145 114.392 15.535C114.309 15.925 114.271 16.33 114.271 16.7575V21.655H128.309C128.852 21.655 129.343 21.4675 129.788 21.085C130.233 20.695 130.587 20.185 130.844 19.5625C130.987 19.225 131.093 18.8575 131.168 18.46C131.251 18.07 131.289 17.665 131.289 17.2375C131.289 16.5475 131.327 16.0225 131.357 15.58C131.153 16.045 130.746 16.5475 130.195 16.96V16.975ZM117.763 13.3675C117.877 13.2025 118.012 13.06 118.171 12.9475C118.337 12.835 118.525 12.7825 118.744 12.7825H126.808C127.034 12.7825 127.23 12.8425 127.396 12.97C127.562 13.09 127.698 13.2475 127.811 13.435C128.015 13.795 128.121 14.2225 128.128 14.725C128.128 14.9275 128.113 15.115 128.09 15.295C128.045 15.565 127.97 15.805 127.849 16.03C127.743 16.2175 127.615 16.375 127.464 16.495C127.419 16.525 127.374 16.555 127.329 16.585C127.2 16.6525 127.064 16.6975 126.906 16.7125C126.831 16.7125 126.755 16.7125 126.68 16.7275H118.797C118.737 16.72 118.684 16.7125 118.631 16.7125C118.412 16.69 118.224 16.615 118.058 16.48C117.899 16.345 117.771 16.1725 117.665 15.9625C117.477 15.595 117.394 15.16 117.416 14.6575C117.432 14.155 117.545 13.7275 117.763 13.3675ZM149.393 15.505C149.318 15.1075 149.212 14.7325 149.069 14.4025C148.805 13.765 148.45 13.2625 148.013 12.88C147.56 12.4975 147.07 12.31 146.534 12.31H132.488V17.2075C132.488 17.6425 132.526 18.055 132.609 18.445C132.684 18.85 132.79 19.2175 132.933 19.5475C133.197 20.185 133.552 20.6875 133.989 21.07C134.442 21.46 134.932 21.655 135.468 21.655H149.514V16.7425C149.514 16.3075 149.476 15.895 149.393 15.505ZM146.692 17.3575V17.695C146.677 18.1375 146.564 18.52 146.345 18.835C146.127 19.135 145.87 19.285 145.569 19.285H142.581C142.378 19.285 142.189 19.3375 142.008 19.45C141.827 19.5475 141.669 19.6975 141.525 19.885C141.224 20.2825 140.892 20.5975 140.522 20.8225C140.145 21.0475 139.753 21.16 139.353 21.16H136.939C136.939 21.16 136.894 21.16 136.871 21.145C136.765 21.1375 136.675 21.115 136.592 21.0775C136.501 21.0475 136.418 21.0025 136.343 20.9425C136.335 20.9425 136.328 20.9425 136.328 20.9275H136.313V20.9125C136.313 20.9125 136.283 20.8975 136.267 20.8975C136.071 20.7175 135.92 20.485 135.815 20.1925C135.709 19.915 135.656 19.6075 135.649 19.27V14.7925C135.649 14.7025 135.649 14.62 135.656 14.545C135.656 14.455 135.656 14.365 135.679 14.275C135.709 14.11 135.747 13.945 135.8 13.7875C135.853 13.63 135.92 13.495 136.003 13.3675C136.003 13.36 136.011 13.345 136.026 13.3375C136.026 13.33 136.041 13.315 136.056 13.3075C136.056 13.3 136.056 13.285 136.079 13.2775C136.079 13.27 136.094 13.255 136.102 13.2475V13.2325H136.117C136.215 13.12 136.32 13.03 136.441 12.9475C136.569 12.88 136.705 12.835 136.856 12.8125H136.954C136.954 12.8125 137.014 12.7975 137.052 12.7975H139.33C139.737 12.7975 140.13 12.91 140.499 13.135C140.869 13.3675 141.201 13.6825 141.503 14.0725C141.638 14.26 141.797 14.41 141.978 14.5075C142.166 14.62 142.363 14.6725 142.566 14.6725H145.553C145.855 14.6725 146.112 14.8225 146.33 15.1225C146.549 15.4375 146.662 15.8125 146.677 16.2625V17.38L146.692 17.3575ZM111.321 12.9925C111.095 12.7825 110.846 12.61 110.575 12.49C110.311 12.3775 110.031 12.325 109.737 12.325H95.6989V17.2225C95.6989 18.0175 95.8271 18.7375 96.0836 19.3975C96.3476 20.0575 96.6871 20.5825 97.1095 20.9725C97.3433 21.1825 97.5923 21.355 97.8638 21.475C98.1279 21.5875 98.3994 21.64 98.6861 21.64H100.187C100.338 21.6475 100.451 21.655 100.527 21.655H100.753V21.1675H100.3C100.225 21.1675 100.15 21.1675 100.074 21.1525C99.6516 21.1225 99.3424 20.905 99.1387 20.5C98.935 20.0875 98.8445 19.645 98.8596 19.18V17.2225H100.089C100.142 17.215 100.195 17.2075 100.248 17.2075H110.401C110.59 17.2075 110.778 17.2375 110.967 17.305C111.163 17.38 111.336 17.4925 111.495 17.6425H111.51C111.804 17.92 112.053 18.2275 112.264 18.565C112.468 18.9025 112.626 19.2475 112.747 19.615V16.7425C112.739 15.9475 112.611 15.2275 112.355 14.5675C112.091 13.9075 111.751 13.3825 111.329 12.9925H111.321ZM109.926 16.69H98.8596V14.635C98.8747 14.215 98.9652 13.825 99.1387 13.465C99.3122 13.12 99.5611 12.895 99.893 12.7975C99.976 12.7975 100.067 12.7975 100.165 12.7825C100.255 12.775 100.346 12.7675 100.436 12.7675H102.654C103.039 12.79 103.408 12.91 103.77 13.135C104.132 13.345 104.457 13.645 104.751 14.035C104.887 14.2225 105.045 14.3725 105.234 14.47C105.415 14.5825 105.603 14.635 105.807 14.635H108.794C109.096 14.635 109.352 14.785 109.571 15.085C109.79 15.4 109.903 15.775 109.918 16.225V16.69H109.926Z" fill="#F27507"/>
</g>
<defs>
<clipPath id="clip0_3007_4152">
<rect width="148.598" height="33.3525" fill="white" transform="translate(0.916016 0.25)"/>
</clipPath>
</defs>
</svg>
