<svg xmlns="http://www.w3.org/2000/svg" width="46" height="46" fill="none" xmlns:v="https://vecta.io/nano"><g clip-path="url(#B)"><path d="M18.608 44.993c-.265 0-.425-.211-.478-.475-.053-.211 0-.422.053-.581s.159-.264.265-.37.212-.158.372-.211c.106-.053.212-.106.265-.211.106-.106.106-.264.106-.422v-.053c0-.264.053-.528.212-.739-.159-.475-.106-.951-.106-1.426 0-.37 0-.845-.106-1.32s-.053-.898-.053-1.32v-1.215c0-.053 0-.158.053-.211-.053-.053-.053-.106 0-.211-.053-.106-.106-.211 0-.317v-.211c0-.053.053-.053.053-.053v-.158c-.053-.106-.053-.211-.053-.264-.053-.053-.053-.106-.106-.106-.053-.053-.053-.106-.106-.106l-.159-.317c0-.106-.053-.211-.053-.317v-.317c0-.053-.053-.106-.053-.158-.053-.158-.106-.264-.106-.423v-.37c0-.106 0-.159.053-.264 0-.053.053-.106.106-.158 0-.053.053-.053.053-.106s.053-.106.053-.158 0-.053.053-.106a.73.73 0 0 1 .159-.211l.106-.106.053-.053c.053-.053.053-.158.053-.211a.64.64 0 0 1-.265-.264c-.106-.159-.106-.37-.053-.528.053-.106.053-.158.106-.264v-.317c.053-.211.212-.264.319-.37 0-.106.053-.264.053-.37v-.053c0-.106.053-.211.106-.317.053-.053.053-.106.106-.211-.053-.106-.053-.211-.053-.37h-.053c-.053 0-.159 0-.212-.053-.106-.053-.266-.106-.319-.211-.053-.053-.106-.106-.106-.159-.053-.053-.053-.106-.053-.158v.106c-.053.317-.106.687-.319.951 0 .053.053.106.053.211 0 .053 0 .106-.053.158 0 .053.053.106.106.106s.106.053.159.106c.106.106.106.211 0 .317-.053.106-.159.159-.319.159-.106 0-.212-.053-.265-.106h-.053v.106s0 .053.053.106h.159c.053 0 .106 0 .159.053s.159.053.159.159c.053.106 0 .158-.053.264-.159.264-.425.422-.903.475h-.106c-.159 0-.265 0-.425-.158-.106-.106-.212-.211-.319-.37a1.06 1.06 0 0 1-.159-.581c0-.106 0-.264.053-.37-.053 0-.053-.053-.053-.106-.053-.106-.053-.211-.053-.317 0-.053 0-.211.106-.317 0-.106-.053-.159-.053-.264v-.422c-.053-.106-.053-.211-.053-.264 0-.106 0-.159.053-.264l.159-1.109v-.159c0-.106.053-.159.053-.264-.053-.106 0-.211 0-.317.053-.106.053-.158.106-.211v-.106c0-.053 0-.158.053-.211v-.053a.76.76 0 0 1 .106-.37c.053-.053.053-.106.053-.158.053-.053.053-.159.053-.264V24.5c0-.106 0-.211.053-.317s.053-.211.106-.317c0-.053 0-.158-.053-.211 0-.053-.053-.159-.053-.211 0-.106 0-.211.053-.317 0-.053.053-.106.053-.158v-.317c0-.159 0-.264.053-.423v-.053c0-.264.159-.475.319-.634.053-.106.159-.211.212-.317l.159-.475.159-.528v-.106c0-.053 0-.106.053-.158a.73.73 0 0 1 .159-.211l.106-.106v-.106c-.053-.053-.053-.106-.053-.211-.053-.106-.053-.159 0-.211-.053-.106 0-.158 0-.211s0-.106.053-.158c0-.053 0-.106.053-.159 0-.053 0-.106.053-.106 0-.053 0-.106.053-.106 0-.053.053-.106.106-.159 0-.053.053-.106.106-.106 0-.053.053-.106.106-.159 0-.053.053-.106.106-.106 0-.053.053-.053.106-.106s.106-.106.159-.106c.053-.053.106-.053.159-.053.053-.053.106-.053.159-.053h.265c.053 0 .106 0 .159.053.035 0 .071.018.106.053 0-.053-.053-.106-.053-.158-.106-.053-.159-.106-.212-.264-.053-.106-.053-.423-.053-.581v-.053c0-.106 0-.264.053-.37.053-.053.106-.159.212-.159a.73.73 0 0 1 .159-.211c.053-.528.212-1.004.531-1.373a2.54 2.54 0 0 1 1.912-.898c.266 0 .531.053.797.106.478.158.85.423 1.115.792.266.317.425.739.478 1.215.053 0 .053.053.106.106.265.053.319.317.319.581 0 .317-.053.528-.212.581-.053.106-.106.211-.212.211-.053.158-.106.317-.212.422.053.053.106.159.106.264 0 .053 0 .106-.053.159.106.106.106.211.106.317h.106a.48.48 0 0 1 .265.053c.159.053.319.106.531.211h.053c.212.106.584.317.584.581.212.106.372.264.531.423v.053l.159.317v.053c.106.159.212.37.212.528 0 .106.053.211.053.37 0 .106 0 .211.053.317.053.158.106.317.265.475l.053.053c.106.158.265.37.265.581v.106c0 .053 0 .106.053.106v.211c0 .053 0 .106.053.106v.106c.053.264 0 .528-.106.792 0 .053.053.106.053.106a1.4 1.4 0 0 1 .159.634v.106c0 .158.053.264.106.422v.053c.053.106.106.264.106.37 0 .159 0 .264-.053.37.053.106.053.211 0 .37.053.053.053.158.106.211v.106c.159.053.212.211.212.317.053.106.053.211.053.317v.264c0 .053.053.106.053.211.053.106.106.211.053.37 0 .106-.106.264-.212.317v.264c0 .053-.053.106-.053.159.053.106 0 .158 0 .317 0 .053-.053.106-.053.106 0 .106 0 .264.053.37.053.211.106.423 0 .634a.9.9 0 0 1-.531.687c-.106.053-.212.106-.319.106h-.319c-.212 0-.372-.106-.372-.317s.159-.37.319-.475c.035 0 .071-.018.106-.053 0-.053.053-.106.053-.158v-.053c-.053.106-.159.158-.265.211a.48.48 0 0 1-.266.053c-.106 0-.159-.053-.212-.106-.159-.158 0-.422.053-.528 0-.053.053-.106.106-.158 0-.053.053-.106.106-.106 0-.035.018-.07.053-.106v-.106c-.106-.106-.212-.264-.159-.422l-.106-.106c-.053-.106-.106-.211-.106-.317v-.422s0-.053-.053-.106c-.053-.106-.053-.211-.106-.317v-.106c0-.106 0-.211-.053-.264 0-.053-.053-.106-.053-.158 0 .106-.053.211-.106.264.053.053.106.158.106.317v.528c0 .159-.053.317-.106.475.212.211.212.475.212.739v.528c0 .158.053.317.106.475a5.82 5.82 0 0 1 .106 1.004c.265.106.425.264.531.475.053.106.053.264.106.37v1.426c-.053.37-.212.528-.425.634v.264c0 .053-.053.106-.106.158v.159c.053.053.053.106.053.158s0 .106-.053.106c.053.106.106.211.053.317v.053.158c0 .035-.018.07-.053.106.159.158.106.422.106.634v.951c0 .211 0 .475-.053.687 0 .106-.053.264-.053.37 0 .264 0 .581.053.845v.739c-.053.159-.053.317-.053.423v.528c0 .053 0 .159-.053.211 0 .106-.053.159-.053.264 0 .158.053.317.053.475.053.158.106.317.106.528 0 .159 0 .37-.053.475.212.158.265.422.319.634.053.264-.053.475-.212.581a1.64 1.64 0 0 1-.69.158h-.053c-.319.053-.584.053-.797.053s-.372 0-.531-.053c-.319-.053-.531-.211-.584-.475-.053-.158-.053-.37 0-.581-.053-.106-.053-.211 0-.317v-.106-.951c0-.053 0-.106.053-.158-.159-.159-.159-.37-.212-.581v.422l-.159-.898v-.053c-.106-.581-.212-1.162-.106-1.743v-.159c0-.158.053-.317 0-.422 0-.053-.053-.106-.053-.106s-.053-.053-.053-.106c-.053-.106-.053-.211-.053-.317v-.317c0-.106-.053-.264-.053-.37-.053-.158 0-.317.053-.423 0-.053-.053-.106-.053-.158-.053-.053-.106-.106-.053-.264-.053-.053-.106-.158-.053-.264-.053-.106-.106-.158-.053-.264-.106-.053-.159-.158-.212-.264s-.053-.211-.106-.264l-.159-.423c-.106-.264-.159-.528-.212-.792v-.106c0-.106 0-.211-.053-.264 0-.053-.053-.106-.106-.159l-.053-.053c-.053.211-.053.422-.053.634v.158c0 .158 0 .317-.053.422 0 .106-.053.211-.053.264s-.053.106-.053.158v.053c-.106.106-.106.211-.106.37v.106.264c0 .106-.053.211-.053.317 0 .053-.053.106-.106.158v.106c0 .053-.053.106-.053.106v.106c0 .106-.053.158-.106.211.053.053.053.106 0 .211 0 .053-.053.106-.106.158 0 .053 0 .106-.053.159.106.158.053.422.053.581-.053.264-.053.528-.106.739s-.053.475-.106.739c0 .211 0 .475-.053.739 0 .106-.053.211-.053.317s-.053.264-.053.422v1.637c0 .106 0 .317-.159.423.106.317.159.687.053 1.162.106.211.106.423.053.739 0 .106-.053.211-.159.317s-.212.106-.372.158l-2.761-.053zm.743-18.539c0 .106 0 .211-.053.264 0 .035-.018.07-.053.106.053 0 .106-.053.106-.053l.053-.053c0-.106-.053-.264-.053-.37.035.035.035.07 0 .106zm-.743 18.486c-.265 0-.425-.158-.478-.423-.053-.211 0-.37.053-.581.053-.106.159-.264.265-.37s.212-.158.372-.211c.106-.053.212-.106.265-.211.106-.106.106-.264.106-.422v-.053c0-.264.053-.528.212-.739-.159-.475-.159-.951-.106-1.426 0-.37 0-.845-.106-1.32s-.053-.898-.053-1.32v-1.215c0-.053.053-.158.053-.211-.053-.053-.053-.106 0-.211-.106-.106-.106-.211 0-.317 0-.053-.053-.158 0-.211 0-.053.053-.053.053-.053v-.158c-.053-.106-.053-.211-.106-.264s-.053-.106-.106-.158-.053-.106-.106-.106c-.053-.106-.106-.158-.159-.317 0-.106-.053-.159-.053-.317v-.317c0-.053-.053-.106-.053-.159-.053-.158-.106-.264-.106-.422v-.37c0-.106 0-.158.053-.264 0-.053.053-.106.106-.158 0-.053.053-.053.053-.106s.053-.106.053-.158 0-.053.053-.106c.053-.106.106-.158.159-.211.035-.035.071-.053.106-.053.053 0 .053-.053.106-.053.053-.053.106-.158.106-.264-.106-.053-.212-.158-.319-.264-.106-.159-.106-.37-.053-.528.053-.106.053-.211.106-.264v-.317c.053-.211.159-.264.319-.317 0-.159.053-.264.053-.37v-.053c0-.106.053-.211.106-.264a.4.4 0 0 0 .106-.211c-.053-.106-.053-.211-.053-.37h-.106c-.053 0-.159 0-.212-.053-.106-.053-.212-.106-.265-.211-.053-.053-.106-.106-.106-.158-.053-.106-.106-.159-.106-.264v.211c-.053.317-.106.687-.319.951 0 .053.053.106.053.211 0 .053 0 .106-.053.159.053.053.053.106.106.106s.106.053.159.106c.053.106.106.211 0 .317-.053.106-.159.106-.265.106s-.212-.053-.265-.106h-.053v.159c0 .053 0 .106.106.106.053 0 .106-.053.159-.053s.106 0 .159.053c.053 0 .159.053.159.159.053.106 0 .158-.053.264-.159.264-.425.422-.85.422h-.106c-.159 0-.266 0-.372-.106s-.212-.211-.265-.37a1.06 1.06 0 0 1-.159-.581c0-.106 0-.264.053-.37-.053 0-.053-.053-.106-.106-.053-.106-.053-.211-.053-.317s.053-.264.106-.317c0-.106-.053-.211-.053-.264v-.422c-.053-.106-.053-.211-.053-.264s0-.159.053-.264l.159-1.109v-.159c0-.106.053-.211.053-.264-.053-.106 0-.211 0-.317.053-.106.053-.158.106-.211v-.106c0-.053 0-.158.053-.211v-.053a.76.76 0 0 1 .106-.37c.053-.053.053-.106.053-.158.053-.053.053-.159.053-.264V24.5c0-.106 0-.211.053-.317s.053-.211.106-.317c0-.053 0-.158-.053-.211 0-.053-.053-.159-.053-.211 0-.106 0-.211.053-.317 0-.053.053-.106.053-.158v-.317c0-.159 0-.264.053-.423v-.053c0-.264.159-.475.319-.634.053-.106.159-.211.212-.317l.159-.475.159-.528v-.106c0-.053 0-.106.053-.158a.73.73 0 0 1 .159-.211l.106-.106c0-.053-.053-.053 0-.106 0-.053-.053-.106-.053-.159-.053-.106-.053-.158 0-.211-.053-.106 0-.158 0-.158 0-.053 0-.106.053-.159 0-.053 0-.106.053-.158 0-.053 0-.106.053-.106 0-.053 0-.106.053-.106 0-.053.053-.106.106-.158 0-.053.053-.106.106-.106 0-.053.053-.106.106-.158 0-.053.053-.106.106-.106 0-.053.053-.053.106-.106s.106-.106.159-.106c.053-.053.106-.053.159-.053.053-.053.106-.053.159-.053h.266c.053 0 .106 0 .159.053.053 0 .106.053.159.053-.053-.106-.106-.159-.106-.264-.106-.053-.159-.106-.212-.264-.266-.106-.266-.423-.266-.528v-.053c0-.106 0-.264.053-.37.053-.053.106-.106.212-.158.053-.106.106-.159.159-.211 0-.528.212-1.004.531-1.373.425-.528 1.168-.845 1.912-.845.265 0 .531.053.796.106.478.159.85.422 1.115.792.265.317.425.739.478 1.215l.106.106c.265.053.265.317.319.528 0 .317-.053.528-.212.581-.053.106-.106.211-.212.211-.053.159-.106.317-.212.422.053.053.159.159.106.264 0 .053 0 .106-.053.159.106.106.159.211.106.37h.106a.48.48 0 0 1 .265.053c.159.053.319.106.531.211h.053c.212.106.584.317.584.581.212.106.425.264.531.422l.159.317v.053c.106.159.212.37.212.528 0 .106.053.211.053.37 0 .106 0 .211.053.317.053.211.106.317.265.475l.053.053c.106.158.265.37.265.581v.106c0 .053 0 .106.053.159v.211c0 .053 0 .106.053.106v.106c.053.264 0 .528-.106.792 0 .053.053.106.053.106.106.211.106.422.159.634v.106c0 .159.053.264.106.422v.053c.053.106.106.264.106.37 0 .158 0 .264-.053.37.053.106.053.211 0 .37.053.053.053.159.106.211v.106c.159.053.212.211.212.317.053.106.053.211.053.317v.264c0 .053.053.159.053.211.053.106.106.211.053.317 0 .106-.106.264-.212.317v.264c0 .053-.053.106-.053.158.053.053.053.159 0 .317 0 .053-.053.106-.053.106 0 .106 0 .264.053.37.053.211.106.422 0 .634-.053.317-.266.528-.531.687-.106.053-.212.106-.319.106h-.265a.35.35 0 0 1-.372-.264c0-.211.159-.37.319-.422.053 0 .106 0 .106-.053s.053-.106.053-.159v-.106c-.053.106-.159.159-.265.264a.48.48 0 0 1-.266.053c-.106 0-.159-.053-.212-.106-.106-.159 0-.37.053-.528 0-.053.053-.106.106-.159s.053-.106.106-.106c0-.053 0-.106.053-.106v-.106c-.106-.106-.212-.317-.159-.423l-.106-.106c-.053-.106-.106-.159-.106-.264v-.422s0-.053-.053-.106c-.053-.106-.053-.211-.106-.317v-.106c0-.106 0-.211-.053-.264a.4.4 0 0 0-.106-.211c0 .106-.053.264-.106.37.053.053.106.158.106.317v.528c0 .159-.053.317-.106.528.212.158.212.475.212.739v.528c0 .159.053.37.106.528.053.317.106.634.106 1.003.265.106.425.264.531.475.053.106.053.264.106.37v1.479c-.053.37-.212.528-.425.634v.264c0 .053-.053.106-.106.159v.211c.053.053.053.106.053.159s0 .106-.053.106c.053.106.106.211.053.317v.053.158c0 .053-.053.053-.053.106.159.159.106.423.106.634v1.004c0 .211 0 .475-.053.687 0 .106-.053.264-.053.37 0 .264 0 .581.053.845v.739c-.053.158-.053.317-.053.475v.528c0 .053 0 .159-.053.211 0 .106-.053.158-.053.264 0 .158.053.317.053.475.053.159.106.317.106.475s0 .37-.053.475c.212.158.265.423.319.634.053.264-.053.475-.212.581-.212.106-.425.159-.69.159h-.053c-.319.053-.584.053-.797.053s-.372 0-.531-.053c-.319-.053-.478-.211-.531-.475-.053-.158-.053-.37 0-.581-.053-.106-.053-.211 0-.317v-.106-.951c0-.053 0-.106.053-.159-.159-.158-.159-.37-.212-.581v-.053l-.159-.898v-.053c-.106-.581-.212-1.162-.106-1.743v-.159c.053-.158.053-.317 0-.422 0-.053-.053-.106-.053-.106 0-.053-.053-.053-.053-.106-.053-.106-.053-.211-.053-.317v-.317c0-.106-.053-.264-.053-.37a.41.41 0 0 1 .106-.422c-.053-.053-.053-.106-.053-.211-.053-.053-.106-.106-.053-.264-.053-.053-.053-.158 0-.264-.053-.106-.106-.211-.053-.264-.106-.053-.159-.158-.212-.264s-.053-.159-.106-.264l-.159-.423c-.106-.264-.159-.528-.212-.792v-.106c0-.106 0-.211-.053-.264 0-.053-.053-.106-.106-.159l-.053-.053c-.106.211-.106.422-.106.687v.159c0 .158 0 .317-.053.422 0 .106-.053.211-.053.264s0 .106-.053.158v.053c-.053.106-.053.264-.053.37v.37c0 .106-.053.211-.053.317 0 .053-.053.106-.106.158v.106c0 .035-.018.07-.053.106v.159c0 .106-.053.158-.106.211.053.053.053.106 0 .211 0 .053-.053.106-.106.158 0 .053 0 .106-.053.211.106.158.053.423.053.581-.053.264-.053.528-.106.739s-.053.475-.106.739c0 .211 0 .475-.053.739 0 .106-.053.211-.053.317s-.053.264-.053.422v.687-.159.845c0 .106 0 .37-.159.422.106.264.159.634.053 1.162v.053c.106.211.106.422.053.739 0 .106-.053.211-.159.317s-.212.106-.319.106h-2.921zm.743-18.486c0 .106 0 .211-.053.264 0 .053-.053.158-.053.211.053-.053.106-.106.212-.158l.053-.053c-.053-.211-.053-.423-.053-.634 0 .035-.018.071-.053.106 0 .106 0 .158-.053.264zm.531-7.658c.106 0 .106-.053.159-.106s.106-.053.159-.106c0 0-.053.053-.106.053h-.053c-.053.106-.106.158-.159.158zM18.608 44.94c-.212 0-.372-.158-.425-.423-.053-.211 0-.37.053-.528.053-.106.159-.264.265-.37s.212-.158.372-.211a1.11 1.11 0 0 0 .319-.211c.106-.106.106-.264.106-.422v-.053c0-.264.053-.528.212-.739-.159-.475-.159-.951-.106-1.426 0-.37 0-.845-.106-1.32s-.053-.898-.053-1.32v-1.215c0-.106.053-.158.106-.211-.053-.053-.053-.158 0-.211-.106-.106-.106-.211-.053-.264 0-.053-.053-.106 0-.158 0-.053.053-.053.053-.053v-.159c-.053-.106-.053-.211-.106-.264s-.106-.106-.106-.158c-.053-.053-.053-.106-.106-.106-.053-.106-.106-.158-.159-.264 0-.106-.053-.159-.053-.317v-.37c0-.106-.053-.106-.053-.158a.99.99 0 0 1-.106-.422v-.37c0-.106 0-.158.053-.264 0-.053.053-.106.106-.158 0-.053.053-.053.053-.106s.053-.106.053-.159 0-.053.053-.106c.053-.106.106-.159.106-.211 0 0 .053-.053.106-.053s.053-.053.106-.053c.053-.106.106-.211.106-.317-.106-.053-.212-.106-.319-.264s-.106-.317-.053-.528c.053-.106.106-.211.106-.317v-.317c.053-.211.159-.264.319-.317 0-.158.053-.264.053-.37v-.053c0-.106.053-.211.106-.264a.4.4 0 0 0 .106-.211c-.053-.106-.053-.211-.053-.37v-.053h-.106c-.053 0-.106 0-.212-.053s-.212-.106-.266-.159-.106-.106-.106-.158c-.106-.106-.106-.264-.106-.423 0 .106-.053.159-.053.264v.159c-.053.317-.106.687-.319.951.053.053.053.106.053.211 0 .053 0 .106-.053.159 0 .053.053.106.106.158.053 0 .106.053.106.106.053.053.053.158 0 .264-.053.053-.159.106-.266.106s-.212-.053-.265-.106h-.159v.158c0 .106.053.106.159.159.053 0 .106-.053.159-.053s.106 0 .159.053c.053 0 .106.053.159.158 0 .106 0 .159-.053.211-.159.264-.425.423-.85.423h-.106c-.159 0-.265 0-.372-.106s-.212-.159-.265-.317a1.06 1.06 0 0 1-.159-.581c0-.106 0-.264.053-.37-.035 0-.071-.035-.106-.106-.053-.106-.053-.211-.053-.317s.053-.264.106-.264c-.053-.106-.053-.211-.053-.264v-.423c-.053-.053-.053-.158-.053-.264v-.211c0-.053 0-.159.053-.211l.159-1.109v-.159c0-.106.053-.158.053-.264-.053-.106-.053-.158 0-.317.053-.106.053-.158.106-.211v-.159c0-.053 0-.158.053-.158v-.053c0-.158.053-.264.106-.317s.053-.106.106-.158c.053-.106.053-.159.053-.264v-.106c0-.106 0-.211.053-.317s.053-.211.106-.317c0-.106 0-.159-.053-.264 0-.053-.053-.159-.053-.211 0-.106 0-.211.053-.317 0-.053.053-.106.053-.158v-.317c0-.159 0-.264.053-.423v-.053c0-.264.159-.422.265-.634.053-.106.159-.211.212-.317l.159-.475.159-.528v-.159c0-.053 0-.106.053-.106.053-.106.106-.158.159-.211l.159-.158v-.106c-.053-.053-.053-.106-.053-.159-.053-.106-.053-.158 0-.211-.053-.106 0-.158 0-.158v-.159c0-.053 0-.106.053-.158 0-.053 0-.106.053-.106 0-.053 0-.106.053-.106 0-.053.053-.106.106-.158 0-.106.053-.106.106-.106 0-.106.053-.106.106-.158 0-.106.053-.106.106-.106 0-.053.053-.053.106-.106s.106-.106.159-.106c.053-.053.106-.053.159-.053.053-.053.106-.053.159-.053h.265c.053 0 .106 0 .159.053.053 0 .106.053.159.053h.053c.106-.106.053-.211.053-.317-.106-.053-.159-.106-.212-.264-.265-.106-.265-.37-.265-.528v-.053c0-.106 0-.264.053-.317s.106-.106.212-.158c.053-.106.106-.159.159-.211 0-.528.212-1.004.531-1.373.425-.528 1.168-.845 1.858-.845.266 0 .531.053.797.106.425.159.85.422 1.115.792.266.317.425.739.478 1.215.053.053.106.053.106.106.212.053.265.317.319.528 0 .317-.053.528-.212.528-.053.106-.106.211-.212.211-.053.158-.106.317-.212.475.053.053.159.159.159.264 0 .053 0 .106-.106.159.106.106.159.264.106.37h.159a.48.48 0 0 1 .265.053c.159.053.319.106.531.211h.053c.212.106.531.317.531.581.212.106.425.264.531.422l.159.317v.053c.106.159.212.37.265.528 0 .106.053.211.053.37 0 .106 0 .211.053.317.053.211.106.317.265.475l.053.053c.106.158.212.37.265.581 0 .035-.018.053-.053.053 0 .053.053.106.053.158v.211c0 .053 0 .106.053.159v.106c.053.264 0 .528-.159.792 0 .053.053.106.053.159.106.211.106.422.159.634v.106c0 .159.053.264.106.423v.053c.053.106.106.264.106.37 0 .158 0 .264-.053.37.053.106.053.211 0 .37.053.053.053.159.106.211 0 .053 0 .106.053.159.159 0 .159.158.212.317.053.106.053.211.053.317v.264c0 .053.053.159.053.211.053.106.053.211.053.317s-.106.264-.212.264v.264c0 .053-.053.106-.053.158.053.053.053.159 0 .317 0 .053-.053.106-.106.106 0 .158 0 .264.053.423.053.211.106.422 0 .634-.053.264-.266.528-.531.687-.106.053-.212.053-.319.106h-.212c-.212 0-.319-.106-.319-.264 0-.211.159-.37.265-.423.053 0 .106-.053.159-.053 0-.053.053-.106.053-.158s0-.106-.053-.159a.64.64 0 0 1-.266.264.48.48 0 0 1-.265.053c-.106 0-.159 0-.212-.106-.106-.159 0-.37.053-.475 0-.053.053-.106.106-.158 0-.053.053-.106.106-.106 0-.053.053-.106.053-.106v-.106c-.106-.106-.212-.264-.159-.423-.053-.053-.106-.106-.106-.158-.053-.106-.106-.159-.106-.264v-.423s0-.053-.053-.106c-.053-.106-.053-.211-.106-.317v-.106c0-.106 0-.211-.053-.264a.4.4 0 0 0-.106-.211c0-.053-.053-.053-.053-.106v.106c0 .106-.053.264-.106.422.053.053.106.158.106.317v.528c0 .158-.053.317-.159.528.212.159.212.475.212.739v.528c0 .159.053.37.106.528.053.317.106.634.106 1.056.266.106.425.264.531.475.053.106.053.264.106.37v1.426c-.053.37-.212.528-.425.634v.264c0 .053-.053.106-.106.158v.211c.053.053.053.106.053.158s0 .106-.053.106c.053.053.106.158.053.264v.264c0 .053-.053.053-.053.106.159.158.159.422.106.634v1.004c0 .211 0 .475-.053.687 0 .106-.053.264-.053.37 0 .264 0 .581.053.845v.739c-.053.158-.053.317-.053.475v.475c0 .053 0 .159-.053.211 0 .106-.053.159-.053.264 0 .158.053.317.053.475.053.158.106.317.106.475s0 .37-.053.528c.212.158.265.422.319.581.053.264-.053.423-.212.528a1.42 1.42 0 0 1-.637.159h-.053c-.319.053-.584.053-.797.053s-.372 0-.531-.053c-.265-.053-.478-.211-.531-.423-.053-.158-.053-.37 0-.581-.053-.106-.053-.211 0-.317v-.106-.951c0-.053 0-.106.053-.158-.159-.158-.159-.37-.212-.581v-.159l-.159-.898v-.053c-.106-.581-.212-1.162-.106-1.743v-.159c.053-.158.053-.317 0-.422 0-.053-.053-.106-.053-.106 0-.053-.053-.053-.053-.106-.053-.106-.053-.211-.053-.264v-.317c0-.106-.053-.264-.053-.37a.41.41 0 0 1 .106-.422c-.053-.053-.053-.159-.053-.211-.053-.053-.106-.106-.053-.264l-.053-.053c-.053-.053-.053-.158 0-.211-.106-.106-.106-.211-.053-.317-.106-.053-.159-.158-.212-.264s-.053-.158-.106-.264l-.159-.423c-.106-.264-.159-.528-.212-.792v-.106c0-.106 0-.211-.053-.264 0-.053-.053-.106-.106-.158s-.106-.053-.106-.106c-.106.211-.106.475-.106.687v.158c0 .159 0 .264-.053.423 0 .106-.053.158-.053.264 0 .053 0 .106-.053.158v.053c0 .211-.053.317-.053.423v.37c0 .106-.053.211-.053.317s-.053.106-.106.158v.106c0 .035-.018.07-.053.106v.053.106c0 .106-.053.158-.106.211 0 .053.053.106 0 .158 0 .053-.053.106-.106.158 0 .053 0 .106-.053.211.106.158.053.422.053.581-.053.264-.053.528-.106.739s-.053.475-.106.739c0 .211 0 .475-.053.739 0 .106-.053.211-.053.317s-.053.264-.053.422v1.637c0 .106 0 .37-.159.423v.053c.106.264.159.634.053 1.162v.053c.106.211.106.422.053.687 0 .106-.053.211-.159.317s-.212.106-.319.106l-2.814-.158zm.69-18.486c0 .106 0 .211-.053.264-.053.106-.053.211-.106.317h.053c.053-.106.106-.159.212-.159 0-.053.053-.053.106-.053-.053-.264-.106-.581-.053-.845 0 .053-.053.053-.053.106s0 .159-.053.211c.053 0 0 .053-.053.159zm.478-7.553c.053 0 .106 0 .106-.053.053-.053.106-.053.159-.106.106-.053.159-.106.266-.159h-.106l-.053.053h-.106s-.053.053-.106.053c0 0 0 .053-.053.053-.035.07-.071.123-.106.158.035-.035.035-.035 0 0zm9.346 8.715v-.264c0-.053 0-.211-.053-.264-.053-.106-.053-.317-.212-.317 0-.053 0-.106-.053-.159a.4.4 0 0 0-.106-.211.45.45 0 0 0 0-.37c.053-.106.106-.211.053-.37 0-.158-.053-.264-.106-.422s-.106-.264-.106-.423c0-.264 0-.528-.159-.739-.053-.053-.053-.106-.053-.158.159-.211.212-.475.159-.739 0-.053-.053-.158-.053-.211v-.264c0-.053 0-.106-.053-.159 0 0 .053 0 .053-.053-.053-.211-.159-.422-.265-.581s-.265-.317-.319-.581c-.053-.211 0-.422-.053-.634s-.106-.37-.265-.528v-.053l-.159-.317c-.159-.158-.319-.317-.531-.422.053-.264-.372-.475-.584-.581-.159-.106-.319-.158-.531-.211-.106 0-.159-.053-.265-.053-.053 0-.106 0-.159.053.106-.158.053-.317-.106-.422.159-.158.053-.317-.053-.422.106-.159.212-.317.265-.475.106-.053.159-.106.212-.211.212-.053.212-.37.212-.528 0-.211-.053-.475-.265-.528-.053-.053-.053-.106-.106-.106a2.66 2.66 0 0 0-.478-1.215c-.265-.37-.637-.634-1.115-.792-.956-.317-2.018-.053-2.655.739-.319.422-.531.898-.531 1.373-.106.053-.159.106-.159.211-.106 0-.159.053-.212.158s-.053.264-.053.37c0 .211 0 .475.265.528.053.106.106.211.212.264.053.159.106.317.212.423-.053-.053-.106-.053-.159-.106s-.106-.053-.159-.053h-.053c-.053-.053-.159-.053-.212-.053s-.106-.053-.159 0c-.053 0-.106 0-.212.053-.053 0-.106 0-.159.053-.053 0-.106 0-.159.106-.053 0-.106.053-.106.106-.053 0-.106.053-.106.106-.053 0-.106.053-.106.159-.053 0-.106.053-.106.106-.053 0-.053.106-.053.106-.035.035-.053.07-.053.106-.053 0-.053.053-.053.106-.053.053-.053.106-.053.158-.053.053-.053.106 0 .159-.053.053-.053.106 0 .159-.053.053 0 .106 0 .211-.053.053 0 .106 0 .159l.053.053v.106s0 .053.053.053l-.159.159c-.053.053-.159.158-.212.264 0 .053-.053.053 0 .106 0 .053.053.106 0 .159-.159.317-.159.634-.319.951s-.478.528-.478.951c-.053.264-.053.475-.053.739 0 .159-.106.317-.106.475s.106.317.106.475c-.053.106-.106.211-.106.317-.053.106-.053.211-.053.317s0 .211-.053.317c-.053.159-.212.264-.212.475v.106c-.053.053-.053.106-.053.158v.159c-.053 0-.106.106-.106.211-.053.106-.053.211 0 .264 0 .106-.053.158-.053.264v.159c-.053.37-.159.739-.159 1.162-.053.053-.053.158-.053.264s0 .159.053.264c-.053.106 0 .317 0 .423s0 .211.053.317c-.106 0-.159.158-.159.264s0 .211.053.317c0 .053.053.053.106.053-.265 0-.265.158-.265.264a.89.89 0 0 0 .159.528c.053.159.159.264.319.37s.265.106.425.106c.319 0 .637-.106.797-.423.053-.053.053-.106.053-.211 0-.053-.106-.106-.159-.106-.106-.053-.212-.053-.265 0-.106 0-.159-.053-.159-.158v-.211h.159a.3.3 0 0 0 .478 0c.053-.053.053-.158 0-.211l-.106-.106c-.106-.053-.106-.106-.159-.158 0-.053.053-.106.053-.159s0-.158-.053-.211c.212-.317.319-.792.372-1.109.053-.159.053-.317.106-.475v.159c0 .158 0 .317.106.422.053.053.053.106.106.159.053.106.159.158.265.158.106.053.266.106.319 0v.106c0 .106 0 .264.053.37-.053.106-.053.158-.106.264s-.053.211-.106.317c0 .106-.053.264-.053.37-.159.053-.265.106-.319.317v.264c0 .106-.053.211-.106.317a.51.51 0 0 0 .053.475c.053.106.159.264.319.264 0 .106 0 .264-.106.317-.053.053-.106.106-.159.106s-.159.264-.159.317c-.053.106-.053.211-.106.264-.053.106-.106.158-.159.264s-.053.158-.053.264v.317c0 .211.106.37.159.581.053.106 0 .211 0 .317s0 .211.053.317.106.211.159.264c.053.106.159.158.212.264 0 .106.053.211.106.317v.211c-.106.053-.106.158-.053.211v.053c-.053.106-.053.211.053.264-.053.106 0 .158.053.211-.053.053-.053.158-.106.211v1.215l.053 1.32.106 1.32c0 .475 0 .951.159 1.426-.159.211-.159.528-.212.792 0 .158-.053.317-.106.475-.053.106-.212.158-.319.211s-.266.106-.372.211-.212.211-.265.317c-.053.158-.106.37-.053.528.053.211.159.37.372.423h2.814c.106 0 .212-.053.319-.106s.106-.158.159-.264c.053-.211.053-.475-.053-.687v-.053c.053-.37.106-.792-.053-1.109 0 0 0-.053-.053-.053.159-.053.159-.317.159-.422v-1.637c0-.211.106-.475.106-.687s.053-.475.053-.687c0-.264.053-.475.106-.739s.106-.475.106-.739c0-.159.053-.423-.053-.581.053-.106.106-.159.053-.211.106-.053.159-.211.106-.317 0 0 0-.053-.053-.053.106-.053.159-.211.106-.317l.053-.053c0-.053.053-.053.053-.053v-.106c.053-.053.106-.106.106-.158 0-.106.053-.211.053-.317v-.37a.99.99 0 0 1 .106-.423c.053-.158.053-.317.106-.422.053-.158.053-.264.053-.422 0-.317 0-.581.106-.898.053 0 .106.053.159.106s.053.106.106.158c.053.106.053.264.053.423.053.264.106.528.212.739l.159.423c0 .106.053.211.106.317a.64.64 0 0 0 .265.264c-.053.106-.053.211.053.317-.053.053-.053.158 0 .211l.053.053c-.053.106-.053.211.053.264-.053.053 0 .159.053.211-.106.106-.106.264-.106.422 0 .106.053.211.053.37v.317c0 .106 0 .159.053.264s.106.159.106.211c.053.158 0 .422-.053.581-.106.581.053 1.215.159 1.796l.159.898c.053.211.053.423.212.634-.053.053-.053.106-.053.159v.211c0 .106-.053.158-.053.264v.475c0 .158-.053.317 0 .422-.053.159 0 .37 0 .581.053.264.265.37.478.422a5.57 5.57 0 0 0 1.328 0c.212-.053.478-.053.69-.158.159-.106.212-.317.212-.528s-.106-.423-.319-.581c.053-.158.053-.37.053-.528 0-.317-.159-.634-.159-.951 0-.159.053-.317.053-.475v-.475c0-.159 0-.37.053-.528a.73.73 0 0 0 0-.475c-.053-.37-.106-.687-.053-1.056s.106-.687.106-1.056c0-.317-.053-.634 0-.898 0-.211.053-.475-.106-.634l.106-.106v-.158s0-.053.053-.053c.053-.106 0-.211-.053-.264 0-.053.053-.053.053-.106s0-.106-.053-.158c0-.053 0-.106.053-.106v-.106c.053-.053.106-.106.106-.158v-.317c.265-.106.372-.37.425-.581.053-.317 0-.634.053-.951 0-.053.053-.159 0-.211v-.158c0-.158-.053-.317-.106-.475-.106-.264-.265-.37-.531-.475 0-.37 0-.687-.106-1.056-.053-.158-.106-.317-.106-.528v-.528c0-.264 0-.581-.212-.739.106-.159.106-.317.106-.475v-.528c0-.106-.053-.264-.106-.317.106-.106.106-.264.106-.422v-.158c.053.158.159.264.212.422.053.106.053.264.053.422s.053.264.106.423 0 .264 0 .422c0 .106.053.158.106.264l.159.158c-.106.106.053.317.159.423-.053.106 0 .158-.053.264s-.106.159-.159.264-.212.37-.106.475.265.053.425 0a.54.54 0 0 0 .265-.317c.053.053.106.158.053.211 0 .053-.053.158-.053.211-.053 0-.106 0-.159.053-.159.053-.265.211-.265.37s.159.211.319.211h.265c.106 0 .212 0 .266-.106.265-.159.425-.37.531-.687.106-.37-.053-.687-.053-1.004l.106-.106c.053-.106.053-.211 0-.264l-.106-.528v-.264c.106-.053.212-.159.212-.264.053-.159-.106-.37-.106-.528l-.106.053zm-8.974-9.032h.265c-.159.053-.319.211-.478.317-.053.053-.106.053-.159.106v-.106l.053-.053.053-.053c.035 0 .071-.018.106-.053v-.053h.053l.053-.053c0-.053.053-.053.053-.053zm-.903 8.134c.053-.106.053-.211.053-.317a.4.4 0 0 0 .106-.211c.053-.053.053-.159 0-.211.053-.053.106-.106.106-.158-.053.317-.053.634.053.951-.053 0-.106.053-.106.106-.106 0-.159.106-.212.159-.053 0-.106.053-.159.106.053-.106.106-.264.159-.422zM3.262 34.641C-4.384 20.275 4.271 4.694 20.945 3.109c4.514-.423-2.23-.475-3.08-.37-7.062.739-12.425 4.489-16.196 10.194C11.44-2.648 33.423-2.172 40.91 14.465c1.752 3.856-.372-2.218-.69-2.905C37.034 5.063 31.193 1.313 24.078.099c18.532 3.011 26.178 22.553 12.903 35.968-3.027 3.063 1.965-1.109 2.549-1.69 6-6.285 6.637-14.419 3.717-22.183 1.752 2.324 2.23 9.507 1.699 12.57-2.071 12.465-13.54 19.225-26.125 16.901-4.407-.792 1.805.898 2.974 1.056 10.992 1.532 19.966-4.648 23.789-14.472-6.478 18.961-32.391 21.021-41.099 2.482-1.062-2.271.85 2.588.903 2.747 4.779 9.824 15.983 13.257 26.391 10.405-19.912 5.916-36.48-12.518-27.028-30.106 1.859-3.486-.478.053-.956.951-5.204 9.137-2.867 18.697 4.301 26.092-2.071-2.007-3.345-3.644-4.832-6.18zm7.434-25.299c2.071-1.268 5.682-3.063 8.231-2.641-.478.37-4.514 1.637-6.372 2.799-9.133 5.546-10.832 16.637-4.938 25.194-3.345-5.493-4.301-11.937-.85-17.641 1.805-2.958-.425 2.746-.584 3.327-2.496 10.986 6.319 20.863 17.735 21.074 2.177.053-1.965-.264-2.602-.37-4.036-.792-7.806-2.852-10.248-6.127-1.859-2.535 3.133 1.796 3.398 1.954 9.558 6.391 21.93 2.113 26.656-7.87.956-2.007-1.062 1.743-1.54 2.377-1.805 2.429-4.991 5.229-8.071 5.915-2.336.528 2.814-2.429 3.292-2.852 8.761-6.972 8.284-20.123-.159-27.253 3.558 3.75 5.947 7.817 5.469 13.099-.212 2.482-.903-2.641-1.062-3.116C36.291 6.806 25.193 1.525 14.785 5.011c-2.867.951 2.018-.475 3.027-.634 5.522-.792 11.098.792 15.027 4.754 2.336 2.377-2.761-1.373-3.876-1.901-9.77-4.384-20.975 0-24.904 9.824 1.752-3.222 3.505-5.599 6.638-7.711z" fill="url(#A)"/></g><defs><linearGradient id="A" x1="14.686" y1="8.807" x2="44.221" y2="21.352" gradientUnits="userSpaceOnUse"><stop stop-color="#fff"/><stop offset="1" stop-color="#f27507"/></linearGradient><clipPath id="B"><path fill="#fff" transform="translate(.453 .394)" d="M0 0h45.13v45H0z"/></clipPath></defs></svg>