<svg xmlns="http://www.w3.org/2000/svg" xmlns:xlink="http://www.w3.org/1999/xlink" width="40" height="40" fill="none" xmlns:v="https://vecta.io/nano"><g clip-path="url(#A)" fill="#fff"><path d="M39.376 24.376H.626a.62.62 0 0 1-.501-.252c-.119-.157-.153-.363-.097-.553l1.876-6.25c.079-.265.323-.446.6-.446h34.999c.277 0 .519.182.6.446l1.876 6.25a.63.63 0 0 1-.097.553.62.62 0 0 1-.501.252h-.004zm-37.91-1.252h37.071l-1.5-5.001H2.966l-1.5 5.001z"/><path d="M7.5 28.125A3.13 3.13 0 0 1 4.375 25v-1.25h1.25V25A1.88 1.88 0 0 0 7.5 26.875 1.88 1.88 0 0 0 9.376 25v-1.25h1.25V25A3.13 3.13 0 0 1 7.5 28.125z"/><path d="M12.501 28.125A3.13 3.13 0 0 1 9.375 25v-1.25h1.25V25a1.88 1.88 0 0 0 1.876 1.875A1.88 1.88 0 0 0 14.376 25v-1.25h1.25V25a3.13 3.13 0 0 1-3.125 3.125z"/><path d="M17.5 28.125A3.13 3.13 0 0 1 14.375 25v-1.25h1.25V25a1.88 1.88 0 0 0 1.876 1.875A1.88 1.88 0 0 0 19.375 25v-1.25h1.25V25a3.13 3.13 0 0 1-3.125 3.125z"/><path d="M22.5 28.125A3.13 3.13 0 0 1 19.375 25v-1.25h1.25V25a1.88 1.88 0 0 0 1.875 1.875A1.88 1.88 0 0 0 24.376 25v-1.25h1.25V25a3.13 3.13 0 0 1-3.125 3.125z"/><path d="M27.501 28.125A3.13 3.13 0 0 1 24.376 25v-1.25h1.25V25a1.88 1.88 0 0 0 1.876 1.875A1.88 1.88 0 0 0 29.377 25v-1.25h1.25V25a3.13 3.13 0 0 1-3.125 3.125z"/><path d="M32.5 28.125A3.13 3.13 0 0 1 29.375 25v-1.25h1.25V25a1.88 1.88 0 0 0 1.875 1.875A1.88 1.88 0 0 0 34.375 25v-1.25h1.25V25a3.13 3.13 0 0 1-3.125 3.125z"/><use xlink:href="#B"/><path d="M15.624 17.5h-1.25v6.25h1.25V17.5zm5.001 0h-1.25v6.25h1.25V17.5zm5.001 0h-1.25v6.25h1.25V17.5zm4.998 0h-1.25v6.25h1.25V17.5zm5.001 0h-1.25v6.25h1.25V17.5zM39.376 40H.626C.281 40 0 39.721 0 39.374V23.75h1.25v15h37.5v-15H40v15.624c0 .345-.281.626-.626.626h.002z"/><path d="M10.625 39.374h-1.25v-8.126H5.627v8.126h-1.25v-8.75c0-.345.281-.626.626-.626h5.001c.345 0 .626.279.626.626v8.75h-.004zM24.374 32.5h-1.25v6.874h1.25V32.5zm3.127 6.874h-1.25v-2.499a.63.63 0 0 1 .184-.442l1.692-1.692V32.5h1.25v2.499c0 .166-.067.325-.184.442l-1.692 1.692v2.241z"/><path d="M23.75 33.126a1.88 1.88 0 0 1-1.875-1.876 1.88 1.88 0 0 1 1.875-1.875 1.88 1.88 0 0 1 1.876 1.875 1.88 1.88 0 0 1-1.876 1.876zm0-2.499c-.345 0-.626.281-.626.626s.281.626.626.626.626-.281.626-.626-.281-.626-.626-.626z"/><use xlink:href="#C"/><path d="M32.5 39.374h-1.25v-2.499c0-.165.067-.325.184-.442l1.692-1.692V32.5h1.25v2.499c0 .166-.067.325-.184.442L32.5 37.133v2.241z"/><path d="M33.75 33.126a1.88 1.88 0 0 1-1.876-1.876 1.88 1.88 0 0 1 1.876-1.875 1.88 1.88 0 0 1 1.876 1.875 1.88 1.88 0 0 1-1.876 1.876zm0-2.499c-.345 0-.626.281-.626.626s.281.626.626.626.626-.281.626-.626-.281-.626-.626-.626zm-17.5 8.747H15v-2.241l-1.692-1.692a.63.63 0 0 1-.184-.442V32.5h1.25v2.241l1.692 1.692a.63.63 0 0 1 .184.442v2.499z"/><path d="M13.751 33.126a1.88 1.88 0 0 1-1.876-1.876 1.88 1.88 0 0 1 1.876-1.875 1.88 1.88 0 0 1 1.876 1.875 1.88 1.88 0 0 1-1.876 1.876zm0-2.499c-.345 0-.626.281-.626.626s.281.626.626.626.626-.281.626-.626-.281-.626-.626-.626zm7.5 8.747h-1.25v-2.241l-1.692-1.692a.63.63 0 0 1-.184-.442V32.5h1.25v2.241l1.692 1.692a.63.63 0 0 1 .184.442v2.499z"/><path d="M18.749 33.126a1.88 1.88 0 0 1-1.876-1.876 1.88 1.88 0 0 1 1.876-1.875 1.88 1.88 0 0 1 1.876 1.875 1.88 1.88 0 0 1-1.876 1.876zm0-2.499c-.345 0-.626.281-.626.626s.281.626.626.626.626-.281.626-.626-.281-.626-.626-.626zM20.001 15a7.51 7.51 0 0 1-7.5-7.5 7.51 7.51 0 0 1 7.5-7.5 7.51 7.51 0 0 1 7.5 7.5 7.51 7.51 0 0 1-7.5 7.5zm0-13.751a6.26 6.26 0 0 0-6.25 6.25 6.26 6.26 0 0 0 6.25 6.25 6.26 6.26 0 0 0 6.25-6.25 6.26 6.26 0 0 0-6.25-6.25zm0 10.626a.61.61 0 0 1-.279-.067l-3.749-1.876c-.212-.107-.345-.323-.345-.559V5.624c0-.236.133-.452.345-.559l3.749-1.876a.62.62 0 0 1 .559 0l3.749 1.876c.212.107.345.323.345.559v3.749c0 .236-.133.452-.345.559l-3.749 1.876a.62.62 0 0 1-.279.067H20zm-3.125-2.887l3.125 1.563 3.125-1.563V6.01l-3.125-1.563-3.125 1.563v2.978z"/><path d="M15 11.451h-1.25v6.051H15v-6.05zm2.5 2.175h-1.25V17.5h1.25v-3.874zm6.25 0H22.5V17.5h1.25v-3.874zm2.499-2.175H25v6.051h1.25v-6.05zm10.939 16.674c-1.55 0-2.812-1.262-2.812-2.812V23.75h1.25v1.563c0 .862.7 1.563 1.563 1.563s1.563-.7 1.563-1.563V23.75H40v1.563c0 1.55-1.262 2.812-2.812 2.812zm-34.376 0C1.262 28.125 0 26.863 0 25.313V23.75h1.25v1.563c0 .862.701 1.563 1.563 1.563s1.563-.7 1.563-1.563V23.75h1.25v1.563c0 1.55-1.262 2.812-2.812 2.812z"/><path d="M5.625 17.5h-1.25v6.25h1.25V17.5z"/></g><defs><clipPath id="A"><path fill="#fff" d="M0 0h40v40H0z"/></clipPath><path id="B" d="M10.625 17.5h-1.25v6.25h1.25V17.5z"/><path id="C" d="M28.751 33.126a1.88 1.88 0 0 1-1.876-1.876 1.88 1.88 0 0 1 1.876-1.875 1.88 1.88 0 0 1 1.876 1.875 1.88 1.88 0 0 1-1.876 1.876zm0-2.499c-.345 0-.626.281-.626.626s.281.626.626.626.626-.281.626-.626-.281-.626-.626-.626z"/></defs></svg>