<svg width="25" height="15" viewBox="0 0 25 15" fill="none" xmlns="http://www.w3.org/2000/svg">
<g clip-path="url(#clip0_3140_12932)">
<path d="M14.0816 7.48273C14.0816 11.247 11.0515 14.2974 7.31305 14.2974C3.57458 14.2974 0.543457 11.2459 0.543457 7.48273C0.543457 3.71959 3.57351 0.666992 7.31197 0.666992C11.0504 0.666992 14.0805 3.71851 14.0805 7.48273" fill="#000001"/>
<path d="M21.5068 7.48286C21.5068 11.026 19.9912 13.8993 18.1225 13.8993C16.2538 13.8993 14.7383 11.026 14.7383 7.48286C14.7383 3.93975 16.2528 1.06641 18.1215 1.06641C19.9902 1.06641 21.5057 3.93868 21.5057 7.48286" fill="#000001"/>
<path d="M24.5433 7.48214C24.5433 10.656 24.0109 13.2299 23.3529 13.2299C22.695 13.2299 22.1626 10.656 22.1626 7.48214C22.1626 4.30826 22.695 1.73438 23.3529 1.73438C24.0109 1.73438 24.5433 4.30826 24.5433 7.48214Z" fill="#000001"/>
</g>
<defs>
<clipPath id="clip0_3140_12932">
<rect width="24" height="13.6304" fill="white" transform="translate(0.543457 0.666992)"/>
</clipPath>
</defs>
</svg>
