<svg xmlns="http://www.w3.org/2000/svg" width="141" height="215" fill="none" xmlns:v="https://vecta.io/nano"><g clip-path="url(#A)"><g fill="#e7e7e1"><path d="M129.998 198.185l5.628-5.608v-40.275h2.756v41.4l-6.435 6.425-1.949-1.942zm-37.097 16.633v-2.731h20.769l5.218-5.213 1.949 1.942-6.039 6.002H92.901zm40.434-3.956l-17.028-16.966-.322.321 17.029 16.965.321-.32zm-53.097 2.817v-.452H47.479v.452h32.758z"/><path d="M77.687 212.658v1.664h3.811v-1.664h-3.811zm59.582-71.133v-32.638h-.455v32.638h.455z"/><path d="M137.854 138.983h-1.671v3.797h1.671v-3.797z"/></g><g opacity=".55"><path d="M132.944 113.779v-9.624l6.479-6.454V52.796h.469v45.095l-6.493 6.454v9.434h-.455z" fill="#e7e7e1"/></g><g fill="#e7e7e1"><path d="M140.785 83.288v-11.99l-.879-.876v-15.99l-.953.949c-.088.088 0 16.648 0 16.648l.542.54v9.434l1.29 1.285zm-5.716 15.872l2.55-2.526v-6.659h.455v6.849l-2.683 2.658-.322-.321zm2.814 24.958l1.026-1.022v-7.2h.455v7.39l-1.158 1.153-.323-.321z"/></g></g><defs><clipPath id="A"><path fill="#fff" transform="matrix(0 1 -1 0 140.785 .098633)" d="M0 0h214.719v140.75H0z"/></clipPath></defs></svg>