<svg xmlns="http://www.w3.org/2000/svg" width="38" height="40" fill="none" xmlns:v="https://vecta.io/nano"><g clip-path="url(#A)" fill="#fff"><path d="M13.851 3.791l-.726-1.065L16.312.557a3.18 3.18 0 0 1 2.41-.499 3.2 3.2 0 0 1 2.057 1.354l.218.32-1.065.724-.218-.322a1.91 1.91 0 0 0-1.233-.811 1.92 1.92 0 0 0-1.445.299L13.85 3.791h.002zM6.518 23.93L.555 15.174c-.998-1.473-.616-3.479.853-4.476L3.402 9.34l.724 1.065-1.997 1.358c-.882.597-1.111 1.803-.512 2.687l5.961 8.756-1.065.726.004-.002zM19.165 40a3.19 3.19 0 0 1-.609-.058 3.2 3.2 0 0 1-2.059-1.354l-.218-.32 1.065-.724.218.322c.289.428.728.715 1.233.813s1.019-.01 1.443-.299l3.186-2.169.726 1.065-3.186 2.169a3.18 3.18 0 0 1-1.801.557l.002-.002zm14.71-9.34l-.724-1.065 1.997-1.358c.882-.597 1.111-1.803.512-2.687l-5.961-8.756 1.065-.726 5.963 8.756c.998 1.473.616 3.479-.853 4.476l-1.995 1.358-.004.002z"/><path d="M30.402 34.753l-.347-1.24 1.61-.451a1.92 1.92 0 0 0 1.338-2.379l-.108-.376-3.286-11.73 1.24-.347 3.392 12.1a3.19 3.19 0 0 1-.291 2.45 3.21 3.21 0 0 1-1.938 1.522l-1.61.451h.002zm-16.605 4.54c-1.41 0-2.712-.93-3.111-2.346l-.019-.083 1.265-.248.006.031c.277.971 1.348 1.572 2.377 1.287l6.462-1.816.349 1.24-6.464 1.816a3.26 3.26 0 0 1-.863.119h-.002zm2.706-35.412l-.349-1.24L22.617.826a3.24 3.24 0 0 1 3.974 2.227l.019.083-1.264.247c-.283-1.002-1.354-1.606-2.383-1.319L16.501 3.88h.002zM6.431 21.771L3.036 9.667c-.48-1.705.52-3.486 2.23-3.968l1.61-.451.347 1.24-1.61.451c-1.025.289-1.626 1.356-1.337 2.379L7.67 21.421l-1.24.347v.002z"/><path d="M27.653 37.384H9.625c-1.774 0-3.219-1.443-3.219-3.219V5.836c0-1.774 1.443-3.219 3.219-3.219h18.027c1.774 0 3.219 1.443 3.219 3.219v28.328c0 1.774-1.443 3.219-3.219 3.219zM9.625 3.904c-1.065 0-1.932.867-1.932 1.932v28.328c0 1.065.867 1.932 1.932 1.932h18.027c1.065 0 1.932-.867 1.932-1.932V5.836c0-1.065-.867-1.932-1.932-1.932H9.625zm.645 1.287H8.982v1.287h1.287V5.191zm18.027 0H27.01v1.287h1.287V5.191zM10.27 33.522H8.982v1.287h1.287v-1.287zm18.027 0H27.01v1.287h1.287v-1.287z"/></g><defs><clipPath id="A"><path fill="#fff" d="M0 0h37.278v40H0z"/></clipPath></defs></svg>