<svg width="21" height="21" viewBox="0 0 21 21" fill="none" xmlns="http://www.w3.org/2000/svg">
<g clip-path="url(#clip0_3140_12927)">
<path d="M20.7199 11.4023C20.7199 9.9464 19.5288 8.88758 18.2052 8.88758C17.5435 8.88758 17.014 9.15229 16.617 9.41699C15.0288 8.49052 13.0435 7.82876 10.9258 7.6964L11.9846 4.25523L15.0288 4.91699C15.1611 5.97582 16.0876 6.90229 17.1464 6.90229C18.3376 6.90229 19.264 5.97582 19.264 4.78464C19.264 3.59346 18.3376 2.66699 17.1464 2.66699C16.3523 2.66699 15.5582 3.1964 15.2935 3.85817L11.7199 2.9317C11.4552 2.9317 11.1905 3.06405 11.0582 3.32876L9.73463 7.6964C7.48463 7.6964 5.36699 8.35817 3.6464 9.28464C3.24934 9.01993 2.71993 8.75523 2.05816 8.75523C0.734633 8.75523 -0.456543 9.9464 -0.456543 11.4023C-0.456543 12.3288 -0.0594842 12.9905 0.60228 13.5199C0.60228 13.7846 0.60228 13.917 0.60228 14.1817C0.60228 15.9023 1.6611 17.6229 3.51405 18.8141C5.23463 20.0052 7.61699 20.667 10.1317 20.667C12.6464 20.667 15.0288 20.0052 16.7493 18.8141C18.6023 17.6229 19.6611 16.0346 19.6611 14.1817C19.6611 14.0493 19.6611 13.7846 19.6611 13.6523C20.1905 12.9905 20.7199 12.1964 20.7199 11.4023ZM5.49934 12.8582C5.49934 12.0641 6.1611 11.4023 6.95522 11.4023C7.74934 11.4023 8.4111 12.0641 8.4111 12.8582C8.4111 13.6523 7.74934 14.3141 6.95522 14.3141C6.1611 14.3141 5.49934 13.6523 5.49934 12.8582ZM13.5729 17.0935C12.7788 17.8876 11.7199 18.1523 10.1317 18.1523C8.54346 18.1523 7.35228 17.7552 6.69052 17.0935C6.42581 16.8288 6.42581 16.5641 6.69052 16.2993C6.95522 16.0346 7.21993 16.0346 7.48463 16.2993C8.01404 16.8288 8.80816 17.0935 10.1317 17.0935C11.4552 17.0935 12.2493 16.8288 12.7788 16.2993C13.0435 16.0346 13.3082 16.0346 13.5729 16.2993C13.8376 16.5641 13.8376 16.9611 13.5729 17.0935ZM13.3082 14.3141C12.514 14.3141 11.8523 13.6523 11.8523 12.8582C11.8523 12.0641 12.514 11.4023 13.3082 11.4023C14.1023 11.4023 14.764 12.0641 14.764 12.8582C14.764 13.6523 14.1023 14.3141 13.3082 14.3141Z" fill="#000001"/>
</g>
<defs>
<clipPath id="clip0_3140_12927">
<rect width="20" height="20" fill="white" transform="translate(0.0151367 0.666992)"/>
</clipPath>
</defs>
</svg>
