<svg width="23" height="26" viewBox="0 0 23 26" fill="none" xmlns="http://www.w3.org/2000/svg">
<g clip-path="url(#clip0_3083_2414)">
<path d="M16.2483 23.725H17.5103V18.85H16.2483V23.725ZM16.8793 17.5825C17.0497 17.5825 17.1948 17.5175 17.321 17.381C17.4472 17.2445 17.5103 17.095 17.5103 16.913C17.5103 16.731 17.4472 16.5815 17.321 16.445C17.1948 16.315 17.0497 16.2435 16.8793 16.2435C16.69 16.2435 16.5385 16.3085 16.4187 16.4385C16.2988 16.5685 16.242 16.7245 16.242 16.9C16.242 17.0755 16.2988 17.238 16.4187 17.3745C16.5322 17.511 16.69 17.576 16.8793 17.576V17.5825ZM1.893 1.95V11.5375V11.4075V24.05V1.95ZM5.01646 14.95H10.2727C10.5377 14.5795 10.8217 14.235 11.1372 13.91C11.4527 13.585 11.7871 13.2795 12.1468 13H5.01646V14.95ZM5.01646 20.475H8.89712C8.85295 20.1695 8.84033 19.851 8.84664 19.513C8.85295 19.175 8.8845 18.8435 8.92867 18.5185H5.01646V20.4685V20.475ZM1.893 26C1.3882 26 0.946502 25.805 0.567901 25.415C0.1893 25.025 0 24.57 0 24.05V1.95C0 1.43 0.1893 0.975 0.567901 0.585C0.946502 0.195 1.3882 0 1.893 0H13.2826L20.192 7.1175V12.155C19.8955 12.025 19.5926 11.908 19.2771 11.7975C18.9616 11.687 18.6335 11.6025 18.299 11.5375V7.995H12.3361V1.95H1.893V24.05H10.0645C10.2979 24.4205 10.5503 24.765 10.8217 25.09C11.093 25.415 11.4022 25.7205 11.7366 26H1.893ZM16.8793 13.3575C18.5704 13.3575 20.0154 13.975 21.208 15.2035C22.4005 16.432 23 17.9205 23 19.6625C23 21.4045 22.4005 22.893 21.208 24.1215C20.0154 25.35 18.5704 25.9675 16.8793 25.9675C15.1882 25.9675 13.7432 25.35 12.5506 24.1215C11.358 22.893 10.7586 21.4045 10.7586 19.6625C10.7586 17.9205 11.358 16.432 12.5506 15.2035C13.7432 13.975 15.1882 13.3575 16.8793 13.3575Z" fill="url(#paint0_linear_3083_2414)"/>
</g>
<defs>
<linearGradient id="paint0_linear_3083_2414" x1="7.25318" y1="5.03138" x2="22.8344" y2="10.8691" gradientUnits="userSpaceOnUse">
<stop stop-color="white"/>
<stop offset="1" stop-color="#F27507"/>
</linearGradient>
<clipPath id="clip0_3083_2414">
<rect width="23" height="26" fill="white"/>
</clipPath>
</defs>
</svg>
