<svg width="25" height="15" viewBox="0 0 25 15" fill="none" xmlns="http://www.w3.org/2000/svg">
<g clip-path="url(#clip0_3140_12945)">
<path d="M14.4482 6.53581C14.3927 6.12894 14.0167 5.85769 13.6098 5.944C13.2029 5.99948 12.9317 6.37553 12.9872 6.7824C13.4927 9.80309 11.446 12.6635 8.42532 13.169C8.12941 13.2183 7.82734 13.243 7.52528 13.243C4.46759 13.243 1.98322 10.7278 1.98322 7.67628C1.98322 4.62476 4.47376 2.12806 7.53144 2.12806C8.3945 2.12806 9.23289 2.31916 10.0158 2.71987C10.3919 2.91097 10.8295 2.74453 11.0145 2.39314C11.1994 2.04175 11.0391 1.5794 10.6878 1.39446C9.7199 0.907451 8.66574 0.667029 7.5561 0.667029C3.69084 0.654699 0.540686 3.77403 0.528357 7.63929C0.516027 11.5045 3.63536 14.6547 7.50062 14.667C11.3659 14.6794 14.516 11.56 14.5284 7.69477C14.5284 7.68861 14.5284 7.67628 14.5284 7.67011C14.5284 7.29407 14.5037 6.8872 14.4482 6.53581Z" fill="#000001"/>
<path d="M17.1239 0.666992C13.2586 0.666992 10.127 3.79865 10.127 7.67007C10.127 8.04612 10.1516 8.42833 10.2071 8.80438C10.2626 9.21125 10.6386 9.48249 11.0455 9.42701C11.4524 9.37153 11.7236 8.99548 11.6681 8.58861C11.6126 8.29271 11.588 7.9968 11.588 7.69473C11.588 4.63705 14.0724 2.15268 17.13 2.15268C20.1877 2.15268 22.6474 4.61239 22.6474 7.67007C22.6474 10.7278 20.1631 13.2121 17.1054 13.2121C16.2423 13.2121 15.4039 13.021 14.621 12.6203C14.2696 12.4292 13.8073 12.5957 13.6223 12.947C13.4374 13.2984 13.5977 13.7608 13.9491 13.9457C14.9231 14.4327 15.9772 14.6732 17.0869 14.6732C20.9521 14.6732 24.09 11.5415 24.09 7.67007C24.1208 3.84797 21.0569 0.710145 17.2348 0.666992C17.1978 0.666992 17.1609 0.666992 17.1239 0.666992Z" fill="#000001"/>
</g>
<defs>
<clipPath id="clip0_3140_12945">
<rect width="23.5429" height="14" fill="white" transform="translate(0.52832 0.666992)"/>
</clipPath>
</defs>
</svg>
