<svg width="19" height="19" viewBox="0 0 19 19" fill="none" xmlns="http://www.w3.org/2000/svg">
<g clip-path="url(#clip0_3140_12925)">
<path d="M18.5068 2.56168C18.4924 2.49525 18.4605 2.43385 18.4146 2.38375C18.3686 2.33365 18.3102 2.29663 18.2453 2.27649C18.0089 2.22988 17.7644 2.24736 17.5371 2.32712C17.5371 2.32712 1.76626 7.99543 0.865693 8.62318C0.671068 8.75818 0.60638 8.83637 0.574318 8.92918C0.418505 9.3758 0.903381 9.57268 0.903381 9.57268L4.96801 10.8974C5.03666 10.9092 5.10714 10.905 5.17388 10.885C6.09863 10.3011 14.4771 5.01024 14.9614 4.83249C15.0373 4.80943 15.0936 4.83249 15.0812 4.88874C14.8832 5.56712 7.64776 11.9971 7.60782 12.0364C7.58841 12.0524 7.57315 12.0728 7.56335 12.0959C7.55355 12.119 7.54951 12.1442 7.55157 12.1692L7.17357 16.1354C7.17357 16.1354 7.01494 17.3729 8.25019 16.1354C9.12601 15.2584 9.96638 14.5328 10.3877 14.1801C11.7855 15.1448 13.2896 16.2119 13.9382 16.7676C14.047 16.8733 14.176 16.956 14.3175 17.0107C14.459 17.0654 14.6101 17.091 14.7617 17.086C15.3804 17.0624 15.5492 16.3857 15.5492 16.3857C15.5492 16.3857 18.4224 4.82349 18.5192 3.2738C18.5282 3.12193 18.5411 3.02462 18.5423 2.92055C18.5474 2.79986 18.5355 2.67904 18.5068 2.56168Z" fill="#000001"/>
</g>
<defs>
<clipPath id="clip0_3140_12925">
<rect width="18" height="18" fill="white" transform="translate(0.543457 0.666992)"/>
</clipPath>
</defs>
</svg>
