<svg xmlns="http://www.w3.org/2000/svg" width="20" height="16" fill="none" xmlns:v="https://vecta.io/nano"><path d="M19.373.335c-.016-.072-.05-.138-.099-.192s-.113-.094-.183-.116c-.255-.05-.519-.031-.764.055 0 0-17.009 6.113-17.98 6.79-.21.146-.28.23-.314.33-.168.482.355.694.355.694l4.384 1.429c.074.013.15.008.222-.013L15.55 2.784c.082-.025.143 0 .129.061-.213.732-8.017 7.666-8.06 7.709-.021.017-.037.039-.048.064s-.015.052-.013.079l-.408 4.278s-.171 1.335 1.161 0a36.49 36.49 0 0 1 2.305-2.109c1.508 1.04 3.13 2.191 3.829 2.791.117.114.257.203.409.262s.316.087.479.081c.667-.025.849-.755.849-.755s3.099-12.47 3.203-14.141c.01-.164.024-.269.025-.381a1.38 1.38 0 0 0-.038-.387z" fill="#f27507"/></svg>