<svg width="14" height="16" viewBox="0 0 14 16" fill="none" xmlns="http://www.w3.org/2000/svg">
<g clip-path="url(#clip0_3140_12949)">
<path d="M10.5861 7.61821C10.5203 7.58894 10.4544 7.55602 10.3886 7.53041C10.2715 5.39748 9.10809 4.17553 7.15077 4.16455C7.14346 4.16455 7.13248 4.16455 7.12516 4.16455C5.95443 4.16455 4.98126 4.66577 4.38126 5.57309L5.45687 6.31211C5.90321 5.63163 6.60565 5.48894 7.12516 5.48894C7.13248 5.48894 7.13614 5.48894 7.14346 5.48894C7.78736 5.4926 8.27394 5.67919 8.58858 6.04504C8.81907 6.31211 8.96907 6.67797 9.0459 7.1426C8.47516 7.04382 7.85687 7.01455 7.19468 7.0548C5.33248 7.16089 4.13614 8.24748 4.21663 9.7548C4.25687 10.5194 4.63736 11.178 5.28858 11.606C5.83736 11.9682 6.54712 12.1475 7.28614 12.1072C8.25931 12.0524 9.02394 11.6828 9.55443 11.0024C9.96053 10.4865 10.2166 9.81699 10.3264 8.97553C10.791 9.25724 11.1349 9.62309 11.3252 10.0658C11.6471 10.8194 11.6654 12.056 10.6593 13.0621C9.77394 13.9438 8.71297 14.328 7.10687 14.3389C5.32516 14.3243 3.97882 13.7536 3.10077 12.6414C2.28126 11.5987 1.85687 10.0914 1.83858 8.16333C1.85321 6.23528 2.2776 4.72797 3.10077 3.68528C3.97882 2.57309 5.32516 1.9987 7.10687 1.98772C8.90321 2.00236 10.2715 2.57675 11.1825 3.69626C11.6288 4.24504 11.9654 4.9365 12.1849 5.74138L13.4471 5.4048C13.18 4.41333 12.7557 3.56089 12.1813 2.85114C11.0142 1.41699 9.30931 0.681626 7.11053 0.666992H7.10321C4.90809 0.681626 3.22151 1.42065 2.09102 2.86211C1.08126 4.1426 0.56175 5.92431 0.543457 8.16333V8.17431C0.56175 10.4097 1.08126 12.195 2.09102 13.4755C3.22516 14.917 4.91175 15.6524 7.10321 15.6707H7.11053C9.06053 15.656 10.4361 15.1475 11.5666 14.017C13.0483 12.5353 13.0044 10.6804 12.5142 9.5426C12.163 8.72675 11.4971 8.06089 10.5825 7.62553L10.5861 7.61821ZM7.22029 10.7828C6.40443 10.8304 5.55565 10.4609 5.51541 9.67797C5.48614 9.09626 5.92882 8.4487 7.27151 8.37187C7.42516 8.36455 7.57516 8.35724 7.72516 8.35724C8.21175 8.35724 8.66907 8.4048 9.08248 8.49626C8.92882 10.4243 8.02151 10.7389 7.22395 10.7828H7.22029Z" fill="#000001"/>
</g>
<defs>
<clipPath id="clip0_3140_12949">
<rect width="12.9037" height="15" fill="white" transform="translate(0.543457 0.666992)"/>
</clipPath>
</defs>
</svg>
