<svg width="14" height="16" viewBox="0 0 14 16" fill="none" xmlns="http://www.w3.org/2000/svg">
<g clip-path="url(#clip0_3140_12963)">
<path d="M13.1385 6.81529C11.8458 6.81529 10.5926 6.41502 9.5427 5.66699V10.9032C9.5427 13.5344 7.41015 15.667 4.77892 15.667C2.14768 15.667 0.0151367 13.5344 0.0151367 10.9032C0.0151367 8.27198 2.14768 6.13943 4.77892 6.13943C4.99545 6.13943 5.21199 6.15256 5.42852 6.18536V8.8166C4.27367 8.45571 3.04663 9.09219 2.68574 10.247C2.32485 11.4019 2.96133 12.6289 4.11619 12.9898C5.27104 13.3507 6.49808 12.7142 6.85897 11.5594C6.92459 11.3494 6.95739 11.1263 6.95739 10.9032V0.666992H9.53613C9.53613 0.883528 9.55582 1.10006 9.58863 1.3166C9.77236 2.28117 10.3432 3.13418 11.17 3.66568C11.754 4.05282 12.4364 4.25623 13.1319 4.25623V6.81529H13.1385Z" fill="#000001"/>
</g>
<defs>
<clipPath id="clip0_3140_12963">
<rect width="13.1234" height="15" fill="white" transform="translate(0.0151367 0.666992)"/>
</clipPath>
</defs>
</svg>
