<svg width="222" height="48" viewBox="0 0 222 48" fill="none" xmlns="http://www.w3.org/2000/svg">
<path d="M2.91014 21.3919L2.9099 21.3916C-0.925293 24.692 1.40736 30.9775 6.50951 30.9775H32.1782C34.1855 30.9775 36.1155 31.7803 37.5253 33.2093L48.7237 44.5568L48.7239 44.557C49.756 45.6032 51.169 46.1934 52.6472 46.1934H183.085C184.463 46.1934 185.787 45.6806 186.8 44.7596L199.797 32.932L199.797 32.9318C201.179 31.6751 202.987 30.9775 204.857 30.9775H215.505C218.546 30.9775 221 28.5288 221 25.5193V6.65501C221 3.64574 218.546 1.19645 215.504 1.19336H115.19C113.73 1.19336 112.331 1.7719 111.301 2.79601L101.504 12.5365C100.098 13.9386 98.1908 14.7219 96.2037 14.7219H12.7226C11.4003 14.7219 10.1252 15.1945 9.12698 16.0526L9.12665 16.0528L2.91014 21.3919Z" fill="url(#paint0_linear_3178_2708)" stroke="url(#paint1_linear_3178_2708)" stroke-width="2"/>
<defs>
<linearGradient id="paint0_linear_3178_2708" x1="-5.56986" y1="-28.6475" x2="-26.2035" y2="106.821" gradientUnits="userSpaceOnUse">
<stop offset="0.112333" stop-color="#F98218"/>
<stop offset="0.518947" stop-color="#0057FF"/>
</linearGradient>
<linearGradient id="paint1_linear_3178_2708" x1="151.991" y1="9.28855" x2="117.704" y2="77.8798" gradientUnits="userSpaceOnUse">
<stop stop-color="white"/>
<stop offset="1" stop-color="#F27507"/>
</linearGradient>
</defs>
</svg>
