<svg width="140" height="12" viewBox="0 0 140 12" fill="none" xmlns="http://www.w3.org/2000/svg">
<g clip-path="url(#clip0_3178_2560)">
<path d="M46.164 8.79736H45.4282V10.5496H46.164V8.79736Z" fill="white"/>
<path d="M51.3564 8.79736H49.0161V10.5496H51.3564V8.79736Z" fill="white"/>
<path d="M54.4739 8.79736H53.8047V10.5496H54.4739V8.79736Z" fill="white"/>
<path d="M55.5158 8.79736H55.085V10.5496H55.5158V8.79736Z" fill="white"/>
<path d="M57.8224 8.79736H56.334V10.5496H57.8224V8.79736Z" fill="white"/>
<path d="M59.2851 8.79736H58.8857V10.5496H59.2851V8.79736Z" fill="white"/>
<path d="M60.7992 8.79736H60.0635V10.5496H60.7992V8.79736Z" fill="white"/>
<path d="M65.9917 8.79736H63.6514V10.5496H65.9917V8.79736Z" fill="white"/>
<path d="M62.6698 8.79736H61.9595V10.5496H62.6698V8.79736Z" fill="white"/>
<path d="M69.1077 8.79736H68.4385V10.5496H69.1077V8.79736Z" fill="white"/>
<path d="M70.1505 8.79736H69.7197V10.5496H70.1505V8.79736Z" fill="white"/>
<path d="M72.4557 8.79736H70.9673V10.5496H72.4557V8.79736Z" fill="white"/>
<path d="M73.9203 8.79736H73.521V10.5496H73.9203V8.79736Z" fill="white"/>
<path d="M75.3529 8.79736H74.6172V10.5496H75.3529V8.79736Z" fill="white"/>
<path d="M79.0122 8.79736H76.6719V10.5496H79.0122V8.79736Z" fill="white"/>
<path d="M80.3528 8.79736H79.6836V10.5496H80.3528V8.79736Z" fill="white"/>
<path d="M81.3961 8.79736H80.9653V10.5496H81.3961V8.79736Z" fill="white"/>
<path d="M83.7028 8.79736H82.2144V10.5496H83.7028V8.79736Z" fill="white"/>
<path d="M85.1654 8.79736H84.7661V10.5496H85.1654V8.79736Z" fill="white"/>
<path d="M86.6781 8.79736H85.9424V10.5496H86.6781V8.79736Z" fill="white"/>
<path d="M91.8706 8.79736H89.5303V10.5496H91.8706V8.79736Z" fill="white"/>
<path d="M88.5492 8.79736H87.8389V10.5496H88.5492V8.79736Z" fill="white"/>
<path d="M94.9866 8.79736H94.3174V10.5496H94.9866V8.79736Z" fill="white"/>
<path d="M96.0299 8.79736H95.5991V10.5496H96.0299V8.79736Z" fill="white"/>
<path d="M98.3361 8.79736H96.8477V10.5496H98.3361V8.79736Z" fill="white"/>
<path d="M99.7992 8.79736H99.3999V10.5496H99.7992V8.79736Z" fill="white"/>
<path d="M97.5132 8.42841L98.3397 8.57847H101.188V9.04314L101.687 8.95239V8.42236H97.5132V8.42841Z" fill="white"/>
<path d="M44.7725 8.7417H43.6592V10.0389H44.7725V8.7417Z" fill="white"/>
<path d="M4.89345 8.79736H4.15771V10.5496H4.89345V8.79736Z" fill="white"/>
<path d="M10.0859 8.79736H7.74561V10.5496H10.0859V8.79736Z" fill="white"/>
<path d="M13.2024 8.79736H12.5332V10.5496H13.2024V8.79736Z" fill="white"/>
<path d="M14.2452 8.79736H13.8145V10.5496H14.2452V8.79736Z" fill="white"/>
<path d="M16.5519 8.79736H15.0635V10.5496H16.5519V8.79736Z" fill="white"/>
<path d="M18.0146 8.79736H17.6152V10.5496H18.0146V8.79736Z" fill="white"/>
<path d="M19.5272 8.79736H18.7915V10.5496H19.5272V8.79736Z" fill="white"/>
<path d="M24.7197 8.79736H22.3794V10.5496H24.7197V8.79736Z" fill="white"/>
<path d="M21.3983 8.79736H20.688V10.5496H21.3983V8.79736Z" fill="white"/>
<path d="M27.8357 8.79736H27.1665V10.5496H27.8357V8.79736Z" fill="white"/>
<path d="M28.879 8.79736H28.4482V10.5496H28.879V8.79736Z" fill="white"/>
<path d="M31.1857 8.79736H29.6973V10.5496H31.1857V8.79736Z" fill="white"/>
<path d="M32.6484 8.79736H32.249V10.5496H32.6484V8.79736Z" fill="white"/>
<path d="M34.0814 8.79736H33.3457V10.5496H34.0814V8.79736Z" fill="white"/>
<path d="M37.7407 8.79736H35.4004V10.5496H37.7407V8.79736Z" fill="white"/>
<path d="M39.0813 8.79736H38.4121V10.5496H39.0813V8.79736Z" fill="white"/>
<path d="M40.1246 8.79736H39.6938V10.5496H40.1246V8.79736Z" fill="white"/>
<path d="M42.4308 8.79736H40.9424V10.5496H42.4308V8.79736Z" fill="white"/>
<path d="M3.50099 8.7417H2.3877V10.0389H3.50099V8.7417Z" fill="white"/>
<path d="M0 8.30713V10.9088H139.581V8.30713H0ZM138.986 10.8544H0.590528V8.36279H138.986V10.8544Z" fill="white"/>
<path d="M103.984 8.46338V10.7311H137.899V8.46338H103.984ZM137.606 10.7033H104.277V8.49121H137.606V10.7033Z" fill="white"/>
<path d="M11.6436 11.284C11.5819 11.2768 11.4779 11.2731 11.3363 11.2731H10.9587V11.3929H11.2467C11.4125 11.3929 11.5347 11.3893 11.6206 11.3833C11.7005 11.3772 11.7429 11.3651 11.7429 11.3482V11.3167C11.7429 11.301 11.7102 11.2901 11.6436 11.2828V11.284ZM11.6436 11.284C11.5819 11.2768 11.4779 11.2731 11.3363 11.2731H10.9587V11.3929H11.2467C11.4125 11.3929 11.5347 11.3893 11.6206 11.3833C11.7005 11.3772 11.7429 11.3651 11.7429 11.3482V11.3167C11.7429 11.301 11.7102 11.2901 11.6436 11.2828V11.284ZM7.73139 11.284C7.66483 11.2768 7.56076 11.2731 7.41918 11.2731H7.04163V11.3929H7.32963C7.49542 11.3929 7.62248 11.3893 7.70355 11.3833C7.78342 11.3772 7.82698 11.3651 7.82698 11.3482V11.3167C7.82698 11.301 7.79431 11.2901 7.7326 11.2828L7.73139 11.284ZM9.70143 11.2816C9.63487 11.2731 9.5308 11.2695 9.38922 11.2695C9.24764 11.2695 9.14841 11.2744 9.07702 11.2816C9.00562 11.2901 8.97295 11.301 8.97295 11.3167V11.4885C8.97295 11.5031 9.00562 11.5152 9.07702 11.5236C9.14841 11.5321 9.25248 11.5357 9.38922 11.5357C9.66754 11.5357 9.8055 11.52 9.8055 11.4885V11.3167C9.8055 11.301 9.77282 11.2901 9.70143 11.2816ZM11.6436 11.284C11.5819 11.2768 11.4779 11.2731 11.3363 11.2731H10.9587V11.3929H11.2467C11.4125 11.3929 11.5347 11.3893 11.6206 11.3833C11.7005 11.3772 11.7429 11.3651 11.7429 11.3482V11.3167C11.7429 11.301 11.7102 11.2901 11.6436 11.2828V11.284ZM11.6436 11.284C11.5819 11.2768 11.4779 11.2731 11.3363 11.2731H10.9587V11.3929H11.2467C11.4125 11.3929 11.5347 11.3893 11.6206 11.3833C11.7005 11.3772 11.7429 11.3651 11.7429 11.3482V11.3167C11.7429 11.301 11.7102 11.2901 11.6436 11.2828V11.284ZM9.70143 11.2816C9.63487 11.2731 9.5308 11.2695 9.38922 11.2695C9.24764 11.2695 9.14841 11.2744 9.07702 11.2816C9.00562 11.2901 8.97295 11.301 8.97295 11.3167V11.4885C8.97295 11.5031 9.00562 11.5152 9.07702 11.5236C9.14841 11.5321 9.25248 11.5357 9.38922 11.5357C9.66754 11.5357 9.8055 11.52 9.8055 11.4885V11.3167C9.8055 11.301 9.77282 11.2901 9.70143 11.2816ZM7.73139 11.284C7.66483 11.2768 7.56076 11.2731 7.41918 11.2731H7.04163V11.3929H7.32963C7.49542 11.3929 7.62248 11.3893 7.70355 11.3833C7.78342 11.3772 7.82698 11.3651 7.82698 11.3482V11.3167C7.82698 11.301 7.79431 11.2901 7.7326 11.2828L7.73139 11.284ZM5.76013 11.284C5.69358 11.2768 5.58951 11.2731 5.44793 11.2731H5.07038V11.3929H5.35838C5.52417 11.3929 5.65123 11.3893 5.73109 11.3833C5.81096 11.3772 5.85452 11.3651 5.85452 11.3482V11.3167C5.85452 11.301 5.82185 11.2901 5.76013 11.2828V11.284ZM7.73139 11.284C7.66483 11.2768 7.56076 11.2731 7.41918 11.2731H7.04163V11.3929H7.32963C7.49542 11.3929 7.62248 11.3893 7.70355 11.3833C7.78342 11.3772 7.82698 11.3651 7.82698 11.3482V11.3167C7.82698 11.301 7.79431 11.2901 7.7326 11.2828L7.73139 11.284ZM9.70143 11.2816C9.63487 11.2731 9.5308 11.2695 9.38922 11.2695C9.24764 11.2695 9.14841 11.2744 9.07702 11.2816C9.00562 11.2901 8.97295 11.301 8.97295 11.3167V11.4885C8.97295 11.5031 9.00562 11.5152 9.07702 11.5236C9.14841 11.5321 9.25248 11.5357 9.38922 11.5357C9.66754 11.5357 9.8055 11.52 9.8055 11.4885V11.3167C9.8055 11.301 9.77282 11.2901 9.70143 11.2816ZM11.6436 11.284C11.5819 11.2768 11.4779 11.2731 11.3363 11.2731H10.9587V11.3929H11.2467C11.4125 11.3929 11.5347 11.3893 11.6206 11.3833C11.7005 11.3772 11.7429 11.3651 11.7429 11.3482V11.3167C11.7429 11.301 11.7102 11.2901 11.6436 11.2828V11.284ZM11.6436 11.284C11.5819 11.2768 11.4779 11.2731 11.3363 11.2731H10.9587V11.3929H11.2467C11.4125 11.3929 11.5347 11.3893 11.6206 11.3833C11.7005 11.3772 11.7429 11.3651 11.7429 11.3482V11.3167C11.7429 11.301 11.7102 11.2901 11.6436 11.2828V11.284ZM9.70143 11.2816C9.63487 11.2731 9.5308 11.2695 9.38922 11.2695C9.24764 11.2695 9.14841 11.2744 9.07702 11.2816C9.00562 11.2901 8.97295 11.301 8.97295 11.3167V11.4885C8.97295 11.5031 9.00562 11.5152 9.07702 11.5236C9.14841 11.5321 9.25248 11.5357 9.38922 11.5357C9.66754 11.5357 9.8055 11.52 9.8055 11.4885V11.3167C9.8055 11.301 9.77282 11.2901 9.70143 11.2816ZM7.73139 11.284C7.66483 11.2768 7.56076 11.2731 7.41918 11.2731H7.04163V11.3929H7.32963C7.49542 11.3929 7.62248 11.3893 7.70355 11.3833C7.78342 11.3772 7.82698 11.3651 7.82698 11.3482V11.3167C7.82698 11.301 7.79431 11.2901 7.7326 11.2828L7.73139 11.284ZM5.76013 11.284C5.69358 11.2768 5.58951 11.2731 5.44793 11.2731H5.07038V11.3929H5.35838C5.52417 11.3929 5.65123 11.3893 5.73109 11.3833C5.81096 11.3772 5.85452 11.3651 5.85452 11.3482V11.3167C5.85452 11.301 5.82185 11.2901 5.76013 11.2828V11.284ZM0.146484 11.1279V11.693H139.284V11.1279H0.146484ZM2.49529 11.4184H1.54052V11.3857H2.49529V11.4184ZM4.31891 11.2719H3.26975V11.3833H4.12529V11.4159H3.26975V11.5321H4.31891V11.5648H2.87768V11.2393H4.31891V11.2719ZM5.92108 11.5648C5.87872 11.5551 5.85452 11.5418 5.85452 11.5248V11.474C5.85452 11.4559 5.81217 11.4438 5.72746 11.4365C5.64276 11.4292 5.51448 11.4256 5.34507 11.4256H5.07038V11.5648H4.67831V11.2393H5.45761C5.73109 11.2393 5.92592 11.2453 6.05298 11.2574C6.18004 11.2707 6.24175 11.2889 6.24175 11.3131V11.3397C6.24175 11.376 6.09533 11.3978 5.80733 11.4063C5.96343 11.4099 6.07234 11.4184 6.14253 11.4292C6.21392 11.4401 6.24659 11.4559 6.24659 11.474V11.5248C6.24659 11.543 6.2708 11.5551 6.31315 11.5636H5.92108V11.5648ZM7.89112 11.5648C7.84877 11.5551 7.82456 11.5418 7.82456 11.5248V11.474C7.82456 11.4559 7.78221 11.4438 7.6975 11.4365C7.6128 11.4292 7.48453 11.4256 7.31511 11.4256H7.04163V11.5648H6.64956V11.2393H7.42886C7.70355 11.2393 7.89717 11.2453 8.02423 11.2574C8.15129 11.2707 8.21301 11.2889 8.21301 11.3131V11.3397C8.21301 11.376 8.06658 11.3978 7.77858 11.4063C7.93468 11.4099 8.04359 11.4184 8.11378 11.4292C8.18517 11.4401 8.21785 11.4559 8.21785 11.474V11.5248C8.21785 11.543 8.24084 11.5551 8.2844 11.5636H7.89233L7.89112 11.5648ZM10.1976 11.4861C10.1976 11.5115 10.1262 11.5309 9.98943 11.5454C9.85269 11.5599 9.65423 11.5672 9.38922 11.5672C9.12421 11.5672 8.93059 11.5599 8.79385 11.5454C8.65711 11.5309 8.59056 11.5103 8.59056 11.4861V11.3179C8.59056 11.2925 8.65711 11.2719 8.79385 11.2574C8.93059 11.2429 9.12905 11.2356 9.38922 11.2356C9.64939 11.2356 9.85269 11.2429 9.98943 11.2574C10.1262 11.2719 10.1976 11.2925 10.1976 11.3179V11.4861ZM11.8094 11.5648C11.7622 11.5551 11.7429 11.5418 11.7429 11.5248V11.474C11.7429 11.4559 11.7005 11.4438 11.6158 11.4365C11.5311 11.4292 11.4028 11.4256 11.2334 11.4256H10.9587V11.5648H10.5666V11.2393H11.346C11.6158 11.2393 11.8143 11.2453 11.9413 11.2574C12.0648 11.2707 12.1301 11.2889 12.1301 11.3131V11.3397C12.1301 11.376 11.9837 11.3978 11.6908 11.4063C11.8469 11.4099 11.9607 11.4184 12.0309 11.4292C12.0974 11.4401 12.1349 11.4559 12.1349 11.474V11.5248C12.1349 11.543 12.1543 11.5551 12.2015 11.5636H11.8094V11.5648ZM13.4781 11.4184H12.5234V11.3857H13.4781V11.4184ZM15.1844 11.5454C15.0525 11.5599 14.854 11.5672 14.5939 11.5672C14.3337 11.5672 14.1352 11.5599 14.0033 11.5454C13.8714 11.5309 13.8097 11.5115 13.8097 11.4861V11.4668H14.174V11.4873C14.174 11.5176 14.3107 11.5333 14.5854 11.5333C14.8601 11.5333 14.9968 11.5176 14.9968 11.4873C14.9968 11.4776 14.9726 11.468 14.9303 11.4607C14.8879 11.4522 14.831 11.445 14.7645 11.4377C14.6931 11.4317 14.6181 11.4244 14.5334 11.4184C14.4535 11.4123 14.3676 11.405 14.2829 11.399C14.203 11.3929 14.1268 11.3857 14.0566 11.3784C13.99 11.3712 13.9331 11.3615 13.8908 11.3518C13.8484 11.3409 13.8242 11.33 13.8242 11.3179C13.8242 11.2925 13.8908 11.2719 14.0179 11.2574C14.1498 11.2429 14.3434 11.2356 14.5987 11.2356C14.854 11.2356 15.0525 11.2429 15.1844 11.2574C15.3114 11.2719 15.378 11.2913 15.378 11.3167V11.3252H15.0089V11.3143C15.0089 11.2828 14.877 11.2671 14.6072 11.2671C14.3373 11.2671 14.2054 11.2828 14.2054 11.3131C14.2054 11.3228 14.2284 11.3324 14.272 11.3409C14.3143 11.3494 14.3712 11.3566 14.4426 11.3639C14.5092 11.37 14.589 11.3772 14.6689 11.3833C14.7536 11.3893 14.8395 11.3966 14.9242 11.4026C15.0041 11.4087 15.0852 11.4171 15.1505 11.4244C15.2219 11.4317 15.2776 11.4401 15.3211 11.451C15.3635 11.4619 15.3877 11.4728 15.3877 11.4861C15.3877 11.5115 15.3163 11.5309 15.1844 11.5454ZM16.7019 11.445V11.5636H16.3098V11.4462L15.5728 11.238H15.9746L16.5228 11.3978L17.0758 11.238H17.44L16.7031 11.445H16.7019ZM19.0083 11.5454C18.8764 11.5599 18.6779 11.5672 18.4178 11.5672C18.1576 11.5672 17.9591 11.5599 17.8272 11.5454C17.7002 11.5309 17.6336 11.5115 17.6336 11.4861V11.4668H17.9979V11.4873C17.9979 11.5176 18.1346 11.5333 18.4093 11.5333C18.684 11.5333 18.8207 11.5176 18.8207 11.4873C18.8207 11.4776 18.7965 11.468 18.7542 11.4607C18.7118 11.4522 18.655 11.445 18.5884 11.4377C18.517 11.4317 18.442 11.4244 18.3573 11.4184C18.2774 11.4123 18.1915 11.405 18.1068 11.399C18.0269 11.3929 17.9507 11.3857 17.8805 11.3784C17.8139 11.3712 17.7571 11.3615 17.7147 11.3518C17.6723 11.3409 17.6481 11.33 17.6481 11.3179C17.6481 11.2925 17.7147 11.2719 17.8418 11.2574C17.9737 11.2429 18.1673 11.2356 18.4226 11.2356C18.6779 11.2356 18.8764 11.2429 19.0083 11.2574C19.1354 11.2719 19.2019 11.2913 19.2019 11.3167V11.3252H18.8328V11.3143C18.8328 11.2828 18.7009 11.2671 18.4311 11.2671C18.1612 11.2671 18.0293 11.2828 18.0293 11.3131C18.0293 11.3228 18.0523 11.3324 18.0959 11.3409C18.1382 11.3494 18.1951 11.3566 18.2665 11.3639C18.3331 11.37 18.4129 11.3772 18.4928 11.3833C18.5775 11.3893 18.6634 11.3966 18.7481 11.4026C18.828 11.4087 18.9091 11.4171 18.9756 11.4244C19.047 11.4317 19.1027 11.4401 19.1462 11.451C19.1886 11.4619 19.2128 11.4728 19.2128 11.4861C19.2128 11.5115 19.1462 11.5309 19.0095 11.5454H19.0083ZM21.0872 11.2719H20.435V11.5648H20.0526V11.2719H19.4052V11.2393H21.0872V11.2719ZM22.7935 11.2719H21.7395V11.3833H22.595V11.4159H21.7395V11.5321H22.7935V11.5648H21.3474V11.2393H22.7935V11.2719ZM25.3637 11.5648H24.9995V11.3034L24.4416 11.5648H24.0677L23.4869 11.307V11.566H23.1468V11.2405H23.6853L24.2662 11.5006L24.824 11.2405H25.3625V11.566L25.3637 11.5648ZM26.7106 11.4184H25.7558V11.3857H26.7106V11.4184ZM88.134 11.4861H86.9905V11.3808H88.134V11.4861ZM88.134 11.3373H86.9905V11.232H88.134V11.3373ZM89.8306 11.635H88.687V11.5285H89.8306V11.635ZM89.8306 11.4861H88.687V11.3808H89.8306V11.4861ZM91.5223 11.3373H90.3787V11.232H91.5223V11.3373ZM93.2188 11.635H92.0753V11.5285H93.2188V11.635ZM93.2188 11.4861H92.0753V11.3808H93.2188V11.4861ZM94.9106 11.4861H93.767V11.3808H94.9106V11.4861ZM94.9106 11.3373H93.767V11.232H94.9106V11.3373ZM96.6071 11.635H95.4636V11.5285H96.6071V11.635ZM98.2988 11.4861H97.1553V11.3808H98.2988V11.4861ZM98.2988 11.3373H97.1553V11.232H98.2988V11.3373ZM99.9954 11.635H98.8519V11.5285H99.9954V11.635ZM101.687 11.4861H100.548V11.3808H101.687V11.4861ZM103.384 11.635H102.24V11.5285H103.384V11.635ZM103.384 11.3373H102.24V11.232H103.384V11.3373ZM106.606 11.4861H105.463V11.3808H106.606V11.4861ZM106.606 11.3373H105.463V11.232H106.606V11.3373ZM108.298 11.635H107.154V11.5285H108.298V11.635ZM109.994 11.3373H108.851V11.232H109.994V11.3373ZM111.686 11.635H110.543V11.5285H111.686V11.635ZM113.383 11.3373H112.239V11.232H113.383V11.3373ZM115.074 11.635H113.931V11.5285H115.074V11.635ZM116.771 11.4861H115.627V11.3808H116.771V11.4861ZM116.771 11.3373H115.627V11.232H116.771V11.3373ZM118.463 11.635H117.319V11.5285H118.463V11.635ZM120.159 11.4861H119.016V11.3808H120.159V11.4861ZM121.851 11.635H120.707V11.5285H121.851V11.635ZM121.851 11.3373H120.707V11.232H121.851V11.3373ZM123.548 11.635H122.404V11.5285H123.548V11.635ZM123.548 11.4861H122.404V11.3808H123.548V11.4861ZM125.225 11.3373H124.081V11.232H125.225V11.3373ZM126.916 11.635H125.773V11.5285H126.916V11.635ZM128.613 11.3373H127.469V11.232H128.613V11.3373ZM130.305 11.635H129.161V11.5285H130.305V11.635ZM130.305 11.4861H129.161V11.3808H130.305V11.4861ZM132.001 11.4861H130.858V11.3808H132.001V11.4861ZM132.001 11.3373H130.858V11.232H132.001V11.3373ZM133.693 11.635H132.554V11.5285H133.693V11.635ZM135.39 11.4861H134.246V11.3808H135.39V11.4861ZM135.39 11.3373H134.246V11.232H135.39V11.3373ZM137.081 11.635H135.943V11.5285H137.081V11.635ZM11.7429 11.3167C11.7429 11.301 11.7102 11.2901 11.6436 11.2828C11.5819 11.2756 11.4779 11.2719 11.3363 11.2719H10.9587V11.3917H11.2467C11.4125 11.3917 11.5347 11.3881 11.6206 11.3821C11.7005 11.376 11.7429 11.3639 11.7429 11.347V11.3155V11.3167ZM9.38922 11.2683C9.25248 11.2683 9.14841 11.2731 9.07702 11.2804C9.00562 11.2889 8.97295 11.2998 8.97295 11.3155V11.4873C8.97295 11.5019 9.00562 11.514 9.07702 11.5224C9.14841 11.5309 9.25248 11.5345 9.38922 11.5345C9.66754 11.5345 9.8055 11.5188 9.8055 11.4873V11.3155C9.8055 11.2998 9.77282 11.2889 9.70143 11.2804C9.63487 11.2719 9.5308 11.2683 9.38922 11.2683ZM7.82456 11.3167C7.82456 11.301 7.79189 11.2901 7.73018 11.2828C7.66362 11.2756 7.55955 11.2719 7.41797 11.2719H7.04042V11.3917H7.32842C7.49421 11.3917 7.62127 11.3881 7.70234 11.3821C7.78221 11.376 7.82577 11.3639 7.82577 11.347V11.3155L7.82456 11.3167ZM5.85452 11.3167C5.85452 11.301 5.82185 11.2901 5.76013 11.2828C5.69358 11.2756 5.58951 11.2719 5.44793 11.2719H5.07038V11.3917H5.35838C5.52417 11.3917 5.65123 11.3881 5.73109 11.3821C5.81096 11.376 5.85452 11.3639 5.85452 11.347V11.3155V11.3167ZM5.76013 11.2828C5.69358 11.2756 5.58951 11.2719 5.44793 11.2719H5.07038V11.3917H5.35838C5.52417 11.3917 5.65123 11.3881 5.73109 11.3821C5.81096 11.376 5.85452 11.3639 5.85452 11.347V11.3155C5.85452 11.2998 5.82185 11.2889 5.76013 11.2816V11.2828ZM7.73139 11.2828C7.66483 11.2756 7.56076 11.2719 7.41918 11.2719H7.04163V11.3917H7.32963C7.49542 11.3917 7.62248 11.3881 7.70355 11.3821C7.78342 11.376 7.82698 11.3639 7.82698 11.347V11.3155C7.82698 11.2998 7.79431 11.2889 7.7326 11.2816L7.73139 11.2828ZM9.70143 11.2804C9.63487 11.2719 9.5308 11.2683 9.38922 11.2683C9.24764 11.2683 9.14841 11.2731 9.07702 11.2804C9.00562 11.2889 8.97295 11.2998 8.97295 11.3155V11.4873C8.97295 11.5019 9.00562 11.514 9.07702 11.5224C9.14841 11.5309 9.25248 11.5345 9.38922 11.5345C9.66754 11.5345 9.8055 11.5188 9.8055 11.4873V11.3155C9.8055 11.2998 9.77282 11.2889 9.70143 11.2804ZM11.6436 11.2828C11.5819 11.2756 11.4779 11.2719 11.3363 11.2719H10.9587V11.3917H11.2467C11.4125 11.3917 11.5347 11.3881 11.6206 11.3821C11.7005 11.376 11.7429 11.3639 11.7429 11.347V11.3155C11.7429 11.2998 11.7102 11.2889 11.6436 11.2816V11.2828ZM11.6436 11.2828C11.5819 11.2756 11.4779 11.2719 11.3363 11.2719H10.9587V11.3917H11.2467C11.4125 11.3917 11.5347 11.3881 11.6206 11.3821C11.7005 11.376 11.7429 11.3639 11.7429 11.347V11.3155C11.7429 11.2998 11.7102 11.2889 11.6436 11.2816V11.2828ZM9.70143 11.2804C9.63487 11.2719 9.5308 11.2683 9.38922 11.2683C9.24764 11.2683 9.14841 11.2731 9.07702 11.2804C9.00562 11.2889 8.97295 11.2998 8.97295 11.3155V11.4873C8.97295 11.5019 9.00562 11.514 9.07702 11.5224C9.14841 11.5309 9.25248 11.5345 9.38922 11.5345C9.66754 11.5345 9.8055 11.5188 9.8055 11.4873V11.3155C9.8055 11.2998 9.77282 11.2889 9.70143 11.2804ZM7.73139 11.2828C7.66483 11.2756 7.56076 11.2719 7.41918 11.2719H7.04163V11.3917H7.32963C7.49542 11.3917 7.62248 11.3881 7.70355 11.3821C7.78342 11.376 7.82698 11.3639 7.82698 11.347V11.3155C7.82698 11.2998 7.79431 11.2889 7.7326 11.2816L7.73139 11.2828ZM5.76013 11.2828C5.69358 11.2756 5.58951 11.2719 5.44793 11.2719H5.07038V11.3917H5.35838C5.52417 11.3917 5.65123 11.3881 5.73109 11.3821C5.81096 11.376 5.85452 11.3639 5.85452 11.347V11.3155C5.85452 11.2998 5.82185 11.2889 5.76013 11.2816V11.2828ZM9.70143 11.2804C9.63487 11.2719 9.5308 11.2683 9.38922 11.2683C9.24764 11.2683 9.14841 11.2731 9.07702 11.2804C9.00562 11.2889 8.97295 11.2998 8.97295 11.3155V11.4873C8.97295 11.5019 9.00562 11.514 9.07702 11.5224C9.14841 11.5309 9.25248 11.5345 9.38922 11.5345C9.66754 11.5345 9.8055 11.5188 9.8055 11.4873V11.3155C9.8055 11.2998 9.77282 11.2889 9.70143 11.2804ZM11.6436 11.2828C11.5819 11.2756 11.4779 11.2719 11.3363 11.2719H10.9587V11.3917H11.2467C11.4125 11.3917 11.5347 11.3881 11.6206 11.3821C11.7005 11.376 11.7429 11.3639 11.7429 11.347V11.3155C11.7429 11.2998 11.7102 11.2889 11.6436 11.2816V11.2828ZM11.6436 11.2828C11.5819 11.2756 11.4779 11.2719 11.3363 11.2719H10.9587V11.3917H11.2467C11.4125 11.3917 11.5347 11.3881 11.6206 11.3821C11.7005 11.376 11.7429 11.3639 11.7429 11.347V11.3155C11.7429 11.2998 11.7102 11.2889 11.6436 11.2816V11.2828ZM9.70143 11.2804C9.63487 11.2719 9.5308 11.2683 9.38922 11.2683C9.24764 11.2683 9.14841 11.2731 9.07702 11.2804C9.00562 11.2889 8.97295 11.2998 8.97295 11.3155V11.4873C8.97295 11.5019 9.00562 11.514 9.07702 11.5224C9.14841 11.5309 9.25248 11.5345 9.38922 11.5345C9.66754 11.5345 9.8055 11.5188 9.8055 11.4873V11.3155C9.8055 11.2998 9.77282 11.2889 9.70143 11.2804Z" fill="white"/>
<path d="M79.5131 8.01214L76.8255 5.32451H71.3425L67.9797 1.96164L65.9116 1.52117L65.9249 1.45703L68.0124 1.90114L71.3704 5.25916H76.8533L79.5603 7.96615L79.5131 8.01214Z" fill="white"/>
<path d="M79.0338 7.98924L76.6354 5.59082H74.9497C74.9497 5.59082 75.8234 6.49476 75.8537 6.49476H76.4369L77.5357 7.59353H78.1504L78.5364 7.97956L79.035 7.99045L79.0338 7.98924Z" fill="white"/>
<path d="M76.3478 6.82232H75.3943L74.2217 5.64973L74.2689 5.60254L75.4221 6.75576H76.3478V6.82232Z" fill="white"/>
<path d="M78.0114 7.88399H76.8412L76.1309 7.17366L76.1781 7.12646L76.869 7.81743H78.0114V7.88399Z" fill="white"/>
<path d="M76.0135 7.69757H73.8377L73.3984 7.2583H74.2733L74.4766 7.4616C74.4766 7.4616 75.7303 7.45555 75.7364 7.4616C75.7424 7.46765 76.0147 7.69757 76.0147 7.69757H76.0135Z" fill="white"/>
<path d="M74.6123 7.258L74.3134 6.9591H72.8951L71.5435 5.60742H72.1364L72.9593 6.43029H74.4453C74.4453 6.43029 75.2851 7.25074 75.2657 7.25074C75.2464 7.25074 74.6111 7.258 74.6111 7.258H74.6123Z" fill="white"/>
<path d="M73.327 7.48551H72.901L71.9136 6.49807V6.25H71.9801V6.47024L72.9288 7.41896H73.327V7.48551Z" fill="white"/>
<path d="M74.2446 6.07219H73.2064L72.7695 5.63534L72.8155 5.58936L73.233 6.00563H74.2446V6.07219Z" fill="white"/>
<path d="M65.9176 1.79346C65.9176 1.79346 65.8898 2.93216 65.9176 2.95999L67.2778 4.32014H68.1733L71.6293 7.77619H72.3735L70.5983 6.00097V5.17084L68.4213 2.99388H67.9349L66.945 2.00401L65.9176 1.79346Z" fill="white"/>
<path d="M88.2514 8.01214L85.5638 5.32451H80.082L76.718 1.96164L74.6499 1.52117L74.6632 1.45703L76.7506 1.90114L80.1087 5.25916H85.5916L88.2986 7.96615L88.2514 8.01214Z" fill="white"/>
<path d="M87.7721 7.98924L85.3737 5.59082H83.688C83.688 5.59082 84.5617 6.49476 84.5919 6.49476H85.1752L86.274 7.59353H86.8887L87.2747 7.97956L87.7733 7.99045L87.7721 7.98924Z" fill="white"/>
<path d="M85.0856 6.82232H84.1321L82.9595 5.64973L83.0067 5.60254L84.1599 6.75576H85.0856V6.82232Z" fill="white"/>
<path d="M86.7496 7.88399H85.5795L84.8691 7.17366L84.9163 7.12646L85.6073 7.81743H86.7496V7.88399Z" fill="white"/>
<path d="M84.7517 7.69757H82.576L82.1367 7.2583H83.0116L83.2149 7.4616C83.2149 7.4616 84.4686 7.45555 84.4746 7.4616C84.4807 7.46765 84.753 7.69757 84.753 7.69757H84.7517Z" fill="white"/>
<path d="M83.3505 7.258L83.0517 6.9591H81.6334L80.2817 5.60742H80.8747L81.6976 6.43029H83.1836C83.1836 6.43029 84.0234 7.25074 84.004 7.25074C83.9846 7.25074 83.3493 7.258 83.3493 7.258H83.3505Z" fill="white"/>
<path d="M82.0653 7.48551H81.6405L80.6519 6.49807V6.25H80.7184V6.47024L81.6671 7.41896H82.0653V7.48551Z" fill="white"/>
<path d="M82.9824 6.07219H81.9442L81.5073 5.63534L81.5545 5.58936L81.9708 6.00563H82.9824V6.07219Z" fill="white"/>
<path d="M74.6559 1.79346C74.6559 1.79346 74.6281 2.93216 74.6559 2.95999C74.6838 2.98782 76.0161 4.32014 76.0161 4.32014H76.9116L80.3676 7.77619H81.1118L79.3366 6.00097V5.17084L77.1596 2.99388H76.6732L75.6833 2.00401L74.6559 1.79346Z" fill="white"/>
<path d="M96.9904 8.01214L94.3028 5.32451H88.8198L85.4558 1.96164L83.3877 1.52117L83.401 1.45703L85.4896 1.90114L88.8465 5.25916H94.3294L97.0364 7.96615L96.9904 8.01214Z" fill="white"/>
<path d="M96.5104 7.98924L94.1119 5.59082H92.4263C92.4263 5.59082 93.3 6.49476 93.3302 6.49476H93.9135L95.0123 7.59353H95.627L96.013 7.97956L96.5116 7.99045L96.5104 7.98924Z" fill="white"/>
<path d="M93.8239 6.82232H92.8715L91.6978 5.64973L91.7449 5.60254L92.8982 6.75576H93.8239V6.82232Z" fill="white"/>
<path d="M95.4879 7.88399H94.3177L93.6074 7.17366L93.6546 7.12646L94.3456 7.81743H95.4879V7.88399Z" fill="white"/>
<path d="M93.49 7.69757H91.3143L90.875 7.2583H91.7499L91.9532 7.4616C91.9532 7.4616 93.2069 7.45555 93.2129 7.4616C93.219 7.46765 93.4912 7.69757 93.4912 7.69757H93.49Z" fill="white"/>
<path d="M92.0883 7.258L91.7895 6.9591H90.3712L89.0195 5.60742H89.6125L90.4353 6.43029H91.9213C91.9213 6.43029 92.7612 7.25074 92.7418 7.25074C92.7224 7.25074 92.0871 7.258 92.0871 7.258H92.0883Z" fill="white"/>
<path d="M90.8035 7.48551H90.3788L89.3901 6.49807V6.25H89.4567V6.47024L90.4054 7.41896H90.8035V7.48551Z" fill="white"/>
<path d="M91.7219 6.07219H90.6824L90.2456 5.63534L90.2928 5.58936L90.7103 6.00563H91.7219V6.07219Z" fill="white"/>
<path d="M83.3952 1.79346C83.3952 1.79346 83.3674 2.93216 83.3952 2.95999C83.423 2.98782 84.7553 4.32014 84.7553 4.32014H85.6508L89.1069 7.77619H89.8511L88.0759 6.00097V5.17084L85.8989 2.99388H85.4124L84.4226 2.00401L83.3952 1.79346Z" fill="white"/>
<path d="M105.729 8.01214L103.041 5.32451H97.5581L94.194 1.96164L92.126 1.52117L92.1405 1.45703L94.2279 1.90114L97.5859 5.25916H103.069L105.775 7.96615L105.729 8.01214Z" fill="white"/>
<path d="M105.248 7.98924L102.85 5.59082H101.164C101.164 5.59082 102.038 6.49476 102.068 6.49476H102.651L103.75 7.59353H104.365L104.751 7.97956L105.249 7.99045L105.248 7.98924Z" fill="white"/>
<path d="M102.563 6.82232H101.61L100.436 5.64973L100.483 5.60254L101.636 6.75576H102.563V6.82232Z" fill="white"/>
<path d="M104.226 7.88399H103.056L102.345 7.17366L102.392 7.12646L103.083 7.81743H104.226V7.88399Z" fill="white"/>
<path d="M102.228 7.69757H100.052L99.6128 7.2583H100.488L100.691 7.4616C100.691 7.4616 101.945 7.45555 101.951 7.4616C101.957 7.46765 102.229 7.69757 102.229 7.69757H102.228Z" fill="white"/>
<path d="M100.827 7.258L100.528 6.9591H99.1095L97.7578 5.60742H98.3508L99.1736 6.43029H100.66C100.66 6.43029 101.499 7.25074 101.48 7.25074C101.461 7.25074 100.825 7.258 100.825 7.258H100.827Z" fill="white"/>
<path d="M99.5413 7.48551H99.1166L98.1279 6.49807V6.25H98.1945V6.47024L99.1444 7.41896H99.5413V7.48551Z" fill="white"/>
<path d="M100.46 6.07219H99.4207L98.9839 5.63534L99.0311 5.58936L99.4486 6.00563H100.46V6.07219Z" fill="white"/>
<path d="M92.1335 1.79346C92.1335 1.79346 92.1056 2.93216 92.1335 2.95999C92.1613 2.98782 93.4936 4.32014 93.4936 4.32014H94.3891L97.8451 7.77619H98.5893L96.8141 6.00097V5.17084L94.6372 2.99388H94.1519L93.162 2.00401L92.1347 1.79346H92.1335Z" fill="white"/>
<path d="M113.737 8.01214L111.05 5.32451H105.567L102.204 1.96164L100.136 1.52117L100.149 1.45703L102.236 1.90114L105.594 5.25916H111.077L113.784 7.96615L113.737 8.01214Z" fill="white"/>
<path d="M113.258 7.98924L110.859 5.59082H109.174C109.174 5.59082 110.048 6.49476 110.078 6.49476H110.661L111.76 7.59353H112.375L112.761 7.97956L113.259 7.99045L113.258 7.98924Z" fill="white"/>
<path d="M110.571 6.82232H109.618L108.445 5.64973L108.493 5.60254L109.646 6.75576H110.571V6.82232Z" fill="white"/>
<path d="M112.235 7.88399H111.065L110.355 7.17366L110.402 7.12646L111.093 7.81743H112.235V7.88399Z" fill="white"/>
<path d="M110.238 7.69757H108.062L107.623 7.2583H108.497L108.701 7.4616C108.701 7.4616 109.954 7.45555 109.96 7.4616C109.967 7.46765 110.239 7.69757 110.239 7.69757H110.238Z" fill="white"/>
<path d="M108.836 7.258L108.537 6.9591H107.119L105.768 5.60742H106.361L107.183 6.43029H108.669C108.669 6.43029 109.509 7.25074 109.49 7.25074C109.47 7.25074 108.835 7.258 108.835 7.258H108.836Z" fill="white"/>
<path d="M107.551 7.48551H107.125L106.138 6.49807V6.25H106.204V6.47024L107.153 7.41896H107.551V7.48551Z" fill="white"/>
<path d="M108.468 6.07219H107.43L106.993 5.63534L107.04 5.58936L107.457 6.00563H108.468V6.07219Z" fill="white"/>
<path d="M100.142 1.79346C100.142 1.79346 100.114 2.93216 100.142 2.95999L101.502 4.32014H102.397L105.853 7.77619H106.598L104.822 6.00097V5.17084L102.645 2.99388H102.16L101.17 2.00401L100.143 1.79346H100.142Z" fill="white"/>
<path d="M122.476 8.01214L119.789 5.32451H114.306L110.942 1.96164L108.874 1.52117L108.887 1.45703L110.976 1.90114L114.333 5.25916H119.816L122.523 7.96615L122.476 8.01214Z" fill="white"/>
<path d="M121.996 7.98924L119.598 5.59082H117.912C117.912 5.59082 118.786 6.49476 118.816 6.49476H119.399L120.498 7.59353H121.113L121.499 7.97956L121.997 7.99045L121.996 7.98924Z" fill="white"/>
<path d="M119.31 6.82232H118.357L117.184 5.64973L117.231 5.60254L118.384 6.75576H119.31V6.82232Z" fill="white"/>
<path d="M120.974 7.88399H119.804L119.093 7.17366L119.14 7.12646L119.831 7.81743H120.974V7.88399Z" fill="white"/>
<path d="M118.976 7.69757H116.8L116.361 7.2583H117.236L117.439 7.4616C117.439 7.4616 118.693 7.45555 118.699 7.4616C118.705 7.46765 118.977 7.69757 118.977 7.69757H118.976Z" fill="white"/>
<path d="M117.575 7.258L117.276 6.9591H115.858L114.506 5.60742H115.099L115.922 6.43029H117.408C117.408 6.43029 118.247 7.25074 118.228 7.25074C118.209 7.25074 117.573 7.258 117.573 7.258H117.575Z" fill="white"/>
<path d="M116.289 7.48551H115.865L114.876 6.49807V6.25H114.943V6.47024L115.891 7.41896H116.289V7.48551Z" fill="white"/>
<path d="M117.207 6.07219H116.168L115.731 5.63534L115.779 5.58936L116.196 6.00563H117.207V6.07219Z" fill="white"/>
<path d="M108.881 1.79346C108.881 1.79346 108.853 2.93216 108.881 2.95999C108.909 2.98782 110.241 4.32014 110.241 4.32014H111.137L114.593 7.77619H115.337L113.562 6.00097V5.17084L111.385 2.99388H110.899L109.91 2.00401L108.882 1.79346H108.881Z" fill="white"/>
<path d="M131.215 8.01214L128.527 5.32451H123.044L119.68 1.96164L117.612 1.52117L117.625 1.45703L119.714 1.90114L123.071 5.25916H128.554L131.261 7.96615L131.215 8.01214Z" fill="white"/>
<path d="M130.734 7.98924L128.336 5.59082H126.65C126.65 5.59082 127.524 6.49476 127.554 6.49476H128.138L129.236 7.59353H129.851L130.237 7.97956L130.736 7.99045L130.734 7.98924Z" fill="white"/>
<path d="M128.049 6.82232H127.096L125.922 5.64973L125.969 5.60254L127.122 6.75576H128.049V6.82232Z" fill="white"/>
<path d="M129.712 7.88399H128.541L127.831 7.17366L127.878 7.12646L128.569 7.81743H129.712V7.88399Z" fill="white"/>
<path d="M127.714 7.69757H125.538L125.099 7.2583H125.974L126.177 7.4616C126.177 7.4616 127.43 7.45555 127.437 7.4616C127.443 7.46765 127.715 7.69757 127.715 7.69757H127.714Z" fill="white"/>
<path d="M126.312 7.258L126.014 6.9591H124.595L123.244 5.60742H123.837L124.659 6.43029H126.145C126.145 6.43029 126.985 7.25074 126.966 7.25074C126.947 7.25074 126.311 7.258 126.311 7.258H126.312Z" fill="white"/>
<path d="M125.028 7.48551H124.603L123.614 6.49807V6.25H123.681V6.47024L124.63 7.41896H125.028V7.48551Z" fill="white"/>
<path d="M125.946 6.07219H124.907L124.47 5.63534L124.517 5.58936L124.934 6.00563H125.946V6.07219Z" fill="white"/>
<path d="M117.619 1.79346C117.619 1.79346 117.591 2.93216 117.619 2.95999C117.647 2.98782 118.979 4.32014 118.979 4.32014H119.875L123.331 7.77619H124.075L122.3 6.00097V5.17084L120.123 2.99388H119.637L118.647 2.00401L117.619 1.79346Z" fill="white"/>
<path d="M139.953 8.01214L137.265 5.32451H131.782L128.419 1.96164L126.35 1.52117L126.365 1.45703L128.452 1.90114L131.81 5.25916H137.293L140 7.96615L139.953 8.01214Z" fill="white"/>
<path d="M139.474 7.98924L137.075 5.59082H135.39C135.39 5.59082 136.263 6.49476 136.294 6.49476H136.877L137.976 7.59353H138.59L138.976 7.97956L139.475 7.99045L139.474 7.98924Z" fill="white"/>
<path d="M136.787 6.82232H135.833L134.66 5.64973L134.707 5.60254L135.861 6.75576H136.787V6.82232Z" fill="white"/>
<path d="M138.451 7.88399H137.28L136.569 7.17366L136.617 7.12646L137.308 7.81743H138.451V7.88399Z" fill="white"/>
<path d="M136.452 7.69757H134.276L133.837 7.2583H134.712L134.915 7.4616C134.915 7.4616 136.169 7.45555 136.175 7.4616C136.181 7.46765 136.453 7.69757 136.453 7.69757H136.452Z" fill="white"/>
<path d="M135.052 7.258L134.753 6.9591H133.335L131.983 5.60742H132.576L133.399 6.43029H134.885C134.885 6.43029 135.725 7.25074 135.705 7.25074C135.686 7.25074 135.051 7.258 135.051 7.258H135.052Z" fill="white"/>
<path d="M133.767 7.48551H133.341L132.352 6.49807V6.25H132.419V6.47024L133.369 7.41896H133.767V7.48551Z" fill="white"/>
<path d="M134.684 6.07219H133.644L133.208 5.63534L133.255 5.58936L133.672 6.00563H134.684V6.07219Z" fill="white"/>
<path d="M126.357 1.79346C126.357 1.79346 126.329 2.93216 126.357 2.95999C126.385 2.98782 127.717 4.32014 127.717 4.32014H128.613L132.069 7.77619H132.813L131.038 6.00097V5.17084L128.861 2.99388H128.376L127.386 2.00401L126.358 1.79346H126.357Z" fill="white"/>
<path d="M23.3318 2.53902V2.33936H2.35468L0.175293 4.51874L0.315664 4.66033L2.43697 2.53902H23.3318Z" fill="white"/>
<path d="M23.592 0.687102C23.713 0.687102 23.8158 0.618127 23.8691 0.518898H26.0473L27.2065 1.67817L27.4147 1.47004L26.1695 0.224844H23.8703C23.817 0.125616 23.713 0.0566406 23.5932 0.0566406C23.4189 0.0566406 23.2773 0.198222 23.2773 0.372476C23.2773 0.546731 23.4189 0.688312 23.5932 0.688312L23.592 0.687102Z" fill="white"/>
<path d="M23.3524 1.64452L23.5375 1.64573L22.6118 0.720009H21.4852L20.7652 0H14.7486L14.0722 0.676445H11.2889L10.3535 1.61185L23.3524 1.64452Z" fill="white"/>
<path d="M9.67847 1.59968L10.6441 0.632812L8.69103 0.637653L7.729 1.59968H9.67847Z" fill="white"/>
<path d="M8.02171 0.632812L7.03185 0.637653L6.06982 1.59968H7.05484L8.02171 0.632812Z" fill="white"/>
<path d="M1.36377 6.33849L3.55889 4.14337C3.55889 4.14337 7.17466 4.04051 7.07181 4.14337C6.96895 4.24623 4.8779 6.33728 4.8779 6.33728H1.36377V6.33849Z" fill="white"/>
<path d="M6.08203 6.33849L8.27715 4.14337C8.27715 4.14337 11.8929 4.04051 11.7901 4.14337L9.59616 6.33728H6.08203V6.33849Z" fill="white"/>
<path d="M10.8003 6.33849L12.9954 4.14337C12.9954 4.14337 16.6112 4.04051 16.5083 4.14337L14.3144 6.33728H10.8003V6.33849Z" fill="white"/>
<path d="M15.5171 6.33849L17.7122 4.14337C17.7122 4.14337 21.328 4.04051 21.2251 4.14337L19.0312 6.33728H15.5171V6.33849Z" fill="white"/>
<path d="M20.2354 6.33849L22.4305 4.14337C22.4305 4.14337 26.0462 4.04051 25.9434 4.14337L23.7495 6.33728H20.2354V6.33849Z" fill="white"/>
<path d="M24.9521 6.33849L27.1473 4.14337C27.1473 4.14337 30.763 4.04051 30.6602 4.14337L28.4663 6.33728H24.9521V6.33849Z" fill="white"/>
<path d="M29.6704 6.33849L31.8655 4.14337C31.8655 4.14337 35.4813 4.04051 35.3784 4.14337C35.2756 4.24623 33.1845 6.33728 33.1845 6.33728H29.6704V6.33849Z" fill="white"/>
<path d="M34.3887 6.33849L36.5838 4.14337C36.5838 4.14337 40.1996 4.04051 40.0967 4.14337L37.9028 6.33728H34.3887V6.33849Z" fill="white"/>
<path d="M39.1055 6.33849L41.3006 4.14337C41.3006 4.14337 44.9164 4.04051 44.8135 4.14337L42.6196 6.33728H39.1055V6.33849Z" fill="white"/>
<path d="M43.8237 6.33849L46.0189 4.14337C46.0189 4.14337 49.6346 4.04051 49.5318 4.14337C49.4289 4.24623 47.3379 6.33728 47.3379 6.33728H43.8237V6.33849Z" fill="white"/>
<path d="M48.542 6.33849L50.7371 4.14337C50.7371 4.14337 54.3529 4.04051 54.25 4.14337C54.1472 4.24623 52.0561 6.33728 52.0561 6.33728H48.542V6.33849Z" fill="white"/>
<path d="M53.2588 6.33849L55.4539 4.14337C55.4539 4.14337 59.0697 4.04051 58.9668 4.14337L56.7729 6.33728H53.2588V6.33849Z" fill="white"/>
<path d="M61.9256 5.27462V5.90266C61.8494 5.97889 61.7804 6.04787 61.7211 6.10716C61.5795 6.24874 61.4912 6.33708 61.4912 6.33708H57.9771L60.1722 4.14317C60.1722 4.14317 60.3622 4.13712 60.6526 4.13107C60.6925 4.12986 60.7361 4.12865 60.7796 4.12744L61.9268 5.27462H61.9256Z" fill="white"/>
<path d="M62.5885 6.73899L63.4768 6.17871H65.2241L65.3367 6.33118H65.8885L66.2067 6.76198H62.5522L62.5885 6.73899Z" fill="white"/>
<path d="M64.4111 6.00314H65.3356L65.4433 6.14957H66.0448L66.2674 6.45088H67.1665H67.8285L68.0874 6.09995H67.5114L67.2512 5.74902H64.6144L64.4111 6.00314Z" fill="white"/>
<path opacity="0.55" d="M65.5293 7.04268H66.3243L66.6377 6.61914H67.7389L67.44 7.02452H66.6438L66.4986 7.22177H65.3066L65.5293 7.04268Z" fill="white"/>
<path d="M68.7193 6.11719L67.7185 7.47129L67.7125 7.47976H66.5762L66.5846 7.47129L66.5919 7.46161L66.8279 7.2087H67.5019L68.3102 6.11719H68.7193Z" fill="white"/>
<path d="M69.8649 6.80936L69.0698 6.14744L69.065 6.14502V6.15107L68.5689 6.81057L68.0679 7.47613L68.0715 7.48097H68.4357L68.4043 7.43862L68.7298 7.00419L69.0529 6.57339V6.56855H69.0553H69.0565V6.57097L69.5744 7.00419L70.096 7.43862L70.0452 7.48097H70.6563L70.6623 7.47613L69.8637 6.81057L69.8649 6.80936Z" fill="white"/>
<path d="M137.195 8.75146H104.634V10.4226H137.195V8.75146Z" fill="#F27507"/>
</g>
<defs>
<clipPath id="clip0_3178_2560">
<rect width="140" height="11.6944" fill="white"/>
</clipPath>
</defs>
</svg>
