<svg width="19" height="19" viewBox="0 0 19 19" fill="none" xmlns="http://www.w3.org/2000/svg">
<g clip-path="url(#clip0_3140_12923)">
<path d="M18.5436 4.09824C17.8686 4.37949 17.1936 4.60449 16.4061 4.66074C17.1936 4.21074 17.7561 3.47949 18.0373 2.63574C17.3061 3.08574 16.5186 3.36699 15.6748 3.53574C14.9998 2.80449 14.0436 2.35449 13.0311 2.35449C11.0061 2.35449 9.31855 3.98574 9.31855 6.06699C9.31855 6.34824 9.37481 6.62949 9.43106 6.91074C6.33731 6.74199 3.6373 5.27949 1.78105 3.02949C1.44355 3.59199 1.2748 4.21074 1.2748 4.88574C1.2748 6.17949 1.9498 7.30449 2.90605 7.97949C2.2873 7.97949 1.7248 7.81074 1.21855 7.52949V7.58574C1.21855 9.38574 2.5123 10.8482 4.1998 11.1857C3.8623 11.242 3.58105 11.2982 3.24355 11.2982C3.01855 11.2982 2.79355 11.2982 2.56855 11.242C3.01855 12.7045 4.4248 13.7732 5.9998 13.8295C4.7623 14.842 3.13105 15.4045 1.3873 15.4045C1.10605 15.4045 0.768555 15.4045 0.487305 15.3482C2.1748 16.3607 4.14356 16.9795 6.2248 16.9795C13.0311 16.9795 16.7436 11.3545 16.7436 6.46074C16.7436 6.29199 16.7436 6.12324 16.7436 6.01074C17.4186 5.44824 18.0373 4.82949 18.5436 4.09824Z" fill="#f27507"/>
</g>
<defs>
<clipPath id="clip0_3140_12923">
<rect width="18" height="18" fill="white" transform="translate(0.543457 0.666992)"/>
</clipPath>
</defs>
</svg>
