<svg width="24" height="25" viewBox="0 0 24 25" fill="none" xmlns="http://www.w3.org/2000/svg">
<path d="M19.1893 8.73611C19.1893 8.94961 19.1893 9.05637 19.1893 9.26987C19.1893 14.2872 15.4615 20.0518 8.64497 20.0518C6.6213 20.0518 4.59763 19.518 3 18.3437C3.31953 18.3437 3.63905 18.4505 3.85207 18.4505C5.55621 18.4505 7.15385 17.9167 8.43195 16.8492C6.83432 16.8492 5.4497 15.7817 4.91716 14.1804C5.4497 14.1804 6.08876 14.1804 6.6213 13.9669C4.91716 13.6467 3.63905 12.0454 3.63905 10.3374C4.1716 10.6576 4.70414 10.7644 5.3432 10.7644C3.74556 9.69687 3.21302 7.45509 4.1716 5.74707C6.08876 8.0956 8.85799 9.48337 11.8402 9.59012C11.5207 8.30911 11.9467 6.92134 12.9053 6.06733C14.3964 4.67956 16.7396 4.67956 18.1243 6.28083C18.9763 6.06733 19.7219 5.85382 20.4675 5.32007C20.1479 6.17408 19.6154 6.92134 18.8698 7.45509C19.6154 7.34834 20.3609 7.13484 21 6.81459C20.4675 7.56185 19.8284 8.20235 19.1893 8.73611Z" stroke="url(#paint0_linear_3877_2789)" stroke-width="2" stroke-linecap="round" stroke-linejoin="round"/>
<defs>
<linearGradient id="paint0_linear_3877_2789" x1="8.6764" y1="7.95448" x2="19.7276" y2="13.5711" gradientUnits="userSpaceOnUse">
<stop stop-color="white"/>
<stop offset="1" stop-color="#F27507"/>
</linearGradient>
</defs>
</svg>
