<svg xmlns="http://www.w3.org/2000/svg" width="308" height="137" fill="none" xmlns:v="https://vecta.io/nano"><path d="M251.038 0H38.159c-8.847 0-16.021 7.199-16.021 16.078 0 10.718 9.57 14.861 9.57 14.861l30.355 19.304c2.607 1.791 7.278 3.25 10.438 3.25h70.589c3.161 0 7.557 1.796 9.821 4.006l5.506 5.385c2.262 2.213 4.097 6.579 4.097 9.751v30.895c0 3.173 2.561 6.634 4.794 8.878 3.996 4.011 16.479 15.986 19.947 19.308.154.159.319.307.48.459l.428.413h.022c3.093 2.74 7.142 4.412 11.59 4.412 6.773 0 12.639-3.856 15.565-9.497a5.94 5.94 0 0 0 .459-.501c2.328-2.923 51.263-102.042 51.263-110.923S259.885 0 251.038 0z" fill="url(#A)"/><g fill="#131313"><path d="M200.237 131.922c-3.363 0-6.614-1.24-9.157-3.49l-.22-.197-20.488-19.827c-2.222-2.232-3.717-4.749-3.717-6.265V71.248c0-4.161-2.24-9.491-5.211-12.396l-5.504-5.383c-2.948-2.883-8.274-5.056-12.388-5.056h-70.59c-2.438 0-6.341-1.216-8.359-2.603-7.539-5.182-29.568-18.821-30.502-19.399-.233-.104-7.823-3.777-7.823-11.717 0-6.83 5.537-12.388 12.342-12.388h212.879c6.757 0 12.294 5.518 12.342 12.299-.193 1.666-2.501 10.281-24.337 56.063-13.122 27.513-24.53 50.022-26.117 52.614l-.074.106-.811 1.09c-2.412 4.593-7.104 7.446-12.265 7.446v-.002zM38.622 4.108c-5.814 0-10.544 4.748-10.544 10.583 0 6.782 6.812 10.102 6.882 10.135 1.024.627 23.088 14.287 30.663 19.496 1.71 1.176 5.277 2.288 7.344 2.288h70.59c4.53 0 10.394 2.394 13.641 5.568l5.504 5.383c3.279 3.208 5.754 9.094 5.754 13.687v30.895c0 .721 1.014 2.806 3.19 4.993 4.015 4.03 20.272 19.617 20.435 19.773l.193.172c2.211 1.957 5.042 3.038 7.966 3.038 4.512 0 8.616-2.506 10.706-6.539l.077-.123.853-1.143c1.627-2.681 12.955-25.051 26.012-52.425 22.277-46.706 24.039-54.331 24.167-55.385-.048-5.679-4.779-10.393-10.553-10.393H38.622v-.002zm119.055 15.894h1.066v2.566L149.809 32h-1.066v-2.583L157.677 20v.002zM45.552 14.263h-12.66v1.202h12.661v-1.202z"/><path d="M43.281 9.967l-8.951 8.984.847.85 8.951-8.984-.847-.85z"/><path d="M39.851 8.54h-1.198v12.705h1.198V8.54z"/><path d="M35.219 9.968l-.847.85 8.951 8.984.847-.85-8.951-8.984zm30.219 6.927h-.358a.6.6 0 1 1 0-1.2h.358a.6.6 0 1 1 0 1.2zm-2.754 0h-.358a.6.6 0 1 1 0-1.2h.358a.6.6 0 1 1 0 1.2zm-2.754 0h-.196a2.23 2.23 0 0 1-.213-.011.6.6 0 0 1-.547-.649c.026-.333.314-.58.646-.549l.31.004a.6.6 0 1 1 0 1.2v.004zm7.9-.088a.6.6 0 0 1-.578-.446.6.6 0 0 1 .424-.737l.286-.093a.6.6 0 1 1 .423 1.125l-.396.13a.64.64 0 0 1-.156.02h-.002zm-10.333-1.008a.6.6 0 0 1-.424-.177l-.253-.256c-.233-.234-.233-.616 0-.849a.6.6 0 0 1 .846 0l.253.256c.233.234.233.615 0 .849a.6.6 0 0 1-.424.177h.002zm12.535-.576a.6.6 0 0 1-.424-.177c-.233-.234-.233-.616 0-.849l.253-.256c.233-.236.613-.234.846 0s.233.616 0 .849l-.253.256a.6.6 0 0 1-.424.177h.002zm-14.483-1.379a.59.59 0 0 1-.422-.174l-.255-.254a.6.6 0 0 1-.002-.849c.233-.236.613-.236.846-.002l.255.254a.6.6 0 0 1 .002.849.59.59 0 0 1-.424.177zm16.432-.576a.6.6 0 0 1-.424-.176c-.233-.234-.233-.616 0-.849l.253-.256c.233-.236.613-.234.846 0s.233.615 0 .849l-.253.256a.59.59 0 0 1-.424.176h.002zm-18.38-1.379a.6.6 0 0 1-.424-.176l-.253-.254c-.233-.234-.233-.616 0-.849a.6.6 0 0 1 .846 0l.253.254c.233.234.233.615 0 .849a.6.6 0 0 1-.424.176h.002zm20.371-.532c-.182 0-.36-.082-.479-.241a.6.6 0 0 1 .119-.843l.319-.227a.6.6 0 0 1 .67.995l-.266.192a.59.59 0 0 1-.361.121l-.002.002zm2.42-1.306a.6.6 0 0 1-.561-.39.6.6 0 0 1 .35-.774l.356-.128c.312-.11.653.06.761.375a.6.6 0 0 1-.374.763l-.321.115c-.068.027-.141.037-.211.037v.002zm-24.737-.119a.6.6 0 0 1-.424-.176l-.253-.254c-.233-.234-.233-.616 0-.849a.6.6 0 0 1 .846 0l.253.254c.233.234.233.616 0 .849a.6.6 0 0 1-.424.176h.002zm27.528-.463c-.323 0-.644-.258-.651-.582-.009-.331.196-.607.528-.618h.376c.332 0 .598.267.598.6a.6.6 0 0 1-.598.6h-.253zm157.3 0h-.359a.6.6 0 0 1 0-1.2h.359a.6.6 0 0 1 0 1.2zm-2.754 0h-.359a.6.6 0 0 1 0-1.2h.359c.332 0 .597.269.597.6a.6.6 0 0 1-.597.6zm-2.755 0h-.36a.6.6 0 0 1 0-1.2h.36a.6.6 0 1 1 0 1.2zm-2.756 0h-.358a.6.6 0 0 1 0-1.2h.358a.6.6 0 0 1 0 1.2zm-2.754 0h-.358a.6.6 0 0 1 0-1.2h.358a.6.6 0 0 1 0 1.2zm-2.754 0h-.358a.6.6 0 0 1 0-1.2h.358a.6.6 0 0 1 0 1.2zm-2.754 0h-.359a.6.6 0 0 1 0-1.2h.359a.6.6 0 0 1 0 1.2zm-2.754 0h-.361a.6.6 0 0 1 0-1.2h.361a.6.6 0 0 1 0 1.2zm-2.757 0h-.358a.6.6 0 0 1 0-1.2h.358a.6.6 0 1 1 0 1.2zm-2.754 0h-.358a.6.6 0 0 1 0-1.2h.358a.6.6 0 0 1 0 1.2zm-2.754 0h-.358a.6.6 0 0 1 0-1.2h.358a.6.6 0 0 1 0 1.2zm-2.754 0h-.358a.6.6 0 0 1 0-1.2h.358a.6.6 0 0 1 0 1.2zm-2.754 0h-.361a.6.6 0 0 1 0-1.2h.361a.6.6 0 0 1 0 1.2zm-2.757 0h-.358a.6.6 0 0 1 0-1.2h.358a.6.6 0 0 1 0 1.2zm-2.754 0h-.358a.6.6 0 0 1 0-1.2h.358a.6.6 0 0 1 0 1.2zm-2.754 0h-.358a.6.6 0 0 1 0-1.2h.358a.6.6 0 1 1 0 1.2zm-2.754 0h-.358a.6.6 0 0 1 0-1.2h.358a.6.6 0 0 1 0 1.2zm-2.754 0h-.361a.6.6 0 0 1 0-1.2h.361a.6.6 0 1 1 0 1.2zm-2.756 0h-.359a.6.6 0 0 1 0-1.2h.359a.6.6 0 1 1 0 1.2zm-2.755 0h-.358a.6.6 0 0 1 0-1.2h.358a.6.6 0 1 1 0 1.2zm-2.754 0h-.358a.6.6 0 0 1 0-1.2h.358a.6.6 0 1 1 0 1.2zm-2.754 0h-.358a.6.6 0 0 1 0-1.2h.358a.6.6 0 0 1 0 1.2zm-2.754 0h-.36a.6.6 0 0 1 0-1.2h.36a.6.6 0 1 1 0 1.2zm-2.756 0h-.359a.6.6 0 0 1 0-1.2h.359a.6.6 0 1 1 0 1.2zm-2.754 0h-.359a.6.6 0 0 1 0-1.2h.359a.6.6 0 1 1 0 1.2zm-2.755 0h-.358a.6.6 0 0 1 0-1.2h.358a.6.6 0 1 1 0 1.2zm-2.754 0h-.358a.6.6 0 0 1 0-1.2h.358a.6.6 0 1 1 0 1.2zm-2.754 0h-.36a.6.6 0 0 1 0-1.2h.36a.6.6 0 1 1 0 1.2zm-2.756 0h-.358a.6.6 0 0 1 0-1.2h.358a.6.6 0 1 1 0 1.2zm-2.754 0h-.359a.6.6 0 0 1 0-1.2h.359a.6.6 0 1 1 0 1.2zm-2.754 0h-.359a.6.6 0 0 1 0-1.2h.359a.6.6 0 1 1 0 1.2zm-2.755 0h-.358a.6.6 0 0 1 0-1.2h.358a.6.6 0 1 1 0 1.2zm-2.754 0h-.36a.6.6 0 0 1 0-1.2h.36a.6.6 0 1 1 0 1.2zm-2.756 0h-.358a.6.6 0 0 1 0-1.2h.358a.6.6 0 1 1 0 1.2zm-2.754 0h-.358a.6.6 0 0 1 0-1.2h.358a.6.6 0 1 1 0 1.2zm-2.754 0h-.359a.6.6 0 0 1 0-1.2h.359a.6.6 0 1 1 0 1.2zm-2.754 0h-.359a.6.6 0 0 1 0-1.2h.359a.6.6 0 0 1 0 1.2zm-2.755 0h-.36a.6.6 0 0 1 0-1.2h.36a.6.6 0 1 1 0 1.2zm-2.756 0h-.358a.6.6 0 0 1 0-1.2h.358a.6.6 0 1 1 0 1.2zm-2.754 0h-.358a.6.6 0 0 1 0-1.2h.358a.6.6 0 1 1 0 1.2zm-2.754 0h-.358a.6.6 0 0 1 0-1.2h.358a.6.6 0 1 1 0 1.2zm-2.754 0h-.359a.6.6 0 0 1 0-1.2h.359a.6.6 0 0 1 0 1.2zm-2.754 0h-.361a.6.6 0 0 1 0-1.2h.361c.332 0 .597.269.597.6a.6.6 0 0 1-.597.6zm-2.757 0h-.358a.6.6 0 0 1 0-1.2h.358a.6.6 0 1 1 0 1.2zm-2.754 0h-.358a.6.6 0 0 1 0-1.2h.358a.6.6 0 1 1 0 1.2zm-2.754 0h-.358a.6.6 0 0 1 0-1.2h.358a.6.6 0 1 1 0 1.2zm-2.754 0h-.358a.6.6 0 1 1 0-1.2h.358a.6.6 0 0 1 0 1.2zm-2.754 0h-.361a.6.6 0 0 1 0-1.2h.361a.6.6 0 1 1 0 1.2zm-2.757 0h-.358a.6.6 0 0 1 0-1.2h.358a.6.6 0 1 1 0 1.2zm-2.754 0h-.358a.6.6 0 0 1 0-1.2h.358a.6.6 0 1 1 0 1.2zm-2.754 0h-.358a.6.6 0 1 1 0-1.2h.358a.6.6 0 1 1 0 1.2zm-2.754 0h-.358a.6.6 0 1 1 0-1.2H96a.6.6 0 1 1 0 1.2zm-2.754 0h-.361a.6.6 0 0 1 0-1.2h.361a.6.6 0 1 1 0 1.2zm-2.756 0h-.358a.6.6 0 0 1 0-1.2h.358a.6.6 0 1 1 0 1.2zm-2.754 0h-.358a.6.6 0 0 1 0-1.2h.358a.6.6 0 1 1 0 1.2zm-2.754 0h-.358a.6.6 0 0 1 0-1.2h.358a.6.6 0 1 1 0 1.2zm-2.754 0h-.358a.6.6 0 1 1 0-1.2h.358a.6.6 0 1 1 0 1.2zm156.676-.188c-.273 0-.519-.188-.585-.466a.6.6 0 0 1 .449-.721l.325-.084c.323-.086.648.099.736.419a.6.6 0 0 1-.42.739l-.371.095c-.046.011-.092.015-.136.015l.002.002zm2.563-.993a.6.6 0 0 1-.526-.311c-.158-.291-.052-.657.238-.816l.294-.17a.6.6 0 0 1 .614 1.032l-.33.19a.6.6 0 0 1-.288.075h-.002zm-191.72-.31a.6.6 0 0 1-.424-.176l-.253-.254c-.233-.234-.233-.616 0-.849a.6.6 0 0 1 .846 0l.255.254c.233.234.233.616 0 .849a.6.6 0 0 1-.424.176zm193.87-1.396a.59.59 0 0 1-.415-.168.6.6 0 0 1-.015-.849l.248-.26c.226-.24.609-.247.846-.015a.6.6 0 0 1 .016.849l-.249.26a.59.59 0 0 1-.431.185v-.002zM47.799 6.023a.59.59 0 0 1-.422-.174l-.255-.254a.6.6 0 0 1-.002-.849c.233-.236.613-.236.846-.002l.255.254a.6.6 0 0 1-.422 1.026zm197.733-1.432c-.15 0-.299-.055-.416-.168a.6.6 0 0 1-.015-.849l.248-.26c.231-.238.609-.247.847-.015a.6.6 0 0 1 .015.849l-.248.26c-.119.121-.275.183-.431.183zm-199.68-.523a.6.6 0 0 1-.424-.176l-.253-.254c-.233-.234-.233-.616 0-.849a.6.6 0 0 1 .846 0l.253.256c.233.234.233.616 0 .849a.6.6 0 0 1-.424.177l.002-.002z"/></g><path d="M167.926 97.558V71.704l1.602 3.488v8.961l2.952-3.596v12.518l-4.554 4.483z" fill="#151afe"/><g fill="#131313"><path d="M233.931 41.86H69.742L45.584 27.246l.618-1.03 23.873 14.441h163.857v1.202z"/><path d="M44.412 26.644l24.723 14.828-2.418-3.545-8.572-5.138 5.132-.781-11.966-7.179-6.9 1.816zm183.663 12.065h11.687l3.822 2.367h-19.325l3.816-2.367z"/><path d="M214.412 41.076h21.141l-3.941 2.301h-13.265l-3.935-2.301zm6.633 64.853l3.849-7.828-2.743-1.361-3.849 7.832 2.743 1.357zm5.864-18.872l-3.135 6.377 2.602 1.288 3.135-6.377-2.602-1.288zm6.398-12.979l-5.873 11.943 2.602 1.289 5.873-11.943-2.602-1.289zm3.105.232l2.222-4.523-2.6-1.286-2.224 4.518 2.602 1.291zm1.981-10.614l2.637 1.306 4.023-8.189-2.634-1.304-4.026 8.187zM64.979 9.169h-2.875v.267h2.875v-.267z"/><path d="M64.465 8.196l-2.033 2.04.188.189 2.033-2.04-.188-.189z"/><path d="M63.68 7.864h-.266v2.886h.266V7.864z"/><path d="M62.629 8.192l-.188.189 2.033 2.04.188-.189-2.033-2.04z"/><path d="M63.541 11.606c-1.262 0-2.288-1.03-2.288-2.297s1.027-2.297 2.288-2.297 2.288 1.03 2.288 2.297-1.026 2.297-2.288 2.297zm0-4.328a2.032 2.032 0 0 0 0 4.064 2.032 2.032 0 0 0 0-4.064zm137.056 107.186v-9.156l1.547 1.553v-3.073l-2.631-2.641-2.631 2.641v3.076l1.548-1.554v9.154h2.167z"/></g><g fill="#000"><path d="M196.995 75.157h-.009c-.152-.013-.257-.119-.281-.289-.02-.121-.003-.245.041-.349.036-.084.093-.161.161-.223s.141-.097.222-.135l.015-.007a.47.47 0 0 0 .17-.121c.048-.068.061-.159.068-.258v-.042c.015-.159.026-.309.118-.448-.083-.282-.079-.574-.079-.854 0-.236-.002-.512-.055-.792s-.044-.56-.041-.805l-.003-.267-.006-.218c0-.079 0-.168.015-.252.007-.042.015-.086.042-.126a.14.14 0 0 1-.013-.119.17.17 0 0 1-.014-.194c-.015-.042-.015-.086 0-.121.007-.016.02-.033.033-.044-.006-.026-.006-.055 0-.086-.026-.055-.039-.117-.043-.168l-.064-.077-.068-.079a.63.63 0 0 1-.093-.181c-.015-.055-.028-.117-.039-.196-.002-.033 0-.062 0-.09 0-.04.002-.075-.007-.106a.89.89 0 0 0-.035-.104c-.033-.086-.064-.17-.062-.274 0-.044.007-.09.009-.135 0-.02.002-.035.007-.055v-.02c.006-.051.009-.106.033-.159l.05-.104c.014-.02.022-.042.033-.062l.044-.106.027-.064a.44.44 0 0 1 .085-.135.33.33 0 0 1 .064-.048c.016-.009.033-.02.044-.033.033-.035.042-.086.044-.135a.37.37 0 0 1-.176-.176.38.38 0 0 1-.026-.338v-.007c.026-.057.044-.113.05-.17v-.049c0-.042.003-.086.014-.128.028-.126.118-.177.204-.216l.04-.216c0-.009.002-.02.006-.033.013-.062.022-.128.062-.183a.42.42 0 0 0 .057-.117.64.64 0 0 1-.035-.218h-.033c-.044 0-.093-.013-.134-.04-.08-.022-.145-.071-.181-.121-.026-.022-.05-.055-.074-.086s-.033-.062-.044-.099c-.003.026-.009.051-.014.077v.009c-.035.183-.079.413-.189.574.016.029.022.068.022.117a.18.18 0 0 1-.019.086c.015.035.022.051.05.064s.062.033.086.062c.051.057.055.139.007.203-.042.055-.106.086-.183.086-.064 0-.125-.022-.169-.062h-.029l.002.077c0 .026 0 .042.044.049.027-.013.058-.015.086-.015.04 0 .077.009.112.022.044.02.09.044.112.099.022.062 0 .112-.033.161-.096.176-.266.267-.536.278h-.055c-.092 0-.169-.015-.25-.084l-.009-.009c-.075-.064-.139-.119-.18-.218a.86.86 0 0 1-.097-.351c-.002-.068-.002-.146.02-.216-.022-.013-.04-.035-.049-.062a.69.69 0 0 1-.035-.198c0-.033.007-.141.075-.188-.016-.055-.022-.11-.027-.154-.006-.077-.013-.17.007-.254-.035-.051-.035-.119-.033-.168v-.02c0-.049 0-.106.029-.152.019-.218.05-.441.103-.686-.002-.029 0-.057.009-.09l.044-.168c-.02-.057-.016-.119.008-.19s.049-.11.08-.128c-.003-.022 0-.044 0-.068-.003-.044.006-.086.028-.117 0-.013-.002-.022-.006-.035-.009-.093.033-.161.07-.229.02-.029.035-.057.048-.09.016-.042.02-.093.02-.146v-.048c.002-.064.015-.132.04-.199l.068-.196c0-.042-.016-.084-.029-.128a.95.95 0 0 1-.033-.141c-.006-.071.013-.139.033-.198.009-.035.022-.071.027-.106.008-.057.008-.121.013-.183a1.13 1.13 0 0 1 .026-.258v-.02c.007-.163.097-.287.183-.402.041-.057.085-.117.118-.181.044-.086.068-.183.093-.278a1.37 1.37 0 0 1 .109-.316c0-.007 0-.009-.006-.033-.002-.013-.009-.029-.013-.044-.003-.035 0-.064.022-.097.033-.051.074-.093.112-.135l.013-.015.068-.068c-.013-.02-.015-.042-.013-.064l-.007-.007c-.022-.029-.041-.077-.028-.119-.04-.055-.029-.099-.013-.126a.11.11 0 0 1 .006-.117c-.009-.035-.002-.071.02-.099-.007-.035.002-.071.026-.093 0-.026.007-.049.02-.064-.002-.033.007-.062.029-.079.006-.035.026-.068.055-.086.008-.044.035-.068.057-.079.009-.042.039-.075.077-.09.013-.042.041-.064.063-.075.016-.026.04-.042.064-.055.033-.035.068-.055.112-.062.029-.029.068-.044.11-.044.035-.02.071-.029.106-.029h.015c.029-.009.046-.013.064-.013s.048.002.075.013c.013 0 .022-.002.035-.002.033 0 .07.009.103.026h.022c.022.002.044.013.068.022a.9.9 0 0 1-.039-.104c-.055-.033-.097-.079-.121-.146-.154-.064-.159-.258-.159-.351v-.033c0-.075-.002-.154.027-.223.02-.049.064-.084.121-.106.022-.051.05-.093.092-.119a1.5 1.5 0 0 1 .336-.849c.273-.335.706-.538 1.159-.538a1.48 1.48 0 0 1 .483.079c.279.093.517.267.686.499.147.203.244.454.286.741a.31.31 0 0 1 .055.062c.154.04.182.205.193.351.013.196-.028.322-.127.364-.027.068-.064.117-.117.141a.82.82 0 0 1-.125.258c.039.042.077.104.077.174 0 .035-.013.068-.035.097.05.055.077.126.068.196h.055a.58.58 0 0 1 .158.027 1.48 1.48 0 0 1 .323.139l.022.013c.128.068.341.183.347.357.132.071.238.17.321.26.007.007.013.015.013.02.04.071.075.132.099.203 0 .009.003.015.003.026a.89.89 0 0 1 .14.331c.013.071.02.141.022.212a1.33 1.33 0 0 0 .02.188c.02.112.077.194.145.287l.029.042c.061.086.147.218.173.366.002.02 0 .042-.009.057a.52.52 0 0 1 .02.079l.009.077c0 .027.002.051.007.075a.74.74 0 0 0 .022.077c.006.02.013.035.015.055a.59.59 0 0 1-.077.476c.009.026.022.049.033.068.075.128.084.265.09.399 0 .026.002.051.007.075.006.084.026.161.061.247l.009.022a1 1 0 0 1 .068.229c.009.086 0 .168-.033.232a.39.39 0 0 1 .009.216c.029.04.04.086.048.128.003.022.009.042.014.062.09.027.116.126.134.199v.013c.022.068.033.128.033.188v.174c0 .04.019.079.033.126.026.068.048.135.035.21-.009.064-.055.148-.125.19.002.042.006.093-.003.146-.006.035-.019.068-.035.097.02.049.016.11-.015.194a.31.31 0 0 1-.044.079c0 .075.015.152.028.223.027.128.051.265.016.401-.044.183-.167.344-.337.435-.063.04-.131.048-.195.055-.013 0-.029.002-.042.002l-.116.009h-.02c-.134-.002-.218-.075-.229-.187-.009-.132.093-.236.194-.278a.45.45 0 0 1 .074-.022c.009-.026.027-.057.029-.091v-.02c-.04.051-.09.093-.145.121a.37.37 0 0 1-.161.042c-.061 0-.109-.022-.14-.062-.086-.104-.007-.251.039-.338l.007-.013c.015-.033.039-.062.057-.091s.035-.051.051-.077c.008-.02.015-.044.019-.071 0-.015.007-.035.009-.051-.061-.068-.121-.17-.099-.26-.026-.022-.05-.051-.07-.077a.38.38 0 0 1-.075-.183v-.112c.002-.051.007-.099-.009-.146l-.019-.051c-.022-.068-.044-.128-.058-.203l-.008-.062a.94.94 0 0 0-.033-.17c-.009-.033-.027-.064-.042-.097-.009.055-.022.117-.051.174.04.042.062.106.064.19a2.26 2.26 0 0 1-.009.274v.057a.81.81 0 0 1-.074.302c.116.117.127.296.127.454v.331c.002.104.029.205.051.302.044.181.068.377.068.615.154.068.257.163.314.302.033.075.042.154.051.232 0 .022.002.042.006.062 0 .009 0 .02.002.026l.014.086c0 .04-.007.077-.014.112 0 .009-.002.02-.006.033-.016.09-.013.183-.009.274 0 .097.002.196-.013.3-.035.21-.119.335-.251.391v.009a.34.34 0 0 1-.002.152c-.013.04-.033.075-.061.099v.042c0 .022-.003.044-.009.064.022.026.033.057.033.097 0 .026-.007.051-.02.075.04.062.048.128.026.183 0 .007-.006.015-.008.022.006.033.015.068 0 .11-.007.015-.016.035-.029.049.09.112.075.267.062.393v.015c-.014.121-.003.247.002.366l.009.181c.002.146-.014.287-.033.421l-.027.23c-.013.168.002.342.02.51.002.044.009.086.013.126.009.121.007.216-.009.302l-.008.04c-.02.093-.04.181-.027.271v.009c.007.097.007.198-.006.313-.003.044-.014.086-.02.128l-.022.163c-.007.093.02.188.044.278.028.099.055.203.048.309v.007a1.72 1.72 0 0 1-.022.293c.128.104.163.254.18.373.02.163-.028.293-.14.36-.121.077-.277.093-.411.11h-.029c-.187.026-.349.035-.497.035-.118 0-.23-.007-.334-.02h-.009c-.189-.026-.314-.135-.342-.302-.02-.106-.036-.229-.009-.349-.027-.064-.02-.128-.013-.194l.002-.071v-.009l.013-.3c.002-.022.009-.044.013-.071l.016-.097v-.126c0-.04.008-.071.019-.099-.083-.106-.103-.225-.118-.351v-.015l-.09-.552-.007-.035c-.062-.349-.121-.706-.077-1.059v-.009c.002-.029.009-.057.015-.091.016-.086.036-.176.009-.251-.006-.022-.022-.049-.035-.071s-.026-.042-.035-.068c-.027-.062-.029-.126-.029-.183v-.057-.132c-.006-.075-.02-.148-.033-.216-.022-.11-.008-.194.044-.267-.015-.033-.028-.071-.02-.113-.028-.026-.061-.075-.035-.154l-.006-.007c-.042-.044-.049-.104-.022-.159-.04-.049-.049-.113-.029-.168a.38.38 0 0 1-.127-.161c-.027-.057-.042-.117-.057-.174v-.009c-.027-.086-.062-.168-.097-.247-.075-.168-.103-.335-.125-.477 0-.022-.007-.042-.007-.064-.007-.062-.013-.117-.033-.168-.009-.029-.022-.057-.048-.084-.009-.009-.016-.015-.027-.022-.039.121-.039.254-.042.384v.084c0 .086-.002.177-.026.271l-.042.17v.013l-.026.084-.007.022c-.019.079-.039.159-.044.236v.071a1.38 1.38 0 0 1-.008.159 1.52 1.52 0 0 1-.036.188.23.23 0 0 1-.05.106c.002.02.002.04 0 .062-.007.029-.02.049-.029.064 0 .029.003.049 0 .066-.002.055-.039.099-.063.128.019.035.019.077.008.119s-.028.075-.057.099c.002.035-.006.075-.033.112.051.11.04.245.027.342l-.069.444c-.019.119-.043.278-.048.441-.002.119-.013.28-.033.437-.006.064-.02.128-.033.194-.015.077-.033.161-.035.24-.007.104 0 .21 0 .313l.002.112v.071.521.007c-.006.075-.015.205-.09.271.077.176.086.406.033.706a.84.84 0 0 1 .018.45c-.016.071-.036.141-.104.198s-.127.079-.208.084h-1.7.029l.009-.007zm.446-11.304c.013.062-.007.121-.026.174l-.007.015-.02.057c.022-.016.049-.026.077-.033.009-.013.022-.022.035-.029-.015-.077-.026-.154-.033-.232-.006.015-.015.033-.028.044l.002.002zm-.446 11.289h-.009c-.141-.009-.244-.112-.266-.274-.02-.119-.002-.238.042-.342a.61.61 0 0 1 .158-.216c.068-.057.139-.093.215-.132l.016-.007c.061-.033.132-.068.176-.128.05-.071.061-.161.07-.265v-.042c.015-.159.026-.309.121-.448-.084-.282-.084-.576-.079-.856 0-.236-.002-.516-.055-.794s-.044-.556-.042-.801l-.002-.267-.007-.218c0-.079 0-.163.016-.251.006-.044.019-.09.044-.128-.027-.04-.029-.08-.016-.121-.048-.057-.055-.126-.013-.187-.015-.04-.02-.084-.002-.119.006-.02.02-.035.035-.044-.009-.029-.009-.062-.002-.097-.027-.051-.04-.119-.049-.17-.019-.029-.043-.055-.07-.084l-.068-.077c-.04-.051-.07-.113-.09-.176a.95.95 0 0 1-.035-.194v-.086c0-.04.002-.077-.007-.112a.89.89 0 0 0-.035-.104c-.033-.084-.064-.168-.062-.267 0-.044.007-.09.009-.135 0-.02.002-.035.007-.055v-.02c.006-.051.009-.104.033-.154.013-.035.033-.068.05-.099.009-.02.022-.042.033-.062l.044-.11.027-.064c.019-.049.048-.097.083-.128.02-.02.04-.033.062-.044s.035-.022.048-.035c.04-.042.048-.099.051-.159-.071-.022-.128-.084-.181-.174a.36.36 0 0 1-.022-.324v-.007a.57.57 0 0 0 .051-.177v-.051a.49.49 0 0 1 .013-.126c.029-.121.112-.168.205-.205l.039-.223c0-.009.002-.022.007-.033.009-.057.022-.126.057-.174.028-.042.048-.084.061-.128a.62.62 0 0 1-.039-.238s-.029.007-.048.007a.28.28 0 0 1-.128-.035c-.077-.022-.138-.064-.169-.117-.027-.022-.051-.055-.075-.086-.033-.051-.051-.112-.062-.168l-.015.077c-.002.022-.009.049-.013.075v.009c-.035.188-.079.415-.194.576a.24.24 0 0 1 .027.117c0 .033-.007.057-.022.086v.007c.02.04.028.057.061.075s.058.029.084.055c.044.051.048.126.007.183-.04.051-.099.077-.17.077a.25.25 0 0 1-.167-.062h-.055l.007.097c0 .035.009.057.064.064.026-.013.055-.02.083-.02a.26.26 0 0 1 .106.022c.041.015.083.042.103.09.02.055 0 .104-.029.148-.092.174-.259.258-.523.271h-.055a.32.32 0 0 1-.237-.079l-.009-.009c-.07-.062-.134-.117-.176-.212-.057-.11-.085-.23-.092-.349a.65.65 0 0 1 .022-.223c-.026-.009-.042-.029-.055-.062a.61.61 0 0 1-.033-.194c0-.071.02-.152.077-.181-.015-.057-.022-.117-.029-.163-.006-.077-.013-.174.007-.254-.035-.049-.035-.117-.035-.163v-.02c0-.044 0-.104.028-.146.02-.218.051-.444.104-.688 0-.029 0-.057.008-.086l.044-.17c-.019-.057-.015-.117.007-.187s.048-.11.079-.126v-.013c-.002-.022 0-.044 0-.064-.002-.044.007-.086.029-.117-.002-.013-.007-.027-.007-.042-.009-.086.029-.154.07-.218a.51.51 0 0 0 .049-.093c.02-.044.02-.099.022-.148v-.048c.002-.064.015-.128.039-.194l.071-.196c0-.044-.016-.09-.029-.139a.99.99 0 0 1-.033-.139c-.006-.068.013-.132.033-.194.009-.035.022-.071.027-.106a1.41 1.41 0 0 0 .013-.183 1.03 1.03 0 0 1 .028-.258v-.02c.007-.161.093-.28.181-.397l.118-.181a1.27 1.27 0 0 0 .093-.28c.026-.104.055-.212.105-.309.007-.013 0-.022-.002-.044-.002-.013-.009-.026-.013-.042-.003-.029 0-.055.019-.084a.8.8 0 0 1 .113-.132l.013-.015c.022-.027.048-.051.074-.075-.015-.026-.022-.048-.015-.071-.024-.035-.048-.088-.035-.126-.042-.055-.029-.097-.013-.121-.029-.055-.013-.09.006-.113-.013-.035-.006-.071.02-.097-.006-.035 0-.071.026-.093 0-.027.007-.049.02-.068-.006-.029.002-.057.029-.077a.11.11 0 0 1 .055-.086c.006-.044.035-.068.057-.077.009-.044.035-.077.077-.09a.11.11 0 0 1 .064-.075.12.12 0 0 1 .063-.055c.029-.035.068-.055.11-.062.029-.029.064-.044.106-.044.033-.02.068-.029.099-.029h.019a.27.27 0 0 1 .06-.013c.022 0 .048.002.07.013.013 0 .022-.002.035-.002.033 0 .068.009.099.026h.022a.25.25 0 0 1 .103.042h.003a.6.6 0 0 1-.062-.155c-.055-.033-.097-.079-.125-.148-.147-.057-.152-.247-.154-.337v-.033c0-.071-.002-.152.022-.216.02-.044.062-.077.121-.097.022-.057.055-.097.097-.121.015-.307.134-.605.334-.849.27-.331.696-.532 1.145-.532.163 0 .327.026.481.077a1.38 1.38 0 0 1 .677.492c.148.203.244.45.282.741.022.02.044.042.061.068.147.033.176.196.187.338.013.196-.029.313-.125.351-.022.071-.062.117-.117.141-.026.097-.07.19-.132.271.04.042.084.104.079.17 0 .035-.013.071-.039.099.061.057.086.139.068.216l.044-.007h.029a.52.52 0 0 1 .151.026 1.64 1.64 0 0 1 .321.135l.022.013c.128.068.341.183.341.351a1.16 1.16 0 0 1 .323.265 1.18 1.18 0 0 1 .108.216c0 .007.002.015.002.022.075.11.118.218.14.331.014.071.02.141.022.21.003.062.007.126.02.188.02.117.079.196.147.293l.029.042c.062.086.145.216.169.36.003.02 0 .04-.013.051.013.026.016.055.022.084l.007.075c0 .026.002.051.009.075l.021.079c.007.02.014.035.016.055a.58.58 0 0 1-.079.47l.039.077c.071.126.079.26.09.39 0 .026.003.049.007.075a.83.83 0 0 0 .062.252l.008.022c.029.071.058.146.068.225a.42.42 0 0 1-.032.229v.007c.021.057.026.139.008.212.029.04.04.086.049.128l.015.075c.086.02.117.119.134.194v.013c.022.068.029.126.033.183v.174c.002.042.02.084.035.128.022.064.049.132.035.203s-.057.148-.127.183c.002.044.007.099-.002.152a.28.28 0 0 1-.04.099c.022.042.02.106-.013.19-.013.033-.026.057-.044.077 0 .079.015.159.033.232.022.128.048.26.015.397-.044.181-.162.335-.327.426-.062.035-.125.049-.189.055-.013 0-.029 0-.044.002l-.112.009h-.02c-.125-.002-.202-.068-.209-.17-.009-.126.09-.223.183-.26.022-.009.048-.016.079-.027.013-.029.028-.068.035-.104 0-.02 0-.042-.009-.062-.039.064-.092.113-.16.148-.051.026-.106.04-.152.04-.055 0-.099-.02-.127-.055-.08-.093-.003-.236.041-.318l.007-.013c.015-.033.039-.062.057-.091s.035-.051.051-.079c.013-.022.015-.049.022-.077 0-.02.006-.04.013-.057-.071-.071-.126-.181-.097-.26-.029-.026-.055-.051-.075-.079-.041-.055-.063-.113-.07-.174-.002-.04 0-.077 0-.112 0-.051.007-.104-.013-.152l-.02-.051c-.022-.064-.044-.128-.057-.198 0-.02-.007-.042-.009-.062-.009-.057-.015-.119-.035-.177-.013-.044-.04-.09-.062-.132-.015.06-.028.143-.07.214.042.042.064.104.068.188l-.006.273v.057c-.009.093-.022.203-.08.307.121.113.132.294.132.45v.335c.003.106.029.21.051.307.044.181.068.379.068.622.158.064.259.161.317.3.033.075.041.152.05.229 0 .02.007.04.009.062 0 .009.002.02.002.029.007.029.009.055.009.084a.36.36 0 0 1-.013.11c0 .009-.003.02-.007.033a1.35 1.35 0 0 0-.009.278c0 .097.007.196-.013.296-.035.21-.119.331-.253.379v.022c.007.044.009.099-.002.146-.013.04-.033.075-.061.099v.048c0 .027-.003.049-.014.068a.13.13 0 0 1 .036.09c0 .026-.007.051-.02.075.039.057.05.126.028.177-.002.009-.006.015-.013.026v.009c.007.029.016.062.002.097-.006.02-.019.04-.035.055.093.106.077.265.064.391v.015a2.11 2.11 0 0 0 .002.373l.009.181c.002.146-.013.287-.033.421l-.026.23c-.014.168 0 .344.019.512l.014.126c.008.119.006.212-.014.3l-.006.04c-.02.093-.04.183-.027.278v.009c.009.093.007.196-.006.309-.002.044-.013.086-.02.128l-.022.163c-.007.097.02.194.044.282.026.097.055.198.048.307v.007a1.36 1.36 0 0 1-.026.302c.132.099.167.247.18.371.02.159-.028.28-.132.349-.118.075-.27.09-.404.106h-.029c-.186.026-.349.035-.494.035-.119 0-.229-.007-.33-.02h-.009c-.182-.026-.301-.128-.329-.287-.02-.106-.036-.229-.007-.349-.026-.062-.02-.126-.015-.19l.002-.075v-.009l.013-.3c.002-.022.009-.044.013-.068l.016-.097v-.126a.23.23 0 0 1 .022-.104c-.086-.106-.104-.225-.121-.351V72.9l-.09-.554-.007-.035c-.062-.344-.121-.702-.077-1.052v-.007c.002-.029.009-.057.015-.09.02-.091.036-.181.009-.258-.009-.026-.022-.049-.035-.075s-.026-.042-.035-.068c-.027-.062-.029-.121-.027-.177v-.057-.135a1.79 1.79 0 0 0-.033-.216c-.021-.11-.006-.19.049-.26-.02-.033-.033-.079-.02-.119-.033-.026-.068-.071-.035-.154-.053-.057-.057-.112-.029-.161-.041-.049-.055-.117-.028-.17-.055-.035-.099-.09-.134-.161a.89.89 0 0 1-.057-.17v-.009c-.027-.091-.062-.168-.097-.252-.071-.163-.103-.331-.121-.474 0-.022-.007-.042-.009-.064a.72.72 0 0 0-.033-.174.22.22 0 0 0-.05-.086c-.016-.015-.033-.029-.044-.035-.049.128-.049.271-.049.408v.084a1.25 1.25 0 0 1-.026.267l-.042.17v.009l-.026.086-.007.022a1.33 1.33 0 0 0-.044.238v.075a1.09 1.09 0 0 1-.009.152 1.41 1.41 0 0 1-.035.188c-.009.044-.028.079-.055.104.007.02.007.042 0 .062-.006.027-.015.042-.028.057-.002.002-.009.009-.013.015.008.02.013.04.008.057a.22.22 0 0 1-.068.126c.02.033.027.075.013.117a.19.19 0 0 1-.057.097c.007.035-.002.075-.035.117.055.106.042.245.029.342l-.069.444a3.5 3.5 0 0 0-.048.441 4.26 4.26 0 0 1-.033.437l-.033.19-.039.24c-.007.104 0 .212 0 .313l.002.112v.071.521.007c-.007.075-.016.212-.092.267.079.181.087.408.037.708a.89.89 0 0 1 .013.452c-.013.068-.033.135-.097.19s-.125.077-.197.079h-1.7l.027.007.022-.015zm.431-11.291c.013.057-.007.119-.022.174l-.007.015-.044.128c.033-.044.075-.075.128-.084.013-.015.028-.029.044-.04a1.46 1.46 0 0 1-.036-.391c0 .02-.008.035-.019.051.008.049-.007.097-.044.139v.007zm.063-.258v.02-.026h-.002l.002.007zm.258-4.388s-.009.02-.016.029l.04-.022.085-.062.093-.068h-.002c-.014.013-.029.022-.049.022h-.013l-.007.007s-.019.013-.028.015c-.007.009-.013.013-.013.016-.014.015-.036.033-.062.04-.006.009-.013.015-.022.026l-.006.007v-.009zm-.75 15.922h-.009c-.134-.009-.228-.106-.253-.26a.6.6 0 0 1 .04-.331c.035-.079.086-.152.154-.212s.134-.093.211-.132l.013-.007c.064-.033.134-.071.183-.132.054-.075.063-.168.074-.273v-.044c.016-.159.027-.309.121-.444-.086-.282-.083-.576-.079-.86 0-.236-.002-.516-.055-.794s-.044-.554-.042-.799l-.002-.267-.002-.218c0-.073 0-.163.015-.247.009-.049.02-.093.049-.132-.029-.042-.036-.084-.016-.126-.048-.055-.057-.117-.02-.174l.007-.013c-.015-.035-.02-.077-.007-.11.009-.02.022-.035.042-.044-.013-.033-.015-.068-.006-.106-.029-.051-.042-.119-.049-.174-.022-.033-.048-.057-.074-.086-.022-.022-.044-.049-.064-.077-.04-.048-.068-.11-.086-.17-.015-.051-.028-.113-.035-.19v-.084c0-.042.002-.079-.007-.117s-.022-.071-.039-.106c-.029-.08-.062-.163-.057-.26 0-.044.006-.09.008-.132 0-.016.003-.035.007-.055v-.02c.007-.049.009-.099.029-.148.013-.035.033-.068.048-.099.013-.02.022-.042.033-.062l.044-.11c.006-.02.015-.042.026-.062.02-.049.049-.093.079-.121.016-.016.04-.029.058-.042s.039-.022.05-.04c.044-.049.055-.117.057-.181-.07-.02-.132-.077-.182-.17a.34.34 0 0 1-.022-.309v-.007a.5.5 0 0 0 .05-.181v-.051c0-.042.003-.084.014-.121.026-.117.109-.159.202-.199l.042-.232c0-.013.002-.022.006-.035.009-.055.022-.119.055-.168a.44.44 0 0 0 .068-.139c-.026-.062-.039-.139-.039-.238v-.026a.16.16 0 0 1-.064.013.27.27 0 0 1-.119-.033h-.002c-.075-.02-.134-.062-.163-.11-.026-.026-.05-.055-.07-.086-.048-.077-.064-.17-.068-.254l-.04.17-.015.084c-.035.188-.079.421-.196.58.02.026.029.064.029.117 0 .033-.007.057-.027.084l.007.013c.015.04.029.064.068.084.029.013.055.026.077.051.042.044.044.11.007.161-.035.044-.09.071-.154.071s-.121-.026-.161-.064c-.006 0-.013.002-.019.007h-.062c.007.035.009.075.009.112 0 .051.022.077.083.084.022-.013.051-.02.084-.02a.24.24 0 0 1 .097.02c.039.015.077.04.092.084s0 .093-.029.135c-.09.168-.252.252-.51.26h-.054c-.084 0-.154-.013-.229-.075l-.009-.009c-.07-.062-.132-.112-.169-.205a.86.86 0 0 1-.092-.342.58.58 0 0 1 .028-.232c-.026-.002-.048-.016-.061-.055a.63.63 0 0 1-.033-.19c0-.071.022-.152.079-.17-.02-.057-.027-.121-.033-.174-.007-.077-.013-.176.009-.258-.04-.044-.036-.112-.036-.161v-.02c0-.044 0-.099.029-.139a5.82 5.82 0 0 1 .103-.688.22.22 0 0 1 .009-.086l.044-.168v-.007c-.02-.055-.02-.112.002-.181s.049-.11.079-.121v-.022a.32.32 0 0 1 0-.062c-.002-.044.007-.084.029-.113-.002-.015-.007-.033-.009-.044-.009-.084.029-.146.068-.205.02-.033.04-.062.051-.097.02-.049.022-.104.022-.154v-.049c.002-.062.015-.126.039-.19l.071-.198c0-.049-.016-.097-.029-.146-.013-.042-.026-.086-.028-.135-.007-.064.013-.128.033-.187l.028-.11a1.31 1.31 0 0 0 .013-.187 1.05 1.05 0 0 1 .029-.26c.006-.174.092-.291.176-.406l.121-.183c.044-.09.07-.188.096-.282.027-.104.055-.21.106-.307.009-.02.002-.035-.002-.057-.003-.013-.009-.022-.009-.04-.002-.026 0-.049.02-.075.028-.048.07-.09.11-.132l.013-.015.085-.086-.013-.015c-.013-.02-.015-.04-.009-.062-.002-.007-.008-.009-.013-.016-.02-.026-.039-.075-.02-.106-.043-.055-.032-.097-.013-.119-.035-.055-.015-.091.002-.11-.015-.035-.008-.068.016-.097-.009-.035 0-.071.026-.09-.002-.029.002-.051.02-.071-.009-.029 0-.055.026-.075 0-.035.022-.071.051-.084.002-.048.033-.068.057-.077.007-.049.033-.077.077-.086.009-.049.035-.068.062-.075.013-.026.035-.044.061-.055.029-.033.064-.051.106-.055.028-.029.061-.044.103-.044.033-.02.064-.029.097-.029h.022c.028-.009.044-.013.057-.013.022 0 .048.002.07.013.013 0 .027-.002.04-.002.033 0 .063.009.096.026h.022c.04.009.071.022.104.044h.008c.014 0 .022.002.036.009a.6.6 0 0 1-.079-.19c-.058-.029-.099-.079-.126-.148-.145-.051-.147-.238-.151-.329v-.033c0-.071-.003-.148.022-.21.019-.042.057-.075.118-.09.022-.062.055-.104.099-.126.016-.307.132-.605.33-.849.266-.329.69-.525 1.132-.525a1.5 1.5 0 0 1 .475.077 1.35 1.35 0 0 1 .668.49c.147.203.244.45.281.741a.26.26 0 0 1 .068.075c.141.026.17.188.181.322.013.194-.029.307-.119.338-.022.075-.062.119-.117.141-.026.104-.074.198-.138.282.042.042.086.104.086.17 0 .04-.016.071-.049.099.075.062.104.159.068.238.027-.007.051-.013.075-.013h.027c.054 0 .105.013.147.022.096.026.195.071.316.135l.022.013c.128.068.337.183.33.349.134.068.244.17.33.265l.008.009c.04.071.075.132.097.199 0 .007.002.016 0 .022a.92.92 0 0 1 .145.331c.013.071.02.141.022.21a1.39 1.39 0 0 0 .02.19c.02.119.079.203.152.3l.028.042c.062.084.141.212.169.355.003.02-.002.035-.019.044.013.029.02.057.026.09.002.027.007.049.007.075a.34.34 0 0 0 .008.077l.022.084c.007.02.014.035.016.055a.56.56 0 0 1-.084.468 1.04 1.04 0 0 0 .042.086c.068.121.077.254.086.384 0 .026.002.048.006.075a.92.92 0 0 0 .062.258l.009.022c.028.071.057.146.063.223.009.086 0 .163-.035.229a.39.39 0 0 1 .014.225c.032.035.041.084.05.126l.02.084c.086.009.112.11.132.181v.013c.02.064.028.126.033.181v.177c0 .044.019.086.035.132.022.062.044.126.035.194s-.057.148-.127.177c.006.049.008.104 0 .159-.007.035-.022.071-.042.104.026.04.022.099-.009.183-.013.033-.029.057-.048.077a1.05 1.05 0 0 0 .033.24c.022.126.048.258.015.391-.044.177-.16.329-.321.415a.42.42 0 0 1-.182.051l-.044.002-.112.009h-.016c-.116-.002-.187-.062-.193-.154-.009-.117.083-.21.173-.245a.45.45 0 0 1 .086-.027c.016-.035.033-.075.04-.112.002-.033-.009-.068-.027-.099-.039.075-.096.132-.169.17-.048.026-.099.04-.145.04s-.09-.015-.116-.049c-.071-.086 0-.218.041-.3l.007-.013c.015-.033.039-.062.057-.09s.035-.051.051-.079.019-.051.022-.079c.002-.022.006-.044.015-.068-.062-.062-.134-.177-.097-.265-.033-.026-.057-.055-.079-.086-.039-.055-.061-.11-.068-.168-.002-.04 0-.075 0-.11 0-.055.007-.106-.013-.159-.007-.015-.013-.035-.02-.051-.022-.064-.044-.126-.055-.196l-.009-.062c-.006-.057-.015-.119-.035-.177-.015-.044-.039-.09-.061-.135-.009-.022-.022-.042-.033-.064 0 .016-.003.033-.007.049-.009.079-.022.17-.068.24.044.04.068.099.07.188l-.006.271v.057c-.009.093-.022.205-.084.309.125.106.134.287.134.448v.335c.002.106.029.212.055.309a2.65 2.65 0 0 1 .068.631.52.52 0 0 1 .317.293.89.89 0 0 1 .048.223c0 .02.007.042.009.062 0 .013.002.022.006.033.003.026.009.051.009.077a.54.54 0 0 1-.009.106c0 .009-.002.022-.006.033-.016.093-.013.188-.009.28s.002.194-.013.293c-.035.21-.119.329-.253.373v.035c.002.044.009.097-.002.139s-.035.075-.064.099a.43.43 0 0 1 .002.051c0 .029-.006.051-.013.075.022.02.04.051.04.086 0 .026-.007.051-.022.075.033.044.057.113.035.17-.002.009-.009.02-.015.026 0 .007 0 .013.002.02.006.026.013.051 0 .084-.009.026-.027.044-.042.062.099.104.084.26.07.39v.016c-.013.126-.006.251.003.373l.008.181c.003.141-.013.282-.033.419l-.026.229c-.013.17 0 .344.02.516.002.042.009.084.013.126.009.117.007.21-.009.293l-.006.04c-.02.097-.04.188-.027.282v.009a1.6 1.6 0 0 1-.006.307c-.003.042-.014.086-.02.128l-.022.168c-.007.097.02.196.044.289s.055.196.048.3v.007c.002.11-.009.216-.026.313.134.097.167.245.182.364.02.152-.026.267-.125.331-.117.071-.264.09-.398.104h-.029a3.45 3.45 0 0 1-.494.035c-.117 0-.229-.007-.328-.02h-.006c-.176-.022-.288-.121-.314-.274-.02-.106-.036-.229-.007-.349-.026-.062-.022-.126-.015-.187l.002-.075v-.009l.013-.296c0-.022.007-.044.013-.068l.016-.099v-.126c0-.042.008-.077.026-.106-.09-.104-.106-.225-.125-.351v-.016l-.091-.554-.006-.035c-.062-.344-.121-.699-.077-1.05v-.007c.002-.029.009-.057.015-.09.02-.091.04-.188.009-.265-.009-.026-.022-.051-.039-.077-.014-.02-.022-.042-.033-.064a.47.47 0 0 1-.027-.17v-.057-.135c-.006-.077-.02-.148-.033-.218-.022-.11-.006-.187.051-.258-.022-.033-.04-.086-.022-.126-.04-.026-.071-.071-.035-.152l-.022-.02c-.04-.042-.04-.093-.007-.139-.048-.051-.061-.121-.026-.177-.057-.033-.106-.086-.141-.161-.026-.055-.042-.113-.057-.168v-.009c-.027-.09-.062-.17-.097-.252-.07-.163-.103-.329-.121-.47 0-.022-.006-.042-.009-.064-.006-.062-.013-.119-.035-.176-.013-.033-.026-.064-.055-.093s-.048-.042-.068-.048c-.055.134-.055.287-.055.432v.084a1.02 1.02 0 0 1-.026.265l-.042.168-.026.097-.007.022c-.02.084-.039.159-.044.241v.075c0 .049-.002.099-.009.152-.006.062-.019.119-.035.183-.009.049-.028.079-.057.099.009.02.009.042.007.064s-.013.035-.027.051l-.015.015c.002.022.009.046.007.068-.003.049-.04.097-.075.126.024.042.031.077.017.117-.008.04-.033.075-.061.093.009.04 0 .077-.035.121.055.104.044.24.033.338l-.069.443-.05.444a4.26 4.26 0 0 1-.033.437 1.96 1.96 0 0 1-.033.19l-.04.245c-.006.106 0 .212 0 .316l.003.112v.071.518.007c-.007.077-.016.218-.097.26l.009.02c.077.17.085.397.033.693.044.137.05.28.015.45-.013.064-.033.128-.09.181a.3.3 0 0 1-.189.077h-1.699v-.029l.024-.011zm.411-11.278c.015.057 0 .119-.02.174l-.006.015a1.82 1.82 0 0 1-.071.188c.009-.007.022-.013.035-.015.029-.062.077-.097.139-.106.015-.02.035-.035.055-.044-.04-.17-.048-.344-.026-.518-.016.02-.029.035-.044.049.008.042 0 .084-.02.121.009.049-.007.093-.044.139h.002v-.002zm.295-4.591v.015l.077-.048.09-.064.147-.104c-.024.002-.035.007-.044.007s-.02-.002-.029-.009c-.015.02-.028.026-.046.026-.006 0-.013 0-.02-.002-.022.02-.033.027-.041.027l-.016.02c-.013.016-.035.033-.057.035-.006.009-.013.02-.022.029-.009.02-.017.033-.028.04 0 .013-.007.02-.009.026v.007l-.002-.004zm5.642 5.319V64.4c0-.059-.013-.119-.029-.177-.019-.075-.041-.181-.132-.181a.88.88 0 0 0-.022-.093c-.008-.044-.019-.093-.054-.128.019-.068.019-.148 0-.21.03-.082.039-.159.03-.245s-.041-.161-.074-.24a.99.99 0 0 1-.064-.26c-.013-.159-.009-.313-.09-.45-.02-.033-.033-.064-.044-.097a.55.55 0 0 0 .085-.461c-.013-.044-.032-.09-.041-.139s-.007-.099-.016-.152c-.006-.035-.013-.075-.033-.099.016-.002.029-.015.027-.035-.022-.126-.093-.24-.167-.349-.079-.112-.159-.205-.183-.349-.022-.132-.015-.267-.042-.397-.021-.121-.076-.232-.145-.331a1.03 1.03 0 0 0-.096-.216c-.106-.112-.209-.21-.343-.274.02-.17-.218-.287-.343-.355-.099-.055-.202-.104-.312-.132-.055-.015-.112-.029-.167-.022a.36.36 0 0 0-.11.026c.057-.086.035-.196-.055-.26v-.007c.099-.086.039-.194-.04-.267a.75.75 0 0 0 .148-.296c.061-.02.096-.075.116-.141.125-.035.125-.223.119-.324-.007-.117-.029-.289-.174-.309-.02-.029-.042-.057-.075-.077-.035-.265-.118-.521-.279-.737-.162-.225-.395-.393-.661-.483-.565-.19-1.214-.02-1.587.441a1.45 1.45 0 0 0-.328.849c-.05.026-.083.071-.103.128-.048.013-.097.04-.117.084-.028.068-.022.163-.019.236 0 .117.013.274.147.316.022.064.064.119.127.152a.66.66 0 0 0 .126.254c-.027-.022-.058-.042-.097-.048h-.013c-.029-.022-.062-.035-.099-.044h-.02c-.04-.022-.09-.035-.132-.022-.035-.015-.07-.02-.105-.009-.053.002-.093.009-.132.035-.035 0-.071.013-.099.042-.04 0-.075.015-.103.051-.029.013-.051.029-.064.062-.033.009-.055.033-.057.075-.042.007-.075.029-.077.086-.035.007-.057.029-.057.077-.036.011-.053.051-.051.079-.033.02-.035.044-.026.071-.022.015-.029.044-.022.075-.033.02-.04.055-.027.09-.037.035-.03.064-.015.097-.04.033-.029.071 0 .106-.04.04-.015.079.013.117-.022.022-.007.071.013.097.007.007.013.015.02.022-.007.02-.007.04.007.055.006.009.015.02.026.022l-.099.097c-.042.044-.09.09-.121.146-.013.02-.02.04-.015.062.006.04.033.068.013.106-.099.188-.105.402-.202.589-.097.194-.286.335-.295.563-.037.161-.017.315-.039.465-.016.097-.068.194-.057.294s.057.183.061.282l-.07.203a.66.66 0 0 0-.035.188c-.003.068 0 .141-.027.205-.039.104-.127.176-.116.296 0 .016.006.035.013.051-.029.026-.04.071-.033.11a.32.32 0 0 0 0 .062v.035c-.042.007-.07.079-.079.117-.022.064-.022.121 0 .174v.007l-.044.17c-.007.029-.013.055-.007.084v.007l-.103.693c-.033.04-.029.106-.029.152s0 .112.036.154c-.027.079-.016.181-.009.26a.6.6 0 0 0 .039.188c-.061.007-.085.086-.085.161 0 .062.013.126.033.183.013.04.039.044.07.044a.47.47 0 0 0-.04.245c.007.117.04.232.093.335.041.093.103.146.18.209.083.071.163.075.27.071.205-.009.396-.064.495-.251.022-.035.042-.077.026-.121s-.048-.057-.083-.075c-.051-.022-.119-.029-.17 0-.063-.007-.105-.029-.105-.099a.47.47 0 0 0-.015-.132c.026 0 .054.007.079 0 .008 0 .019-.002.026-.007.07.084.229.097.299 0a.11.11 0 0 0-.002-.141c-.02-.022-.044-.035-.075-.049-.051-.026-.062-.062-.084-.11.016-.026.029-.055.029-.086 0-.04-.007-.091-.035-.117.138-.181.18-.474.218-.666l.07-.282v.097c.002.091.015.188.068.267a.34.34 0 0 0 .07.084c.033.055.093.09.159.106h.002c.061.035.145.049.193 0v.055a.59.59 0 0 0 .04.238c-.02.057-.04.099-.071.148-.039.051-.044.132-.057.194l-.041.238c-.097.04-.176.079-.203.19-.013.055-.013.113-.015.17-.007.068-.029.128-.055.194-.04.104-.033.199.022.296.042.075.103.148.187.163 0 .071-.009.148-.062.203-.033.033-.077.049-.11.079s-.057.077-.074.119l-.071.174-.083.161c-.022.051-.022.106-.029.163l-.015.188c-.002.132.057.238.096.36.022.064 0 .139.009.205a1.03 1.03 0 0 0 .035.188.72.72 0 0 0 .084.168c.042.057.097.106.138.163.007.051.02.126.051.177-.009.044-.002.084.013.117-.061.02-.068.086-.042.139.007.016 0 .022-.004.029-.04.062-.02.119.026.163-.026.049-.013.09.02.126-.033.035-.044.086-.05.132a1.41 1.41 0 0 0-.016.245l.009.485c-.007.271-.007.532.042.794s.057.532.055.799c0 .289 0 .582.083.863-.105.146-.11.313-.125.485-.007.097-.02.199-.077.28-.044.064-.119.104-.187.139-.079.04-.158.075-.222.135a.56.56 0 0 0-.147.205c-.044.099-.055.216-.04.322.02.132.097.238.238.247h1.703c.071-.002.126-.029.18-.075s.071-.106.086-.17c.033-.146.033-.296-.026-.435.048-.232.07-.49-.024-.697l-.02-.035c.09-.026.099-.187.105-.26a5.47 5.47 0 0 0 0-.587l-.006-.432c.009-.146.05-.289.07-.435a4.54 4.54 0 0 0 .033-.435c.007-.152.026-.3.051-.448l.068-.444c.013-.106.022-.24-.035-.338.044-.051.05-.091.035-.126.057-.033.09-.128.057-.183-.007-.007-.013-.015-.02-.022.055-.044.11-.128.062-.188.008-.013.022-.022.028-.033s.02-.026.022-.044c.002-.026 0-.048-.009-.068.036-.02.055-.057.064-.097l.035-.183c.009-.075.009-.148.014-.225.006-.093.028-.176.05-.267l.068-.265c.02-.086.022-.174.027-.26.002-.181-.009-.364.061-.532.033 0 .071.035.09.055.029.029.044.062.057.099.029.079.033.161.042.245.022.161.055.316.121.463.035.084.07.163.092.254l.058.177a.31.31 0 0 0 .151.161c-.044.055-.033.135.027.181-.036.04-.04.086 0 .128.008.009.019.02.028.026-.039.077-.02.126.035.152-.028.035-.008.099.02.132-.064.075-.075.159-.055.254l.033.218c.007.064 0 .128 0 .194 0 .057 0 .112.022.163s.055.093.07.141c.04.112-.008.247-.026.36v.007c-.048.36.02.728.084 1.081l.085.554c.02.139.033.265.132.371-.02.029-.028.068-.028.106v.126c-.003.057-.02.113-.029.168-.013.099-.013.198-.013.302 0 .084-.026.181.013.258-.028.112-.013.23.007.344.026.154.151.238.301.26h.009c.266.035.549.02.817-.013.139-.015.299-.029.418-.106.11-.068.132-.196.119-.316-.016-.141-.058-.274-.181-.357a1.33 1.33 0 0 0 .027-.322v-.007c.013-.203-.106-.386-.093-.589.007-.099.029-.196.042-.296s.016-.203.007-.302v-.007c-.016-.113.013-.219.033-.329.02-.097.02-.194.009-.289-.02-.212-.049-.428-.033-.644s.063-.426.057-.646c-.007-.187-.035-.371-.016-.556.014-.132.035-.307-.077-.401.022-.016.042-.04.051-.064.013-.035 0-.064-.009-.097.007-.013.013-.022.02-.033.022-.055-.002-.119-.04-.163.016-.02.029-.044.029-.075s-.015-.064-.042-.084c.013-.022.016-.051.02-.079 0-.02 0-.04-.007-.057.033-.022.055-.055.069-.099s.006-.11 0-.161v-.022h.008c.161-.048.222-.209.246-.36.033-.19-.008-.379.022-.569.007-.044.02-.091.016-.135 0-.035-.009-.075-.016-.11-.013-.093-.019-.19-.054-.28a.52.52 0 0 0-.317-.289c0-.212-.013-.428-.068-.638-.027-.104-.049-.205-.055-.313s0-.223 0-.335c0-.154-.009-.342-.141-.443.062-.106.077-.21.084-.316l.013-.329c-.002-.068-.02-.146-.077-.183.051-.071.064-.161.075-.247l.009-.113c.033.09.09.17.12.26.027.077.033.161.044.24.014.086.044.161.075.245.033.093.002.177.013.271a.34.34 0 0 0 .064.159.54.54 0 0 0 .086.09c-.049.077.028.199.096.26-.021.051-.013.11-.041.161l-.106.17c-.042.077-.121.212-.05.296.057.071.169.042.239.007.079-.042.141-.112.176-.194.022.044.048.097.042.141s-.027.086-.042.126c-.033.007-.061.015-.09.029-.092.035-.169.126-.163.229.007.097.09.139.181.141.055 0 .112-.007.169-.013.064-.007.121-.016.176-.051a.64.64 0 0 0 .312-.406c.05-.212-.044-.415-.044-.624v-.007c.022-.02.039-.044.048-.077.02-.048.042-.132.002-.176.022-.033.04-.068.044-.106a.56.56 0 0 0 0-.163c.068-.022.119-.104.128-.168.02-.11-.064-.216-.071-.322l-.063.048.002-.004zm-5.42-5.522s.013-.02.015-.033c.002.022.033.04.048.016.016-.004.024.002.042 0s.022-.007.033-.013c.002.007.013.013.022.013-.105.044-.198.128-.294.194a1.1 1.1 0 0 1-.11.064v-.02s.013-.022.006-.033c.007-.002.013-.009.013-.015v-.009c.016-.007.022-.02.022-.035.027-.016.033-.026.04-.04.022 0 .044-.013.057-.033h.002l.013-.026c.009 0 .02 0 .029-.007s.013-.016.02-.022c.013.009.035.013.048-.002h-.006v.002zm-.554 4.977c.019-.062.044-.128.022-.19.039-.04.061-.084.048-.135.022-.04.029-.084.015-.126.027-.026.051-.057.077-.09a1.6 1.6 0 0 0 .029.574c-.026.009-.048.026-.064.051h-.006c-.064.009-.106.049-.132.104h-.009c-.04.013-.068.04-.086.071.04-.086.075-.174.103-.26h.003v.002zm-9.645 4.834c-4.636-8.774.591-18.285 10.678-19.251 2.717-.258-1.332-.278-1.873-.216-4.247.457-7.486 2.74-9.775 6.226 5.889-9.511 19.183-9.215 23.706.931 1.053 2.356-.215-1.343-.426-1.78-1.902-3.94-5.456-6.25-9.757-6.983 11.199 1.829 15.817 13.749 7.807 21.909-1.835 1.871 1.2-.686 1.528-1.032 3.618-3.845 4.016-8.776 2.239-13.535 1.075 1.427 1.348 5.809 1.042 7.662-1.25 7.596-8.192 11.719-15.768 10.309-2.662-.496 1.094.538 1.789.638 6.642.951 12.06-2.817 14.371-8.811-3.897 11.598-19.58 12.827-24.829 1.52-.636-1.374.507 1.584.558 1.688 2.899 5.976 9.671 8.072 15.933 6.327-12.018 3.631-22.03-7.609-16.324-18.346 1.132-2.131-.282.035-.592.582-3.154 5.593-1.732 11.408 2.62 15.917-1.27-1.233-2.033-2.222-2.927-3.755zm4.475-15.441c1.264-.777 3.429-1.858 4.97-1.619-.282.223-2.739 1.004-3.849 1.697-5.491 3.411-6.528 10.151-2.976 15.39-2.009-3.358-2.59-7.276-.497-10.764 1.084-1.809-.259 1.683-.343 2.038-1.541 6.671 3.807 12.699 10.683 12.833 1.303.029-1.196-.154-1.559-.225-2.448-.47-4.715-1.725-6.174-3.744-1.119-1.547 1.877 1.092 2.046 1.205 5.759 3.881 13.248 1.277 16.094-4.803.565-1.207-.65 1.079-.93 1.458-1.09 1.487-3.002 3.175-4.868 3.589-1.409.313 1.69-1.485 1.998-1.732 5.266-4.231 4.987-12.253-.103-16.604 2.138 2.29 3.604 4.761 3.308 8.002-.141 1.516-.552-1.593-.633-1.891-1.7-6.376-8.395-9.601-14.672-7.479-1.724.582 1.222-.296 1.831-.384 3.33-.47 6.708.496 9.064 2.903 1.425 1.458-1.655-.854-2.347-1.165-5.9-2.663-12.654.013-15.033 5.992 1.056-1.968 2.111-3.404 3.994-4.697l-.004-.002z"/><path d="M180.523 80.939a.92.92 0 0 1 .129-.007h.086v.201h-.086c-.028 0-.057.002-.085.007h-.086c-.158.02-.277.117-.356.293a1.27 1.27 0 0 0-.112.558v.843.207.807.022.022.035a1.27 1.27 0 0 0 .138.551c.084.161.205.243.365.243h.22.116.121v-1.688a3.17 3.17 0 0 1 .053-.587 3.05 3.05 0 0 1 .138-.523c.112-.3.264-.54.455-.721s.4-.269.629-.265h.446v-.007h.134.082v.201h-.082c-.028 0-.057.002-.085.007h-.086c-.158.02-.277.117-.356.293a1.24 1.24 0 0 0-.108.558v1.851.022.022.035a.9.9 0 0 0 .013.157.85.85 0 0 0 .031.157c.002-.009.007-.018.013-.022s.011-.02.018-.029c.055-.082.119-.146.191-.194s.147-.071.224-.071h1.148c.116 0 .215-.066.299-.201s.127-.296.134-.485v-.172a1.87 1.87 0 0 0 .321-.179 1.88 1.88 0 0 0 .285-.249c.11-.115.196-.267.255-.457a1.83 1.83 0 0 0 .095-.6v-.644h.125v.865.673.565a2.7 2.7 0 0 1-.048.523 2.45 2.45 0 0 1-.126.472 1.8 1.8 0 0 1-.406.651c-.174.161-.363.243-.567.243h-.277-1.009-1.937-.233-.224-1.714v-1.895c0-.205.017-.402.052-.587a3.08 3.08 0 0 1 .139-.523c.112-.296.264-.534.455-.715a.87.87 0 0 1 .629-.265h.224.224-.004zm11.805 1.893h.005v.099.099 1.888h-2.383-.264-3.904a2.56 2.56 0 0 1 .143-.823c.094-.278.233-.512.411-.693s.372-.326.598-.421a1.79 1.79 0 0 1 .701-.15h1.416 1.42.022.026.086c.086 0 .163-.026.224-.079a.57.57 0 0 0 .161-.201c.077-.152.118-.335.12-.552a1.25 1.25 0 0 0-.107-.558c-.04-.082-.09-.148-.147-.201a.37.37 0 0 0-.214-.093c-.028 0-.057-.002-.085-.007h-.082-.817c-.15.009-.295.062-.433.157s-.264.225-.372.386c-.055.082-.116.143-.187.185a.39.39 0 0 1-.222.07h-1.151c-.117 0-.214.066-.295.201-.084.128-.128.289-.134.479v.179c-.112.049-.22.108-.321.179a1.8 1.8 0 0 0-.286.243c-.112.119-.209.249-.29.393s-.141.022-.187.179v-.966a2.73 2.73 0 0 1 .152-.929c.099-.287.229-.512.389-.68.09-.09.185-.159.286-.207s.206-.071.316-.071h.282.428 2.495.347.13.571a.76.76 0 0 1 .321.071c.101.049.196.117.286.207.163.168.292.393.389.68a2.86 2.86 0 0 1 .152.929l.004.007zm-1.719 1.86c.086 0 .163-.026.225-.079a.58.58 0 0 0 .16-.201c.077-.152.119-.335.121-.552a1.25 1.25 0 0 0-.108-.558.66.66 0 0 0-.147-.201c-.062-.053-.132-.084-.213-.093h-.066a.31.31 0 0 0-.062-.007h-.048-.789-1.022-1.027a.47.47 0 0 0-.081.007h-.086c-.081.009-.151.04-.213.093a.56.56 0 0 0-.147.201 1.23 1.23 0 0 0-.108.558 1.17 1.17 0 0 0 .121.552.5.5 0 0 0 .16.201.34.34 0 0 0 .225.079h2.178.259.334.33.004zm7.636-1.866c.295.037.543.238.745.6s.304.783.304 1.28v1.238c-.047-.157-.108-.307-.187-.45s-.178-.274-.29-.393a2.17 2.17 0 0 0-.286-.243c-.101-.071-.209-.13-.321-.179V84.5a.93.93 0 0 0-.134-.479c-.084-.132-.183-.201-.299-.201h-1.147a.44.44 0 0 1-.225-.064.68.68 0 0 1-.182-.194 1.49 1.49 0 0 0-.385-.393.81.81 0 0 0-.45-.143c.015-.004.033-.007.057-.007h-1.477v.843a1.26 1.26 0 0 0 .107.565c.077.176.198.271.361.287a.61.61 0 0 0 .086.007h.085.086v.201h-.086-.129a1.6 1.6 0 0 1-.633-.172 1.83 1.83 0 0 1-.537-.393 1.91 1.91 0 0 1-.411-.708 2.55 2.55 0 0 1-.143-.823v-1.895h1.941 4.61a2.44 2.44 0 0 1-.148.823 1.88 1.88 0 0 1-.406.701 1.9 1.9 0 0 1-.238.207c-.085.062-.173.117-.264.166l-.004-.002zm-.629-.029a.37.37 0 0 0 .218-.099.65.65 0 0 0 .152-.214c.072-.157.105-.344.099-.558s-.051-.397-.134-.552a.66.66 0 0 0-.161-.179c-.064-.049-.132-.071-.218-.071h-1.441-1.438-.218c-.162 0-.283.084-.369.249s-.132.351-.138.552v.029.022.022.807h.637 1.42 1.42.081c.029-.004.057-.007.086-.007l.004-.002zm7.463-1.857c.112 0 .22.024.321.071.103.053.2.124.286.214.162.168.292.391.393.673a2.84 2.84 0 0 1 .152.929v1.229c-.046-.157-.108-.307-.187-.45a2.03 2.03 0 0 0-.29-.393h-.005a.64.64 0 0 0-.204-.143.59.59 0 0 0-.218-.042h-1.767-1.763-.316-.057c-.02 0-.04.002-.062.007h-.472v.836a1.28 1.28 0 0 0 .107.565c.077.172.198.265.361.278a.61.61 0 0 0 .085.007h.086.086v.207h-.086a1.58 1.58 0 0 1-.129-.007h-.576c-.11 0-.216-.024-.317-.071a1.16 1.16 0 0 1-.29-.214c-.163-.168-.292-.391-.393-.673s-.148-.591-.148-.929v-.201-1.895h1.724.129.086.255 2.495.428.139.138l.009.002zm-3.543 1.866h3.611v-.201c-.006-.19-.05-.353-.134-.485s-.182-.194-.299-.194h-1.147a.4.4 0 0 1-.222-.071.58.58 0 0 1-.187-.185c-.112-.168-.237-.296-.376-.386a.84.84 0 0 0-.429-.157h-.411-.406-.035a.7.7 0 0 0-.104.007c-.033.005-.072.007-.103.007a.49.49 0 0 0-.29.287c-.066.152-.103.32-.108.501v.029.022.022.807h.594.026.022l-.002-.002zm5.15 2.116v-1.043-1.05a2.7 2.7 0 0 1 .048-.523 2.47 2.47 0 0 1 .126-.465c.099-.267.233-.481.402-.644s.358-.249.563-.249l1.244-.007h.263 3.904a2.49 2.49 0 0 1-.147.83 1.88 1.88 0 0 1-.407.693 1.72 1.72 0 0 1-.598.421 1.71 1.71 0 0 1-.701.15h-1.42-1.415-.022-.027-.085c-.086 0-.163.026-.225.079a.52.52 0 0 0-.16.201 1.18 1.18 0 0 0-.125.552c-.002.217.033.401.107.558.038.082.086.148.148.201a.38.38 0 0 0 .213.093.5.5 0 0 1 .086.007h.085.814c.149-.009.294-.062.433-.157s.263-.225.371-.386a.6.6 0 0 1 .187-.185c.07-.049.143-.071.22-.071h1.147c.117 0 .216-.066.299-.201.084-.128.128-.289.134-.479v-.179c.112-.049.22-.108.321-.179a2.11 2.11 0 0 0 .286-.243c.112-.119.209-.249.29-.393s.189-.185.235-.342l-.048 1.127c0 .181-.016.355-.049.523-.028.172-.07.329-.125.472-.101.267-.237.483-.407.651-.171.161-.36.243-.567.243h-.277-.428-2.495-.343-.13-.861-.862l-.002-.004zm1.723-3.797a.36.36 0 0 0-.22.071.69.69 0 0 0-.156.179 1.22 1.22 0 0 0-.134.552c-.008.214.022.401.095.558a.62.62 0 0 0 .152.221.38.38 0 0 0 .222.099.32.32 0 0 1 .065.007h.062.048.785 1.031 1.026.082a.61.61 0 0 1 .085-.007c.082-.009.152-.04.214-.093a.68.68 0 0 0 .147-.201 1.23 1.23 0 0 0 .108-.558c-.003-.214-.044-.397-.121-.552a.66.66 0 0 0-.161-.201.34.34 0 0 0-.224-.079h-2.187-.255-.33-.329l-.005.004zm10.685-.201c.204 0 .393.082.567.243s.306.38.407.651c.055.143.096.3.125.472s.048.344.048.529v2.103h-1.424-1.589-1.589-.798c-.205 0-.394-.084-.567-.249s-.306-.38-.407-.651c-.055-.143-.097-.3-.125-.472a3.24 3.24 0 0 1-.049-.529v-.137-.035-.029-.951-.944h.603.606.264.125.126.129.044.044 3.183.138.139zm.061 2.303v-.143-.479c-.006-.19-.05-.353-.134-.485s-.182-.194-.299-.194h-1.147a.4.4 0 0 1-.224-.071.66.66 0 0 1-.183-.185 1.64 1.64 0 0 0-.384-.401.81.81 0 0 0-.451-.143h-.347-.352-.178c-.015 0-.028.002-.039.007h-.04c-.057.009-.112.029-.16.057a.65.65 0 0 0-.126.121h-.004v.007c-.015.018-.018.022-.018.026-.019.018-.022.022-.022.026a.86.86 0 0 0-.077.179 2.21 2.21 0 0 0-.048.207c-.007.038-.009.077-.009.115l-.004.108v1.844.022.022.013a1.24 1.24 0 0 0 .066.406.74.74 0 0 0 .173.3l.018.013h.004a.36.36 0 0 0 .099.064c.031.013.068.024.108.029.009.004.018.007.026.007h.027.901a.82.82 0 0 0 .451-.143 1.44 1.44 0 0 0 .384-.402.6.6 0 0 1 .187-.185c.07-.049.143-.071.22-.071h1.147c.117 0 .216-.064.299-.194s.128-.296.134-.485l.002.009zm-38.773 4.269l-.459 1.286h-.488l-.675-1.895h.563l.415 1.249.425-1.249h.562l.416 1.249.424-1.249H182l-.675 1.895h-.488l-.455-1.286zm3.621-.609h.487l.943 1.895h-.591l-.178-.357h-.982l-.178.357h-.449l.943-1.895h.005zm.468 1.147l-.297-.596-.297.596h.594zm2.426-1.147h1.629c.25 0 .389.139.389.391v.176c0 .252-.139.384-.389.384v.026c.25 0 .389.135.389.386v.529h-.55v-.682c0-.051-.028-.082-.081-.082h-.835v.763h-.55v-1.895l-.002.002zm1.387.741c.05 0 .081-.031.081-.082v-.19c0-.051-.028-.082-.081-.082h-.835v.351h.835v.002zm2.22-.741h1.629c.25 0 .389.139.389.39v.351a.35.35 0 0 1-.389.391h-1.08v.763h-.549v-1.895zm1.387.741c.05 0 .081-.031.081-.082v-.19c0-.051-.028-.082-.081-.082h-.835v.351h.835v.002zm2.189-.741h2.011v.39h-1.461v.351h1.263v.391h-1.263v.373h1.461v.391h-2.011v-1.895zm3.581 0h1.628c.251 0 .389.139.389.39v1.114c0 .251-.138.391-.389.391h-1.628v-1.895zm1.387 1.505c.05 0 .081-.029.081-.082v-.953c0-.051-.029-.082-.081-.082h-.836v1.114h.836v.002zm4.172-1.115c0-.251.136-.39.389-.39h1.239a.35.35 0 0 1 .39.39v.227h-.55v-.146c0-.051-.029-.082-.081-.082h-.756c-.051 0-.082.029-.082.082v.953c0 .051.029.082.082.082h.756c.05 0 .081-.029.081-.082v-.291h-.598v-.391h1.15v.763a.35.35 0 0 1-.389.391h-1.24c-.251 0-.389-.139-.389-.391v-1.114l-.002-.002zm4.358-.39h.488l.943 1.895h-.591l-.178-.357h-.983l-.178.357h-.448l.943-1.895h.004zm.468 1.147l-.296-.596-.297.596h.593zm2.847.748h-.42v-1.895h.668l.627 1.255.626-1.255h.69v1.895h-.549v-1.288l-.609 1.288h-.389l-.642-1.288v1.288h-.002zm3.81-1.895h2.011v.39h-1.462v.351h1.264v.391h-1.264v.373h1.462v.391h-2.011v-1.895zm3.547 1.31h.55v.115c0 .051.028.082.081.082h.756c.051 0 .081-.029.081-.082V88.1c0-.051-.028-.082-.081-.082h-.998c-.251 0-.389-.139-.389-.391v-.351c0-.251.138-.39.389-.39h1.24c.25 0 .389.139.389.39v.194h-.55v-.115c0-.051-.028-.082-.081-.082h-.756c-.051 0-.081.029-.081.082v.19c0 .051.028.082.081.082h.998c.25 0 .389.139.389.391v.373a.35.35 0 0 1-.389.391h-1.24c-.251 0-.389-.139-.389-.391v-.194zm1.433 4.77h.558v-2.433h-.558v2.433zm-3.934 0h1.773v-2.433h-1.773v2.433zm-2.361 0h.508v-2.433h-.508v2.433zm-.789 0h.325v-2.433h-.325v2.433zm-1.748 0h1.128v-2.433h-1.128v2.433zm-1.107 0h.303v-2.433h-.303v2.433zm-1.148 0h.558v-2.433h-.558v2.433zm-3.932 0h1.774v-2.433h-1.774v2.433zm2.516 0h.539v-2.433h-.539v2.433zm-4.877 0h.508v-2.433h-.508v2.433zm-.789 0h.325v-2.433h-.325v2.433zm-1.748 0h1.128v-2.433h-1.128v2.433zm-1.107 0h.303v-2.433h-.303v2.433zm-1.088 0h.558v-2.433h-.558v2.433zm-2.77 0h1.774v-2.433h-1.774v2.433zm-1.018 0h.508v-2.433h-.508v2.433zm-.788 0h.325v-2.433h-.325v2.433zm-1.748 0h1.128v-2.433h-1.128v2.433zm-1.11 0h.303v-2.433h-.303v2.433zm-1.146 0h.559v-2.433h-.559v2.433zm-3.932 0h1.774v-2.433h-1.774v2.433zm2.515 0h.538v-2.433h-.538v2.433zm-4.877 0h.508v-2.433h-.508v2.433zm-.787 0h.325v-2.433h-.325v2.433zm-1.748 0h1.128v-2.433h-1.128v2.433zm-1.11 0h.303v-2.433h-.303v2.433z"/></g><path d="M78.477 32l-2.535-7.125L73.392 32h-2.715l-3.75-10.5h3.135l2.31 6.915 2.355-6.915h3.135l2.31 6.915 2.355-6.915h2.415L81.192 32h-2.715zm5.141 0l5.25-10.5h2.715l5.25 10.5h-3.285l-.99-1.98h-5.46l-.99 1.98h-2.49zm4.56-4.14h3.3l-1.65-3.3-1.65 3.3zM97.767 32V21.5h9.06c1.395 0 2.16.765 2.16 2.16v.975c0 1.395-.765 2.13-2.16 2.13v.15c1.395 0 2.16.75 2.16 2.145V32h-3.06v-3.78c0-.285-.165-.45-.45-.45h-4.65V32h-3.06zm3.06-6.39h4.65c.285 0 .45-.165.45-.45v-1.05c0-.285-.165-.45-.45-.45h-4.65v1.95zM110.62 32V21.5h9.06c1.395 0 2.16.765 2.16 2.16v1.95c0 1.395-.765 2.16-2.16 2.16h-6V32h-3.06zm3.06-6.39h4.65c.285 0 .45-.165.45-.45v-1.05c0-.285-.165-.45-.45-.45h-4.65v1.95zm9.633 6.39V21.5h11.19v2.16h-8.13v1.95h7.035v2.16h-7.035v2.07h8.13V32h-11.19zm12.707 0V21.5h9.06c1.395 0 2.16.765 2.16 2.16v6.18c0 1.395-.765 2.16-2.16 2.16h-9.06zm3.06-2.16h4.65c.285 0 .45-.165.45-.45v-5.28c0-.285-.165-.45-.45-.45h-4.65v6.18z" fill="#000001"/><path d="M159.865 29.84v-6.18c0-1.395.765-2.16 2.16-2.16h6.9c1.395 0 2.16.765 2.16 2.16v1.26h-3.06v-.81c0-.285-.165-.45-.45-.45h-4.2c-.285 0-.45.165-.45.45v5.28c0 .285.165.45.45.45h4.2c.285 0 .45-.165.45-.45v-1.62h-3.33v-2.16h6.39v4.23c0 1.395-.765 2.16-2.16 2.16h-6.9c-1.395 0-2.16-.765-2.16-2.16zM171.66 32l5.25-10.5h2.715l5.25 10.5h-3.285l-.99-1.98h-5.46l-.99 1.98h-2.49zm4.56-4.14h3.3l-1.65-3.3-1.65 3.3zm11.929-3V32h-2.34V21.5h3.72l3.48 6.96 3.48-6.96h3.84V32h-3.06v-7.14l-3.39 7.14h-2.16l-3.57-7.14zM202.134 32V21.5h11.19v2.16h-8.13v1.95h7.035v2.16h-7.035v2.07h8.13V32h-11.19zm12.527-2.16v-1.08h3.06v.63c0 .285.165.45.45.45h4.2c.285 0 .45-.165.45-.45v-1.17c0-.285-.165-.45-.45-.45h-5.55c-1.395 0-2.16-.765-2.16-2.16v-1.95c0-1.395.765-2.16 2.16-2.16h6.9c1.395 0 2.16.765 2.16 2.16v1.08h-3.06v-.63c0-.285-.165-.45-.45-.45h-4.2c-.285 0-.45.165-.45.45v1.05c0 .285.165.45.45.45h5.55c1.395 0 2.16.765 2.16 2.16v2.07c0 1.395-.765 2.16-2.16 2.16h-6.9c-1.395 0-2.16-.765-2.16-2.16z" fill="#0f14ff"/><defs><radialGradient id="A" cx="0" cy="0" r="1" gradientUnits="userSpaceOnUse" gradientTransform="translate(168.336 49.8916) rotate(103.367) scale(103.812 185.592)"><stop offset=".345" stop-color="#fcfcf9"/><stop offset=".911" stop-color="#494e5b"/></radialGradient></defs></svg>