<svg width="37" height="50" viewBox="0 0 37 50" fill="none" xmlns="http://www.w3.org/2000/svg">
<path d="M32.5879 21.2891L19.4531 0.771484C19.1504 0.302734 18.6328 0 18.0371 0C17.4414 0 16.9238 0.302734 16.6309 0.771484V0.78125L3.48633 21.2891C1.30859 24.2188 0 27.9102 0 31.9043V31.9531C0 41.9043 8.08594 50 18.0371 50C27.9883 50 36.0742 41.9043 36.0742 31.9629V31.9141C36.0742 27.9199 34.7656 24.2285 32.5488 21.25L32.5879 21.2891ZM18.0371 46.6406C9.94141 46.6406 3.34961 40.0586 3.34961 31.9531V31.9141C3.34961 28.6426 4.42383 25.6348 6.24023 23.1934L6.2207 23.2422L6.28906 23.1543L18.0371 4.79492L29.7949 23.1445L29.8633 23.2324C31.6504 25.625 32.7344 28.6426 32.7344 31.9141V31.9531C32.7246 40.0586 26.1426 46.6406 18.0371 46.6406Z" fill="#FCFCF9"/>
</svg>
