<svg width="24" height="18" viewBox="0 0 24 18" fill="none" xmlns="http://www.w3.org/2000/svg">
<path d="M21.3277 5.79473C21.3277 5.63086 21.0819 4.31279 20.5048 3.73569C19.7638 2.91279 18.9409 2.83086 18.5277 2.83086H18.4457C15.8915 2.66699 12.1012 2.66699 12.0193 2.66699C12.0193 2.66699 8.14702 2.66699 5.59282 2.83086H5.51089C5.09766 2.83086 4.27475 2.91279 3.53379 3.73569C2.95669 4.39473 2.70732 5.71279 2.70732 5.87666C2.70732 5.9586 2.54346 7.44053 2.54346 9.00796V10.408C2.54346 11.9718 2.70732 13.4573 2.70732 13.5393C2.70732 13.7031 2.95313 15.0212 3.53023 15.5983C4.18926 16.3393 5.01216 16.4212 5.50732 16.5031H5.75313C7.23506 16.667 11.7664 16.667 11.9338 16.667C11.9338 16.667 15.8061 16.667 18.3603 16.5031H18.4422C18.8554 16.4212 19.6783 16.3393 20.4193 15.5983C20.9964 14.9393 21.2422 13.6212 21.2422 13.4573C21.2422 13.3754 21.4061 11.8935 21.4061 10.326V8.92602C21.488 7.44409 21.3241 5.87666 21.3241 5.79473H21.3277ZM15.2325 9.83086L10.288 12.467C10.2061 12.467 10.2061 12.5489 10.1241 12.5489C10.0422 12.5489 9.96025 12.5489 9.96025 12.467C9.87832 12.3851 9.79638 12.3031 9.79638 12.1357V6.7815C9.79638 6.61763 9.87832 6.53569 9.96025 6.4502C10.0422 6.3647 10.2061 6.36826 10.3735 6.4502L15.318 9.08633C15.4819 9.16826 15.5638 9.2502 15.5638 9.41763C15.5638 9.58506 15.3999 9.74893 15.2325 9.83086Z" fill="#000001"/>
</svg>
